<svg width="881" height="638" viewBox="0 0 881 638" fill="none" xmlns="http://www.w3.org/2000/svg">
<rect width="881" height="638" fill="black"/>
<path d="M712.6 54.3622C719.489 48.4984 727.362 38.5299 715.552 33.8389C700.79 27.9751 668.313 54.3621 671.265 66.0897C673.627 75.4718 684.059 83.6811 688.98 86.613L671.265 107.136L677.17 113L742.124 63.1578L745.077 48.4984L706.695 71.9535C699.806 74.8854 686.028 76.6445 686.028 60.2259C686.028 43.8073 704.726 48.4984 712.6 54.3622Z" fill="white"/>
<path d="M166.616 291.067C162.509 285.777 152.544 277.755 145.536 287.98C144.654 291.2 143.074 298.068 143.808 299.782C144.725 301.926 162.613 304.544 165.724 311.027C170.822 317.801 183.278 338.108 185.514 356.116C188.49 335.79 196.089 294.979 202.679 294.337C209.269 293.694 215.833 296.932 218.291 298.632L223.158 279.253C216.446 274.252 201.595 268.462 195.881 285.305C190.167 302.149 185.667 327.341 184.131 337.831L166.616 291.067Z" fill="white" stroke="white" stroke-width="0.657143"/>
<path d="M445.408 403L443.576 410.619L367.891 451.209L369.146 442.741L445.408 403Z" fill="white"/>
<path d="M302.622 532L291.471 554.951L259.875 533.836L244.077 565.049L276.602 588L291.471 565.049L321.208 585.246L336.077 554.951L319.349 543.475L302.622 532Z" fill="url(#paint0_linear_3_40)"/>
<path d="M339.356 222.856L305.573 201L285.111 227.943L318.928 249.508L339.356 222.856Z" fill="url(#paint1_linear_3_40)"/>
<path fill-rule="evenodd" clip-rule="evenodd" d="M646.383 282.652C657.207 279.859 681.308 284.467 694.008 328.031C697.135 342.226 699.059 375.364 681.741 394.353C660.093 418.09 593.706 483.016 544.638 469.054C495.569 455.091 507.114 386.674 521.546 352.465C525.876 342.691 531.937 332.08 521.546 367.824C508.558 412.505 527.319 461.374 587.933 437.638C637.002 415.995 705.554 362.937 678.133 355.258C668.031 353.163 658.65 351.767 644.218 351.069C629.793 350.371 620.514 343.406 619.684 339.899C611.746 306.388 636.28 284.746 646.383 282.652ZM642.053 309.181C654.753 307.505 664.663 318.722 668.031 324.54C657.688 325.936 636.425 326.774 634.116 318.955C631.807 311.136 638.445 309.181 642.053 309.181Z" fill="white"/>
<path d="M642.053 309.181C654.753 307.505 664.663 318.722 668.031 324.54C657.688 325.936 636.425 326.774 634.116 318.955C631.807 311.136 638.445 309.181 642.053 309.181Z" fill="black"/>
<path fill-rule="evenodd" clip-rule="evenodd" d="M646.383 282.652C657.207 279.859 681.308 284.467 694.008 328.031C697.135 342.226 699.059 375.364 681.741 394.353C660.093 418.09 593.706 483.016 544.638 469.054C495.569 455.091 507.114 386.674 521.546 352.465C525.876 342.691 531.937 332.08 521.546 367.824C508.558 412.505 527.319 461.374 587.933 437.638C637.002 415.995 705.554 362.937 678.133 355.258C668.031 353.163 658.65 351.767 644.218 351.069C629.793 350.371 620.514 343.406 619.684 339.899C611.746 306.388 636.28 284.746 646.383 282.652ZM642.053 309.181C654.753 307.505 664.663 318.722 668.031 324.54C657.688 325.936 636.425 326.774 634.116 318.955C631.807 311.136 638.445 309.181 642.053 309.181Z" stroke="white"/>
<path d="M642.053 309.181C654.753 307.505 664.663 318.722 668.031 324.54C657.688 325.936 636.425 326.774 634.116 318.955C631.807 311.136 638.445 309.181 642.053 309.181Z" stroke="white"/>
<path fill-rule="evenodd" clip-rule="evenodd" d="M661.134 215.558C659.452 213.89 654.792 214.986 649.604 232.721C644.415 250.456 653.687 249.169 658.972 246.309C660.894 245.593 664.593 242.304 664.016 234.867C663.44 227.429 658.011 223.663 655.369 222.71C656.089 219.849 658.251 214.414 661.134 215.558ZM651.765 240.588C650.036 238.299 652.486 232.006 653.927 229.146C663.728 235.439 661.374 239.396 658.972 240.588C657.29 241.541 653.495 242.876 651.765 240.588Z" fill="white"/>
<path d="M457.577 324.5C470.577 300.167 499.577 255 528.577 257.5C559.293 260.148 588.077 283.05 579.577 289C567.072 297.754 505.577 342.5 457.577 324.5C453.809 331.576 448.299 342.127 443.844 351.243C481.896 371.615 547.108 343.106 578.077 316.5C605.551 292.895 598.077 265.833 592.577 257C577.41 237.833 536.877 208.6 496.077 245C472.216 266.287 455.515 294.882 444.793 319.824C448.264 321.695 452.484 323.333 457.577 324.5Z" fill="white"/>
<path d="M443.844 351.243C448.299 342.127 453.809 331.576 457.577 324.5C452.484 323.333 448.264 321.695 444.793 319.824C440.832 329.038 437.687 337.754 435.299 345.418C437.954 347.687 440.813 349.62 443.844 351.243Z" fill="white"/>
<path d="M421.077 328L429.077 339C430.996 341.385 433.076 343.519 435.299 345.418C437.687 337.754 440.832 329.038 444.793 319.824C435.178 314.641 431.311 307.674 430.577 304C434.577 276.8 421.077 300 410.077 315C384.077 352 349.577 335 337.077 308.5C327.077 287.3 303.577 300.667 293.077 310C252.277 343.2 248.41 377.5 251.577 390.5C253.577 410.9 283.577 416 324.577 424.5C345.077 427.5 301.243 450.333 274.077 463C206.077 492.2 166.743 486.167 155.577 479.5C97.9766 454.7 116.243 387.5 132.577 357C139.377 338.6 132.577 342 128.077 347C65.2766 468.2 141.577 521.5 173.077 520.5C259.077 520.5 336.856 458.5 345.077 437C355.477 409.8 341.577 396.667 333.577 394.5C295.977 387.7 276.91 379.333 272.077 376C260.077 369.6 272.077 359.754 278.577 352C301.377 324.8 317.743 325.333 321.077 329.5C361.077 399 404.577 357 421.077 328Z" fill="white"/>
<path d="M430.577 363.5C431.377 376.7 434.91 372 436.577 368C437.294 365.129 440.22 358.661 443.844 351.243C440.813 349.62 437.954 347.687 435.299 345.418C433.098 352.483 431.539 358.654 430.577 363.5Z" fill="white"/>
<path d="M457.577 324.5C470.577 300.167 499.577 255 528.577 257.5C559.293 260.148 588.077 283.05 579.577 289C567.072 297.754 505.577 342.5 457.577 324.5ZM457.577 324.5C453.809 331.576 448.299 342.127 443.844 351.243M457.577 324.5C452.484 323.333 448.264 321.695 444.793 319.824M443.844 351.243C481.896 371.615 547.108 343.106 578.077 316.5C605.551 292.895 598.077 265.833 592.577 257C577.41 237.833 536.877 208.6 496.077 245C472.216 266.287 455.515 294.882 444.793 319.824M443.844 351.243C440.22 358.661 437.294 365.129 436.577 368C434.91 372 431.377 376.7 430.577 363.5C431.539 358.654 433.098 352.483 435.299 345.418M443.844 351.243C440.813 349.62 437.954 347.687 435.299 345.418M444.793 319.824C435.178 314.641 431.311 307.674 430.577 304C434.577 276.8 421.077 300 410.077 315C384.077 352 349.577 335 337.077 308.5C327.077 287.3 303.577 300.667 293.077 310C252.277 343.2 248.41 377.5 251.577 390.5C253.577 410.9 283.577 416 324.577 424.5C345.077 427.5 301.243 450.333 274.077 463C206.077 492.2 166.743 486.167 155.577 479.5C97.9766 454.7 116.243 387.5 132.577 357C139.377 338.6 132.577 342 128.077 347C65.2766 468.2 141.577 521.5 173.077 520.5C259.077 520.5 336.856 458.5 345.077 437C355.477 409.8 341.577 396.667 333.577 394.5C295.977 387.7 276.91 379.333 272.077 376C260.077 369.6 272.077 359.754 278.577 352C301.377 324.8 317.743 325.333 321.077 329.5C361.077 399 404.577 357 421.077 328L429.077 339C430.996 341.385 433.076 343.519 435.299 345.418M444.793 319.824C440.832 329.038 437.687 337.754 435.299 345.418" stroke="white"/>
<path d="M726.922 163.919C718.524 157.25 706.761 146.179 703.058 139.681C706.016 148.582 709.114 163.37 709.077 183.5C709.01 219.5 736.077 387.5 732.077 409.5C728.877 427.1 731.476 432.167 733.175 432.5C768.774 426 723.077 181.5 723.577 169.5C723.761 165.084 725.164 163.735 726.922 163.919Z" fill="white"/>
<path d="M715.577 113.5C712.743 107.667 706.577 99.1 704.577 111.5L703.315 116.546C701.989 122.559 700.768 130.695 701.738 136.05C702.167 137.125 702.611 138.336 703.058 139.681C706.761 146.179 718.524 157.25 726.922 163.919C728.986 164.136 731.537 166.469 733.175 168.437C734.297 169.119 735.131 169.5 735.577 169.5C739.077 169.5 737.077 163.5 735.577 160.5C734.377 158.1 721.743 128.167 715.577 113.5Z" fill="white"/>
<path d="M704.577 111.5C706.577 99.1 712.743 107.667 715.577 113.5C721.743 128.167 734.377 158.1 735.577 160.5C737.077 163.5 739.077 169.5 735.577 169.5C735.131 169.5 734.297 169.119 733.175 168.437M704.577 111.5L703.315 116.546M704.577 111.5C704.194 112.841 703.749 114.58 703.315 116.546M706.077 131.5C715.41 141.167 733.677 160.5 732.077 160.5C730.477 160.5 732.142 165.792 733.175 168.437M733.175 168.437C731.537 166.469 728.986 164.136 726.922 163.919M733.175 168.437C731.577 167.466 729.395 165.884 726.922 163.919M726.922 163.919C718.524 157.25 706.761 146.179 703.058 139.681M726.922 163.919C725.164 163.735 723.761 165.084 723.577 169.5C723.077 181.5 768.774 426 733.175 432.5C731.476 432.167 728.877 427.1 732.077 409.5C736.077 387.5 709.01 219.5 709.077 183.5C709.114 163.37 706.016 148.582 703.058 139.681M703.058 139.681C702.601 138.879 702.267 138.146 702.077 137.5C701.943 137.045 701.831 136.56 701.738 136.05M703.058 139.681C702.611 138.336 702.167 137.125 701.738 136.05M703.315 116.546C701.989 122.559 700.768 130.695 701.738 136.05M703.315 116.546L699.577 131.5C700.2 132.542 700.944 134.063 701.738 136.05" stroke="white"/>
<path d="M593.5 355.204C595.667 356.538 597.5 359.604 587.5 361.204C585.694 361.493 584.222 361.668 583 361.778C575.761 362.433 577.272 360.86 570 367.704C563.776 373.562 561.573 376.739 559.466 378.021C561.95 377.009 565.803 374.73 570.5 370.204C579 362.015 577 363.704 584.5 363.704C592 363.704 602.5 357.704 595 353.204C593.5 352.304 588.2 354.237 583 361.778C589 355.037 592.5 354.587 593.5 355.204Z" fill="white"/>
<path d="M583 361.778C584.222 361.668 585.694 361.493 587.5 361.204C597.5 359.604 595.667 356.538 593.5 355.204C592.5 354.587 589 355.037 583 361.778ZM583 361.778C575.761 362.433 577.272 360.86 570 367.704C563.776 373.562 561.573 376.739 559.466 378.021M583 361.778C588.2 354.237 593.5 352.304 595 353.204C602.5 357.704 592 363.704 584.5 363.704C577 363.704 579 362.015 570.5 370.204C565.803 374.73 561.95 377.009 559.466 378.021M559.466 378.021C558.353 378.474 557.516 378.672 557 378.704C557.937 378.704 558.695 378.489 559.466 378.021Z" stroke="white"/>
<defs>
<linearGradient id="paint0_linear_3_40" x1="290.077" y1="532" x2="290.077" y2="588" gradientUnits="userSpaceOnUse">
<stop stop-color="#F3E07B"/>
<stop offset="1" stop-color="#BC6317"/>
</linearGradient>
<linearGradient id="paint1_linear_3_40" x1="316.397" y1="197.238" x2="310.392" y2="248.508" gradientUnits="userSpaceOnUse">
<stop stop-color="#F3E07B"/>
<stop offset="1" stop-color="#BC6317"/>
</linearGradient>
</defs>
</svg>
