<svg fill="none" height="416" viewBox="0 0 590 416" width="590" xmlns="http://www.w3.org/2000/svg" xmlns:xlink="http://www.w3.org/1999/xlink"><linearGradient id="a"><stop offset="0" stop-color="#f3e07b"/><stop offset="1" stop-color="#bc6317"/></linearGradient><linearGradient id="b" gradientUnits="userSpaceOnUse" x1="408.154" x2="410.065" xlink:href="#a" y1="221.532" y2="246.568"/><linearGradient id="c" gradientUnits="userSpaceOnUse" x1="169.154" x2="171.065" xlink:href="#a" y1="366.532" y2="391.568"/><g fill="#fff"><path d="m284.575 322.61c7.547-13.972 24.382-39.907 41.217-38.472 17.831 1.521 34.541 14.671 29.607 18.088-7.26 5.026-42.959 30.72-70.824 20.384-2.187 4.063-5.386 10.122-7.972 15.356 22.09 11.698 59.947-4.672 77.925-19.949 15.949-13.554 11.61-29.094 8.417-34.166-8.804-11.005-32.335-27.792-56.02-6.89-13.852 12.223-23.547 28.642-29.771 42.964 2.015 1.074 4.465 2.015 7.421 2.685z"/><path d="m276.603 337.966c2.586-5.234 5.785-11.293 7.972-15.356-2.956-.67-5.406-1.611-7.421-2.685-2.3 5.291-4.125 10.296-5.512 14.697 1.542 1.303 3.201 2.412 4.961 3.344z"/><path d="m268.901 345.004c.464 7.58 2.515 4.881 3.483 2.584.417-1.649 2.115-5.362 4.219-9.622-1.76-.932-3.419-2.041-4.961-3.344-1.278 4.056-2.182 7.6-2.741 10.382z"/><path d="m162.902 273.925c-4.662-.292-9.393-.991-12.531-1.562 2.839 8.558 19.769 32.224 25.129 37.137 4.8 4.4 4 7.5 3 8.5-18.8 13.6-30.5 13.667-34 12l-11-12-3.5 19c.667 1 3.3 4.9 8.5 12.5s4.833 12.5 4 14c-2.5 7.333-17.7 24.7-58.5 35.5s-34.6667-39.167-26.5001-65.5c-41.9999 107 32.6329 85.078 65.0001 63.5 31.5-21 28.5-41.333 24.5-51 3.833 1.333 14.4 1.4 26-9 14.5-13 15.5-32.5 8-40-3.821-3.821-11.361-13.795-18.098-23.075z"/><path d="m153 260c-.667 1.667-2.2 6-3 10-.107.534.031 1.34.371 2.363 3.138.571 7.869 1.27 12.531 1.562-3.841-5.29-7.421-10.355-9.902-13.925z"/><path d="m169.5 274c7.2-.4-9.333-11.833-18.5-17.5l-2.5 15.5c.529.11 1.159.233 1.871.363-.34-1.023-.478-1.829-.371-2.363.8-4 2.333-8.333 3-10 2.481 3.57 6.061 8.635 9.902 13.925 2.281.143 4.545.189 6.598.075z"/><path d="m263.386 324.62 4.644 6.316c1.114 1.37 2.322 2.595 3.612 3.686 1.387-4.401 3.212-9.406 5.512-14.697-5.582-2.976-7.827-6.977-8.253-9.086 2.322-15.619-5.515-2.297-11.901 6.316-12.833 16.782-40.1 30.345-46.5-49.655s-17.667-107.333-22.5-111l-5.5 19c5.667 9.5 15.5 45.438 20.5 114 2 27.425 19 78 48 47.5l6-7 5.5-7.5z"/></g><path d="m284.575 322.61c7.547-13.972 24.382-39.907 41.217-38.472 17.831 1.521 34.541 14.671 29.607 18.088-7.26 5.026-42.959 30.72-70.824 20.384zm0 0c-2.187 4.063-5.386 10.122-7.972 15.356m7.972-15.356c-2.956-.67-5.406-1.611-7.421-2.685m-.551 18.041c22.09 11.698 59.947-4.672 77.925-19.949 15.949-13.554 11.61-29.094 8.417-34.166-8.804-11.005-32.335-27.792-56.02-6.89-13.852 12.223-23.547 28.642-29.771 42.964m-.551 18.041c-2.104 4.26-3.802 7.973-4.219 9.622-.968 2.297-3.019 4.996-3.483-2.584.559-2.782 1.463-6.326 2.741-10.382m4.961 3.344c-1.76-.932-3.419-2.041-4.961-3.344m5.512-14.697c-5.582-2.976-7.827-6.977-8.253-9.086 2.322-15.619-5.515-2.297-11.901 6.316-12.833 16.782-40.1 30.345-46.5-49.655s-17.667-107.333-22.5-111l-5.5 19c5.667 9.5 15.5 45.438 20.5 114 2 27.425 19 78 48 47.5l6-7 5.5-7.5.886 2.12 4.644 6.316c1.114 1.37 2.322 2.595 3.612 3.686m5.512-14.697c-2.3 5.291-4.125 10.296-5.512 14.697m-108.74-60.697c-4.662-.292-9.393-.991-12.531-1.562m12.531 1.562c6.737 9.28 14.277 19.254 18.098 23.075 7.5 7.5 6.5 27-8 40-11.6 10.4-22.167 10.333-26 9 4 9.667 7 30-24.5 51-32.3672 21.578-107 43.5-65.0001-63.5-8.1666 26.333-14.2999 76.3 26.5001 65.5s56-28.167 58.5-35.5c.833-1.5 1.2-6.4-4-14s-7.833-11.5-8.5-12.5l3.5-19 11 12c3.5 1.667 15.2 1.6 34-12 1-1 1.8-4.1-3-8.5-5.36-4.913-22.29-28.579-25.129-37.137m12.531 1.562c-3.841-5.29-7.421-10.355-9.902-13.925-.667 1.667-2.2 6-3 10-.107.534.031 1.34.371 2.363m12.531 1.562c2.281.143 4.545.189 6.598.075 7.2-.4-9.333-11.833-18.5-17.5l-2.5 15.5c.529.11 1.159.233 1.871.363" stroke="#fff"/><path d="m482.563 164.26c7.27-13.131 23.487-37.503 39.704-36.154 17.178 1.429 33.274 13.787 28.521 16.998-6.993 4.723-41.383 28.869-68.225 19.156-2.107 3.818-5.189 9.512-7.679 14.431 21.279 10.993 57.747-4.39 75.065-18.748 15.364-12.737 11.184-27.34 8.108-32.107-8.481-10.343-31.148-26.117-53.964-6.475-13.343 11.487-22.683 26.917-28.679 40.376 1.941 1.009 4.301 1.893 7.149 2.523z" fill="#fff"/><path d="m474.884 178.691c2.49-4.919 5.572-10.613 7.679-14.431-2.848-.63-5.208-1.514-7.149-2.523-2.215 4.972-3.973 9.675-5.309 13.811 1.485 1.224 3.083 2.267 4.779 3.143z" fill="#fff"/><path d="m467.464 185.305c.447 7.123 2.423 4.587 3.355 2.428.402-1.549 2.038-5.039 4.065-9.042-1.696-.876-3.294-1.919-4.779-3.143-1.231 3.812-2.103 7.142-2.641 9.757z" fill="#fff"/><path d="m460.5 165.5 6.125 6.585c1.074 1.287 2.237 2.438 3.48 3.463 1.336-4.136 3.094-8.839 5.309-13.811-5.377-2.797-7.539-6.557-7.95-8.539 0-15.698-5.313-2.158-11.464 5.936-9 12.622-29.4 26.966-41-16.634-2.333-16.167-8-47.7-12-44.5-5 4-7 8-7 21.5 0 10.8-11.667 12.5-17.5 12-1.5-.167-7-4.3-11-11.5l-2 19.5c8.833 10.833 23.4 35.3 11 42.5-17 14.667-69.7 50.9-140.5 76.5 2-.728 30.5 0 60-8.5 23.6-6.8 68.167-41.5 87.5-58 2.333-4.667 6.6-21.7 1-42.5 5.39-2 17.135-12.3 17-29.5v-.5c1-2.5 4.3-.9 5.5 27.5 1.5 35.5 29.651 61.649 53.5 18.5z" fill="#fff"/><path d="m482.563 164.26c7.27-13.131 23.487-37.503 39.704-36.154 17.178 1.429 33.274 13.787 28.521 16.998-6.993 4.723-41.383 28.869-68.225 19.156zm0 0c-2.107 3.818-5.189 9.512-7.679 14.431m7.679-14.431c-2.848-.63-5.208-1.514-7.149-2.523m-.53 16.954c21.279 10.993 57.747-4.39 75.065-18.748 15.364-12.737 11.184-27.34 8.108-32.107-8.481-10.343-31.148-26.117-53.964-6.475-13.343 11.487-22.683 26.917-28.679 40.376m-.53 16.954c-2.027 4.003-3.663 7.493-4.065 9.042-.932 2.159-2.908 4.695-3.355-2.428.538-2.615 1.41-5.945 2.641-9.757m4.779 3.143c-1.696-.876-3.294-1.919-4.779-3.143m5.309-13.811c-5.377-2.797-7.539-6.557-7.95-8.539 0-15.698-5.313-2.158-11.464 5.936-9 12.622-29.4 26.966-41-16.634-2.333-16.167-8-47.7-12-44.5-5 4-7 8-7 21.5 0 10.8-11.667 12.5-17.5 12-1.5-.167-7-4.3-11-11.5l-2 19.5c8.833 10.833 23.4 35.3 11 42.5-17 14.667-69.7 50.9-140.5 76.5 2-.728 30.5 0 60-8.5 23.6-6.8 68.167-41.5 87.5-58 2.333-4.667 6.6-21.7 1-42.5 5.39-2 17.135-12.3 17-29.5v-.5c1-2.5 4.3-.9 5.5 27.5 1.5 35.5 29.651 61.649 53.5 18.5l6.125 6.585c1.074 1.287 2.237 2.438 3.48 3.463m5.309-13.811c-2.215 4.972-3.973 9.675-5.309 13.811" stroke="#fff"/><path clip-rule="evenodd" d="m470.057 13.5584c-1.681-1.6686-6.342-.5721-11.53 17.1629-5.189 17.7349 4.083 16.4477 9.368 13.5872 1.922-.7151 5.621-4.0046 5.045-11.4419-.577-7.4372-6.006-11.2035-8.648-12.157.721-2.8605 2.883-8.2954 5.765-7.1512zm-9.368 25.0292c-1.73-2.2884.72-8.5815 2.162-11.4419 9.8 6.293 7.446 10.25 5.044 11.4419-1.681.9535-5.477 2.2884-7.206 0z" fill="#fff" fill-rule="evenodd"/><path clip-rule="evenodd" d="m376.551 32.9183-3.854-2.7963c1.052-2.9047 1.569-5.9613 1.399-9.1551-.351-6.6397-3.648-15.53684-14.032 3.5854-1.078 1.9843.699 5.2434 7.173 9.8241-.937 1.4909-2.138 3.0197-3.665 4.5176-6.174 6.0553-23.621 17.9271-31.572 23.106 10.742-3.6399 29.287-12.8625 37.722-25.9507 1.404.9029 2.975 1.851 4.725 2.8447 1.286-1.8592 3.508-5.657 2.104-5.9757zm-6.649-4.8246-5.979-4.3382c.584-1.4607 2.245-4.2228 4.209-3.5854 1.965.6374 2.222 2.6559 2.105 3.5854.132.9524.095 2.4798-.335 4.3382z" fill="#fff" fill-rule="evenodd"/><path d="m372.697 30.122 3.854 2.7963c1.404.3187-.818 4.1165-2.104 5.9757-1.75-.9937-3.321-1.9418-4.725-2.8447m2.975-5.9273c1.052-2.9047 1.569-5.9613 1.399-9.1551-.351-6.6397-3.648-15.53684-14.032 3.5854-1.078 1.9843.699 5.2434 7.173 9.8241m5.46-4.2544c-.743 2.0535-1.753 4.031-2.975 5.9273m2.975-5.9273-2.795-2.0283m-.18 7.9556c-8.435 13.0882-26.98 22.3108-37.722 25.9507 7.951-5.1789 25.398-17.0507 31.572-23.106 1.527-1.4979 2.728-3.0267 3.665-4.5176m2.485 1.6729c-.895-.576-1.722-1.1336-2.485-1.6729m0 0c1.422-2.2613 2.237-4.4354 2.665-6.2827m0 0-5.979-4.3382c.584-1.4607 2.245-4.2228 4.209-3.5854 1.965.6374 2.222 2.6559 2.105 3.5854.132.9524.095 2.4798-.335 4.3382z" stroke="#fff" stroke-width="1.26667"/><path clip-rule="evenodd" d="m91.5514 254.918-3.8539-2.796c1.0513-2.905 1.5688-5.961 1.3983-9.155-.3508-6.64-3.6483-15.537-14.0319 3.585-1.0775 1.985.6995 5.244 7.1735 9.824-.9373 1.491-2.1383 3.02-3.6655 4.518-6.1741 6.055-23.6205 17.927-31.5719 23.106 10.7417-3.64 29.2872-12.862 37.7223-25.951 1.4035.903 2.9745 1.851 4.7243 2.845 1.2863-1.859 3.508-5.657 2.1048-5.976zm-6.6495-4.824-5.9792-4.338c.5846-1.461 2.2451-4.223 4.2096-3.586 1.9644.638 2.2217 2.656 2.1048 3.586.1324.952.0948 2.479-.3352 4.338z" fill="#fff" fill-rule="evenodd"/><path d="m87.6975 252.122 3.8539 2.796c1.4032.319-.8185 4.117-2.1048 5.976-1.7498-.994-3.3208-1.942-4.7243-2.845m2.9752-5.927c1.0513-2.905 1.5688-5.961 1.3983-9.155-.3508-6.64-3.6483-15.537-14.0319 3.585-1.0775 1.985.6995 5.244 7.1735 9.824m5.4601-4.254c-.7432 2.053-1.7531 4.031-2.9752 5.927m2.9752-5.927-2.7956-2.028m-.1796 7.955c-8.4351 13.089-26.9806 22.311-37.7223 25.951 7.9514-5.179 25.3978-17.051 31.5719-23.106 1.5272-1.498 2.7282-3.027 3.6655-4.518m2.4849 1.673c-.8954-.576-1.7227-1.133-2.4849-1.673m0 0c1.4218-2.261 2.2371-4.435 2.6645-6.282m0 0-5.9792-4.338c.5846-1.461 2.2451-4.223 4.2096-3.586 1.9644.638 2.2217 2.656 2.1048 3.586.1324.952.0948 2.479-.3352 4.338z" stroke="#fff" stroke-width="1.26667"/><path d="m421.502 231.623-18.165-7.287-7.258 14.77 18.154 7.144z" fill="url(#b)"/><path d="m182.502 376.623-18.165-7.287-7.258 14.77 18.154 7.144z" fill="url(#c)"/><path d="m409 191-1.844 9.446-53.156 39.554 1.536-10.627z" fill="#fff"/><path d="m288 256-1.844 9.446-53.156 39.554 1.536-10.627z" fill="#fff"/><path clip-rule="evenodd" d="m389.971 292.369c6.541-1.581 21.105 1.028 28.779 25.691 1.89 8.036 3.052 26.797-7.413 37.547-13.081 13.439-53.197 50.196-82.848 42.291s-22.675-46.638-13.954-66.005c2.616-5.533 6.279-11.541 0 8.695-7.849 25.296 3.489 52.962 40.116 39.524 29.652-12.252 71.076-42.29 54.506-46.638-6.105-1.186-11.773-1.976-20.494-2.371-8.717-.396-14.324-4.339-14.826-6.324-4.796-18.972 10.029-31.224 16.134-32.41zm-2.616 15.019c7.674-.948 13.663 5.402 15.697 8.695-6.25.791-19.098 1.265-20.494-3.162-1.395-4.426 2.617-5.533 4.797-5.533z" fill="#fff" fill-rule="evenodd"/><path d="m387.355 307.388c7.674-.948 13.663 5.402 15.697 8.695-6.25.791-19.098 1.265-20.494-3.162-1.395-4.426 2.617-5.533 4.797-5.533z" fill="#000"/><path clip-rule="evenodd" d="m389.971 292.369c6.541-1.581 21.105 1.028 28.779 25.691 1.89 8.036 3.052 26.797-7.413 37.547-13.081 13.439-53.197 50.196-82.848 42.291s-22.675-46.638-13.954-66.005c2.616-5.533 6.279-11.541 0 8.695-7.849 25.296 3.489 52.962 40.116 39.524 29.652-12.252 71.076-42.29 54.506-46.638-6.105-1.186-11.773-1.976-20.494-2.371-8.717-.396-14.324-4.339-14.826-6.324-4.796-18.972 10.029-31.224 16.134-32.41zm-2.616 15.019c7.674-.948 13.663 5.402 15.697 8.695-6.25.791-19.098 1.265-20.494-3.162-1.395-4.426 2.617-5.533 4.797-5.533z" fill-rule="evenodd" stroke="#fff"/><path d="m387.355 307.388c7.674-.948 13.663 5.402 15.697 8.695-6.25.791-19.098 1.265-20.494-3.162-1.395-4.426 2.617-5.533 4.797-5.533z" stroke="#fff"/><path clip-rule="evenodd" d="m315.971 112.369c6.541-1.581 21.105 1.028 28.779 25.691 1.89 8.036 3.052 26.797-7.413 37.547-13.081 13.439-53.197 50.196-82.848 42.291s-22.675-46.638-13.954-66.005c2.616-5.533 6.279-11.541 0 8.695-7.849 25.296 3.489 52.962 40.116 39.524 29.652-12.252 71.076-42.29 54.506-46.638-6.105-1.186-11.773-1.976-20.494-2.371-8.717-.396-14.324-4.339-14.826-6.324-4.796-18.972 10.029-31.224 16.134-32.41zm-2.616 15.019c7.674-.948 13.663 5.402 15.697 8.695-6.25.791-19.098 1.265-20.494-3.162-1.395-4.426 2.617-5.533 4.797-5.533z" fill="#fff" fill-rule="evenodd"/><path d="m313.355 127.388c7.674-.948 13.663 5.402 15.697 8.695-6.25.791-19.098 1.265-20.494-3.162-1.395-4.426 2.617-5.533 4.797-5.533z" fill="#000"/><path clip-rule="evenodd" d="m315.971 112.369c6.541-1.581 21.105 1.028 28.779 25.691 1.89 8.036 3.052 26.797-7.413 37.547-13.081 13.439-53.197 50.196-82.848 42.291s-22.675-46.638-13.954-66.005c2.616-5.533 6.279-11.541 0 8.695-7.849 25.296 3.489 52.962 40.116 39.524 29.652-12.252 71.076-42.29 54.506-46.638-6.105-1.186-11.773-1.976-20.494-2.371-8.717-.396-14.324-4.339-14.826-6.324-4.796-18.972 10.029-31.224 16.134-32.41zm-2.616 15.019c7.674-.948 13.663 5.402 15.697 8.695-6.25.791-19.098 1.265-20.494-3.162-1.395-4.426 2.617-5.533 4.797-5.533z" fill-rule="evenodd" stroke="#fff"/><path d="m313.355 127.388c7.674-.948 13.663 5.402 15.697 8.695-6.25.791-19.098 1.265-20.494-3.162-1.395-4.426 2.617-5.533 4.797-5.533z" stroke="#fff"/><path clip-rule="evenodd" d="m83.9711 292.369c6.5407-1.581 21.1049 1.028 28.7789 25.691 1.89 8.036 3.052 26.797-7.413 37.547-13.081 13.439-53.1972 50.196-82.8483 42.291-29.65113-7.905-22.674433-46.638-13.95351-66.005 2.61631-5.533 6.27901-11.541 0 8.695-7.848832 25.296 3.48841 52.962 40.11621 39.524 29.6511-12.252 71.0756-42.29 54.5056-46.638-6.1045-1.186-11.7731-1.976-20.494-2.371-8.717-.396-14.3236-4.339-14.8256-6.324-4.7965-18.972 10.0291-31.224 16.1337-32.41zm-2.6163 15.019c7.6744-.948 13.6628 5.402 15.6977 8.695-6.25.791-19.0988 1.265-20.4942-3.162-1.3953-4.426 2.6163-5.533 4.7965-5.533z" fill="#fff" fill-rule="evenodd"/><path d="m81.3548 307.388c7.6744-.948 13.6628 5.402 15.6977 8.695-6.25.791-19.0988 1.265-20.4942-3.162-1.3953-4.426 2.6163-5.533 4.7965-5.533z" fill="#000"/><path clip-rule="evenodd" d="m83.9711 292.369c6.5407-1.581 21.1049 1.028 28.7789 25.691 1.89 8.036 3.052 26.797-7.413 37.547-13.081 13.439-53.1972 50.196-82.8483 42.291-29.65113-7.905-22.674433-46.638-13.95351-66.005 2.61631-5.533 6.27901-11.541 0 8.695-7.848832 25.296 3.48841 52.962 40.11621 39.524 29.6511-12.252 71.0756-42.29 54.5056-46.638-6.1045-1.186-11.7731-1.976-20.494-2.371-8.717-.396-14.3236-4.339-14.8256-6.324-4.7965-18.972 10.0291-31.224 16.1337-32.41zm-2.6163 15.019c7.6744-.948 13.6628 5.402 15.6977 8.695-6.25.791-19.0988 1.265-20.4942-3.162-1.3953-4.426 2.6163-5.533 4.7965-5.533z" fill-rule="evenodd" stroke="#fff"/><path d="m81.3548 307.388c7.6744-.948 13.6628 5.402 15.6977 8.695-6.25.791-19.0988 1.265-20.4942-3.162-1.3953-4.426 2.6163-5.533 4.7965-5.533z" stroke="#fff"/><path d="m567.553 5c-1.851 4.45455-5.553 13.5545-5.553 14.3182.318-.9546 1.429-1.5273 3.332 3.8181 1.903 5.3455 13.009 116.1367 18.325 170.8637 5.775-7.255 5.738-35.159 4.998-48.205l-6.942-58.4655-6.941-58.4659 5.553 6.2045c.889 0 .74-2.5454.555-3.8181 0-1.1455-8.885-17.9773-13.327-26.25z" fill="#fff" stroke="#fff"/><path d="m259.553 2c-1.851 4.45455-5.553 13.5545-5.553 14.3182.318-.9546 1.429-1.5273 3.332 3.8181 1.903 5.3455 13.009 116.1367 18.325 170.8637 5.775-7.255 5.738-35.159 4.998-48.205l-6.942-58.4655-6.941-58.4659 5.553 6.2045c.889 0 .74-2.5454.555-3.8181 0-1.1455-8.885-17.9773-13.327-26.25z" fill="#fff" stroke="#fff"/><path d="m21.5531 163c-1.8511 4.455-5.5531 13.555-5.5531 14.318.3178-.954 1.4291-1.527 3.3318 3.818 1.9028 5.346 13.0095 116.137 18.3251 170.864 5.7751-7.255 5.7381-35.159 4.9977-48.205l-6.9413-58.465-6.9413-58.466 5.5531 6.204c.8884 0 .7404-2.545.5553-3.818 0-1.145-8.8849-17.977-13.3273-26.25z" fill="#fff" stroke="#fff"/></svg>