<svg fill="none" height="155" viewBox="0 0 858 155" width="858" xmlns="http://www.w3.org/2000/svg" xmlns:xlink="http://www.w3.org/1999/xlink"><linearGradient id="a"><stop offset="0" stop-color="#f3e07b"/><stop offset="1" stop-color="#bc6317"/></linearGradient><linearGradient id="b" gradientUnits="userSpaceOnUse" x1="837" x2="837" xlink:href="#a" y1="60" y2="77"/><linearGradient id="c" gradientUnits="userSpaceOnUse" x1="592.529" x2="592.529" xlink:href="#a" y1="139" y2="153"/><linearGradient id="d" gradientUnits="userSpaceOnUse" x1="506.919" x2="521.426" xlink:href="#a" y1="123.27" y2="119.725"/><linearGradient id="e" gradientUnits="userSpaceOnUse" x1="622.258" x2="622.258" xlink:href="#a" y1="64.5" y2="80"/><linearGradient id="f" gradientUnits="userSpaceOnUse" x1="542.149" x2="540.894" xlink:href="#a" y1="99.9646" y2="115.414"/><linearGradient id="g" gradientUnits="userSpaceOnUse" x1="425.486" x2="424.231" xlink:href="#a" y1="46.1734" y2="61.6225"/><linearGradient id="h" gradientUnits="userSpaceOnUse" x1="237.919" x2="236.492" xlink:href="#a" y1="100.581" y2="112.766"/><linearGradient id="i" gradientUnits="userSpaceOnUse" x1="176.919" x2="175.492" xlink:href="#a" y1="139.581" y2="151.766"/><linearGradient id="j" gradientUnits="userSpaceOnUse" x1="480.486" x2="479.231" xlink:href="#a" y1="40.1734" y2="55.6225"/><path d="m829.5 98c0-6.1666 2.7-18.3 13.5-17.5s14.5 16 14.5 23v12c-1.5 5.5-16 17.1-34 15.5-2.333 0-7.3-3.1-8.5-15.5-4.833 10.167-22.5 34.5-54.5 38-9.5 0-24.1-8.7-18.5-43.5-2.167 24.833 10.8 59.2 70 4 .167-31.1666-.4-94.7-4-99.5-.4-.8-.167-7.99998 0-11.49998 2.5-1.33333 7.9 18.19998 9.5 106.99998-.333 8.333 6.9 21.2 36.5 2 2-2 1.5-6.2-16.5-7-3 .037-8.8-1.311-8-7z" fill="#fff" stroke="#fff"/><path d="m840.818 60-3.394 6.9672-9.616-6.4098-4.808 9.4754 9.899 6.9672 4.525-6.9672 9.051 6.1311 4.525-9.1967-5.091-3.4836z" fill="url(#b)"/><path d="m595.674 139-2.795 5.738-7.919-5.279-3.96 7.803 8.152 5.738 3.727-5.738 7.453 5.049 3.727-7.573-4.193-2.869z" fill="url(#c)"/><path d="m506.123 120.012 6.653 1.443-3.464 9.542 9.088 2.127 3.881-9.9-6.889-2.408 3.345-9.002-8.792-1.943-1.911 5.07z" fill="url(#d)"/><path d="m831.596 39.4837c-1.021-1.3156-3.5-3.311-5.243-.7676-.22.8008-.613 2.509-.43 2.9355.228.5332 4.677 1.1845 5.451 2.797 1.268 1.6849 4.367 6.7361 4.923 11.2152.74-5.0556 2.63-15.2068 4.269-15.3666 1.64-.1599 3.272.6455 3.884 1.0682l1.21-4.8202c-1.669-1.2438-5.363-2.6842-6.785 1.5055-1.421 4.1896-2.54 10.4557-2.922 13.0651z" fill="#fff" stroke="#fff" stroke-width=".657143"/><path d="m650.596 40.4837c-1.021-1.3156-3.5-3.311-5.243-.7676-.22.8008-.613 2.509-.43 2.9355.228.5332 4.677 1.1845 5.451 2.797 1.268 1.6849 4.367 6.7361 4.923 11.2152.74-5.0556 2.63-15.2068 4.269-15.3666 1.64-.1599 3.272.6455 3.884 1.0682l1.21-4.8202c-1.669-1.2438-5.363-2.6842-6.785 1.5055-1.421 4.1896-2.54 10.4557-2.922 13.0651z" fill="#fff" stroke="#fff" stroke-width=".657143"/><path d="m582.596 43.4837c-1.021-1.3156-3.5-3.311-5.243-.7676-.22.8008-.613 2.509-.43 2.9355.228.5332 4.677 1.1845 5.451 2.797 1.268 1.6849 4.367 6.7361 4.923 11.2152.74-5.0556 2.63-15.2068 4.269-15.3666 1.64-.1599 3.272.6455 3.884 1.0682l1.21-4.8202c-1.669-1.2438-5.363-2.6842-6.785 1.5055-1.421 4.1896-2.54 10.4557-2.922 13.0651z" fill="#fff" stroke="#fff" stroke-width=".657143"/><path d="m368.596 49.4837c-1.021-1.3156-3.5-3.311-5.243-.7676-.22.8008-.613 2.509-.43 2.9355.228.5332 4.677 1.1845 5.451 2.797 1.268 1.6849 4.367 6.7361 4.923 11.2152.74-5.0556 2.63-15.2068 4.269-15.3666 1.64-.1599 3.272.6455 3.884 1.0682l1.21-4.8202c-1.669-1.2438-5.363-2.6842-6.785 1.5055-1.421 4.1896-2.54 10.4557-2.922 13.0651z" fill="#fff" stroke="#fff" stroke-width=".657143"/><path d="m782.596 39.4837c-1.021-1.3156-3.5-3.311-5.243-.7676-.22.8008-.613 2.509-.43 2.9355.228.5332 4.677 1.1845 5.451 2.797 1.268 1.6849 4.367 6.7361 4.923 11.2152.74-5.0556 2.63-15.2068 4.269-15.3666 1.64-.1599 3.272.6455 3.884 1.0682l1.21-4.8202c-1.669-1.2438-5.363-2.6842-6.785 1.5055-1.421 4.1896-2.54 10.4557-2.922 13.0651z" fill="#fff" stroke="#fff" stroke-width=".657143"/><path d="m544.596 32.4837c-1.021-1.3156-3.5-3.311-5.243-.7676-.22.8008-.613 2.509-.43 2.9355.228.5332 4.677 1.1845 5.451 2.797 1.268 1.6849 4.367 6.7361 4.923 11.2152.74-5.0556 2.63-15.2068 4.269-15.3666 1.64-.1599 3.272.6455 3.884 1.0682l1.21-4.8202c-1.669-1.2438-5.363-2.6842-6.785 1.5055-1.421 4.1896-2.54 10.4557-2.922 13.0651z" fill="#fff" stroke="#fff" stroke-width=".657143"/><path d="m229.596 34.4837c-1.021-1.3156-3.5-3.311-5.243-.7676-.22.8008-.613 2.509-.43 2.9355.228.5332 4.677 1.1845 5.451 2.797 1.268 1.6849 4.367 6.7361 4.923 11.2152.74-5.0556 2.63-15.2068 4.269-15.3666 1.64-.1599 3.272.6455 3.884 1.0682l1.21-4.8202c-1.669-1.2438-5.363-2.6842-6.785 1.5055-1.421 4.1896-2.54 10.4557-2.922 13.0651z" fill="#fff" stroke="#fff" stroke-width=".657143"/><path d="m273.596 48.4837c-1.021-1.3156-3.5-3.311-5.243-.7676-.22.8008-.613 2.509-.43 2.9355.228.5332 4.677 1.1845 5.451 2.797 1.268 1.6849 4.367 6.7361 4.923 11.2152.74-5.0556 2.63-15.2068 4.269-15.3666 1.64-.1599 3.272.6455 3.884 1.0682l1.21-4.8202c-1.669-1.2438-5.363-2.6842-6.785 1.5055-1.421 4.1896-2.54 10.4557-2.922 13.0651z" fill="#fff" stroke="#fff" stroke-width=".657143"/><path d="m305.596 8.4837c-1.021-1.31559-3.5-3.31095-5.243-.76761-.22.80079-.613 2.50901-.43 2.93551.228.5332 4.677 1.1845 5.451 2.797 1.268 1.6849 4.367 6.7361 4.923 11.2152.74-5.0556 2.63-15.20683 4.269-15.36664 1.64-.15981 3.272.64557 3.884 1.06824l1.21-4.82017c-1.669-1.24388-5.363-2.68422-6.785 1.50542-1.421 4.18965-2.54 10.45575-2.922 13.06515z" fill="#fff" stroke="#fff" stroke-width=".657143"/><path clip-rule="evenodd" d="m841.621 17.9319-3.254-2.0962c.888-2.1775 1.325-4.469 1.181-6.86326-.297-4.97749-3.081-11.64732-11.85 2.68786-.909 1.4875.591 3.9308 6.058 7.3648-.791 1.1176-1.806 2.2637-3.095 3.3866-5.214 4.5394-19.946 13.4392-26.661 17.3216 9.071-2.7287 24.731-9.6424 31.854-19.4542 1.186.6769 2.512 1.3877 3.99 2.1326 1.086-1.3937 2.962-4.2409 1.777-4.4798zm-5.615-3.6167-5.049-3.2522c.494-1.09507 1.896-3.16571 3.555-2.68787s1.876 1.99097 1.777 2.68787c.112.7139.08 1.859-.283 3.2522z" fill="#fff" fill-rule="evenodd"/><path d="m838.367 15.8357 3.254 2.0962c1.185.2389-.691 3.0861-1.777 4.4798-1.478-.7449-2.804-1.4557-3.99-2.1326m2.513-4.4434c.888-2.1775 1.325-4.469 1.181-6.86326-.297-4.97749-3.081-11.64732-11.85 2.68786-.909 1.4875.591 3.9308 6.058 7.3648m4.611-3.1894c-.628 1.5394-1.481 3.0218-2.513 4.4434m2.513-4.4434-2.361-1.5205m-.152 5.9639c-7.123 9.8118-22.783 16.7255-31.854 19.4542 6.715-3.8824 21.447-12.7822 26.661-17.3216 1.289-1.1229 2.304-2.269 3.095-3.3866m2.098 1.254c-.756-.4318-1.454-.8498-2.098-1.254m0 0c1.201-1.6952 1.889-3.3251 2.25-4.7099m0 0-5.049-3.2522c.494-1.09507 1.896-3.16571 3.555-2.68787s1.876 1.99097 1.777 2.68787c.112.7139.08 1.859-.283 3.2522z" stroke="#fff" stroke-width="1.26667"/><path clip-rule="evenodd" d="m721.621 17.9319-3.254-2.0962c.888-2.1775 1.325-4.469 1.181-6.86326-.297-4.97749-3.081-11.64732-11.85 2.68786-.909 1.4875.591 3.9308 6.058 7.3648-.791 1.1176-1.806 2.2637-3.095 3.3866-5.214 4.5394-19.946 13.4392-26.661 17.3216 9.071-2.7287 24.731-9.6424 31.854-19.4542 1.186.6769 2.512 1.3877 3.99 2.1326 1.086-1.3937 2.962-4.2409 1.777-4.4798zm-5.615-3.6167-5.049-3.2522c.494-1.09507 1.896-3.16571 3.555-2.68787s1.876 1.99097 1.777 2.68787c.112.7139.08 1.859-.283 3.2522z" fill="#fff" fill-rule="evenodd"/><path d="m718.367 15.8357 3.254 2.0962c1.185.2389-.691 3.0861-1.777 4.4798-1.478-.7449-2.804-1.4557-3.99-2.1326m2.513-4.4434c.888-2.1775 1.325-4.469 1.181-6.86326-.297-4.97749-3.081-11.64732-11.85 2.68786-.909 1.4875.591 3.9308 6.058 7.3648m4.611-3.1894c-.628 1.5394-1.481 3.0218-2.513 4.4434m2.513-4.4434-2.361-1.5205m-.152 5.9639c-7.123 9.8118-22.783 16.7255-31.854 19.4542 6.715-3.8824 21.447-12.7822 26.661-17.3216 1.289-1.1229 2.304-2.269 3.095-3.3866m2.098 1.254c-.756-.4318-1.454-.8498-2.098-1.254m0 0c1.201-1.6952 1.889-3.3251 2.25-4.7099m0 0-5.049-3.2522c.494-1.09507 1.896-3.16571 3.555-2.68787s1.876 1.99097 1.777 2.68787c.112.7139.08 1.859-.283 3.2522z" stroke="#fff" stroke-width="1.26667"/><path clip-rule="evenodd" d="m468.621 16.9319-3.254-2.0962c.888-2.1775 1.325-4.469 1.181-6.86326-.297-4.97749-3.081-11.64732-11.85 2.68786-.909 1.4875.591 3.9308 6.058 7.3648-.791 1.1176-1.806 2.2637-3.095 3.3866-5.214 4.5394-19.946 13.4392-26.661 17.3216 9.071-2.7287 24.731-9.6424 31.854-19.4542 1.186.6769 2.512 1.3877 3.99 2.1326 1.086-1.3937 2.962-4.2409 1.777-4.4798zm-5.615-3.6167-5.049-3.2522c.494-1.09507 1.896-3.16571 3.555-2.68787s1.876 1.991 1.777 2.68787c.112.7139.08 1.859-.283 3.2522z" fill="#fff" fill-rule="evenodd"/><path d="m465.367 14.8357 3.254 2.0962c1.185.2389-.691 3.0861-1.777 4.4798-1.478-.7449-2.804-1.4557-3.99-2.1326m2.513-4.4434c.888-2.1775 1.325-4.469 1.181-6.86326-.297-4.97749-3.081-11.64732-11.85 2.68786-.909 1.4875.591 3.9308 6.058 7.3648m4.611-3.1894c-.628 1.5394-1.481 3.0218-2.513 4.4434m2.513-4.4434-2.361-1.5205m-.152 5.9639c-7.123 9.8118-22.783 16.7255-31.854 19.4542 6.715-3.8824 21.447-12.7822 26.661-17.3216 1.289-1.1229 2.304-2.269 3.095-3.3866m2.098 1.254c-.756-.4318-1.454-.8498-2.098-1.254m0 0c1.201-1.6952 1.889-3.3251 2.25-4.7099m0 0-5.049-3.2522c.494-1.09507 1.896-3.16571 3.555-2.68787s1.876 1.991 1.777 2.68787c.112.7139.08 1.859-.283 3.2522z" stroke="#fff" stroke-width="1.26667"/><path clip-rule="evenodd" d="m427.621 17.9319-3.254-2.0962c.888-2.1775 1.325-4.469 1.181-6.86326-.297-4.97749-3.081-11.64732-11.85 2.68786-.909 1.4875.591 3.9308 6.058 7.3648-.791 1.1176-1.806 2.2637-3.095 3.3866-5.214 4.5394-19.946 13.4392-26.661 17.3216 9.071-2.7287 24.731-9.6424 31.854-19.4542 1.186.6769 2.512 1.3877 3.99 2.1326 1.086-1.3937 2.962-4.2409 1.777-4.4798zm-5.615-3.6167-5.049-3.2522c.494-1.09507 1.896-3.16571 3.555-2.68787s1.876 1.99097 1.777 2.68787c.112.7139.08 1.859-.283 3.2522z" fill="#fff" fill-rule="evenodd"/><path d="m424.367 15.8357 3.254 2.0962c1.185.2389-.691 3.0861-1.777 4.4798-1.478-.7449-2.804-1.4557-3.99-2.1326m2.513-4.4434c.888-2.1775 1.325-4.469 1.181-6.86326-.297-4.97749-3.081-11.64732-11.85 2.68786-.909 1.4875.591 3.9308 6.058 7.3648m4.611-3.1894c-.628 1.5394-1.481 3.0218-2.513 4.4434m2.513-4.4434-2.361-1.5205m-.152 5.9639c-7.123 9.8118-22.783 16.7255-31.854 19.4542 6.715-3.8824 21.447-12.7822 26.661-17.3216 1.289-1.1229 2.304-2.269 3.095-3.3866m2.098 1.254c-.756-.4318-1.454-.8498-2.098-1.254m0 0c1.201-1.6952 1.889-3.3251 2.25-4.7099m0 0-5.049-3.2522c.494-1.09507 1.896-3.16571 3.555-2.68787s1.876 1.99097 1.777 2.68787c.112.7139.08 1.859-.283 3.2522z" stroke="#fff" stroke-width="1.26667"/><g fill="#fff"><path d="m784.869 60.5189c1.59.3838 4.648 1.2542 4.163 1.6651-.606.5137-6.656.967-7.878 6.6777-1.223 5.7108 5.047 26.3646 2.749 31.9483-.566 1.375-.945 2.254-1.191 2.785 2.286.057 5.238-6.0644.249-31.5909-.488-2.0099 1.506-6.2627 10.966-5.1401.45-.7274 1.279-2.4728.617-5.1971-.733-3.0148-3.352-3.9112-5.833-5.9624-1.212 1.0273-4.968 3.2754-3.842 4.8144z"/><path d="m546.599 51.6281c1.333.3219 3.898 1.0518 3.491 1.3964-.508.4308-5.581.8109-6.607 5.6-1.025 4.789 4.233 22.1095 2.306 26.7915-.475 1.1535-.793 1.8908-.999 2.3359 1.917.0475 4.392-5.0856.209-26.4922-.41-1.6855 1.263-5.2519 9.196-4.3105.377-.61 1.072-2.0737.517-4.3583-.614-2.5282-2.81-3.2799-4.891-5.0001-1.017.8615-4.166 2.7468-3.222 4.0373z"/><path d="m232.599 53.6281c1.333.3219 3.898 1.0518 3.491 1.3964-.508.4308-5.581.8109-6.607 5.6-1.025 4.789 4.233 22.1095 2.306 26.7915-.475 1.1535-.793 1.8908-.999 2.3359 1.917.0475 4.392-5.0856.209-26.4922-.41-1.6855 1.263-5.2519 9.196-4.3105.377-.61 1.072-2.0737.517-4.3583-.614-2.5282-2.81-3.2799-4.891-5.0001-1.017.8615-4.166 2.7468-3.222 4.0373z"/><path d="m780 5h14.75c.583 1.83333 1.15 5.2-3.25 8-5.5 3.5-11.5 5-12 5-.4 0 7.167-4.6667 11-7h-14z" stroke="#fff"/><path d="m675.5 5h14.75c.583 1.83333 1.15 5.2-3.25 8-5.5 3.5-11.5 5-12 5-.4 0 7.167-4.6667 11-7h-14z" stroke="#fff"/><path d="m136.5 32h14.75c.583 1.8333 1.15 5.2-3.25 8-5.5 3.5-11.5 5-12 5-.4 0 7.167-4.6667 11-7h-14z" stroke="#fff"/><path d="m228.5 5h14.75c.583 1.83333 1.15 5.2-3.25 8-5.5 3.5-11.5 5-12 5-.4 0 7.167-4.6667 11-7h-14z" stroke="#fff"/><path d="m853.5 141.5h-4.5c-.167-1.333.2-4 3-4 3.5 0 6 4.5-3 13.5 1.667-3 4.9-9.1 4.5-9.5z" stroke="#fff"/><path d="m818.534 141h-4.5c-.167-1.333.2-4 3-4 3.5 0 6 4.5-3 13.5 1.666-3 4.9-9.1 4.5-9.5z" stroke="#fff"/><path d="m730.534 141h-4.5c-.167-1.333.2-4 3-4 3.5 0 6 4.5-3 13.5 1.666-3 4.9-9.1 4.5-9.5z" stroke="#fff"/><path d="m458.534 141h-4.5c-.167-1.333.2-4 3-4 3.5 0 6 4.5-3 13.5 1.666-3 4.9-9.1 4.5-9.5z" stroke="#fff"/><path d="m394.534 141h-4.5c-.167-1.333.2-4 3-4 3.5 0 6 4.5-3 13.5 1.666-3 4.9-9.1 4.5-9.5z" stroke="#fff"/><path d="m156.534 141h-4.5c-.167-1.333.2-4 3-4 3.5 0 6 4.5-3 13.5 1.666-3 4.9-9.1 4.5-9.5z" stroke="#fff"/><path d="m128.534 141h-4.5c-.167-1.333.2-4 3-4 3.5 0 6 4.5-3 13.5 1.666-3 4.9-9.1 4.5-9.5z" stroke="#fff"/><path d="m759.5 3.99997c.165 3.63597.341 7.88923.51 12.46733l4.002 4.5243c-.281-5.0519-.512-8.3716-.512-8.4916 0-.4-2.667-5.83336-4-8.50003z"/><path d="m759.5 73c-3 3-16 10-20.5-7.5.292 5.9607.804 11.0931 1.481 15.5 7.985 8.4 18.006-.8334 22.019-6.5 3.8-4.1795 2.402-37.5197 1.512-53.5084l-4.002-4.5243c.849 23.1222 1.493 54.5293-.51 56.5327z"/><path d="m768 25.5-4.5-13c0 .12.231 3.4397.512 8.4916z"/><path d="m759.5 3.99997-3 8.50003 3.51 3.9673c-.169-4.5781-.345-8.83136-.51-12.46733z"/><path d="m739 65.5c-.667-19.5-2.9-59.10003-4.5-61.50003-.8-.8-1.833 4-2.5 6.50003.833 22.6666 3.3 71.2 6.5 84 1.354-.7272 2.898-1.4505 4.536-2.0867-.986-3.1109-1.858-6.8779-2.555-11.4133-.677-4.4069-1.189-9.5393-1.481-15.5z"/><path d="m738.5 94.5c-2.892 1.7859-7.753 4.3528-12.831 6.173.622 2.384.957 5.056.853 7.988 5.378-1.79 11.012-4.258 16.08-6.563-1.301-2.1703-2.668-4.6896-4.102-7.598z"/><path d="m743.036 92.4133c-1.638.6362-3.182 1.3595-4.536 2.0867 1.434 2.9084 2.801 5.4277 4.102 7.598 1.356-.617 2.672-1.222 3.931-1.8-1.248-1.9653-2.439-4.5475-3.497-7.8847z"/><path d="m750.5 98.5c4.5-1 9.8 4.1 7 6.5-2.788 1.556-7.149 1.31-10.967-4.702-1.259.578-2.575 1.183-3.931 1.8 11.756 19.617 18.097 10.705 19.898 2.902 2.039-16.9912-10.213-16.1792-19.464-12.5867 1.058 3.3372 2.249 5.9194 3.497 7.8847 1.399-.6407 2.728-1.2476 3.967-1.798z"/><path d="m712 102.5c-9.5-2.5-3.5-7-1-8 1.446-.5787 6.241 2.5255 9.25 7.763 1.781-.39 3.614-.943 5.419-1.59-2.051-7.8566-7.232-12.5856-10.169-13.173-5-1-19 9-10 20.5 3.19 4.076 9.735 3.853 17.211 1.82-.261-2.816-1.206-5.372-2.461-7.557-3.028.662-5.907.854-8.25.237z"/><path d="m726.522 108.661c.104-2.932-.231-5.604-.853-7.988-1.805.647-3.638 1.2-5.419 1.59 1.255 2.185 2.2 4.741 2.461 7.557 1.248-.34 2.522-.73 3.811-1.159z"/><path d="m722 116.5c-3.667 6.167-17.2 20-42 26-7.333 1.333-19.9-2.9-11.5-30.5-5 9.667-11 34.5 11.5 38 7.5 1.5 36.7-12.5 43.5-28.5 1.991-4.685 2.885-8.986 3.022-12.839-1.289.429-2.563.819-3.811 1.159.194 2.098.009 4.34-.711 6.68z"/><path clip-rule="evenodd" d="m637.5 98.5c.333 9.065 5.5 22.476 23.5 3.598 2.333-4.5328 8.6-14.698 15-19.098 8-5.5 16 20.5 7.5 27.5-3.167 1-11.8.5-19-7.5-7 11.333-23.2 25.4-30 5-12.5 13.5-27 18-32.5 11.5s-5.5-46.5-8.5-29.5c-2.4 13.6-8.667 14.333-11.5 13v17c-2.5 8.5-30 34.2-56 33-32.5-1.5-25-48-25.5-44.339s-1.5 24.839 15 31.839 61-10 62.5-24c1.2-11.2-2.5-16.6667-4.5-18 .167-5.3334.9-14.9 2.5-10.5s4.667 6.5 6 7c10.5 4 11.5-16.5 14.5-17.5 2.4-.8 5.333 19.6666 6.5 30 6.4 18 25.667 1.5 34.5-9zm31-2.5c2.5-3.6667 8.6-8.3 13 2.5.667 2.833-1 6.3-13-2.5z" fill-rule="evenodd"/></g><path d="m759.5 3.99997c1.333 2.66667 4 8.10003 4 8.50003m-4-8.50003-3 8.50003 3.51 3.9673m-.51-12.46733c.165 3.63597.341 7.88923.51 12.46733m-21.01 49.0327c4.5 17.5 17.5 10.5 20.5 7.5 2.003-2.0034 1.359-33.4105.51-56.5327m-21.01 49.0327c-.667-19.5-2.9-59.10003-4.5-61.50003-.8-.8-1.833 4-2.5 6.50003.833 22.6666 3.3 71.2 6.5 84m.5-29c.292 5.9607.804 11.0931 1.481 15.5m-1.981 13.5c1.354-.7272 2.898-1.4505 4.536-2.0867m-4.536 2.0867c-2.892 1.7859-7.753 4.3528-12.831 6.173m12.831-6.173c1.434 2.9084 2.801 5.4277 4.102 7.598m20.898-89.598 4.5 13-3.988-4.5084m-.512-8.4916c0 .12.231 3.4397.512 8.4916m-23.531 60.0084c7.985 8.4 18.006-.8334 22.019-6.5 3.8-4.1795 2.402-37.5197 1.512-53.5084m-23.531 60.0084c.697 4.5354 1.569 8.3024 2.555 11.4133m16.974-75.946 4.002 4.5243m-20.976 71.4217c9.251-3.5925 21.503-4.4045 19.464 12.5867-1.801 7.803-8.142 16.715-19.898-2.902m.434-9.6847c1.058 3.3372 2.249 5.9194 3.497 7.8847m-20.864.375c.622 2.384.957 5.056.853 7.988m-.853-7.988c-2.051-7.8566-7.232-12.5856-10.169-13.173-5-1-19 9-10 20.5 3.19 4.076 9.735 3.853 17.211 1.82m2.958-9.147c-1.805.647-3.638 1.2-5.419 1.59m6.272 6.398c5.378-1.79 11.012-4.258 16.08-6.563m-16.08 6.563c-.137 3.853-1.031 8.154-3.022 12.839-6.8 16-36 30-43.5 28.5-22.5-3.5-16.5-28.333-11.5-38-8.4 27.6 4.167 31.833 11.5 30.5 24.8-6 38.333-19.833 42-26 .72-2.34.905-4.582.711-6.68m3.811-1.159c-1.289.429-2.563.819-3.811 1.159m19.891-7.722c1.356-.617 2.672-1.222 3.931-1.8m0 0c1.399-.6407 2.728-1.2476 3.967-1.798 4.5-1 9.8 4.1 7 6.5-2.788 1.556-7.149 1.31-10.967-4.702zm-26.283 1.965c-3.009-5.2375-7.804-8.3417-9.25-7.763-2.5 1-8.5 5.5 1 8 2.343.617 5.222.425 8.25-.237zm0 0c1.255 2.185 2.2 4.741 2.461 7.557m-85.211-11.32c.333 9.065 5.5 22.476 23.5 3.598 2.333-4.5328 8.6-14.698 15-19.098 8-5.5 16 20.5 7.5 27.5-3.167 1-11.8.5-19-7.5-7 11.333-23.2 25.4-30 5-12.5 13.5-27 18-32.5 11.5s-5.5-46.5-8.5-29.5c-2.4 13.6-8.667 14.333-11.5 13v17c-2.5 8.5-30 34.2-56 33-32.5-1.5-25-48-25.5-44.339s-1.5 24.839 15 31.839 61-10 62.5-24c1.2-11.2-2.5-16.6667-4.5-18 .167-5.3334.9-14.9 2.5-10.5s4.667 6.5 6 7c10.5 4 11.5-16.5 14.5-17.5 2.4-.8 5.333 19.6666 6.5 30 6.4 18 25.667 1.5 34.5-9zm31-2.5c2.5-3.6667 8.6-8.3 13 2.5.667 2.833-1 6.3-13-2.5z" stroke="#fff"/><path d="m703.539 68.8065c1.583-1.3194 3.391-3.5623.678-4.6177-3.391-1.3194-10.852 4.6177-10.174 7.2564.543 2.1109 2.939 3.958 4.07 4.6177l-4.07 4.6177 1.357 1.3194 14.922-11.2145.678-3.2984-8.817 5.2774c-1.583.6597-4.748 1.0555-4.748-2.6387 0-3.6941 4.295-2.6387 6.104-1.3193z" fill="#fff"/><path d="m179.539 20.8065c1.583-1.3194 3.391-3.5623.678-4.6177-3.391-1.3194-10.852 4.6177-10.174 7.2564.543 2.1109 2.939 3.958 4.07 4.6177l-4.07 4.6177 1.357 1.3194 14.922-11.2145.678-3.2984-8.817 5.2774c-1.583.6597-4.748 1.0555-4.748-2.6387 0-3.6941 4.295-2.6387 6.104-1.3193z" fill="#fff"/><path d="m691 132-1.542 4.101-44.458 17.174 1.285-4.614z" fill="#fff"/><path d="m654 133-1.542 4.101-44.458 17.174 1.285-4.614z" fill="#fff"/><path d="m564 3-1.542 4.10121-44.458 17.17379 1.285-4.6139z" fill="#fff"/><path d="m522 3-1.542 4.10121-44.458 17.17379 1.285-4.6139z" fill="#fff"/><path d="m193 0-1.542 4.10121-44.458 17.17379 1.285-4.6139z" fill="#fff"/><path d="m119 102-1.542 4.101-44.458 17.174 1.2849-4.614z" fill="#fff"/><path d="m66 102-1.5419 4.101-44.4581 17.174 1.2849-4.614z" fill="#fff"/><path d="m150 4-1.542 4.10121-44.458 17.17379 1.285-4.6139z" fill="#fff"/><path d="m346 132-1.542 4.101-44.458 17.174 1.285-4.614z" fill="#fff"/><path d="m630 71.3382-10.839-5.3382-5.161 8.75 10.839 5.25z" fill="url(#e)"/><path d="m549.312 107.407-10.371-6.198-5.853 8.304 10.378 6.11z" fill="url(#f)"/><path d="m432.649 53.6159-10.371-6.1981-5.853 8.3035 10.378 6.1101z" fill="url(#g)"/><path d="m243.376 106.67-8.03-5.195-4.863 6.404 8.038 5.125z" fill="url(#h)"/><path d="m182.376 145.67-8.03-5.195-4.863 6.404 8.038 5.125z" fill="url(#i)"/><path d="m487.649 47.6159-10.371-6.1981-5.853 8.3035 10.378 6.1101z" fill="url(#j)"/><path clip-rule="evenodd" d="m588.5 4.50002c-1.167-1.16666-4.4-.39999-8 11.99998-3.6 12.4 2.833 11.5 6.5 9.5 1.333-.5 3.9-2.8 3.5-8s-4.167-7.8333-6-8.49997c.5-2 2-5.80001 4-5.00001zm-6.5 17.49998c-1.2-1.6.5-6 1.5-8 6.8 4.4 5.167 7.1667 3.5 8-1.167.6667-3.8 1.6-5 0z" fill="#fff" fill-rule="evenodd"/><path clip-rule="evenodd" d="m375.059 4.39041c-1.166-1.16667-4.4-.4-8 11.99999-3.6 12.4 2.834 11.5 6.5 9.5 1.334-.5 3.9-2.8 3.5-8s-4.166-7.8333-6-8.49999c.5-2 2-5.80001 4-5zm-6.5 17.49999c-1.2-1.6.5-6 1.5-8 6.8 4.4 5.167 7.1667 3.5 8-1.166.6667-3.8 1.6-5 0z" fill="#fff" fill-rule="evenodd"/><path clip-rule="evenodd" d="m278.059 5.39041c-1.166-1.16667-4.4-.4-8 11.99999-3.6 12.4 2.834 11.5 6.5 9.5 1.334-.5 3.9-2.8 3.5-8s-4.166-7.8333-6-8.5c.5-1.99999 2-5.8 4-4.99999zm-6.5 17.49999c-1.2-1.6.5-6 1.5-8 6.8 4.4 5.167 7.1667 3.5 8-1.166.6667-3.8 1.6-5 0z" fill="#fff" fill-rule="evenodd"/><path clip-rule="evenodd" d="m99.0594 3.39041c-1.1667-1.16667-4.4-.4-8 11.99999-3.6 12.4 2.8333 11.5 6.5 9.5 1.3333-.5 3.8996-2.8 3.4996-8s-4.1663-7.83332-5.9996-8.49999c.5-2 2-5.80001 4-5zm-6.5 17.49999c-1.2-1.6.5-6 1.5-8 6.7996 4.4 5.1666 7.1667 3.5 8-1.1667.6667-3.8 1.6-5 0z" fill="#fff" fill-rule="evenodd"/><path d="m491.217 87.7933c2.651 2.4668 4.895 4.1186 6.43 5.023 15.911-8.3106 17.437-13.2514 15.853-14.8163-13.5-13.5-41-5.5-44-4-2.4 1.2-4.333 7.8333-5 11 9.577-3.6618 16.575.7263 20.751 5.7961 2.181-1.0416 4.184-2.0507 5.966-3.0028-2.184-2.0321-4.646-4.6172-7.217-7.7933 4.333-.8333 13.6-1.8 16 1 .811.9461-2.69 3.5365-8.783 6.7933z" fill="#fff"/><path d="m406.391 114.717c12.265 6.329 37.165 6.075 82.609-17.717-.74-1.8242-1.995-4.0742-3.749-6.2039-10.656 5.0874-25.574 10.9509-39.751 14.7429-9.719 2.599-19.09 4.226-26.5 3.961-2.253-.157-5.155-.64-8-1.577-.657-.216-1.311-.457-1.954-.723-.107.23-.214.461-.319.693-.87 2.328-1.649 4.621-2.336 6.824z" fill="#fff"/><path d="m497.647 92.8163c-1.535-.9044-3.779-2.5562-6.43-5.023-1.782.9521-3.785 1.9612-5.966 3.0028 1.754 2.1297 3.009 4.3797 3.749 6.2039 3.27-1.4784 6.137-2.8729 8.647-4.1837z" fill="#fff"/><path d="m411 107.923c2.845.937 5.747 1.42 8 1.577 7.41.265 16.781-1.362 26.5-3.961 9-10.4618 21.5-26.539-1-31.539-16.833-3.7408-28.777 15.5215-35.503 33.179.016.007.033.014.049.021 4.664-9.9845 11.776-18.2417 16.454-22.2 18-8.5 27 2.5 26.5 6.5-9 17-31.167 17.115-41 16.423z" fill="#fff"/><path d="m400.5 94c-3.77 2.1147-10.471 5.0917-17.603 6.664.586 2.192 1.062 4.72 1.415 7.633 4.159-1.18 8.352-3.08 12.188-5.797.82 4.265 3.739 8.97 9.691 12.112.694-2.3 1.555-4.548 2.536-6.719.089-.237.179-.475.27-.714-5.404-2.253-9.964-6.334-8.497-13.179z" fill="#fff"/><path d="m366 100.5c-1-.5-2.3-1.9.5-3.5 2.459-1.4052 8.127-1.0826 11.974 4.436 1.478-.185 2.96-.449 4.423-.772-2.172-8.1296-5.855-11.6498-10.397-13.164-6-2-17.5 15-10.5 19.5 4.268 2.744 11.696 3.629 19.564 1.975-.69-3.2-1.786-5.668-3.09-7.539-4.376.547-8.721.405-12.474-.936z" fill="#fff"/><path d="m384.312 108.297c-.353-2.913-.829-5.441-1.415-7.633-1.463.323-2.945.587-4.423.772 1.304 1.871 2.4 4.339 3.09 7.539.911-.192 1.829-.417 2.748-.678z" fill="#fff"/><path d="m382 111.5c2 15-69.5 63-55 0-4.333 13.833-8.2 41 11 39 24-2.5 48-25.5 46.5-40.5-.058-.582-.121-1.15-.188-1.703-.919.261-1.837.486-2.748.678.171.796.318 1.637.436 2.525z" fill="#fff"/><path d="m515.5 67c4 4.8333 11.9 15.6 11.5 20-.5 5.5-12 12-28 6.5-.353-.1358-.809-.3626-1.353-.6837-2.51 1.3108-5.377 2.7053-8.647 4.1837 10.667 8.167 33.7 17.6 42.5-10 .167-3.1667-2.3-12.6-13.5-25z" fill="#fff"/><path d="m518.5 57.5-3 9.5m0 0c4 4.8333 11.9 15.6 11.5 20-.5 5.5-12 12-28 6.5-.353-.1358-.809-.3626-1.353-.6837m17.853-25.8163 2.5-5c11.2 12.4 13.667 21.8333 13.5 25-8.8 27.6-31.833 18.167-42.5 10m0 0c-.74-1.8242-1.995-4.0742-3.749-6.2039m3.749 6.2039c3.27-1.4784 6.137-2.8729 8.647-4.1837m-8.647 4.1837c-45.444 23.792-70.344 24.046-82.609 17.717m4.609-6.794c2.845.937 5.747 1.42 8 1.577 7.41.265 16.781-1.362 26.5-3.961m-34.5 2.384c9.833.692 32 .577 41-16.423.5-4-8.5-15-26.5-6.5-4.678 3.9583-11.79 12.2155-16.454 22.2m1.954.723c-.657-.216-1.311-.457-1.954-.723m36.454-1.661c9-10.4618 21.5-26.539-1-31.539-16.833-3.7408-28.777 15.5215-35.503 33.179m36.503-1.64c14.177-3.792 29.095-9.6555 39.751-14.7429m5.966-3.0028c2.651 2.4668 4.895 4.1186 6.43 5.023m-6.43-5.023c-1.782.9521-3.785 1.9612-5.966 3.0028m5.966-3.0028c-2.184-2.0321-4.646-4.6172-7.217-7.7933 4.333-.8333 13.6-1.8 16 1 .811.9461-2.69 3.5365-8.783 6.7933zm6.43 5.023c15.911-8.3106 17.437-13.2514 15.853-14.8163-13.5-13.5-41-5.5-44-4-2.4 1.2-4.333 7.8333-5 11 9.577-3.6618 16.575.7263 20.751 5.7961m-78.86 23.9209c.687-2.203 1.466-4.496 2.336-6.824m-2.336 6.824c-.515 1.653-.979 3.256-1.391 4.783.304-1.649.706-3.281 1.191-4.888m.2.105c-.067-.035-.134-.07-.2-.105m2.855-7.412c-.107.23-.214.461-.319.693m.319-.693c-.016-.007-.033-.014-.049-.021m-.27.714c.089-.237.179-.475.27-.714m-.27.714c-.981 2.171-1.842 4.419-2.536 6.719m2.806-7.433c-5.404-2.253-9.964-6.334-8.497-13.179-3.77 2.1147-10.471 5.0917-17.603 6.664m0 0c.586 2.192 1.062 4.72 1.415 7.633m-1.415-7.633c-2.172-8.1296-5.855-11.6498-10.397-13.164-6-2-17.5 15-10.5 19.5 4.268 2.744 11.696 3.629 19.564 1.975m1.333-8.311c-1.463.323-2.945.587-4.423.772m5.838 6.861c4.159-1.18 8.352-3.08 12.188-5.797.82 4.265 3.739 8.97 9.691 12.112m-21.879-6.315c.067.553.13 1.121.188 1.703 1.5 15-22.5 38-46.5 40.5-19.2 2-15.333-25.167-11-39-14.5 63 57 15 55 0-.118-.888-.265-1.729-.436-2.525m2.748-.678c-.919.261-1.837.486-2.748.678m-3.09-7.539c-3.847-5.5186-9.515-5.8412-11.974-4.436-2.8 1.6-1.5 3-.5 3.5 3.753 1.341 8.098 1.483 12.474.936zm0 0c1.304 1.871 2.4 4.339 3.09 7.539" stroke="#fff"/><path d="m515.5 68 1.5-11.5 11.5 9.8571c.333.5477.8 1.6429 0 1.6429z" fill="#fff"/><path d="m515.5 68 1.5-11.5 11.5 9.8571c.333.5477.8 1.6429 0 1.6429m-13 0h13m-13 0h13" stroke="#fff"/><path clip-rule="evenodd" d="m657.059 2.39041c-1.166-1.16667-4.4-.4-8 11.99999-3.6 12.4 2.834 11.5 6.5 9.5 1.334-.5 3.9-2.8 3.5-8s-4.166-7.83332-6-8.49999c.5-2 2-5.80001 4-5zm-6.5 17.49999c-1.2-1.6.5-6 1.5-8 6.8 4.4 5.167 7.1667 3.5 8-1.166.6667-3.8 1.6-5 0z" fill="#fff" fill-rule="evenodd"/><path d="m620.744 2c-1.718 5.14146-4.829 16.6914-1.356 18.4542.723.2754 2.659 0 4.612-3.3053-.181 2.6626-1.509 9.4104-5.426 8.814-5.426-.8263-1.085-20.38224 2.17-23.9629z" fill="#fff"/><path d="m4.74444 3c-1.71821 5.14146-4.8290729 16.6914-1.35648 18.4542.72346.2754 2.65871 0 4.61204-3.3053-.18086 2.6626-1.50918 9.4104-5.42592 8.814-5.42594-.8263-1.08521-20.38224 2.17036-23.9629z" fill="#fff"/><path d="m4.74444 47c-1.71821 5.1415-4.8290729 16.6914-1.35648 18.4542.72346.2754 2.65871 0 4.61204-3.3053-.18086 2.6626-1.50918 9.4104-5.42592 8.814-5.42594-.8263-1.08521-20.3822 2.17036-23.9629z" fill="#fff"/><path d="m336 13c2.833 33.5 8.1 101.3 6.5 104.5-2 4 3.5.5 4.5-21.5.671-14.7627-3.067-51.6645-5.962-76.3586z" fill="#fff"/><path d="m336 13 3.5-6c.457 3.6003.982 7.8954 1.538 12.6414l5.962 7.8586-7.5-23z" fill="#fff"/><path d="m339.5 7-3.5 6 5.038 6.6414c-.556-4.746-1.081-9.0411-1.538-12.6414z" fill="#fff"/><path d="m336 13c2.833 33.5 8.1 101.3 6.5 104.5-2 4 3.5.5 4.5-21.5.671-14.7627-3.067-51.6645-5.962-76.3586m-5.038-6.6414 3.5-6c.457 3.6003.982 7.8954 1.538 12.6414m-5.038-6.6414 3.5-8.5 7.5 23-5.962-7.8586m-5.038-6.6414 5.038 6.6414" stroke="#fff"/><path d="m196 11.3933c2.557 33.0797 7.311 100.0287 5.867 103.1887-1.805 3.95 3.159.494 4.062-21.2302.605-14.5775-2.769-51.0162-5.381-75.4004z" fill="#fff"/><path d="m196 11.3933 3.159-5.92467c.412 3.55514.886 7.79627 1.389 12.48277l5.381 7.76-6.77-22.7114z" fill="#fff"/><path d="m199.159 5.46863-3.159 5.92467 4.548 6.5581c-.503-4.6865-.977-8.92763-1.389-12.48277z" fill="#fff"/><path d="m196 11.3933c2.557 33.0797 7.311 100.0287 5.867 103.1887-1.805 3.95 3.159.494 4.062-21.2302.605-14.5775-2.769-51.0162-5.381-75.4004m-4.548-6.5581 3.159-5.92467c.412 3.55514.886 7.79627 1.389 12.48277m-4.548-6.5581 3.159-8.3933 6.77 22.7114-5.381-7.76m-4.548-6.5581 4.548 6.5581" stroke="#fff"/><path d="m478.5 127c.667.667 2.2 1.8 3 1 1-1-1-6-2.5-5s-9.5 9-7.5 12c1.494 2.24 4 .5 4 1.5s-12.5 20 3.5 17.5c3.167-.667 9.7-2.7 10.5-5.5-4.5 1-13.7 2.5-14.5.5-1-2.5 6.5-15.5 8.5-17l.5-2c-2 1.167-6.3 3.5-7.5 3.5s-3 .5-2.5-2c1-2 4.5-5.5 4.5-4.5z" fill="#fff" stroke="#fff"/><path clip-rule="evenodd" d="m297.342 133.333c1.803 1.715 5.285 4.416 7.158 3.667 2.5-1 2-13-2-12.5l-2.5 4.5c-.77 1.539-1.663 2.982-2.658 4.333zm5.658-.333c-1.2.4-2.833-1.167-3.5-2l1.5-3c2 .427 3.5 4.5 2 5z" fill="#fff" fill-rule="evenodd"/><path d="m302.5 124.5c-4 .5-11.5 21-39 26.5 8.238-.899 25.012-5.675 33.842-17.667.995-1.351 1.888-2.794 2.658-4.333z" fill="#fff"/><path d="m297 133c.106.106.22.217.342.333m5.158-8.833c4-.5 4.5 11.5 2 12.5-1.873.749-5.355-1.952-7.158-3.667m5.158-8.833c-4 .5-11.5 21-39 26.5 8.238-.899 25.012-5.675 33.842-17.667m5.158-8.833-2.5 4.5c-.77 1.539-1.663 2.982-2.658 4.333m2.158-2.333c.667.833 2.3 2.4 3.5 2 1.5-.5 0-4.573-2-5z" stroke="#fff"/><path clip-rule="evenodd" d="m53.8417 132.848c1.8032 1.715 5.285 4.417 7.1583 3.667 2.5-1 2-13-2-12.5l-2.5 4.5c-.7695 1.539-1.6635 2.982-2.6583 4.333zm5.6583-.333c-1.2.4-2.8333-1.166-3.5-2l1.5-3c2 .427 3.5 4.5 2 5z" fill="#fff" fill-rule="evenodd"/><path d="m59 124.015c-4 .5-11.5 21-39 26.5 8.2385-.899 25.0121-5.674 33.8417-17.667.9948-1.351 1.8888-2.794 2.6583-4.333z" fill="#fff"/><path d="m53.5 132.515c.1056.106.2198.217.3417.333m5.1583-8.833c4-.5 4.5 11.5 2 12.5-1.8733.75-5.3551-1.952-7.1583-3.667m5.1583-8.833c-4 .5-11.5 21-39 26.5 8.2385-.899 25.0121-5.674 33.8417-17.667m5.1583-8.833-2.5 4.5c-.7695 1.539-1.6635 2.982-2.6583 4.333m2.1583-2.333c.6667.834 2.3 2.4 3.5 2 1.5-.5 0-4.573-2-5z" stroke="#fff"/><path d="m307.5 76.5c-14.4 28.4-27 20.5-31.5 13l-1-2-1 11c.199 2.392 1.648 4.055 3.382 5.163.598.383 1.23.699 1.856.956 1.202.494 2.382.771 3.262.881 11.6-.4 19.5-12.1667 22-18 .975-2.4979 2.546-5.5481 4.5-7.8855 3.391-4.0569 7.932-5.9666 12.5.8855 1.333 4.0763.7 9.6061-12.5-.8855-1.954 2.3374-3.525 5.3876-4.5 7.8855 18.8 14.8 23.5 4 23-3.5-4-26.4-15-16-20-7.5z" fill="#fff"/><path d="m279.238 104.619c-.626-.257-1.258-.573-1.856-.956.759 7.84 1 17.253-1.382 19.337-4 3.5-30.5 24-54.5 20-18.797-3.133-21.645-18.227-21.036-30.63-5.964 25.63 10.507 63.229 72.036 21.13 2.667-2.167 8.4-8.6 8-15z" fill="#fff"/><path d="m304.5 87.5c18.8 14.8 23.5 4 23-3.5-4-26.4-15-16-20-7.5-14.4 28.4-27 20.5-31.5 13l-1-2-1 11c.199 2.392 1.648 4.055 3.382 5.163m27.118-16.163c-2.5 5.8333-10.4 17.6-22 18-.88-.11-2.06-.387-3.262-.881m25.262-17.119c.975-2.4979 2.546-5.5481 4.5-7.8855m0 0c3.391-4.0569 7.932-5.9666 12.5.8855 1.333 4.0763.7 9.6061-12.5-.8855zm-29.762 25.0045c-.626-.257-1.258-.573-1.856-.956m1.856.956 1.262 13.881c.4 6.4-5.333 12.833-8 15-61.529 42.099-78 4.5-72.036-21.13m78.774-7.751-.738-8.119h-2c.298 1.9609.621 4.469.882 7.163m0 0c.759 7.84 1 17.253-1.382 19.337-4 3.5-30.5 24-54.5 20-18.797-3.133-21.645-18.227-21.036-30.63m0 0c.189-3.229.551-6.39 1.036-9.37-.434 2.71-.867 5.937-1.036 9.37z" stroke="#fff"/><path d="m25.9218 19.7427c.7395-.9984 1.279-1.914 1.6531-2.7476-1.5495-.6823-2.99-1.4739-3.9241-2.0495.6061-1.4988 2.0846-4.3601 3.1497-3.8151 1.1738.4834 1.9979 1.065 2.5195 1.7259 3.091 2.238 6.2787 5.0313 4.2601 5.481-1.1364.2532-2.7511-.1008-4.3947-.6943-.4517.8112-1.071 1.6559-1.8239 2.5203 6.3166 1.7615 8.594 1.2187 8.9144.5623 4.0092-5.5758-5.6651-13.22544-11.0034-16.35327-3.123.59617-4.0596 9.41437-4.1375 13.74897 1.7828.656 3.3725 1.1902 4.7868 1.6213z" fill="#fff"/><path d="m27.5749 16.9951c-.3741.8336-.9136 1.7492-1.6531 2.7476.5017.1529.9814.2929 1.4397.4207.7529-.8644 1.3722-1.7091 1.8239-2.5203-.539-.1946-1.0811-.4149-1.6105-.648z" fill="#fff"/><path d="m29.32 12.8564c-.89-.6444-1.7721-1.2428-2.5195-1.7259 1.323.9178 2.1238 2.8583.7744 5.8646.5294.2331 1.0715.4534 1.6105.648 1.0098-1.8136 1.1816-3.46.1346-4.7867z" fill="#fff"/><path d="m5.98045 35.3212c6.82095-3.6217 16.69185-9.7738 21.38105-15.1578-.4583-.1278-.938-.2678-1.4397-.4207-2.8931 3.906-8.8475 9.0804-19.94135 15.5785z" fill="#fff"/><path d="m125.253 97.0156c.591-2.3006 1.34-4.7757 2.259-7.4363-6.259-3.1412-9.95-8.5306-11.512-13.0793-21.1999 22.4-30.3332 9.8334-31.4999 0-.0235-.715-.0471-1.4231-.0709-2.1243-1.0466 1.1856-2.0768 2.3009-3.0886 3.3494.0716 2.8062.1242 5.4232.1595 7.7749 8 24 25.1669 10 32.9999 0 2.635 5.6322 6.393 9.2993 10.753 11.5156z" fill="#fff"/><path d="m81.0567 68.5151c-15.0484 15.7678-23.0542 20.8863-29.5566 16.9849-6-3.6-2.5-20.5 0-28.5-4.3333 11.5-9.4 34 5 36 3.6303.1397 12.9688-2.9725 24.8405-15.2749-.0738-2.8963-.1679-5.9942-.2839-9.21z" fill="#fff"/><path d="m77.5001 4.00002c-.4 1.2-2.1666 5.83333-3 7.99998 3.7652 4.3927 5.7255 33.4791 6.5566 56.5151.9837-1.0307 1.9974-2.1068 3.0428-3.229-2.5051-64.57982-6.1253-62.70823-6.5994-61.28608z" fill="#fff"/><path d="m122.5 61.5c.667-3.5 1.6-10.8 0-12-2-1.5-14-11-33.9999 11-1.5268 1.6795-2.9924 3.2745-4.4006 4.7861.1122 2.8944.2223 5.9222.3297 9.0896 1.3317-1.5087 2.6901-3.1314 4.0709-4.8757 18.9999-24 33.9999-13 33.9999-8z" fill="#fff"/><path d="m81.3406 77.7251c1.0118-1.0485 2.042-2.1638 3.0886-3.3494-.1074-3.1674-.2175-6.1952-.3297-9.0896-1.0454 1.1222-2.0591 2.1983-3.0428 3.229.116 3.2158.2101 6.3137.2839 9.21z" fill="#fff"/><path d="m171.5 63c-21.5-15.5-35.167 8.3333-42.5 22.5-.538 1.4059-1.034 2.7652-1.488 4.0793.583.2923 1.188.5652 1.815.8161 11.44-21.0404 20.211-23.4001 24.173-23.8954 19.5-1 21.667 10 19 13-19.971 13.5359-33.992 14.567-43.173 10.8954-.627-.2509-1.232-.5238-1.815-.8161-.919 2.6606-1.668 5.1357-2.259 7.4363.451.2293.908.443 1.372.6418 14.777 6.3406 35.506-2.5369 43.375-8.1574 13.5-13 7-22 1.5-26.5z" fill="#fff"/><path d="m187.5 109.5c3.6 0 1.5 5.667 0 8.5 3.5-5 9.1-15.4 3.5-17-6.663-1.9038-75.848 36.514-64.375-3.3426-.464-.1988-.921-.4125-1.372-.6418-13.76 53.5444 58.019 12.4844 62.247 12.4844z" fill="#fff"/><path d="m125.253 97.0156c.591-2.3006 1.34-4.7757 2.259-7.4363m-2.259 7.4363c-4.36-2.2163-8.118-5.8834-10.753-11.5156-7.833 10-24.9999 24-32.9999 0-.0353-2.3517-.0879-4.9687-.1595-7.7749m43.9124 19.2905c-13.76 53.5444 58.019 12.4844 62.247 12.4844 3.6 0 1.5 5.667 0 8.5 3.5-5 9.1-15.4 3.5-17-6.663-1.9038-75.848 36.514-64.375-3.3426m-1.372-.6418c.451.2293.908.443 1.372.6418m.887-8.0781c-6.259-3.1412-9.95-8.5306-11.512-13.0793-21.1999 22.4-30.3332 9.8334-31.4999 0-.0235-.715-.0471-1.4231-.0709-2.1243m43.0828 15.2036c.454-1.3141.95-2.6734 1.488-4.0793 7.333-14.1667 21-38 42.5-22.5 5.5 4.5 12 13.5-1.5 26.5-7.869 5.6205-28.598 14.498-43.375 8.1574m.887-8.0781c.583.2923 1.188.5652 1.815.8161m-44.8978-16.0197c-1.0466 1.1856-2.0768 2.3009-3.0886 3.3494m3.0886-3.3494c1.3317-1.5087 2.6901-3.1314 4.0709-4.8757 18.9999-24 33.9999-13 33.9999-8 .667-3.5 1.6-10.8 0-12-2-1.5-14-11-33.9999 11-1.5268 1.6795-2.9924 3.2745-4.4006 4.7861m.3297 9.0896c-.1074-3.1674-.2175-6.1952-.3297-9.0896m-2.7589 12.439c-11.8717 12.3024-21.2102 15.4146-24.8405 15.2749-14.4-2-9.3333-24.5-5-36-2.5 8-6 24.9 0 28.5 6.5024 3.9014 14.5082-1.2171 29.5566-16.9849m.2839 9.21c-.0738-2.8963-.1679-5.9942-.2839-9.21m0 0c-.8311-23.036-2.7914-52.1224-6.5566-56.5151.8334-2.16665 2.6-6.79998 3-7.99998.4741-1.42215 4.0943-3.29374 6.5994 61.28608m-3.0428 3.229c.9837-1.0307 1.9974-2.1068 3.0428-3.229m45.2275 25.1093c11.44-21.0404 20.211-23.4001 24.173-23.8954 19.5-1 21.667 10 19 13-19.971 13.5359-33.992 14.567-43.173 10.8954zm0 0c-.109.1998-.218.4014-.327.6046-1.01 2.4292-1.796 4.6433-2.375 6.6574" stroke="#fff"/><path d="m108.5 128c2.167 1.333 4 4.4-6 6-1.806.289-3.2777.463-4.5.574-7.2392.655-5.728-.918-13 5.926-6.2241 5.858-8.4268 9.035-10.5343 10.316 2.4839-1.011 6.3377-3.291 11.0343-7.816 8.5-8.19 6.5-6.5 14-6.5s18-6 10.5-10.5c-1.5-.9-6.8 1.033-12 8.574 6-6.741 9.5-7.192 10.5-6.574z" fill="#fff"/><path d="m68 38.5c-8.4498-6.8143-14.5221-11.7465-18.622-15.4445-2.1196 1.4662-4.3163 3.1314-6.378 4.9062l4.5-1.9617c1.1228 2.148 2.36 5.0452 3.2969 8.2093 1.3769.8304 2.9378 1.7574 4.7031 2.7907 18.5927 10.8835 14.9757 18.8881-5.6285 15.061-.8532 1.1518-1.9616 2.1494-3.3715 2.939-1.3139.7357-2.6719 1.4549-4.0514 2.1575 1.7568.6569 3.5046 1.095 5.0514 1.3425 26 6.4 25.5-14.5 20.5-20z" fill="#fff"/><path d="m48.3367 22.1032c-2.7562 1.1444-5.35 2.999-7.5572 4.971-1.2462 2.3235-3.0948 4.5889-5.7796 6.4258-6.1198 10.2814-3.1886 16.8424 1.9175 20.6917 2.5726-1.1656 4.6866-2.3752 6.4041-3.6073-.1068-.0279-.214-.056-.3215-.0844-15.4808-4.0893-9.6858-13.9374-.7599-21.8737-1.6095-1.3071-.6155-1.1737.7599-.6646 2.0617-1.7748 4.2584-3.44 6.378-4.9062-.3624-.3269-.7094-.6442-1.0413-.9523z" fill="#fff"/><path d="m49.8715 52.061c3.4256-4.625 2.7363-11.7366.9254-17.8517-3.1469-1.898-5.3322-3.2913-6.7969-4.2954 5.1705 4.1587 10.2007 12.8662-.6785 20.6705 2.3436.6117 4.5285 1.1011 6.55 1.4766z" fill="#fff"/><path d="m47.5 26-4.5 1.9617c-.2555.2199-.5089.4415-.7599.6646.4076.3311.9822.7545 1.7599 1.2876 1.4647 1.0041 3.65 2.3974 6.7969 4.2954-.9369-3.1641-2.1741-6.0613-3.2969-8.2093z" fill="#fff"/><path d="m40.7795 27.0742c2.2072-1.972 4.801-3.8266 7.5572-4.971-2.8005-2.5996-4.5234-4.5443-5.3367-6.1032.3233 2.3714.0611 6.8203-2.2205 11.0742z" fill="#fff"/><path d="m46.5 55c1.4099-.7896 2.5183-1.7872 3.3715-2.939-2.0215-.3755-4.2064-.8649-6.55-1.4766-1.7175 1.2321-3.8315 2.4417-6.4041 3.6073 1.6887 1.2731 3.6154 2.2495 5.5312 2.9658 1.3795-.7026 2.7375-1.4218 4.0514-2.1575z" fill="#fff"/><path d="m29.5 57c-23.10043 7.3653-17.4562 18.0465-9.041 24.6558 1.9595.9263 3.7216 2.1485 5.041 3.3442-1.6575-.9238-3.4018-2.0568-5.041-3.3442-5.9612-2.8179-13.74962-2.8966-16.45903 8.8442-4.0167322 17.406 6.70633 43.682 6.92233 56.367-.0256-5.824-1.1892-18.75-5.42233-43.867-1.16668-9 1.99997-23.3 24.00003-12.5.8333.5 2.5-.5 2.5-8.5-5.5-2.1667-16.3-7.3-15.5-10.5.8949-3.5796 14.2027-8.3604 25.9486-14.3425-1.9158-.7163-3.8425-1.6927-5.5312-2.9658-2.1425.9707-4.603 1.9109-7.4174 2.8083z" fill="#fff"/><path d="m98 134.574c1.2223-.111 2.694-.285 4.5-.574 10-1.6 8.167-4.667 6-6-1-.618-4.5-.167-10.5 6.574zm0 0c-7.2392.655-5.728-.918-13 5.926-6.2241 5.858-8.4268 9.035-10.5343 10.316m23.5343-16.242c5.2-7.541 10.5-9.474 12-8.574 7.5 4.5-3 10.5-10.5 10.5s-5.5-1.69-14 6.5c-4.6966 4.525-8.5504 6.805-11.0343 7.816m0 0c-1.1125.453-1.9502.652-2.4657.684.9371 0 1.695-.215 2.4657-.684zm-39.4658-117.316c2.6848-1.8369 4.5334-4.1023 5.7796-6.4258m-5.7796 6.4258c-6.1198 10.2814-3.1886 16.8424 1.9175 20.6917m-1.9175-20.6917c1.1681-1.679 3.2123-4.1319 5.7796-6.4258m2.2205.8875 4.5-1.9617c1.1228 2.148 2.36 5.0452 3.2969 8.2093m-7.7969-6.2476c2.0617-1.7748 4.2584-3.44 6.378-4.9062m-6.378 4.9062c-1.3754-.5091-2.3694-.6425-.7599.6646m.7599-.6646c-.2555.2199-.5089.4415-.7599.6646m1.7599 1.2876c1.4647 1.0041 3.65 2.3974 6.7969 4.2954m-6.7969-4.2954c-.7777-.5331-1.3523-.9565-1.7599-1.2876m1.7599 1.2876c5.1705 4.1587 10.2007 12.8662-.6785 20.6705m6.0565-27.5289c4.0999 3.698 10.1722 8.6302 18.622 15.4445 5 5.5 5.5 26.4-20.5 20-1.5468-.2475-3.2946-.6856-5.0514-1.3425m6.9294-34.102c1.0693-.7397 2.1191-1.4287 3.122-2.0555-1.4093.1483-2.806.5397-4.1633 1.1032m1.0413.9523c-.3624-.3269-.7094-.6442-1.0413-.9523m2.4602 12.1061c1.3769.8304 2.9378 1.7574 4.7031 2.7907 18.5927 10.8835 14.9757 18.8881-5.6285 15.061m.9254-17.8517c1.8109 6.1151 2.5002 13.2267-.9254 17.8517m0 0c-.8532 1.1518-1.9616 2.1494-3.3715 2.939-1.3139.7357-2.6719 1.4549-4.0514 2.1575m7.4229-5.0965c-2.0215-.3755-4.2064-.8649-6.55-1.4766m-.8729 6.5731c-11.7459 5.9821-25.0537 10.7629-25.9486 14.3425-.8 3.2 10 8.3333 15.5 10.5 0 8-1.6667 9-2.5 8.5-22.00006-10.8-25.16671 3.5-24.00003 12.5 4.23313 25.117 5.39673 38.043 5.42233 43.867m31.5263-89.7095c-1.9158-.7163-3.8425-1.6927-5.5312-2.9658m11.4193-32.0885c-2.7562 1.1444-5.35 2.999-7.5572 4.971m7.5572-4.971c-2.8005-2.5996-4.5234-4.5443-5.3367-6.1032.3233 2.3714.0611 6.8203-2.2205 11.0742m-3.8621 27.1175c2.5726-1.1656 4.6866-2.3752 6.4041-3.6073m-6.4041 3.6073c-2.1425.9707-4.603 1.9109-7.4174 2.8083-23.10043 7.3653-17.4562 18.0465-9.041 24.6558m22.8625-31.0714c-.1068-.0279-.214-.056-.3215-.0844-15.4808-4.0893-9.6858-13.9374-.7599-21.8737m-21.7811 53.0295c1.9595.9263 3.7216 2.1485 5.041 3.3442-1.6575-.9238-3.4018-2.0568-5.041-3.3442zm0 0c-5.9612-2.8179-13.74962-2.8966-16.45903 8.8442-4.0167322 17.406 6.70633 43.682 6.92233 56.367m0 0c.0107 2.431-.1769 3.624-.4223 3.949.3222-1.093.4483-2.423.4223-3.949z" stroke="#fff"/><path d="m847.5 95.4999c-4.333.5-12.8.4-12-4 1-5.5 12 0 12 4z" fill="#000" stroke="#fff"/></svg>