<svg fill="none" height="2400" viewBox="0 0 1080 2400" width="1080" xmlns="http://www.w3.org/2000/svg" xmlns:xlink="http://www.w3.org/1999/xlink"><linearGradient id="a"><stop offset="0" stop-color="#f3e07b"/><stop offset="1" stop-color="#bc6317"/></linearGradient><linearGradient id="b" gradientUnits="userSpaceOnUse" x1="540.284" x2="540.284" xlink:href="#a" y1="712" y2="1687.1"/><linearGradient id="c" gradientUnits="userSpaceOnUse" x1="743.567" x2="743.567" xlink:href="#a" y1="885.343" y2="969.343"/><linearGradient id="d" gradientUnits="userSpaceOnUse" x1="746.567" x2="746.567" xlink:href="#a" y1="987.343" y2="1071.34"/><path d="m0 0h1080v2400h-1080z" fill="#000"/><path clip-rule="evenodd" d="m298.567 1156.84c10.4-31.2 54.667-88.66 75.5-113.5 13.447-11.8 27.881-23.27 43.035-34.38-8.419-10.2-19.872-22.37-35.529-36.634-23.019 22.702-42.175 46.794-64.006 75.014-70 90.5-108.5 249.5-94.5 401s148.933 266.2 327.5 233c174.5-32.44 237-137 280-206 34.4-55.2 46.334-127.66 48-157 0-75.5-30-215.5-114-215.5-51.6-4.8-80.5 44.34-88.5 69.5-35.2 95.2 16.334 124.34 46.5 127 45.5-.66 136 5.3 134 34.5s-51.166 94.17-75.5 123c-32.623 38.66-121.7 128.8-286.5 128-206-1-238-163-238-254.5 5.5-110 29-134.5 42-173.5zm398 43c12.667-14 48-31.9 88 8.5-17.333 4-59.2 7.9-88-8.5z" fill="url(#b)" fill-rule="evenodd"/><path d="m381.573 972.326c15.657 14.264 27.11 26.434 35.529 36.634 10.398-7.63 21.135-15.086 32.123-22.36-3.385-17.738-10.985-32.594-22.734-52.682-17.092 12.692-31.647 25.319-44.918 38.408z" fill="url(#b)"/><path d="m425.567 932.343c-18.8-32-69.833-69.333-93-84-13.494-9-93-55-79-55s134-12.5 268 0c107.2 10 137.334 17.167 139 19.5-117.168 48.799-185.758 85.195-234.076 121.075 11.749 20.088 19.349 34.944 22.734 52.682 116.856-77.352 262.161-134.095 331.342-155.757l34.5-71c-2.4-3.6-166.333-27.833-248-39.5-150.8-13.2-251.166-7.833-282.5-3.5-24.666 6.167-75.6 32.1-82 86.5-8 68 70 80.5 146 141 12.687 10.1 23.604 19.419 33.006 27.983 13.271-13.089 27.826-25.716 44.918-38.408-.305-.521-.613-1.046-.924-1.575z" fill="url(#b)"/><path d="m440.567 1047.34c2.8 8 5.834 5.67 7 3.5 4.299-28.42 4.834-47.6 1.658-64.24-10.988 7.274-21.725 14.73-32.123 22.36 16.807 20.35 21.523 32.83 23.465 38.38z" fill="url(#b)"/><circle cx="743.567" cy="927.343" fill="url(#c)" r="42"/><circle cx="746.567" cy="1029.34" fill="url(#d)" r="42"/><path d="m609.058 1095.96-12.938-11.86c8.49 73.21 24.339 214.26 23.947 228.74 4-7 10.2-34.2 3-87-7.253-53.19-12.883-111.58-14.009-129.88z" fill="#fff"/><path d="m608.852 1091.14c-1.626-.16-9.101-7.47-13.285-11.8.181 1.55.365 3.14.553 4.76l12.938 11.86c-.137-2.23-.208-3.86-.206-4.82z" fill="#fff"/><path d="m602.067 1060.34-9.5 20.5 3.553 3.26c-.188-1.62-.372-3.21-.553-4.76 4.184 4.33 11.659 11.64 13.285 11.8.001-.94.071-1.23.215-.8.196.59.102.83-.215.8-.002.96.069 2.59.206 4.82l7.509 6.88v-8z" fill="#fff"/><path d="m609.058 1095.96-12.938-11.86m12.938 11.86c1.126 18.3 6.756 76.69 14.009 129.88 7.2 52.8 1 80-3 87 .392-14.48-15.457-155.53-23.947-228.74m12.938 11.86 7.509 6.88v-8l-14.5-34.5-9.5 20.5 3.553 3.26m12.938 11.86c-.137-2.23-.208-3.86-.206-4.82m-12.732-7.04c-.188-1.62-.372-3.21-.553-4.76 4.184 4.33 11.659 11.64 13.285 11.8m0 0c.001-.94.071-1.23.215-.8.196.59.102.83-.215.8z" stroke="#fff"/><path d="m561.15 1056.72-13.01-12.44c8.537 76.83 24.475 224.87 24.081 240.06 4.022-7.34 10.257-35.89 3.017-91.3-7.294-55.83-12.955-117.11-14.088-136.32z" fill="#fff"/><path d="m560.943 1051.66c-1.635-.17-9.152-7.84-13.359-12.38.181 1.63.367 3.3.556 5l13.01 12.44c-.138-2.34-.209-4.05-.207-5.06z" fill="#fff"/><path d="m554.12 1019.34-9.553 21.52 3.573 3.42c-.189-1.7-.375-3.37-.556-5 4.207 4.54 11.724 12.21 13.359 12.38.001-.98.072-1.28.217-.83.197.62.101.87-.217.83-.002 1.01.069 2.72.207 5.06l7.551 7.23v-8.4z" fill="#fff"/><path d="m561.15 1056.72-13.01-12.44m13.01 12.44c1.133 19.21 6.794 80.49 14.088 136.32 7.24 55.41 1.005 83.96-3.017 91.3.394-15.19-15.544-163.23-24.081-240.06m13.01 12.44 7.551 7.23v-8.4l-14.581-36.21-9.553 21.52 3.573 3.42m13.01 12.44c-.138-2.34-.209-4.05-.207-5.06m-12.803-7.38c-.189-1.7-.375-3.37-.556-5 4.207 4.54 11.724 12.21 13.359 12.38m0 0c.001-.98.072-1.28.217-.83.197.62.101.87-.217.83z" stroke="#fff"/><g fill="#fff"><path d="m640.277 1278.34c-2.792 8.36-7.847 27.13-2.204 29.99 1.175.45 4.32 0 7.494-5.37-.294 4.33-2.452 15.29-8.817 14.32-8.817-1.34-1.763-33.12 3.527-38.94z"/><path d="m598.277 1220.34c-2.792 8.36-7.847 27.13-2.204 29.99 1.175.45 4.32 0 7.494-5.37-.294 4.33-2.452 15.29-8.817 14.32-8.817-1.34-1.763-33.12 3.527-38.94z"/><path d="m548.277 1247.34c-2.792 8.36-7.847 27.13-2.204 29.99 1.175.45 4.32 0 7.494-5.37-.294 4.33-2.452 15.29-8.817 14.32-8.817-1.34-1.763-33.12 3.527-38.94z"/><path d="m372.091 1188.34c-2.363 7.29-6.64 23.65-1.865 26.15.995.39 3.656 0 6.341-4.69-.248 3.78-2.075 13.34-7.46 12.49-7.461-1.17-1.492-28.87 2.984-33.95z"/><path d="m472.313 1098.72 1.826-6.38c3.958 5.78 10.594 19.33 5.48 27.35s-10.046 1.52-11.873-2.73c-1.217 3.64-4.566 10.39-8.219 8.2-4.567-2.74-6.393-14.59-6.393-17.32 0-2.19-2.436-1.52-3.653-.91l-.914-1.82c.609-2.13 2.375-6.2 4.567-5.47s3.348 2.73 3.653 3.64c-1.218 6.69-2.009 18.96 4.566 14.59 6.576-4.38 3.349-12.16.914-15.5l1.826-8.2c1.522 4.86 4.749 15.13 5.48 17.32.913 2.73 3.653 5.47 6.393 4.55 2.74-.91.913-15.49-3.653-17.32z"/><path d="m559.313 1355.72 1.826-6.38c3.958 5.78 10.594 19.33 5.48 27.35s-10.046 1.52-11.873-2.73c-1.217 3.64-4.566 10.39-8.219 8.2-4.567-2.74-6.393-14.59-6.393-17.32 0-2.19-2.436-1.52-3.653-.91l-.914-1.82c.609-2.13 2.375-6.2 4.567-5.47s3.348 2.73 3.653 3.64c-1.218 6.69-2.009 18.96 4.566 14.59 6.576-4.38 3.349-12.16.914-15.5l1.826-8.2c1.522 4.86 4.749 15.13 5.48 17.32.913 2.73 3.653 5.47 6.393 4.55 2.74-.91.913-15.49-3.653-17.32z"/><path d="m435.567 1182.85 2.808-11.51c4.056 6.07 12.168 20.61 12.168 30.2.156 7.99-.374 24.74-3.744 27.8h-.936c1.56-7.99 3.744-25.59 0-32.11s-8.424-12.31-10.296-14.38z"/><path clip-rule="evenodd" d="m488.45 1301.51c-1.995-1.28-6.32.77-7.663 19.2s7.451 15.22 12.016 11.32c1.728-1.11 4.653-5.1 2.526-12.25-2.128-7.15-8.228-9.69-11.011-10.07.103-2.95 1.073-8.71 4.132-8.2zm-3.895 26.44c-2.172-1.88-1.1-8.54-.293-11.64 10.905 4.09 9.436 8.45 7.338 10.12-1.443 1.29-4.873 3.39-7.045 1.52z" fill-rule="evenodd"/><path d="m606.136 1271.34-1.554 6.79-73.892 41.1.95-7.49z"/><path d="m527.136 1052.34-2.932 7.28-114.637 49.72 2.087-7.95z"/><path d="m400.498 1346.34-1.447 6.32-68.785 38.26.885-6.97z"/><path d="m386.481 1278.34-1.18 5.15-56.087 31.2.722-5.68z"/><path d="m644.433 1451.34-.607 5.17-41.261 29.33.225-5.72z"/><path d="m506.824 1100.68c-1.849-1.87-6.114-4.55-8.379-.23-.195 1.3-.495 4.06-.129 4.69.458.8 7.567.99 9.083 3.38 2.305 2.41 8.11 9.77 9.817 16.7.222-8.08 1.303-24.37 3.848-24.93 2.545-.55 5.259.41 6.298.96l1.004-7.8c-2.853-1.64-8.923-3.22-10.376 3.63-1.453 6.84-2.046 16.89-2.16 21.06z" stroke="#fff" stroke-width=".657143"/><path d="m363.064 1312.37c-2.096-2.13-6.93-5.16-9.498-.26-.221 1.47-.561 4.59-.146 5.31.519.9 8.578 1.13 10.296 3.83 2.613 2.74 9.194 11.08 11.128 18.93.252-9.15 1.477-27.63 4.362-28.26s5.962.46 7.139 1.09l1.139-8.84c-3.234-1.86-10.115-3.65-11.762 4.11s-2.319 19.15-2.449 23.88z" stroke="#fff" stroke-width=".657143"/><path d="m405.06 1411.93c-2.096-2.13-6.93-5.16-9.497-.26-.222 1.47-.561 4.59-.146 5.32.518.9 8.577 1.12 10.295 3.83 2.613 2.73 9.194 11.07 11.129 18.93.252-9.16 1.477-27.63 4.361-28.26 2.885-.63 5.962.46 7.14 1.08l1.139-8.84c-3.235-1.86-10.116-3.65-11.763 4.11s-2.319 19.15-2.449 23.88z" stroke="#fff" stroke-width=".657143"/><path clip-rule="evenodd" d="m411.247 1137.33c-3.965-1.76-4.934-3.87-3.877-7.92.705-2.81 1.322-5.63 1.674-8.44.529-4.13 2.291-5.54 6.079-4.05 6.079 2.38 11.276 5.98 14.36 11.88 1.85 3.52 1.321 7.83-1.498 10.46-.793.8-2.29.97-3.524 1.06-1.585 0-3.171-.35-4.845-.53-2.026-.26-3.348.44-4.405 2.29-9.714 10.09-37.144 33.06-69.144 44.26-1.833-.16-4.2-1 1-3 6.5-2.5 54.174-26.29 67.087-44.64-1.184-.57-2.023-.99-2.907-1.37zm2.907-12.23c1.409-.96 3.348 2.03 3.436 6.34-.441.44-1.322 2.11-2.467 2.46-2.291.53-6.343-2.2-5.726-3.34 1.145-2.11 2.731-4.23 4.757-5.46zm6.431 2.2c4.141.27 7.224 3.7 7.224 8.36-.758-.09-1.507-.15-2.246-.22-1.583-.14-3.125-.27-4.626-.57-.616-.18-1.321-1.5-1.321-2.29.063-1.26.351-2.51.638-3.77.115-.5.23-1.01.331-1.51z" fill-rule="evenodd"/><path d="m524.567 1161.84-15 1c1.167 0 3.7 1.7 4.5 8.5 1 8.5 19.5 66.5 14 69s-32 8-36.5-25.5-6-61.5-15.5-81l-8 24c9.167 25 17.5 81.5-20.5 90-15.5 3.47-41.4-5.3-25-56.5 4.5-17.66 8.6-47.6-11-26-3.666 3.67-12.7 17.3-19.5 42.5-8.5 31.5-21.5 63-32 41s-11-42-9-57.5c-4.833 20-8.3 63.5 16.5 77.5 6.167 2.84 21.5-6.1 33.5-64.5 1.644-8 9.3-21.7 12.5-20.5.667 0 1.6.8 0 4-2 4-19.5 63 8 76.5 12.5 5.67 40.7 8 53.5-28 .667-2.16 2.3-8.2 3.5-15s1.263 1.5 2.5 7c4.5 20 19.8 47.7 51 26.5 7.667-5.66 13.694-26-2.5-73.5-1.817-5.33-4.058-14.01-2.532-16.81-.943-.99-1.806-1.94-2.468-2.69z"/><path d="m509.567 1162.84 15-1c.662.75 1.525 1.7 2.468 2.69.573-1.05 1.677-1.28 3.532-.19l-9.5-9z"/><path d="m518.067 1141.84c-4 6.5-11.3 19.8-8.5 21l11.5-7.5 9.5 9c-1.855-1.09-2.959-.86-3.532.19 2.623 2.75 5.856 5.81 7.032 5.81 2 0 3.5-3.5-16-28.5z"/></g><path d="m509.567 1162.84c-2.8-1.2 4.5-14.5 8.5-21 19.5 25 18 28.5 16 28.5-1.176 0-4.409-3.06-7.032-5.81m-17.468-1.69 15-1c.662.75 1.525 1.7 2.468 2.69m-17.468-1.69c1.167 0 3.7 1.7 4.5 8.5 1 8.5 19.5 66.5 14 69s-32 8-36.5-25.5-6-61.5-15.5-81l-8 24c9.167 25 17.5 81.5-20.5 90-15.5 3.47-41.4-5.3-25-56.5 4.5-17.66 8.6-47.6-11-26-3.666 3.67-12.7 17.3-19.5 42.5-8.5 31.5-21.5 63-32 41s-11-42-9-57.5c-4.833 20-8.3 63.5 16.5 77.5 6.167 2.84 21.5-6.1 33.5-64.5 1.644-8 9.3-21.7 12.5-20.5.667 0 1.6.8 0 4-2 4-19.5 63 8 76.5 12.5 5.67 40.7 8 53.5-28 .667-2.16 2.3-8.2 3.5-15s1.263 1.5 2.5 7c4.5 20 19.8 47.7 51 26.5 7.667-5.66 13.694-26-2.5-73.5-1.817-5.33-4.058-14.01-2.532-16.81m-17.468-1.69 11.5-7.5 9.5 9c-1.855-1.09-2.959-.86-3.532.19" stroke="#fff"/><path d="m649.567 1356.34c.952-4.8-13.27-7.66-20.5-8.5l20.012 10.99c.09-.6.265-1.36.488-2.49z" fill="#fff"/><path d="m637.567 1327.84-8.5 20c7.23.84 21.452 3.7 20.5 8.5-.223 1.13-.398 1.89-.488 2.49l5.488 3.01v-5z" fill="#fff"/><path d="m629.067 1347.84c1.167.67 3.7 3.8 4.5 11 1 9 19 40 16.5 49.5s-62.5 52-107.5 41.5c-36-8.4-32.6-37.5-27-55 3.36-10.5 9.5-31.5 25.5-31.5.5 0 1.6-.4 2-2s-.166-2.66-.5-3c-4.8-4.8-12.187 0-17 6-12.833 16-33.6 56-14 92 7.623 14 41.8 31.6 99 0 14.167-8.16 43.2-28.1 46-42.5 1.653-8.5 4.6-23.6-1-38-5.686-14.62-6.878-14.39-6.488-17.01z" fill="#fff"/><path d="m629.067 1347.84 8.5-20 17 29v5l-5.488-3.01m-20.012-10.99c1.167.67 3.7 3.8 4.5 11 1 9 19 40 16.5 49.5s-62.5 52-107.5 41.5c-36-8.4-32.6-37.5-27-55 3.36-10.5 9.5-31.5 25.5-31.5.5 0 1.6-.4 2-2s-.166-2.66-.5-3c-4.8-4.8-12.187 0-17 6-12.833 16-33.6 56-14 92 7.623 14 41.8 31.6 99 0 14.167-8.16 43.2-28.1 46-42.5 1.653-8.5 4.6-23.6-1-38-5.686-14.62-6.878-14.39-6.488-17.01m-20.012-10.99c7.23.84 21.452 3.7 20.5 8.5-.223 1.13-.398 1.89-.488 2.49m-20.012-10.99 20.012 10.99" stroke="#fff"/><path d="m541.903 1418.13c11.509-6.32 22.785-13.06 33.143-20.04-6.298-1.96-13.924-3.25-22.979-3.25-22.068 0-50.498-1.59-72.129-5.77-5.548 6.62-10.174 13.6-13.849 20.7 8.185 2.49 18.986 4.67 33.478 6.07 16.026 1.55 30.152 1.8 42.336 2.29z" fill="#fff"/><path d="m470.676 1387c-4.324 6.9-8.225 12.92-11.655 20.32 2.113.84 4.457 1.66 7.068 2.45 3.675-7.1 8.301-14.08 13.849-20.7-3.256-.63-6.359-1.32-9.262-2.07z" fill="#fff"/><path d="m451.567 1378.84c-14.5-12-21-21.5-26-54s-19.5-67-29.5-76l-3.5 27.5c6.5 10.5 20.6 40.8 25 78-12.166 16.84-43.9 51.6-73.5 56-37 5.5-21-45.5-8-65.5.5-2 .8-5.6-2-4-3.5 2-47 85 5.5 91 3.167.17 11.3-.6 18.5-5 9-5.5 31.5-18 42.5-32s12.142-13 21-30c3.667 8 12.2 25 17 29 3.534 2.95 7.935 8.49 20.454 13.48 3.43-7.4 7.331-13.42 11.655-20.32-8.397-2.17-15.128-4.86-19.109-8.16z" fill="#fff"/><path d="m557.067 1312.84c-12.956 8.58-33.941 23.26-51.671 37.48-8.317 6.67-15.918 13.24-21.638 19.02-3.888 3.94-6.907 7.51-8.691 10.5-1.508 2.54-2.972 4.9-4.391 7.16 2.903.75 6.006 1.44 9.262 2.07 5.612-6.7 12.166-13.02 19.629-18.73 34-26 46.834-34.83 49-36z" fill="#fff"/><path d="m522.567 1300.34c-5.166-8.16-23.5-22.4-55.5-14s-31.666 37.84-27.5 51.5c3.354 11 19.1 31.1 41.5 31.5h2.691c5.72-5.78 13.321-12.35 21.638-19.02-7.276 1.46-15.383 1.01-30.329-2.98-18-4.8-26.5-23-28.5-31.5 9.6-10.4 32-16.5 42-18.5 20.5-4.1 28.081.35 32.5 3 2 1.2 1.834.5 1.5 0z" fill="#fff"/><path d="m588.861 1404.5c-6.319 5.03-13.647 10.52-21.702 16.04 10.088 2.07 17.743 5.96 22.908 13.8 13.5 20.5-21 59.5-52.5 68.5s-48.5 6.5-71-20.5c-5.156-6.18-8.448-13.71-9.948-22.03l-2.552.53v-2.5c.693-.25 1.402-.52 2.124-.79-1.918-14.68 1.506-31.55 9.898-47.78-2.611-.79-4.955-1.61-7.068-2.45-4.776 10.3-8.639 23.27-11.454 45.02-5.5 42.5 31 69 33.5 70.5s47.5 24 99-28c18-18.17 34-53.9 18-81.5-1.417-2.38-4.428-5.69-9.206-8.84z" fill="#fff"/><path d="m541.903 1418.13c-31.475 17.3-64.701 31.54-85.712 39.42.122.93.264 1.85.428 2.76l64.448-13.47c16.551-7.43 32.376-16.9 46.092-26.3-7.19-1.47-15.615-2.02-25.256-2.41z" fill="#fff"/><path d="m575.046 1398.09c-10.358 6.98-21.634 13.72-33.143 20.04 9.641.39 18.066.94 25.256 2.41 8.055-5.52 15.383-11.01 21.702-16.04-3.585-2.37-8.166-4.66-13.815-6.41z" fill="#fff"/><path d="m610.067 1322.34c-18.4-23.6-35.312-8-38.5.5-10.5 28 0 35.5 21.5 35.5 17.2 0 19.834 5.67 19 8.5-9.077 10.61-22.097 21.19-37.021 31.25 5.649 1.75 10.23 4.04 13.815 6.41 8.406-6.7 15.028-12.59 19.206-16.66 7.189-7 20.4-41.9 2-65.5z" fill="#fff"/><path d="m541.903 1418.13c11.509-6.32 22.785-13.06 33.143-20.04m-33.143 20.04c-12.184-.49-26.31-.74-42.336-2.29-14.492-1.4-25.293-3.58-33.478-6.07m75.814 8.36c-31.475 17.3-64.701 31.54-85.712 39.42m85.712-39.42c9.641.39 18.066.94 25.256 2.41m7.887-22.45c-6.298-1.96-13.924-3.25-22.979-3.25-22.068 0-50.498-1.59-72.129-5.77m95.108 9.02c14.924-10.06 27.944-20.64 37.021-31.25.834-2.83-1.8-8.5-19-8.5-21.5 0-32-7.5-21.5-35.5 3.188-8.5 20.1-24.1 38.5-.5s5.189 58.5-2 65.5c-4.178 4.07-10.8 9.96-19.206 16.66m-13.815-6.41c5.649 1.75 10.23 4.04 13.815 6.41m-108.923-15.43c-5.548 6.62-10.174 13.6-13.849 20.7m13.849-20.7c5.612-6.7 12.166-13.02 19.629-18.73 34-26 46.834-34.83 49-36l8.5-21.5c-12.956 8.58-33.941 23.26-51.671 37.48m-25.458 38.75c-3.256-.63-6.359-1.32-9.262-2.07m-4.587 22.77c-2.611-.79-4.955-1.61-7.068-2.45m7.068 2.45c-8.392 16.23-11.816 33.1-9.898 47.78m14.485-70.55c-4.324 6.9-8.225 12.92-11.655 20.32m11.655-20.32c-8.397-2.17-15.128-4.86-19.109-8.16-14.5-12-21-21.5-26-54s-19.5-67-29.5-76l-3.5 27.5c6.5 10.5 20.6 40.8 25 78-12.166 16.84-43.9 51.6-73.5 56-37 5.5-21-45.5-8-65.5.5-2 .8-5.6-2-4-3.5 2-47 85 5.5 91 3.167.17 11.3-.6 18.5-5 9-5.5 31.5-18 42.5-32s12.142-13 21-30c3.667 8 12.2 25 17 29 3.534 2.95 7.935 8.49 20.454 13.48m11.655-20.32c1.419-2.26 2.883-4.62 4.391-7.16 1.784-2.99 4.803-6.56 8.691-10.5m-24.737 37.98c-4.776 10.3-8.639 23.27-11.454 45.02-5.5 42.5 31 69 33.5 70.5s47.5 24 99-28c18-18.17 34-53.9 18-81.5-1.417-2.38-4.428-5.69-9.206-8.84m-105.103-35.16h-2.691c-22.4-.4-38.146-20.5-41.5-31.5-4.166-13.66-4.5-43.1 27.5-51.5s50.334 5.84 55.5 14c.334.5.5 1.2-1.5 0-4.419-2.65-12-7.1-32.5-3-10 2-32.4 8.1-42 18.5 2 8.5 10.5 26.7 28.5 31.5 14.946 3.99 23.053 4.44 30.329 2.98m-21.638 19.02c5.72-5.78 13.321-12.35 21.638-19.02m-21.638 19.02h7.309c12.5-9 35.1-26.1 25.5-22.5-4.029 1.51-7.494 2.74-11.171 3.48m83.465 54.18c-6.319 5.03-13.647 10.52-21.702 16.04m0 0c10.088 2.07 17.743 5.96 22.908 13.8 13.5 20.5-21 59.5-52.5 68.5s-48.5 6.5-71-20.5c-5.156-6.18-8.448-13.71-9.948-22.03m110.54-39.77c-13.716 9.4-29.541 18.87-46.092 26.3l-64.448 13.47m0 0-2.552.53v-2.5c.693-.25 1.402-.52 2.124-.79m.428 2.76c-.164-.91-.306-1.83-.428-2.76" stroke="#fff"/><path d="m578.567 1334.84c1.334-4.33 7-10.1 19 1.5.667.5 1 1.5-3 1.5-5 0-14.5 1-16-3z" fill="#000"/><path d="m616.067 1387.34 17 11-9.5 17.5-17-10.5z" fill="#fff"/><path d="m578.567 1334.84c1.334-4.33 7-10.1 19 1.5.667.5 1 1.5-3 1.5-5 0-14.5 1-16-3z" stroke="#fff"/><path d="m616.067 1387.34 17 11-9.5 17.5-17-10.5z" stroke="#fff"/><path d="m407.5 1424c-6.833-2-21.5-4-30.5 2-8.524 5.68-7.667 11.67-6.5 13.5 1.667 3 8.8 9.7 24 12.5l.5-3.5c-7.667-1.5-22.8-6.3-22-13.5 1-9 16.5-14.5 34-9.5l3 1-1.5-2.5z" fill="#fff"/><path d="m427 1457.5c-4 1.6-12.667.33-16.5-.5l-1.949-1c1.108.85 1.677 1.86 1.949 2.5.197.46.303 1 .323 1.59l8.177 1.15c-3.5 2.25-9.5 7.26-11.5 8.76-1.504 1.13-10.018 4.6-10.913-.56-.694.32-1.389.57-2.063.73.452 3.07 2.481 4.09 3.299 4.42 2.177.87 8.177 0 13-4.5 4.387-4.09 14.51-9.92 19.677-12.09l-.5-1.5z" fill="#fff"/><path d="m397.516 1460.42c-1.19 2.09-2.129 4.39-2.635 6.34.605-.21 1.279-.5 2.024-.91.03-.12.061-.23.095-.35 4.8-9.6 8.667-9 10-7.5 2.8 2.75 2 4 1 5-.676.68-2.2 1.5-3-.5s-2.333-1.17-3-.5c-1.969 1.83-3.663 3.06-5.095 3.85-.397 1.5-.476 2.68-.318 3.59 2.473-1.13 4.937-3.05 6.413-4.44l1 1c4.402 1.69 6.93-2.7 6.823-5.91-.02-.59-.126-1.13-.323-1.59-.272-.64-.841-1.65-1.949-2.5-.926-.71-2.229-1.32-4.051-1.5-2.025-.2-4.131 1.64-5.888 4.18-.384.55-.75 1.14-1.096 1.74z" fill="#fff"/><path d="m394.524 1470.17c.674-.16 1.369-.41 2.063-.73-.158-.91-.079-2.09.318-3.59-.745.41-1.419.7-2.024.91-.337 1.29-.482 2.43-.381 3.24.007.06.015.12.024.17z" fill="#fff"/><path d="m389.5 1461.24c-.4 5.39.5 7.75 1 8.26 1.064.93 2.49 1.04 4.024.67-.009-.05-.017-.11-.024-.17-.101-.81.044-1.95.381-3.24-2.074.68-3.341.28-3.881-.26-.8-.8-.333-4.61 0-6.41z" fill="#fff"/><path d="m388 1448.5c-4 1.67-12 6.7-12 13.5s9.4 3 11.5 1c.588-.56 1.271-1.17 2-1.76.485-.4.99-.79 1.5-1.15 3.143-2.26 6.479-3.58 6.516.33.346-.6.712-1.19 1.096-1.74l-.112-1.18c.8-6.8-8 0-13.5 3.5-5.6 2.8-6.333-.17-6-2 .5-3 5.5-7.83 9-10.5z" fill="#fff"/><circle cx="400.5" cy="1443.5" fill="#fff" r="2.5"/><circle cx="414.5" cy="1446.5" fill="#fff" r="2.5"/><path d="m401 1468.5c.333 4-1.7 11.7-12.5 10.5s-19.5-2.5-22.5-3v1c7 1.5 22 4.4 26 4 5-.5 11-4.5 11-12z" fill="#fff"/></svg>