<svg width="858" height="155" viewBox="0 0 858 155" fill="none" xmlns="http://www.w3.org/2000/svg">
<path d="M829.5 98C829.5 91.8334 832.2 79.7 843 80.5C853.8 81.3 857.5 96.5 857.5 103.5V115.5C856 121 841.5 132.6 823.5 131C821.167 131 816.2 127.9 815 115.5C810.167 125.667 792.5 150 760.5 153.5C751 153.5 736.4 144.8 742 110C739.833 134.833 752.8 169.2 812 114C812.167 82.8334 811.6 19.3 808 14.5C807.6 13.7 807.833 6.50002 808 3.00002C810.5 1.66669 815.9 21.2 817.5 110C817.167 118.333 824.4 131.2 854 112C856 110 855.5 105.8 837.5 105C834.5 105.037 828.7 103.689 829.5 98Z" fill="white" stroke="white"/>
<path d="M840.818 60L837.424 66.9672L827.808 60.5574L823 70.0328L832.899 77L837.424 70.0328L846.475 76.1639L851 66.9672L845.909 63.4836L840.818 60Z" fill="url(#paint0_linear_31_205)"/>
<path d="M595.674 139L592.879 144.738L584.96 139.459L581 147.262L589.152 153L592.879 147.262L600.332 152.311L604.059 144.738L599.866 141.869L595.674 139Z" fill="url(#paint1_linear_31_205)"/>
<path d="M506.123 120.012L512.776 121.455L509.312 130.997L518.4 133.124L522.281 123.224L515.392 120.816L518.737 111.814L509.945 109.871L508.034 114.941L506.123 120.012Z" fill="url(#paint2_linear_31_205)"/>
<path d="M831.596 39.4837C830.575 38.1681 828.096 36.1727 826.353 38.7161C826.133 39.5169 825.74 41.2251 825.923 41.6516C826.151 42.1848 830.6 42.8361 831.374 44.4486C832.642 46.1335 835.741 51.1847 836.297 55.6638C837.037 50.6082 838.927 40.457 840.566 40.2972C842.206 40.1373 843.838 40.9427 844.45 41.3654L845.66 36.5452C843.991 35.3014 840.297 33.861 838.875 38.0507C837.454 42.2403 836.335 48.5064 835.953 51.1158L831.596 39.4837Z" fill="white" stroke="white" stroke-width="0.657143"/>
<path d="M650.596 40.4837C649.575 39.1681 647.096 37.1727 645.353 39.7161C645.133 40.5169 644.74 42.2251 644.923 42.6516C645.151 43.1848 649.6 43.8361 650.374 45.4486C651.642 47.1335 654.741 52.1847 655.297 56.6638C656.037 51.6082 657.927 41.457 659.566 41.2972C661.206 41.1373 662.838 41.9427 663.45 42.3654L664.66 37.5452C662.991 36.3014 659.297 34.861 657.875 39.0507C656.454 43.2403 655.335 49.5064 654.953 52.1158L650.596 40.4837Z" fill="white" stroke="white" stroke-width="0.657143"/>
<path d="M582.596 43.4837C581.575 42.1681 579.096 40.1727 577.353 42.7161C577.133 43.5169 576.74 45.2251 576.923 45.6516C577.151 46.1848 581.6 46.8361 582.374 48.4486C583.642 50.1335 586.741 55.1847 587.297 59.6638C588.037 54.6082 589.927 44.457 591.566 44.2972C593.206 44.1373 594.838 44.9427 595.45 45.3654L596.66 40.5452C594.991 39.3014 591.297 37.861 589.875 42.0507C588.454 46.2403 587.335 52.5064 586.953 55.1158L582.596 43.4837Z" fill="white" stroke="white" stroke-width="0.657143"/>
<path d="M368.596 49.4837C367.575 48.1681 365.096 46.1727 363.353 48.7161C363.133 49.5169 362.74 51.2251 362.923 51.6516C363.151 52.1848 367.6 52.8361 368.374 54.4486C369.642 56.1335 372.741 61.1847 373.297 65.6638C374.037 60.6082 375.927 50.457 377.566 50.2972C379.206 50.1373 380.838 50.9427 381.45 51.3654L382.66 46.5452C380.991 45.3014 377.297 43.861 375.875 48.0507C374.454 52.2403 373.335 58.5064 372.953 61.1158L368.596 49.4837Z" fill="white" stroke="white" stroke-width="0.657143"/>
<path d="M782.596 39.4837C781.575 38.1681 779.096 36.1727 777.353 38.7161C777.133 39.5169 776.74 41.2251 776.923 41.6516C777.151 42.1848 781.6 42.8361 782.374 44.4486C783.642 46.1335 786.741 51.1847 787.297 55.6638C788.037 50.6082 789.927 40.457 791.566 40.2972C793.206 40.1373 794.838 40.9427 795.45 41.3654L796.66 36.5452C794.991 35.3014 791.297 33.861 789.875 38.0507C788.454 42.2403 787.335 48.5064 786.953 51.1158L782.596 39.4837Z" fill="white" stroke="white" stroke-width="0.657143"/>
<path d="M544.596 32.4837C543.575 31.1681 541.096 29.1727 539.353 31.7161C539.133 32.5169 538.74 34.2251 538.923 34.6516C539.151 35.1848 543.6 35.8361 544.374 37.4486C545.642 39.1335 548.741 44.1847 549.297 48.6638C550.037 43.6082 551.927 33.457 553.566 33.2972C555.206 33.1373 556.838 33.9427 557.45 34.3654L558.66 29.5452C556.991 28.3014 553.297 26.861 551.875 31.0507C550.454 35.2403 549.335 41.5064 548.953 44.1158L544.596 32.4837Z" fill="white" stroke="white" stroke-width="0.657143"/>
<path d="M229.596 34.4837C228.575 33.1681 226.096 31.1727 224.353 33.7161C224.133 34.5169 223.74 36.2251 223.923 36.6516C224.151 37.1848 228.6 37.8361 229.374 39.4486C230.642 41.1335 233.741 46.1847 234.297 50.6638C235.037 45.6082 236.927 35.457 238.566 35.2972C240.206 35.1373 241.838 35.9427 242.45 36.3654L243.66 31.5452C241.991 30.3014 238.297 28.861 236.875 33.0507C235.454 37.2403 234.335 43.5064 233.953 46.1158L229.596 34.4837Z" fill="white" stroke="white" stroke-width="0.657143"/>
<path d="M273.596 48.4837C272.575 47.1681 270.096 45.1727 268.353 47.7161C268.133 48.5169 267.74 50.2251 267.923 50.6516C268.151 51.1848 272.6 51.8361 273.374 53.4486C274.642 55.1335 277.741 60.1847 278.297 64.6638C279.037 59.6082 280.927 49.457 282.566 49.2972C284.206 49.1373 285.838 49.9427 286.45 50.3654L287.66 45.5452C285.991 44.3014 282.297 42.861 280.875 47.0507C279.454 51.2403 278.335 57.5064 277.953 60.1158L273.596 48.4837Z" fill="white" stroke="white" stroke-width="0.657143"/>
<path d="M305.596 8.4837C304.575 7.16811 302.096 5.17275 300.353 7.71609C300.133 8.51688 299.74 10.2251 299.923 10.6516C300.151 11.1848 304.6 11.8361 305.374 13.4486C306.642 15.1335 309.741 20.1847 310.297 24.6638C311.037 19.6082 312.927 9.45697 314.566 9.29716C316.206 9.13735 317.838 9.94273 318.45 10.3654L319.66 5.54523C317.991 4.30135 314.297 2.86101 312.875 7.05065C311.454 11.2403 310.335 17.5064 309.953 20.1158L305.596 8.4837Z" fill="white" stroke="white" stroke-width="0.657143"/>
<path fill-rule="evenodd" clip-rule="evenodd" d="M841.621 17.9319L838.367 15.8357C839.255 13.6582 839.692 11.3667 839.548 8.97244C839.251 3.99495 836.467 -2.67488 827.698 11.6603C826.789 13.1478 828.289 15.5911 833.756 19.0251C832.965 20.1427 831.95 21.2888 830.661 22.4117C825.447 26.9511 810.715 35.8509 804 39.7333C813.071 37.0046 828.731 30.0909 835.854 20.2791C837.04 20.956 838.366 21.6668 839.844 22.4117C840.93 21.018 842.806 18.1708 841.621 17.9319ZM836.006 14.3152L830.957 11.063C831.451 9.96793 832.853 7.89729 834.512 8.37513C836.171 8.85297 836.388 10.3661 836.289 11.063C836.401 11.7769 836.369 12.922 836.006 14.3152Z" fill="white"/>
<path d="M838.367 15.8357L841.621 17.9319C842.806 18.1708 840.93 21.018 839.844 22.4117C838.366 21.6668 837.04 20.956 835.854 20.2791M838.367 15.8357C839.255 13.6582 839.692 11.3667 839.548 8.97244C839.251 3.99495 836.467 -2.67488 827.698 11.6603C826.789 13.1478 828.289 15.5911 833.756 19.0251M838.367 15.8357C837.739 17.3751 836.886 18.8575 835.854 20.2791M838.367 15.8357L836.006 14.3152M835.854 20.2791C828.731 30.0909 813.071 37.0046 804 39.7333C810.715 35.8509 825.447 26.9511 830.661 22.4117C831.95 21.2888 832.965 20.1427 833.756 19.0251M835.854 20.2791C835.098 19.8473 834.4 19.4293 833.756 19.0251M833.756 19.0251C834.957 17.3299 835.645 15.7 836.006 14.3152M836.006 14.3152L830.957 11.063C831.451 9.96793 832.853 7.89729 834.512 8.37513C836.171 8.85297 836.388 10.3661 836.289 11.063C836.401 11.7769 836.369 12.922 836.006 14.3152Z" stroke="white" stroke-width="1.26667"/>
<path fill-rule="evenodd" clip-rule="evenodd" d="M721.621 17.9319L718.367 15.8357C719.255 13.6582 719.692 11.3667 719.548 8.97244C719.251 3.99495 716.467 -2.67488 707.698 11.6603C706.789 13.1478 708.289 15.5911 713.756 19.0251C712.965 20.1427 711.95 21.2888 710.661 22.4117C705.447 26.9511 690.715 35.8509 684 39.7333C693.071 37.0046 708.731 30.0909 715.854 20.2791C717.04 20.956 718.366 21.6668 719.844 22.4117C720.93 21.018 722.806 18.1708 721.621 17.9319ZM716.006 14.3152L710.957 11.063C711.451 9.96793 712.853 7.89729 714.512 8.37513C716.171 8.85297 716.388 10.3661 716.289 11.063C716.401 11.7769 716.369 12.922 716.006 14.3152Z" fill="white"/>
<path d="M718.367 15.8357L721.621 17.9319C722.806 18.1708 720.93 21.018 719.844 22.4117C718.366 21.6668 717.04 20.956 715.854 20.2791M718.367 15.8357C719.255 13.6582 719.692 11.3667 719.548 8.97244C719.251 3.99495 716.467 -2.67488 707.698 11.6603C706.789 13.1478 708.289 15.5911 713.756 19.0251M718.367 15.8357C717.739 17.3751 716.886 18.8575 715.854 20.2791M718.367 15.8357L716.006 14.3152M715.854 20.2791C708.731 30.0909 693.071 37.0046 684 39.7333C690.715 35.8509 705.447 26.9511 710.661 22.4117C711.95 21.2888 712.965 20.1427 713.756 19.0251M715.854 20.2791C715.098 19.8473 714.4 19.4293 713.756 19.0251M713.756 19.0251C714.957 17.3299 715.645 15.7 716.006 14.3152M716.006 14.3152L710.957 11.063C711.451 9.96793 712.853 7.89729 714.512 8.37513C716.171 8.85297 716.388 10.3661 716.289 11.063C716.401 11.7769 716.369 12.922 716.006 14.3152Z" stroke="white" stroke-width="1.26667"/>
<path fill-rule="evenodd" clip-rule="evenodd" d="M468.621 16.9319L465.367 14.8357C466.255 12.6582 466.692 10.3667 466.548 7.97244C466.251 2.99495 463.467 -3.67488 454.698 10.6603C453.789 12.1478 455.289 14.5911 460.756 18.0251C459.965 19.1427 458.95 20.2888 457.661 21.4117C452.447 25.9511 437.715 34.8509 431 38.7333C440.071 36.0046 455.731 29.0909 462.854 19.2791C464.04 19.956 465.366 20.6668 466.844 21.4117C467.93 20.018 469.806 17.1708 468.621 16.9319ZM463.006 13.3152L457.957 10.063C458.451 8.96793 459.853 6.89729 461.512 7.37513C463.171 7.85297 463.388 9.36613 463.289 10.063C463.401 10.7769 463.369 11.922 463.006 13.3152Z" fill="white"/>
<path d="M465.367 14.8357L468.621 16.9319C469.806 17.1708 467.93 20.018 466.844 21.4117C465.366 20.6668 464.04 19.956 462.854 19.2791M465.367 14.8357C466.255 12.6582 466.692 10.3667 466.548 7.97244C466.251 2.99495 463.467 -3.67488 454.698 10.6603C453.789 12.1478 455.289 14.5911 460.756 18.0251M465.367 14.8357C464.739 16.3751 463.886 17.8575 462.854 19.2791M465.367 14.8357L463.006 13.3152M462.854 19.2791C455.731 29.0909 440.071 36.0046 431 38.7333C437.715 34.8509 452.447 25.9511 457.661 21.4117C458.95 20.2888 459.965 19.1427 460.756 18.0251M462.854 19.2791C462.098 18.8473 461.4 18.4293 460.756 18.0251M460.756 18.0251C461.957 16.3299 462.645 14.7 463.006 13.3152M463.006 13.3152L457.957 10.063C458.451 8.96793 459.853 6.89729 461.512 7.37513C463.171 7.85297 463.388 9.36613 463.289 10.063C463.401 10.7769 463.369 11.922 463.006 13.3152Z" stroke="white" stroke-width="1.26667"/>
<path fill-rule="evenodd" clip-rule="evenodd" d="M427.621 17.9319L424.367 15.8357C425.255 13.6582 425.692 11.3667 425.548 8.97244C425.251 3.99495 422.467 -2.67488 413.698 11.6603C412.789 13.1478 414.289 15.5911 419.756 19.0251C418.965 20.1427 417.95 21.2888 416.661 22.4117C411.447 26.9511 396.715 35.8509 390 39.7333C399.071 37.0046 414.731 30.0909 421.854 20.2791C423.04 20.956 424.366 21.6668 425.844 22.4117C426.93 21.018 428.806 18.1708 427.621 17.9319ZM422.006 14.3152L416.957 11.063C417.451 9.96793 418.853 7.89729 420.512 8.37513C422.171 8.85297 422.388 10.3661 422.289 11.063C422.401 11.7769 422.369 12.922 422.006 14.3152Z" fill="white"/>
<path d="M424.367 15.8357L427.621 17.9319C428.806 18.1708 426.93 21.018 425.844 22.4117C424.366 21.6668 423.04 20.956 421.854 20.2791M424.367 15.8357C425.255 13.6582 425.692 11.3667 425.548 8.97244C425.251 3.99495 422.467 -2.67488 413.698 11.6603C412.789 13.1478 414.289 15.5911 419.756 19.0251M424.367 15.8357C423.739 17.3751 422.886 18.8575 421.854 20.2791M424.367 15.8357L422.006 14.3152M421.854 20.2791C414.731 30.0909 399.071 37.0046 390 39.7333C396.715 35.8509 411.447 26.9511 416.661 22.4117C417.95 21.2888 418.965 20.1427 419.756 19.0251M421.854 20.2791C421.098 19.8473 420.4 19.4293 419.756 19.0251M419.756 19.0251C420.957 17.3299 421.645 15.7 422.006 14.3152M422.006 14.3152L416.957 11.063C417.451 9.96793 418.853 7.89729 420.512 8.37513C422.171 8.85297 422.388 10.3661 422.289 11.063C422.401 11.7769 422.369 12.922 422.006 14.3152Z" stroke="white" stroke-width="1.26667"/>
<path d="M784.869 60.5189C786.459 60.9027 789.517 61.7731 789.032 62.184C788.426 62.6977 782.376 63.151 781.154 68.8617C779.931 74.5725 786.201 95.2263 783.903 100.81C783.337 102.185 782.958 103.064 782.712 103.595C784.998 103.652 787.95 97.5306 782.961 72.0041C782.473 69.9942 784.467 65.7414 793.927 66.864C794.377 66.1366 795.206 64.3912 794.544 61.6669C793.811 58.6521 791.192 57.7557 788.711 55.7045C787.499 56.7318 783.743 58.9799 784.869 60.5189Z" fill="white"/>
<path d="M546.599 51.6281C547.932 51.95 550.497 52.6799 550.09 53.0245C549.582 53.4553 544.509 53.8354 543.483 58.6245C542.458 63.4135 547.716 80.734 545.789 85.416C545.314 86.5695 544.996 87.3068 544.79 87.7519C546.707 87.7994 549.182 82.6663 544.999 61.2597C544.589 59.5742 546.262 56.0078 554.195 56.9492C554.572 56.3392 555.267 54.8755 554.712 52.5909C554.098 50.0627 551.902 49.311 549.821 47.5908C548.804 48.4523 545.655 50.3376 546.599 51.6281Z" fill="white"/>
<path d="M232.599 53.6281C233.932 53.95 236.497 54.6799 236.09 55.0245C235.582 55.4553 230.509 55.8354 229.483 60.6245C228.458 65.4135 233.716 82.734 231.789 87.416C231.314 88.5695 230.996 89.3068 230.79 89.7519C232.707 89.7994 235.182 84.6663 230.999 63.2597C230.589 61.5742 232.262 58.0078 240.195 58.9492C240.572 58.3392 241.267 56.8755 240.712 54.5909C240.098 52.0627 237.902 51.311 235.821 49.5908C234.804 50.4523 231.655 52.3376 232.599 53.6281Z" fill="white"/>
<path d="M780 5H794.75C795.333 6.83333 795.9 10.2 791.5 13C786 16.5 780 18 779.5 18C779.1 18 786.667 13.3333 790.5 11H776.5L780 5Z" fill="white" stroke="white"/>
<path d="M675.5 5H690.25C690.833 6.83333 691.4 10.2 687 13C681.5 16.5 675.5 18 675 18C674.6 18 682.167 13.3333 686 11H672L675.5 5Z" fill="white" stroke="white"/>
<path d="M136.5 32H151.25C151.833 33.8333 152.4 37.2 148 40C142.5 43.5 136.5 45 136 45C135.6 45 143.167 40.3333 147 38H133L136.5 32Z" fill="white" stroke="white"/>
<path d="M228.5 5H243.25C243.833 6.83333 244.4 10.2 240 13C234.5 16.5 228.5 18 228 18C227.6 18 235.167 13.3333 239 11H225L228.5 5Z" fill="white" stroke="white"/>
<path d="M853.5 141.5H849C848.833 140.167 849.2 137.5 852 137.5C855.5 137.5 858 142 849 151C850.667 148 853.9 141.9 853.5 141.5Z" fill="white" stroke="white"/>
<path d="M818.534 141H814.034C813.867 139.667 814.234 137 817.034 137C820.534 137 823.034 141.5 814.034 150.5C815.7 147.5 818.934 141.4 818.534 141Z" fill="white" stroke="white"/>
<path d="M730.534 141H726.034C725.867 139.667 726.234 137 729.034 137C732.534 137 735.034 141.5 726.034 150.5C727.7 147.5 730.934 141.4 730.534 141Z" fill="white" stroke="white"/>
<path d="M458.534 141H454.034C453.867 139.667 454.234 137 457.034 137C460.534 137 463.034 141.5 454.034 150.5C455.7 147.5 458.934 141.4 458.534 141Z" fill="white" stroke="white"/>
<path d="M394.534 141H390.034C389.867 139.667 390.234 137 393.034 137C396.534 137 399.034 141.5 390.034 150.5C391.7 147.5 394.934 141.4 394.534 141Z" fill="white" stroke="white"/>
<path d="M156.534 141H152.034C151.867 139.667 152.234 137 155.034 137C158.534 137 161.034 141.5 152.034 150.5C153.7 147.5 156.934 141.4 156.534 141Z" fill="white" stroke="white"/>
<path d="M128.534 141H124.034C123.867 139.667 124.234 137 127.034 137C130.534 137 133.034 141.5 124.034 150.5C125.7 147.5 128.934 141.4 128.534 141Z" fill="white" stroke="white"/>
<path d="M759.5 3.99997C759.665 7.63594 759.841 11.8892 760.01 16.4673L764.012 20.9916C763.731 15.9397 763.5 12.62 763.5 12.5C763.5 12.1 760.833 6.66664 759.5 3.99997Z" fill="white"/>
<path d="M759.5 73C756.5 76 743.5 83 739 65.5C739.292 71.4607 739.804 76.5931 740.481 81C748.466 89.4 758.487 80.1666 762.5 74.5C766.3 70.3205 764.902 36.9803 764.012 20.9916L760.01 16.4673C760.859 39.5895 761.503 70.9966 759.5 73Z" fill="white"/>
<path d="M768 25.5L763.5 12.5C763.5 12.62 763.731 15.9397 764.012 20.9916L768 25.5Z" fill="white"/>
<path d="M759.5 3.99997L756.5 12.5L760.01 16.4673C759.841 11.8892 759.665 7.63594 759.5 3.99997Z" fill="white"/>
<path d="M739 65.5C738.333 46 736.1 6.39997 734.5 3.99997C733.7 3.19997 732.667 7.99997 732 10.5C732.833 33.1666 735.3 81.7 738.5 94.5C739.854 93.7728 741.398 93.0495 743.036 92.4133C742.05 89.3024 741.178 85.5354 740.481 81C739.804 76.5931 739.292 71.4607 739 65.5Z" fill="white"/>
<path d="M738.5 94.5C735.608 96.2859 730.747 98.8528 725.669 100.673C726.291 103.057 726.626 105.729 726.522 108.661C731.9 106.871 737.534 104.403 742.602 102.098C741.301 99.9277 739.934 97.4084 738.5 94.5Z" fill="white"/>
<path d="M743.036 92.4133C741.398 93.0495 739.854 93.7728 738.5 94.5C739.934 97.4084 741.301 99.9277 742.602 102.098C743.958 101.481 745.274 100.876 746.533 100.298C745.285 98.3327 744.094 95.7505 743.036 92.4133Z" fill="white"/>
<path d="M750.5 98.5C755 97.5 760.3 102.6 757.5 105C754.712 106.556 750.351 106.31 746.533 100.298C745.274 100.876 743.958 101.481 742.602 102.098C754.358 121.715 760.699 112.803 762.5 105C764.539 88.0088 752.287 88.8208 743.036 92.4133C744.094 95.7505 745.285 98.3327 746.533 100.298C747.932 99.6573 749.261 99.0504 750.5 98.5Z" fill="white"/>
<path d="M712 102.5C702.5 100 708.5 95.5 711 94.5C712.446 93.9213 717.241 97.0255 720.25 102.263C722.031 101.873 723.864 101.32 725.669 100.673C723.618 92.8164 718.437 88.0874 715.5 87.5C710.5 86.5 696.5 96.5 705.5 108C708.69 112.076 715.235 111.853 722.711 109.82C722.45 107.004 721.505 104.448 720.25 102.263C717.222 102.925 714.343 103.117 712 102.5Z" fill="white"/>
<path d="M726.522 108.661C726.626 105.729 726.291 103.057 725.669 100.673C723.864 101.32 722.031 101.873 720.25 102.263C721.505 104.448 722.45 107.004 722.711 109.82C723.959 109.48 725.233 109.09 726.522 108.661Z" fill="white"/>
<path d="M722 116.5C718.333 122.667 704.8 136.5 680 142.5C672.667 143.833 660.1 139.6 668.5 112C663.5 121.667 657.5 146.5 680 150C687.5 151.5 716.7 137.5 723.5 121.5C725.491 116.815 726.385 112.514 726.522 108.661C725.233 109.09 723.959 109.48 722.711 109.82C722.905 111.918 722.72 114.16 722 116.5Z" fill="white"/>
<path fill-rule="evenodd" clip-rule="evenodd" d="M637.5 98.5C637.833 107.565 643 120.976 661 102.098C663.333 97.5652 669.6 87.4 676 83C684 77.5 692 103.5 683.5 110.5C680.333 111.5 671.7 111 664.5 103C657.5 114.333 641.3 128.4 634.5 108C622 121.5 607.5 126 602 119.5C596.5 113 596.5 73 593.5 90C591.1 103.6 584.833 104.333 582 103V120C579.5 128.5 552 154.2 526 153C493.5 151.5 501 105 500.5 108.661C500 112.322 499 133.5 515.5 140.5C532 147.5 576.5 130.5 578 116.5C579.2 105.3 575.5 99.8333 573.5 98.5C573.667 93.1666 574.4 83.6 576 88C577.6 92.4 580.667 94.5 582 95C592.5 99 593.5 78.5 596.5 77.5C598.9 76.7 601.833 97.1666 603 107.5C609.4 125.5 628.667 109 637.5 98.5ZM668.5 96C671 92.3333 677.1 87.7 681.5 98.5C682.167 101.333 680.5 104.8 668.5 96Z" fill="white"/>
<path d="M759.5 3.99997C760.833 6.66664 763.5 12.1 763.5 12.5M759.5 3.99997L756.5 12.5L760.01 16.4673M759.5 3.99997C759.665 7.63594 759.841 11.8892 760.01 16.4673M739 65.5C743.5 83 756.5 76 759.5 73C761.503 70.9966 760.859 39.5895 760.01 16.4673M739 65.5C738.333 46 736.1 6.39997 734.5 3.99997C733.7 3.19997 732.667 7.99997 732 10.5C732.833 33.1666 735.3 81.7 738.5 94.5M739 65.5C739.292 71.4607 739.804 76.5931 740.481 81M738.5 94.5C739.854 93.7728 741.398 93.0495 743.036 92.4133M738.5 94.5C735.608 96.2859 730.747 98.8528 725.669 100.673M738.5 94.5C739.934 97.4084 741.301 99.9277 742.602 102.098M763.5 12.5L768 25.5L764.012 20.9916M763.5 12.5C763.5 12.62 763.731 15.9397 764.012 20.9916M740.481 81C748.466 89.4 758.487 80.1666 762.5 74.5C766.3 70.3205 764.902 36.9803 764.012 20.9916M740.481 81C741.178 85.5354 742.05 89.3024 743.036 92.4133M760.01 16.4673L764.012 20.9916M743.036 92.4133C752.287 88.8208 764.539 88.0088 762.5 105C760.699 112.803 754.358 121.715 742.602 102.098M743.036 92.4133C744.094 95.7505 745.285 98.3327 746.533 100.298M725.669 100.673C726.291 103.057 726.626 105.729 726.522 108.661M725.669 100.673C723.618 92.8164 718.437 88.0874 715.5 87.5C710.5 86.5 696.5 96.5 705.5 108C708.69 112.076 715.235 111.853 722.711 109.82M725.669 100.673C723.864 101.32 722.031 101.873 720.25 102.263M726.522 108.661C731.9 106.871 737.534 104.403 742.602 102.098M726.522 108.661C726.385 112.514 725.491 116.815 723.5 121.5C716.7 137.5 687.5 151.5 680 150C657.5 146.5 663.5 121.667 668.5 112C660.1 139.6 672.667 143.833 680 142.5C704.8 136.5 718.333 122.667 722 116.5C722.72 114.16 722.905 111.918 722.711 109.82M726.522 108.661C725.233 109.09 723.959 109.48 722.711 109.82M742.602 102.098C743.958 101.481 745.274 100.876 746.533 100.298M746.533 100.298C747.932 99.6573 749.261 99.0504 750.5 98.5C755 97.5 760.3 102.6 757.5 105C754.712 106.556 750.351 106.31 746.533 100.298ZM720.25 102.263C717.241 97.0255 712.446 93.9213 711 94.5C708.5 95.5 702.5 100 712 102.5C714.343 103.117 717.222 102.925 720.25 102.263ZM720.25 102.263C721.505 104.448 722.45 107.004 722.711 109.82M637.5 98.5C637.833 107.565 643 120.976 661 102.098C663.333 97.5652 669.6 87.4 676 83C684 77.5 692 103.5 683.5 110.5C680.333 111.5 671.7 111 664.5 103C657.5 114.333 641.3 128.4 634.5 108C622 121.5 607.5 126 602 119.5C596.5 113 596.5 73 593.5 90C591.1 103.6 584.833 104.333 582 103V120C579.5 128.5 552 154.2 526 153C493.5 151.5 501 105 500.5 108.661C500 112.322 499 133.5 515.5 140.5C532 147.5 576.5 130.5 578 116.5C579.2 105.3 575.5 99.8333 573.5 98.5C573.667 93.1666 574.4 83.6 576 88C577.6 92.4 580.667 94.5 582 95C592.5 99 593.5 78.5 596.5 77.5C598.9 76.7 601.833 97.1666 603 107.5C609.4 125.5 628.667 109 637.5 98.5ZM668.5 96C671 92.3333 677.1 87.7 681.5 98.5C682.167 101.333 680.5 104.8 668.5 96Z" stroke="white"/>
<path d="M703.539 68.8065C705.122 67.4871 706.93 65.2442 704.217 64.1888C700.826 62.8694 693.365 68.8065 694.043 71.4452C694.586 73.5561 696.982 75.4032 698.113 76.0629L694.043 80.6806L695.4 82L710.322 70.7855L711 67.4871L702.183 72.7645C700.6 73.4242 697.435 73.82 697.435 70.1258C697.435 66.4317 701.73 67.4871 703.539 68.8065Z" fill="white"/>
<path d="M179.539 20.8065C181.122 19.4871 182.93 17.2442 180.217 16.1888C176.826 14.8694 169.365 20.8065 170.043 23.4452C170.586 25.5561 172.982 27.4032 174.113 28.0629L170.043 32.6806L171.4 34L186.322 22.7855L187 19.4871L178.183 24.7645C176.6 25.4242 173.435 25.82 173.435 22.1258C173.435 18.4317 177.73 19.4871 179.539 20.8065Z" fill="white"/>
<path d="M691 132L689.458 136.101L645 153.275L646.285 148.661L691 132Z" fill="white"/>
<path d="M654 133L652.458 137.101L608 154.275L609.285 149.661L654 133Z" fill="white"/>
<path d="M564 3L562.458 7.10121L518 24.275L519.285 19.6611L564 3Z" fill="white"/>
<path d="M522 3L520.458 7.10121L476 24.275L477.285 19.6611L522 3Z" fill="white"/>
<path d="M193 0L191.458 4.10121L147 21.275L148.285 16.6611L193 0Z" fill="white"/>
<path d="M119 102L117.458 106.101L73 123.275L74.2849 118.661L119 102Z" fill="white"/>
<path d="M66 102L64.4581 106.101L20 123.275L21.2849 118.661L66 102Z" fill="white"/>
<path d="M150 4L148.458 8.10121L104 25.275L105.285 20.6611L150 4Z" fill="white"/>
<path d="M346 132L344.458 136.101L300 153.275L301.285 148.661L346 132Z" fill="white"/>
<path d="M630 71.3382L619.161 66L614 74.75L624.839 80L630 71.3382Z" fill="url(#paint3_linear_31_205)"/>
<path d="M549.312 107.407L538.941 101.209L533.088 109.513L543.466 115.623L549.312 107.407Z" fill="url(#paint4_linear_31_205)"/>
<path d="M432.649 53.6159L422.278 47.4178L416.425 55.7213L426.803 61.8314L432.649 53.6159Z" fill="url(#paint5_linear_31_205)"/>
<path d="M243.376 106.67L235.346 101.475L230.483 107.879L238.521 113.004L243.376 106.67Z" fill="url(#paint6_linear_31_205)"/>
<path d="M182.376 145.67L174.346 140.475L169.483 146.879L177.521 152.004L182.376 145.67Z" fill="url(#paint7_linear_31_205)"/>
<path d="M487.649 47.6159L477.278 41.4178L471.425 49.7213L481.803 55.8314L487.649 47.6159Z" fill="url(#paint8_linear_31_205)"/>
<path fill-rule="evenodd" clip-rule="evenodd" d="M588.5 4.50002C587.333 3.33336 584.1 4.10003 580.5 16.5C576.9 28.9 583.333 28 587 26C588.333 25.5 590.9 23.2 590.5 18C590.1 12.8 586.333 10.1667 584.5 9.50003C585 7.50003 586.5 3.70002 588.5 4.50002ZM582 22C580.8 20.4 582.5 16 583.5 14C590.3 18.4 588.667 21.1667 587 22C585.833 22.6667 583.2 23.6 582 22Z" fill="white"/>
<path fill-rule="evenodd" clip-rule="evenodd" d="M375.059 4.39041C373.893 3.22374 370.659 3.99041 367.059 16.3904C363.459 28.7904 369.893 27.8904 373.559 25.8904C374.893 25.3904 377.459 23.0904 377.059 17.8904C376.659 12.6904 372.893 10.0571 371.059 9.39041C371.559 7.39041 373.059 3.5904 375.059 4.39041ZM368.559 21.8904C367.359 20.2904 369.059 15.8904 370.059 13.8904C376.859 18.2904 375.226 21.0571 373.559 21.8904C372.393 22.5571 369.759 23.4904 368.559 21.8904Z" fill="white"/>
<path fill-rule="evenodd" clip-rule="evenodd" d="M278.059 5.39041C276.893 4.22374 273.659 4.99041 270.059 17.3904C266.459 29.7904 272.893 28.8904 276.559 26.8904C277.893 26.3904 280.459 24.0904 280.059 18.8904C279.659 13.6904 275.893 11.0571 274.059 10.3904C274.559 8.39041 276.059 4.5904 278.059 5.39041ZM271.559 22.8904C270.359 21.2904 272.059 16.8904 273.059 14.8904C279.859 19.2904 278.226 22.0571 276.559 22.8904C275.393 23.5571 272.759 24.4904 271.559 22.8904Z" fill="white"/>
<path fill-rule="evenodd" clip-rule="evenodd" d="M99.0594 3.39041C97.8927 2.22374 94.6594 2.99041 91.0594 15.3904C87.4594 27.7904 93.8927 26.8904 97.5594 24.8904C98.8927 24.3904 101.459 22.0904 101.059 16.8904C100.659 11.6904 96.8927 9.05708 95.0594 8.39041C95.5594 6.39041 97.0594 2.5904 99.0594 3.39041ZM92.5594 20.8904C91.3594 19.2904 93.0594 14.8904 94.0594 12.8904C100.859 17.2904 99.226 20.0571 97.5594 20.8904C96.3927 21.5571 93.7594 22.4904 92.5594 20.8904Z" fill="white"/>
<path d="M491.217 87.7933C493.868 90.2601 496.112 91.9119 497.647 92.8163C513.558 84.5057 515.084 79.5649 513.5 78C500 64.5 472.5 72.5 469.5 74C467.1 75.2 465.167 81.8333 464.5 85C474.077 81.3382 481.075 85.7263 485.251 90.7961C487.432 89.7545 489.435 88.7454 491.217 87.7933C489.033 85.7612 486.571 83.1761 484 80C488.333 79.1667 497.6 78.2 500 81C500.811 81.9461 497.31 84.5365 491.217 87.7933Z" fill="white"/>
<path d="M406.391 114.717C418.656 121.046 443.556 120.792 489 97C488.26 95.1758 487.005 92.9258 485.251 90.7961C474.595 95.8835 459.677 101.747 445.5 105.539C435.781 108.138 426.41 109.765 419 109.5C416.747 109.343 413.845 108.86 411 107.923C410.343 107.707 409.689 107.466 409.046 107.2C408.939 107.43 408.832 107.661 408.727 107.893C407.857 110.221 407.078 112.514 406.391 114.717Z" fill="white"/>
<path d="M497.647 92.8163C496.112 91.9119 493.868 90.2601 491.217 87.7933C489.435 88.7454 487.432 89.7545 485.251 90.7961C487.005 92.9258 488.26 95.1758 489 97C492.27 95.5216 495.137 94.1271 497.647 92.8163Z" fill="white"/>
<path d="M411 107.923C413.845 108.86 416.747 109.343 419 109.5C426.41 109.765 435.781 108.138 445.5 105.539C454.5 95.0772 467 79 444.5 74C427.667 70.2592 415.723 89.5215 408.997 107.179C409.013 107.186 409.03 107.193 409.046 107.2C413.71 97.2155 420.822 88.9583 425.5 85C443.5 76.5 452.5 87.5 452 91.5C443 108.5 420.833 108.615 411 107.923Z" fill="white"/>
<path d="M400.5 94C396.73 96.1147 390.029 99.0917 382.897 100.664C383.483 102.856 383.959 105.384 384.312 108.297C388.471 107.117 392.664 105.217 396.5 102.5C397.32 106.765 400.239 111.47 406.191 114.612C406.885 112.312 407.746 110.064 408.727 107.893C408.816 107.656 408.906 107.418 408.997 107.179C403.593 104.926 399.033 100.845 400.5 94Z" fill="white"/>
<path d="M366 100.5C365 100 363.7 98.6 366.5 97C368.959 95.5948 374.627 95.9174 378.474 101.436C379.952 101.251 381.434 100.987 382.897 100.664C380.725 92.5344 377.042 89.0142 372.5 87.5C366.5 85.5 355 102.5 362 107C366.268 109.744 373.696 110.629 381.564 108.975C380.874 105.775 379.778 103.307 378.474 101.436C374.098 101.983 369.753 101.841 366 100.5Z" fill="white"/>
<path d="M384.312 108.297C383.959 105.384 383.483 102.856 382.897 100.664C381.434 100.987 379.952 101.251 378.474 101.436C379.778 103.307 380.874 105.775 381.564 108.975C382.475 108.783 383.393 108.558 384.312 108.297Z" fill="white"/>
<path d="M382 111.5C384 126.5 312.5 174.5 327 111.5C322.667 125.333 318.8 152.5 338 150.5C362 148 386 125 384.5 110C384.442 109.418 384.379 108.85 384.312 108.297C383.393 108.558 382.475 108.783 381.564 108.975C381.735 109.771 381.882 110.612 382 111.5Z" fill="white"/>
<path d="M515.5 67C519.5 71.8333 527.4 82.6 527 87C526.5 92.5 515 99 499 93.5C498.647 93.3642 498.191 93.1374 497.647 92.8163C495.137 94.1271 492.27 95.5216 489 97C499.667 105.167 522.7 114.6 531.5 87C531.667 83.8333 529.2 74.4 518 62L515.5 67Z" fill="white"/>
<path d="M518.5 57.5L515.5 67M515.5 67C519.5 71.8333 527.4 82.6 527 87C526.5 92.5 515 99 499 93.5C498.647 93.3642 498.191 93.1374 497.647 92.8163M515.5 67L518 62C529.2 74.4 531.667 83.8333 531.5 87C522.7 114.6 499.667 105.167 489 97M489 97C488.26 95.1758 487.005 92.9258 485.251 90.7961M489 97C492.27 95.5216 495.137 94.1271 497.647 92.8163M489 97C443.556 120.792 418.656 121.046 406.391 114.717M411 107.923C413.845 108.86 416.747 109.343 419 109.5C426.41 109.765 435.781 108.138 445.5 105.539M411 107.923C420.833 108.615 443 108.5 452 91.5C452.5 87.5 443.5 76.5 425.5 85C420.822 88.9583 413.71 97.2155 409.046 107.2M411 107.923C410.343 107.707 409.689 107.466 409.046 107.2M445.5 105.539C454.5 95.0772 467 79 444.5 74C427.667 70.2592 415.723 89.5215 408.997 107.179M445.5 105.539C459.677 101.747 474.595 95.8835 485.251 90.7961M491.217 87.7933C493.868 90.2601 496.112 91.9119 497.647 92.8163M491.217 87.7933C489.435 88.7454 487.432 89.7545 485.251 90.7961M491.217 87.7933C489.033 85.7612 486.571 83.1761 484 80C488.333 79.1667 497.6 78.2 500 81C500.811 81.9461 497.31 84.5365 491.217 87.7933ZM497.647 92.8163C513.558 84.5057 515.084 79.5649 513.5 78C500 64.5 472.5 72.5 469.5 74C467.1 75.2 465.167 81.8333 464.5 85C474.077 81.3382 481.075 85.7263 485.251 90.7961M406.391 114.717C407.078 112.514 407.857 110.221 408.727 107.893M406.391 114.717C405.876 116.37 405.412 117.973 405 119.5C405.304 117.851 405.706 116.219 406.191 114.612M406.391 114.717C406.324 114.682 406.257 114.647 406.191 114.612M409.046 107.2C408.939 107.43 408.832 107.661 408.727 107.893M409.046 107.2C409.03 107.193 409.013 107.186 408.997 107.179M408.727 107.893C408.816 107.656 408.906 107.418 408.997 107.179M408.727 107.893C407.746 110.064 406.885 112.312 406.191 114.612M408.997 107.179C403.593 104.926 399.033 100.845 400.5 94C396.73 96.1147 390.029 99.0917 382.897 100.664M382.897 100.664C383.483 102.856 383.959 105.384 384.312 108.297M382.897 100.664C380.725 92.5344 377.042 89.0142 372.5 87.5C366.5 85.5 355 102.5 362 107C366.268 109.744 373.696 110.629 381.564 108.975M382.897 100.664C381.434 100.987 379.952 101.251 378.474 101.436M384.312 108.297C388.471 107.117 392.664 105.217 396.5 102.5C397.32 106.765 400.239 111.47 406.191 114.612M384.312 108.297C384.379 108.85 384.442 109.418 384.5 110C386 125 362 148 338 150.5C318.8 152.5 322.667 125.333 327 111.5C312.5 174.5 384 126.5 382 111.5C381.882 110.612 381.735 109.771 381.564 108.975M384.312 108.297C383.393 108.558 382.475 108.783 381.564 108.975M378.474 101.436C374.627 95.9174 368.959 95.5948 366.5 97C363.7 98.6 365 100 366 100.5C369.753 101.841 374.098 101.983 378.474 101.436ZM378.474 101.436C379.778 103.307 380.874 105.775 381.564 108.975" stroke="white"/>
<path d="M515.5 68L517 56.5L528.5 66.3571C528.833 66.9048 529.3 68 528.5 68H515.5Z" fill="white"/>
<path d="M515.5 68L517 56.5L528.5 66.3571C528.833 66.9048 529.3 68 528.5 68M515.5 68C519.5 68 527.7 68 528.5 68M515.5 68H528.5" stroke="white"/>
<path fill-rule="evenodd" clip-rule="evenodd" d="M657.059 2.39041C655.893 1.22374 652.659 1.99041 649.059 14.3904C645.459 26.7904 651.893 25.8904 655.559 23.8904C656.893 23.3904 659.459 21.0904 659.059 15.8904C658.659 10.6904 654.893 8.05708 653.059 7.39041C653.559 5.39041 655.059 1.5904 657.059 2.39041ZM650.559 19.8904C649.359 18.2904 651.059 13.8904 652.059 11.8904C658.859 16.2904 657.226 19.0571 655.559 19.8904C654.393 20.5571 651.759 21.4904 650.559 19.8904Z" fill="white"/>
<path d="M620.744 2C619.026 7.14146 615.915 18.6914 619.388 20.4542C620.111 20.7296 622.047 20.4542 624 17.1489C623.819 19.8115 622.491 26.5593 618.574 25.9629C613.148 25.1366 617.489 5.58066 620.744 2Z" fill="white"/>
<path d="M4.74444 3C3.02623 8.14146 -0.0846329 19.6914 3.38796 21.4542C4.11142 21.7296 6.04667 21.4542 8 18.1489C7.81914 20.8115 6.49082 27.5593 2.57408 26.9629C-2.85186 26.1366 1.48887 6.58066 4.74444 3Z" fill="white"/>
<path d="M4.74444 47C3.02623 52.1415 -0.0846329 63.6914 3.38796 65.4542C4.11142 65.7296 6.04667 65.4542 8 62.1489C7.81914 64.8115 6.49082 71.5593 2.57408 70.9629C-2.85186 70.1366 1.48887 50.5807 4.74444 47Z" fill="white"/>
<path d="M336 13C338.833 46.5 344.1 114.3 342.5 117.5C340.5 121.5 346 118 347 96C347.671 81.2373 343.933 44.3355 341.038 19.6414L336 13Z" fill="white"/>
<path d="M336 13L339.5 7C339.957 10.6003 340.482 14.8954 341.038 19.6414L347 27.5L339.5 4.5L336 13Z" fill="white"/>
<path d="M339.5 7L336 13L341.038 19.6414C340.482 14.8954 339.957 10.6003 339.5 7Z" fill="white"/>
<path d="M336 13C338.833 46.5 344.1 114.3 342.5 117.5C340.5 121.5 346 118 347 96C347.671 81.2373 343.933 44.3355 341.038 19.6414M336 13L339.5 7C339.957 10.6003 340.482 14.8954 341.038 19.6414M336 13L339.5 4.5L347 27.5L341.038 19.6414M336 13L341.038 19.6414" stroke="white"/>
<path d="M196 11.3933C198.557 44.473 203.311 111.422 201.867 114.582C200.062 118.532 205.026 115.076 205.929 93.3518C206.534 78.7743 203.16 42.3356 200.548 17.9514L196 11.3933Z" fill="white"/>
<path d="M196 11.3933L199.159 5.46863C199.571 9.02377 200.045 13.2649 200.548 17.9514L205.929 25.7114L199.159 3L196 11.3933Z" fill="white"/>
<path d="M199.159 5.46863L196 11.3933L200.548 17.9514C200.045 13.2649 199.571 9.02377 199.159 5.46863Z" fill="white"/>
<path d="M196 11.3933C198.557 44.473 203.311 111.422 201.867 114.582C200.062 118.532 205.026 115.076 205.929 93.3518C206.534 78.7743 203.16 42.3356 200.548 17.9514M196 11.3933L199.159 5.46863C199.571 9.02377 200.045 13.2649 200.548 17.9514M196 11.3933L199.159 3L205.929 25.7114L200.548 17.9514M196 11.3933L200.548 17.9514" stroke="white"/>
<path d="M478.5 127C479.167 127.667 480.7 128.8 481.5 128C482.5 127 480.5 122 479 123C477.5 124 469.5 132 471.5 135C472.994 137.24 475.5 135.5 475.5 136.5C475.5 137.5 463 156.5 479 154C482.167 153.333 488.7 151.3 489.5 148.5C485 149.5 475.8 151 475 149C474 146.5 481.5 133.5 483.5 132L484 130C482 131.167 477.7 133.5 476.5 133.5C475.3 133.5 473.5 134 474 131.5C475 129.5 478.5 126 478.5 127Z" fill="white" stroke="white"/>
<path fill-rule="evenodd" clip-rule="evenodd" d="M297.342 133.333C299.145 135.048 302.627 137.749 304.5 137C307 136 306.5 124 302.5 124.5L300 129C299.23 130.539 298.337 131.982 297.342 133.333ZM303 133C301.8 133.4 300.167 131.833 299.5 131L301 128C303 128.427 304.5 132.5 303 133Z" fill="white"/>
<path d="M302.5 124.5C298.5 125 291 145.5 263.5 151C271.738 150.101 288.512 145.325 297.342 133.333C298.337 131.982 299.23 130.539 300 129L302.5 124.5Z" fill="white"/>
<path d="M297 133C297.106 133.106 297.22 133.217 297.342 133.333M302.5 124.5C306.5 124 307 136 304.5 137C302.627 137.749 299.145 135.048 297.342 133.333M302.5 124.5C298.5 125 291 145.5 263.5 151C271.738 150.101 288.512 145.325 297.342 133.333M302.5 124.5L300 129C299.23 130.539 298.337 131.982 297.342 133.333M299.5 131C300.167 131.833 301.8 133.4 303 133C304.5 132.5 303 128.427 301 128L299.5 131Z" stroke="white"/>
<path fill-rule="evenodd" clip-rule="evenodd" d="M53.8417 132.848C55.6449 134.563 59.1267 137.265 61 136.515C63.5 135.515 63 123.515 59 124.015L56.5 128.515C55.7305 130.054 54.8365 131.497 53.8417 132.848ZM59.5 132.515C58.3 132.915 56.6667 131.349 56 130.515L57.5 127.515C59.5 127.942 61 132.015 59.5 132.515Z" fill="white"/>
<path d="M59 124.015C55 124.515 47.5 145.015 20 150.515C28.2385 149.616 45.0121 144.841 53.8417 132.848C54.8365 131.497 55.7305 130.054 56.5 128.515L59 124.015Z" fill="white"/>
<path d="M53.5 132.515C53.6056 132.621 53.7198 132.732 53.8417 132.848M59 124.015C63 123.515 63.5 135.515 61 136.515C59.1267 137.265 55.6449 134.563 53.8417 132.848M59 124.015C55 124.515 47.5 145.015 20 150.515C28.2385 149.616 45.0121 144.841 53.8417 132.848M59 124.015L56.5 128.515C55.7305 130.054 54.8365 131.497 53.8417 132.848M56 130.515C56.6667 131.349 58.3 132.915 59.5 132.515C61 132.015 59.5 127.942 57.5 127.515L56 130.515Z" stroke="white"/>
<path d="M307.5 76.5C293.1 104.9 280.5 97 276 89.5L275 87.5L274 98.5C274.199 100.892 275.648 102.555 277.382 103.663C277.98 104.046 278.612 104.362 279.238 104.619C280.44 105.113 281.62 105.39 282.5 105.5C294.1 105.1 302 93.3333 304.5 87.5C305.475 85.0021 307.046 81.9519 309 79.6145C312.391 75.5576 316.932 73.6479 321.5 80.5C322.833 84.5763 322.2 90.1061 309 79.6145C307.046 81.9519 305.475 85.0021 304.5 87.5C323.3 102.3 328 91.5 327.5 84C323.5 57.6 312.5 68 307.5 76.5Z" fill="white"/>
<path d="M279.238 104.619C278.612 104.362 277.98 104.046 277.382 103.663C278.141 111.503 278.382 120.916 276 123C272 126.5 245.5 147 221.5 143C202.703 139.867 199.855 124.773 200.464 112.37C194.5 138 210.971 175.599 272.5 133.5C275.167 131.333 280.9 124.9 280.5 118.5L279.238 104.619Z" fill="white"/>
<path d="M304.5 87.5C323.3 102.3 328 91.5 327.5 84C323.5 57.6 312.5 68 307.5 76.5C293.1 104.9 280.5 97 276 89.5L275 87.5L274 98.5C274.199 100.892 275.648 102.555 277.382 103.663M304.5 87.5C302 93.3333 294.1 105.1 282.5 105.5C281.62 105.39 280.44 105.113 279.238 104.619M304.5 87.5C305.475 85.0021 307.046 81.9519 309 79.6145M309 79.6145C312.391 75.5576 316.932 73.6479 321.5 80.5C322.833 84.5763 322.2 90.1061 309 79.6145ZM279.238 104.619C278.612 104.362 277.98 104.046 277.382 103.663M279.238 104.619L280.5 118.5C280.9 124.9 275.167 131.333 272.5 133.5C210.971 175.599 194.5 138 200.464 112.37M279.238 104.619L278.5 96.5H276.5C276.798 98.4609 277.121 100.969 277.382 103.663M277.382 103.663C278.141 111.503 278.382 120.916 276 123C272 126.5 245.5 147 221.5 143C202.703 139.867 199.855 124.773 200.464 112.37M200.464 112.37C200.653 109.141 201.015 105.98 201.5 103C201.066 105.71 200.633 108.937 200.464 112.37Z" stroke="white"/>
<path d="M25.9218 19.7427C26.6613 18.7443 27.2008 17.8287 27.5749 16.9951C26.0254 16.3128 24.5849 15.5212 23.6508 14.9456C24.2569 13.4468 25.7354 10.5855 26.8005 11.1305C27.9743 11.6139 28.7984 12.1955 29.32 12.8564C32.411 15.0944 35.5987 17.8877 33.5801 18.3374C32.4437 18.5906 30.829 18.2366 29.1854 17.6431C28.7337 18.4543 28.1144 19.299 27.3615 20.1634C33.6781 21.9249 35.9555 21.3821 36.2759 20.7257C40.2851 15.1499 30.6108 7.50026 25.2725 4.37243C22.1495 4.9686 21.2129 13.7868 21.135 18.1214C22.9178 18.7774 24.5075 19.3116 25.9218 19.7427Z" fill="white"/>
<path d="M27.5749 16.9951C27.2008 17.8287 26.6613 18.7443 25.9218 19.7427C26.4235 19.8956 26.9032 20.0356 27.3615 20.1634C28.1144 19.299 28.7337 18.4543 29.1854 17.6431C28.6464 17.4485 28.1043 17.2282 27.5749 16.9951Z" fill="white"/>
<path d="M29.32 12.8564C28.43 12.212 27.5479 11.6136 26.8005 11.1305C28.1235 12.0483 28.9243 13.9888 27.5749 16.9951C28.1043 17.2282 28.6464 17.4485 29.1854 17.6431C30.1952 15.8295 30.367 14.1831 29.32 12.8564Z" fill="white"/>
<path d="M5.98045 35.3212C12.8014 31.6995 22.6723 25.5474 27.3615 20.1634C26.9032 20.0356 26.4235 19.8956 25.9218 19.7427C23.0287 23.6487 17.0743 28.8231 5.98045 35.3212Z" fill="white"/>
<path d="M125.253 97.0156C125.844 94.715 126.593 92.2399 127.512 89.5793C121.253 86.4381 117.562 81.0487 116 76.5C94.8001 98.9 85.6668 86.3334 84.5001 76.5C84.4766 75.785 84.453 75.0769 84.4292 74.3757C83.3826 75.5613 82.3524 76.6766 81.3406 77.7251C81.4122 80.5313 81.4648 83.1483 81.5001 85.5C89.5001 109.5 106.667 95.5 114.5 85.5C117.135 91.1322 120.893 94.7993 125.253 97.0156Z" fill="white"/>
<path d="M81.0567 68.5151C66.0083 84.2829 58.0025 89.4014 51.5001 85.5C45.5001 81.9 49.0001 65 51.5001 57C47.1668 68.5 42.1001 91 56.5001 93C60.1304 93.1397 69.4689 90.0275 81.3406 77.7251C81.2668 74.8288 81.1727 71.7309 81.0567 68.5151Z" fill="white"/>
<path d="M77.5001 4.00002C77.1001 5.20002 75.3335 9.83335 74.5001 12C78.2653 16.3927 80.2256 45.4791 81.0567 68.5151C82.0404 67.4844 83.0541 66.4083 84.0995 65.2861C81.5944 0.70628 77.9742 2.57787 77.5001 4.00002Z" fill="white"/>
<path d="M122.5 61.5C123.167 58 124.1 50.7 122.5 49.5C120.5 48 108.5 38.5 88.5001 60.5C86.9733 62.1795 85.5077 63.7745 84.0995 65.2861C84.2117 68.1805 84.3218 71.2083 84.4292 74.3757C85.7609 72.867 87.1193 71.2443 88.5001 69.5C107.5 45.5 122.5 56.5 122.5 61.5Z" fill="white"/>
<path d="M81.3406 77.7251C82.3524 76.6766 83.3826 75.5613 84.4292 74.3757C84.3218 71.2083 84.2117 68.1805 84.0995 65.2861C83.0541 66.4083 82.0404 67.4844 81.0567 68.5151C81.1727 71.7309 81.2668 74.8288 81.3406 77.7251Z" fill="white"/>
<path d="M171.5 63C150 47.5 136.333 71.3333 129 85.5C128.462 86.9059 127.966 88.2652 127.512 89.5793C128.095 89.8716 128.7 90.1445 129.327 90.3954C140.767 69.355 149.538 66.9953 153.5 66.5C173 65.5 175.167 76.5 172.5 79.5C152.529 93.0359 138.508 94.067 129.327 90.3954C128.7 90.1445 128.095 89.8716 127.512 89.5793C126.593 92.2399 125.844 94.715 125.253 97.0156C125.704 97.2449 126.161 97.4586 126.625 97.6574C141.402 103.998 162.131 95.1205 170 89.5C183.5 76.5 177 67.5 171.5 63Z" fill="white"/>
<path d="M187.5 109.5C191.1 109.5 189 115.167 187.5 118C191 113 196.6 102.6 191 101C184.337 99.0962 115.152 137.514 126.625 97.6574C126.161 97.4586 125.704 97.2449 125.253 97.0156C111.493 150.56 183.272 109.5 187.5 109.5Z" fill="white"/>
<path d="M125.253 97.0156C125.844 94.715 126.593 92.2399 127.512 89.5793M125.253 97.0156C120.893 94.7993 117.135 91.1322 114.5 85.5C106.667 95.5 89.5001 109.5 81.5001 85.5C81.4648 83.1483 81.4122 80.5313 81.3406 77.7251M125.253 97.0156C111.493 150.56 183.272 109.5 187.5 109.5C191.1 109.5 189 115.167 187.5 118C191 113 196.6 102.6 191 101C184.337 99.0962 115.152 137.514 126.625 97.6574M125.253 97.0156C125.704 97.2449 126.161 97.4586 126.625 97.6574M127.512 89.5793C121.253 86.4381 117.562 81.0487 116 76.5C94.8001 98.9 85.6668 86.3334 84.5001 76.5C84.4766 75.785 84.453 75.0769 84.4292 74.3757M127.512 89.5793C127.966 88.2652 128.462 86.9059 129 85.5C136.333 71.3333 150 47.5 171.5 63C177 67.5 183.5 76.5 170 89.5C162.131 95.1205 141.402 103.998 126.625 97.6574M127.512 89.5793C128.095 89.8716 128.7 90.1445 129.327 90.3954M84.4292 74.3757C83.3826 75.5613 82.3524 76.6766 81.3406 77.7251M84.4292 74.3757C85.7609 72.867 87.1193 71.2443 88.5001 69.5C107.5 45.5 122.5 56.5 122.5 61.5C123.167 58 124.1 50.7 122.5 49.5C120.5 48 108.5 38.5 88.5001 60.5C86.9733 62.1795 85.5077 63.7745 84.0995 65.2861M84.4292 74.3757C84.3218 71.2083 84.2117 68.1805 84.0995 65.2861M81.3406 77.7251C69.4689 90.0275 60.1304 93.1397 56.5001 93C42.1001 91 47.1668 68.5 51.5001 57C49.0001 65 45.5001 81.9 51.5001 85.5C58.0025 89.4014 66.0083 84.2829 81.0567 68.5151M81.3406 77.7251C81.2668 74.8288 81.1727 71.7309 81.0567 68.5151M81.0567 68.5151C80.2256 45.4791 78.2653 16.3927 74.5001 12C75.3335 9.83335 77.1001 5.20002 77.5001 4.00002C77.9742 2.57787 81.5944 0.70628 84.0995 65.2861M81.0567 68.5151C82.0404 67.4844 83.0541 66.4083 84.0995 65.2861M129.327 90.3954C140.767 69.355 149.538 66.9953 153.5 66.5C173 65.5 175.167 76.5 172.5 79.5C152.529 93.0359 138.508 94.067 129.327 90.3954ZM129.327 90.3954C129.218 90.5952 129.109 90.7968 129 91C127.99 93.4292 127.204 95.6433 126.625 97.6574" stroke="white"/>
<path d="M108.5 128C110.667 129.333 112.5 132.4 102.5 134C100.694 134.289 99.2223 134.463 98 134.574C90.7608 135.229 92.272 133.656 85 140.5C78.7759 146.358 76.5732 149.535 74.4657 150.816C76.9496 149.805 80.8034 147.525 85.5 143C94 134.81 92 136.5 99.5 136.5C107 136.5 117.5 130.5 110 126C108.5 125.1 103.2 127.033 98 134.574C104 127.833 107.5 127.382 108.5 128Z" fill="white"/>
<path d="M68 38.5C59.5502 31.6857 53.4779 26.7535 49.378 23.0555C47.2584 24.5217 45.0617 26.1869 43 27.9617L47.5 26C48.6228 28.148 49.86 31.0452 50.7969 34.2093C52.1738 35.0397 53.7347 35.9667 55.5 37C74.0927 47.8835 70.4757 55.8881 49.8715 52.061C49.0183 53.2128 47.9099 54.2104 46.5 55C45.1861 55.7357 43.8281 56.4549 42.4486 57.1575C44.2054 57.8144 45.9532 58.2525 47.5 58.5C73.5 64.9 73 44 68 38.5Z" fill="white"/>
<path d="M48.3367 22.1032C45.5805 23.2476 42.9867 25.1022 40.7795 27.0742C39.5333 29.3977 37.6847 31.6631 34.9999 33.5C28.8801 43.7814 31.8113 50.3424 36.9174 54.1917C39.49 53.0261 41.604 51.8165 43.3215 50.5844C43.2147 50.5565 43.1075 50.5284 43 50.5C27.5192 46.4107 33.3142 36.5626 42.2401 28.6263C40.6306 27.3192 41.6246 27.4526 43 27.9617C45.0617 26.1869 47.2584 24.5217 49.378 23.0555C49.0156 22.7286 48.6686 22.4113 48.3367 22.1032Z" fill="white"/>
<path d="M49.8715 52.061C53.2971 47.436 52.6078 40.3244 50.7969 34.2093C47.65 32.3113 45.4647 30.918 44 29.9139C49.1705 34.0726 54.2007 42.7801 43.3215 50.5844C45.6651 51.1961 47.85 51.6855 49.8715 52.061Z" fill="white"/>
<path d="M47.5 26L43 27.9617C42.7445 28.1816 42.4911 28.4032 42.2401 28.6263C42.6477 28.9574 43.2223 29.3808 44 29.9139C45.4647 30.918 47.65 32.3113 50.7969 34.2093C49.86 31.0452 48.6228 28.148 47.5 26Z" fill="white"/>
<path d="M40.7795 27.0742C42.9867 25.1022 45.5805 23.2476 48.3367 22.1032C45.5362 19.5036 43.8133 17.5589 43 16C43.3233 18.3714 43.0611 22.8203 40.7795 27.0742Z" fill="white"/>
<path d="M46.5 55C47.9099 54.2104 49.0183 53.2128 49.8715 52.061C47.85 51.6855 45.6651 51.1961 43.3215 50.5844C41.604 51.8165 39.49 53.0261 36.9174 54.1917C38.6061 55.4648 40.5328 56.4412 42.4486 57.1575C43.8281 56.4549 45.1861 55.7357 46.5 55Z" fill="white"/>
<path d="M29.5 57C6.39957 64.3653 12.0438 75.0465 20.459 81.6558C22.4185 82.5821 24.1806 83.8043 25.5 85C23.8425 84.0762 22.0982 82.9432 20.459 81.6558C14.4978 78.8379 6.70938 78.7592 3.99997 90.5C-0.0167622 107.906 10.7063 134.182 10.9223 146.867C10.8967 141.043 9.7331 128.117 5.49997 103C4.33329 94 7.49994 79.7 29.5 90.5C30.3333 91 32 90 32 82C26.5 79.8333 15.7 74.7 16.5 71.5C17.3949 67.9204 30.7027 63.1396 42.4486 57.1575C40.5328 56.4412 38.6061 55.4648 36.9174 54.1917C34.7749 55.1624 32.3144 56.1026 29.5 57Z" fill="white"/>
<path d="M98 134.574C99.2223 134.463 100.694 134.289 102.5 134C112.5 132.4 110.667 129.333 108.5 128C107.5 127.382 104 127.833 98 134.574ZM98 134.574C90.7608 135.229 92.272 133.656 85 140.5C78.7759 146.358 76.5732 149.535 74.4657 150.816M98 134.574C103.2 127.033 108.5 125.1 110 126C117.5 130.5 107 136.5 99.5 136.5C92 136.5 94 134.81 85.5 143C80.8034 147.525 76.9496 149.805 74.4657 150.816M74.4657 150.816C73.3532 151.269 72.5155 151.468 72 151.5C72.9371 151.5 73.695 151.285 74.4657 150.816ZM34.9999 33.5C37.6847 31.6631 39.5333 29.3977 40.7795 27.0742M34.9999 33.5C28.8801 43.7814 31.8113 50.3424 36.9174 54.1917M34.9999 33.5C36.168 31.821 38.2122 29.3681 40.7795 27.0742M43 27.9617L47.5 26C48.6228 28.148 49.86 31.0452 50.7969 34.2093M43 27.9617C45.0617 26.1869 47.2584 24.5217 49.378 23.0555M43 27.9617C41.6246 27.4526 40.6306 27.3192 42.2401 28.6263M43 27.9617C42.7445 28.1816 42.4911 28.4032 42.2401 28.6263M44 29.9139C45.4647 30.918 47.65 32.3113 50.7969 34.2093M44 29.9139C43.2223 29.3808 42.6477 28.9574 42.2401 28.6263M44 29.9139C49.1705 34.0726 54.2007 42.7801 43.3215 50.5844M49.378 23.0555C53.4779 26.7535 59.5502 31.6857 68 38.5C73 44 73.5 64.9 47.5 58.5C45.9532 58.2525 44.2054 57.8144 42.4486 57.1575M49.378 23.0555C50.4473 22.3158 51.4971 21.6268 52.5 21C51.0907 21.1483 49.694 21.5397 48.3367 22.1032M49.378 23.0555C49.0156 22.7286 48.6686 22.4113 48.3367 22.1032M50.7969 34.2093C52.1738 35.0397 53.7347 35.9667 55.5 37C74.0927 47.8835 70.4757 55.8881 49.8715 52.061M50.7969 34.2093C52.6078 40.3244 53.2971 47.436 49.8715 52.061M49.8715 52.061C49.0183 53.2128 47.9099 54.2104 46.5 55C45.1861 55.7357 43.8281 56.4549 42.4486 57.1575M49.8715 52.061C47.85 51.6855 45.6651 51.1961 43.3215 50.5844M42.4486 57.1575C30.7027 63.1396 17.3949 67.9204 16.5 71.5C15.7 74.7 26.5 79.8333 32 82C32 90 30.3333 91 29.5 90.5C7.49994 79.7 4.33329 94 5.49997 103C9.7331 128.117 10.8967 141.043 10.9223 146.867M42.4486 57.1575C40.5328 56.4412 38.6061 55.4648 36.9174 54.1917M48.3367 22.1032C45.5805 23.2476 42.9867 25.1022 40.7795 27.0742M48.3367 22.1032C45.5362 19.5036 43.8133 17.5589 43 16C43.3233 18.3714 43.0611 22.8203 40.7795 27.0742M36.9174 54.1917C39.49 53.0261 41.604 51.8165 43.3215 50.5844M36.9174 54.1917C34.7749 55.1624 32.3144 56.1026 29.5 57C6.39957 64.3653 12.0438 75.0465 20.459 81.6558M43.3215 50.5844C43.2147 50.5565 43.1075 50.5284 43 50.5C27.5192 46.4107 33.3142 36.5626 42.2401 28.6263M20.459 81.6558C22.4185 82.5821 24.1806 83.8043 25.5 85C23.8425 84.0762 22.0982 82.9432 20.459 81.6558ZM20.459 81.6558C14.4978 78.8379 6.70938 78.7592 3.99997 90.5C-0.0167622 107.906 10.7063 134.182 10.9223 146.867M10.9223 146.867C10.933 149.298 10.7454 150.491 10.5 150.816C10.8222 149.723 10.9483 148.393 10.9223 146.867Z" stroke="white"/>
<path d="M847.5 95.4999C843.167 95.9999 834.7 95.8999 835.5 91.4999C836.5 85.9999 847.5 91.4999 847.5 95.4999Z" fill="black" stroke="white"/>
<defs>
<linearGradient id="paint0_linear_31_205" x1="837" y1="60" x2="837" y2="77" gradientUnits="userSpaceOnUse">
<stop stop-color="#F3E07B"/>
<stop offset="1" stop-color="#BC6317"/>
</linearGradient>
<linearGradient id="paint1_linear_31_205" x1="592.529" y1="139" x2="592.529" y2="153" gradientUnits="userSpaceOnUse">
<stop stop-color="#F3E07B"/>
<stop offset="1" stop-color="#BC6317"/>
</linearGradient>
<linearGradient id="paint2_linear_31_205" x1="506.919" y1="123.27" x2="521.426" y2="119.725" gradientUnits="userSpaceOnUse">
<stop stop-color="#F3E07B"/>
<stop offset="1" stop-color="#BC6317"/>
</linearGradient>
<linearGradient id="paint3_linear_31_205" x1="622.258" y1="64.5" x2="622.258" y2="80" gradientUnits="userSpaceOnUse">
<stop stop-color="#F3E07B"/>
<stop offset="1" stop-color="#BC6317"/>
</linearGradient>
<linearGradient id="paint4_linear_31_205" x1="542.149" y1="99.9646" x2="540.894" y2="115.414" gradientUnits="userSpaceOnUse">
<stop stop-color="#F3E07B"/>
<stop offset="1" stop-color="#BC6317"/>
</linearGradient>
<linearGradient id="paint5_linear_31_205" x1="425.486" y1="46.1734" x2="424.231" y2="61.6225" gradientUnits="userSpaceOnUse">
<stop stop-color="#F3E07B"/>
<stop offset="1" stop-color="#BC6317"/>
</linearGradient>
<linearGradient id="paint6_linear_31_205" x1="237.919" y1="100.581" x2="236.492" y2="112.766" gradientUnits="userSpaceOnUse">
<stop stop-color="#F3E07B"/>
<stop offset="1" stop-color="#BC6317"/>
</linearGradient>
<linearGradient id="paint7_linear_31_205" x1="176.919" y1="139.581" x2="175.492" y2="151.766" gradientUnits="userSpaceOnUse">
<stop stop-color="#F3E07B"/>
<stop offset="1" stop-color="#BC6317"/>
</linearGradient>
<linearGradient id="paint8_linear_31_205" x1="480.486" y1="40.1734" x2="479.231" y2="55.6225" gradientUnits="userSpaceOnUse">
<stop stop-color="#F3E07B"/>
<stop offset="1" stop-color="#BC6317"/>
</linearGradient>
</defs>
</svg>
