<svg fill="none" height="2400" viewBox="0 0 1080 2400" width="1080" xmlns="http://www.w3.org/2000/svg" xmlns:xlink="http://www.w3.org/1999/xlink"><linearGradient id="a"><stop offset="0" stop-color="#f3e07b"/><stop offset="1" stop-color="#bc6317"/></linearGradient><linearGradient id="b" gradientUnits="userSpaceOnUse" x1="723.5" x2="723.5" xlink:href="#a" y1="1018" y2="1072"/><linearGradient id="c" gradientUnits="userSpaceOnUse" x1="406.5" x2="406.5" xlink:href="#a" y1="1208" y2="1250"/><linearGradient id="d" gradientUnits="userSpaceOnUse" x1="723.5" x2="723.5" xlink:href="#a" y1="1049" y2="1103"/><linearGradient id="e" gradientUnits="userSpaceOnUse" x1="830.358" x2="830.358" xlink:href="#a" y1="990.406" y2="1012.75"/><linearGradient id="f" gradientUnits="userSpaceOnUse" x1="550.948" x2="550.948" xlink:href="#a" y1="991.229" y2="1018.28"/><linearGradient id="g" gradientUnits="userSpaceOnUse" x1="605.545" x2="605.545" xlink:href="#a" y1="1369.64" y2="1399.04"/><linearGradient id="h" gradientUnits="userSpaceOnUse" x1="297" x2="297" xlink:href="#a" y1="1279" y2="1323"/><linearGradient id="i" gradientUnits="userSpaceOnUse" x1="404.765" x2="411.413" xlink:href="#a" y1="1361.23" y2="1399.49"/><linearGradient id="j" gradientUnits="userSpaceOnUse" x1="705.776" x2="712.424" xlink:href="#a" y1="1288.26" y2="1326.52"/><linearGradient id="k" gradientUnits="userSpaceOnUse" x1="616" x2="616" xlink:href="#a" y1="1088" y2="1119"/><clipPath id="l"><path d="m0 0h1080v2400h-1080z"/></clipPath><g clip-path="url(#l)"><path d="m0 0h1080v2400h-1080z" fill="#000"/><path d="m849.747 998.17c-3.042 8.51-9.127 25.89-9.127 27.35.522-1.83 2.349-2.92 5.476 7.29 3.128 10.21 21.384 221.82 30.121 326.35 9.493-13.86 9.432-67.15 8.215-92.07l-11.409-111.67-11.41-111.67 9.128 11.85c1.46 0 1.217-4.86.913-7.29 0-2.19-14.605-34.34-21.907-50.14z" fill="#fff"/><path d="m788.592 1029.16-3.651-3.64 7.302-24.62c8.519 17.93 24.827 54.34 21.906 56.52-.608 0-3.286-1.46-9.127-7.29-5.842-5.83 9.127 128.23 17.342 195.99 0 7.9 7.302 26.8 36.511 39.2.608 8.51.73 25.16-3.651 23.7-4.875-1.62-35.786-35.02-87.583 3.31-2.234 1.65-4.508 3.44-6.819 5.36-4.303 3.59-8.739 7.67-13.305 12.3-51.115 51.78-76.672 39.2-83.061 26.44-7.733-9.21-15.001-38.05 16.055-80.9.713-.98 1.446-1.97 2.2-2.97 2.322-2.06 5.432-3.77 2.316 2.87-.558 1.19-1.317 2.65-2.316 4.42-8.215 14.59-30.121 51.05-13.692 63.81 13.144 10.21 26.166 6.08 31.035 2.74 14.306-11.48 41.81-33.1 60.353-46.42 2.661-1.91 5.138-3.65 7.364-5.16 2.386-1.63 4.485-2.99 6.217-4.03 18.255-10.94 28.295-16.41 41.987-17.32 2.954-.2 4.379.37 4.741.56-1.119-.77-11.825-10.05-15.694-68.02-4.382-65.63-12.779-145.24-16.43-176.85z" fill="#fff"/><path clip-rule="evenodd" d="m721.047 1155.88v-21.88c1.826-1.52 10.223.73 29.209 21.88h-11.866c12.474 7.9 33.407 32.45 17.342 56.51-16.064 24.07-37.727 25.53-46.551 24.62-9.218-4.04-26.244-14.56-43.712-28.6-3.076-2.47-6.165-5.05-9.228-7.73-3.083-2.69-6.14-5.48-9.128-8.34-5.477-6.38-20.994-13.13-35.598-3.65.304-6.99 3.651-16.41 7.302-20.05.115-.12.233-.24.354-.36 6.81-6.83 22.888-22.96 98.225-1.47 1.217 6.08 0 19.33-14.604 23.71-18.255 5.47-26.47 8.2-16.43 15.49 10.04 7.3 35.598 21.88 64.806-3.64 2.739-1.52 3.651-5.47-12.778-21.88-6.39-6.38-13.144-16.59-14.605-20.97 0-.61-.547-2.19-2.738-3.64zm-35.598 21.87c-5.841-2.91-21.906-2.43-29.208-1.82-1.461 2.92 8.519 9.72 13.691 12.76 7.607-2.43 21.359-8.02 15.517-10.94z" fill="#fff" fill-rule="evenodd"/><path d="m399.754 1064.72c.304-2.43.182-7.48-2.739-8.21-2.92-.73 2.435-14.28 5.477-20.96 5.172 6.38 15.7 20.05 16.43 23.7.73 3.64.913 6.99.913 8.2-3.347-4.25-9.311-9.66-6.39 2.74 3.651 15.49 29.939 75.66 8.215 91.15-6.389 4.56-19.168 13.13-37.423 7.3-6.694-2.74-20.264-13.68-20.994-35.55-4.259 16.4-18.985 48.67-43.813 46.49-31.034-2.74-32.661-26.53-33.772-32.82-2.738-15.5-1.825-46.49 0-51.96 1.826-6.38-.182-9.66-4.564 6.38.385-1.38-3.103 5.65-8.215 42.84-1.217 12.77-7.667 38.11-23.732 37.38-20.08-.91-29.208-32.82-30.121-61.08 0-4.55 1.278-13.85 2.739-14.58.608 20.36 6.206 60.71 23.731 59.25 21.907-1.82 23.702-41.75 25.558-52.87 1.825-10.94 13.691-46.49 21.906-49.23 6.572-2.19 2.13 30.09-.913 46.49-1.825 17.63 2.191 52.15 32.86 49.23 38.336-3.65 30.121-59.25 28.296-78.4-1.461-15.31-4.26-20.36-5.477-20.96l6.389-22.79c6.694 15.8 19.534 53.96 17.343 80.22.304 13.06 7.667 38.28 34.685 34.64 9.128-1.83 24.645 1.82 4.564-39.2-4.564-12.76-12.414-38.65-10.953-47.4z" fill="#fff"/><path d="m439.003 1032.81-3.651-3.65 8.214-23.7c7.303 14.89 21.542 45.76 20.081 50.14-1.46 4.38-6.693-1.82-9.127-5.47 4.259 38.29 12.778 119.6 12.778 138.56 0 23.7 2.739 53.79-7.302 76.58-2.434-37.07-9.127-112.7-9.127-119.42 0-6.38-7.911-77.49-10.954-112.13z" fill="#fff"/><path d="m499.245 1025.52c3.713 14.83 11.095 75.45 17.475 139.85 4.698 1.11 9.456 1.7 14.233 1.85-11.871-137.96-23.637-166.75-24.406-169.05-.73-2.188-5.172 17.32-7.302 27.35z" fill="#fff"/><path d="m509.286 1163.17c-12.475-4.86-34.138-27.35-20.994-78.4-12.423 31.43-21.39 91.39 30.517 102.22-.679-7.21-1.378-14.44-2.089-21.62-2.497-.58-4.978-1.31-7.434-2.2z" fill="#fff"/><path d="m530.953 1167.22c-4.777-.15-9.535-.74-14.233-1.85.711 7.18 1.41 14.41 2.089 21.62 4.225.88 8.852 1.44 13.914 1.63-.589-7.41-1.18-14.54-1.77-21.4z" fill="#fff"/><path d="m576.707 1178.15c-.515-6.82-1.026-13.44-1.533-19.84-14.045 5.61-29.223 9.4-44.221 8.91.59 6.86 1.181 13.99 1.77 21.4 1.287.05 2.602.07 3.945.07 8.229-.56 22.636-3.54 40.039-10.54z" fill="#fff"/><path d="m528.251 1323.9c4.113-4.01 8.271-7.62 12.395-10.87-1.331-19.27-2.448-41.49-3.065-55.97-1.592-25.12-3.221-47.86-4.858-68.44-5.062-.19-9.689-.75-13.914-1.63 4.017 42.64 7.373 84.89 8.732 114.74 0 8.08.249 15.45.71 22.17z" fill="#fff"/><path d="m589.283 1172.6c-.392-6.13-.842-12.86-1.341-20-4.119 2.03-8.389 3.96-12.768 5.71.507 6.4 1.018 13.02 1.533 19.84 4.043-1.63 8.249-3.47 12.576-5.55z" fill="#fff"/><path d="m641.637 1048.31 10.04 1.82c-6.085-8.2-18.986-25.16-21.906-27.35-2.921-2.19-3.652 16.11-3.652 25.53 2.13-.31 6.572 1.82 7.303 12.76 1.825 6.38 7.667 21.7 16.429 31.91 10.793 12.57-1.455 20.72-12.295 27.93l-.483.32c-5.552 3.7-24.701 19.34-49.131 31.37.499 7.14.949 13.87 1.341 20 16.988-8.18 35.853-20.03 54.179-36.78 11.257-6.68 29.026-29.35 10.04-66.55-3.346-6.38-10.405-19.5-11.865-20.96z" fill="#fff"/><path d="m570.441 1000.9c-1.522 1.22-5.294 7.84-8.215 24.62 2.359 17.13 7.378 62.37 12.948 132.79 4.379-1.75 8.649-3.68 12.768-5.71-4.012-57.34-11.208-141.01-17.501-151.7z" fill="#fff"/><path d="m605.388 1270.24c1.975-7.3 4.732-14.19 7.982-20.59-23.923-13.38-15.949-42.64-23.761-71.9-.104-1.66-.212-3.38-.326-5.15-4.327 2.08-8.533 3.92-12.576 5.55 1.853 24.58 3.744 51.83 5.6 81.65 1.217 7.29 4.381 23.15 7.302 28.26-9.239 1.75-28.687 8.98-48.963 24.97.525 7.58 1.082 14.71 1.656 20.72 13.591-12.03 26.274-21.38 35.441-22.9 8.712-1.36 16.043-.86 22.163.59.321-8.47 1.247-17.56 2.722-27.32-8.91-11.24-9.821-22.76-8.455-28.88 3.089 7.05 7.446 11.93 11.215 15z" fill="#fff"/><path d="m665.469 1208.41c-3.076-2.47-6.165-5.05-9.228-7.73-10.849 7.05-30.461 24.52-42.871 48.97 1.836 1.03 3.861 1.96 6.094 2.79 10.918-18.44 28.571-33.23 46.005-44.03z" fill="#fff"/><path d="m613.37 1249.65c-3.25 6.4-6.007 13.29-7.982 20.59 2.015 1.64 3.862 2.76 5.258 3.41 1.863-7.52 4.909-14.6 8.818-21.21-2.233-.83-4.258-1.76-6.094-2.79z" fill="#fff"/><path d="m680.511 1275.53c.713-.98 1.446-1.97 2.2-2.97 2.322-2.06 5.432-3.77 2.316 2.87 15.412-.38 30.058-.92 40.584-1.4 14.438 1.86 30.041 11.2 34.796 25.95 2.661-1.91 5.138-3.65 7.364-5.16-2.141-13.29-9.783-25.58-24.817-35.02-.609-1.83-17.891-4.93-82.149-2.74-18.64.64-31.872-1.08-41.341-4.62-3.909 6.61-6.955 13.69-8.818 21.21.314.15.604.28.869.38 10.938 2.1 40.698 2.12 68.996 1.5z" fill="#fff"/><path d="m767.641 1312.33c-2.234 1.65-4.508 3.44-6.819 5.36-1.859 7.6-6.313 16-14.217 25.06-27.018 30.96-71.5 35.39-90.364 33.73-28.021-9.83-45.543-21.55-47.94-62.22-2.502-1.1-5.293-2.08-8.395-2.82-1.246 32.95 6.673 56.55 27.126 74.16 29.209 17.32 56.004 13.45 84.887-1.83 27.328-14.45 51.196-43.39 55.722-71.44z" fill="#fff"/><path d="m602.628 1284.12c-1.475 9.76-2.401 18.85-2.722 27.32 3.102.74 5.893 1.72 8.395 2.82-.416-7.06-.376-15 .144-23.96-2.238-2.03-4.165-4.1-5.817-6.18z" fill="#fff"/><path d="m631.596 1315.4c2.921-7.29-2.434-12.15-5.477-13.67-7.362-3.42-13.153-7.33-17.674-11.43-.52 8.96-.56 16.9-.144 23.96 9.113 4.02 14.393 9.67 16.906 11.17 3.651 2.19 5.781-5.77 6.389-10.03z" fill="#fff"/><path d="m572.266 1318.14-1.825 20.97c13.144 15.31 12.778 20.35 10.953 20.96-20.03 20.97-32.86-.91-36.511-9.11-.858-1.93-1.737-8.36-2.581-17.21-3.845 3.4-7.763 7.01-11.695 10.73 6.378 37.71 21.333 45.91 31.619 45.68 9.128-.31 27.383-6.93 27.383-31s-11.562-37.37-17.343-41.02z" fill="#fff"/><path d="m540.646 1313.03c-4.124 3.25-8.282 6.86-12.395 10.87.526 7.68 1.331 14.51 2.356 20.58 3.932-3.72 7.85-7.33 11.695-10.73-.574-6.01-1.131-13.14-1.656-20.72z" fill="#fff"/><path d="m457.902 1301.2c6.677-12.1 10.82-16.06 3.345-1.04 5.876-1.63 12.412-2.39 18.83-1.16 19.168 3.64 20.994 10.93 22.819 13.67 2.434-6.08 6.207-19.51 1.826-24.61-5.477-6.38-30.122-20.06-59.33 0-29.209 20.05-49.265 38.26-66.632 55.6l-.355.36c-13.016 13-45.105 45.06-65.364 26.99-1.802-2.7-3.693-9.44-3.566-20.92-1.556.83-3.074 1.62-4.547 2.38-.389 5.56-.203 10.67.811 14.9 5.477 22.79 31.947 29.17 43.813 24.61s81.927-82.96 93.102-82.96c3.043-2.28 8.567-5.51 15.248-7.82z" fill="#fff"/><path d="m517.5 1335.46c-33.772 40.11-59.329 42.84-67.544 35.55s-11.866-25.52 10.04-68.37c.449-.88.865-1.7 1.251-2.48-1.142.32-2.259.67-3.345 1.04-9.797 17.76-25.049 53.05-17.074 71.63 10.953 25.53 31.947 19.15 46.551 12.77 12.26-10.56 27.848-26.59 43.228-41.12-1.025-6.07-1.83-12.9-2.356-20.58-3.637 3.54-7.238 7.39-10.751 11.56z" fill="#fff"/><path d="m373.284 1198.72c5.476-9.72 11.866-28.81-6.39-27.35-22.819 1.83-52.94 60.17-53.853 68.37-.913 8.21-3.651 28.26 19.168 31.91 22.819 3.64 45.638 5.47 45.638 10.94 0 3.64-31.916 29.54-66.236 45.61-1.457 8.65-2.07 15.91-2.136 21.89 29.843-15.85 73.459-43.82 74.762-62.03 1.825-25.53-.913-23.7-5.477-28.26s-56.591-6.38-56.591-20.97 45.638-62.9 51.115-40.11z" fill="#fff"/><path d="m261.926 1340.93c-44.788-2.78-60.242-32.82-50.202-88.43-2.434 3.65-12.374 21.47-7.302 61.99 6.389 51.05 65.719 51.05 79.411 47.41 3.409-.91 11.235-4.37 21.095-9.43.506-7.24 1.987-15.24 3.883-22.98-16.315 7.35-32.99 12.3-46.885 11.44z" fill="#fff"/><path d="m304.928 1352.47c1.473-.76 2.991-1.55 4.547-2.38.066-5.98.679-13.24 2.136-21.89-.932.44-1.866.87-2.8 1.29-1.896 7.74-3.377 15.74-3.883 22.98z" fill="#fff"/><path d="m311.611 1328.2c1.415-8.4 3.627-18.1 6.907-29.2-2.842 7.09-6.772 18.49-9.707 30.49.934-.42 1.868-.85 2.8-1.29z" fill="#fff"/><path d="m334.282 1098.43 1.827-6.38c3.957 5.77 10.594 19.32 5.48 27.34-5.115 8.03-10.047 1.52-11.873-2.73-1.218 3.65-4.567 10.39-8.22 8.2-4.566-2.73-6.393-14.58-6.393-17.32 0-2.18-2.435-1.52-3.653-.91l-.913-1.82c.609-2.13 2.374-6.2 4.566-5.47s3.349 2.73 3.653 3.65c-1.217 6.68-2.009 18.96 4.567 14.58 6.576-4.37 3.349-12.15.913-15.5l1.827-8.2c1.522 4.86 4.749 15.13 5.479 17.32.914 2.74 3.654 5.47 6.393 4.56 2.74-.91.914-15.5-3.653-17.32z" fill="#fff"/><path d="m612.834 1047.38 1.827-6.38c3.957 5.77 10.594 19.33 5.479 27.35-5.114 8.02-10.046 1.52-11.872-2.74-1.218 3.65-4.567 10.39-8.22 8.21-4.566-2.74-6.393-14.59-6.393-17.32 0-2.19-2.435-1.52-3.653-.91l-.913-1.83c.608-2.13 2.374-6.2 4.566-5.47s3.349 2.74 3.653 3.65c-1.218 6.68-2.009 18.96 4.567 14.58 6.575-4.37 3.348-12.15.913-15.49l1.826-8.21c1.523 4.86 4.749 15.14 5.48 17.32.913 2.74 3.653 5.47 6.393 4.56s.913-15.5-3.653-17.32z" fill="#fff"/><path d="m253 1220.58 5.48-21.88c7.915 11.55 23.745 39.2 23.745 57.43.305 15.19-.731 47.04-7.306 52.87h-1.827c3.045-15.19 7.307-48.68 0-61.07-7.306-12.4-16.439-23.4-20.092-27.35z" fill="#fff"/><path d="m781 1018-3.855 10.41-111.145 43.59 3.212-11.71z" fill="url(#b)"/><path d="m454 1208-3.184 8.1-91.816 33.9 2.654-9.11z" fill="url(#c)"/><path d="m401 997-5.363 14.46-154.637 60.54 4.469-16.27z" fill="#fff"/><path d="m660 998-2.682 7.13-77.318 29.87 2.235-8.02z" fill="#fff"/><path d="m781 1049-3.855 10.41-111.145 43.59 3.212-11.71z" fill="url(#d)"/><path d="m836 996v4.66l-28 14.34v-5.81z" fill="url(#e)"/><path d="m558 998v5.64l-35 17.36v-7.03z" fill="url(#f)"/><path d="m613 1377v6.13l-37 18.87v-7.64z" fill="url(#g)"/><path d="m346 1279-3.285 8.48-94.715 35.52 2.737-9.54z" fill="url(#h)"/><path d="m413.233 1359.76-4.802 16.99-23.835-10.72-6.959 23.18 24.68 11.87 7.312-17.43 22.472 10.31 6.44-22.44-12.654-5.88z" fill="url(#i)"/><path d="m714.244 1286.79-4.802 16.99-23.835-10.73-6.959 23.18 24.68 11.87 7.312-17.42 22.472 10.31 6.44-22.45-12.654-5.87z" fill="url(#j)"/><path d="m631 1101.68-22.727-13.68-7.273 19.15 20 11.85z" fill="url(#k)"/><path d="m631 1101.68-22.727-13.68-7.273 19.15 20 11.85z" fill="url(#k)"/><g fill="#fff"><path d="m409.049 1253.65c-2.222-2.14-7.293-5.12-9.801 0-.187 1.52-.449 4.75 0 5.49.56.91 8.877.91 10.725 3.65 2.772 2.75 9.796 11.16 12.014 19.21 0-9.45.739-28.53 3.696-29.27 2.957-.73 6.161.31 7.393.92l.924-9.15c-3.388-1.83-10.535-3.47-12.013 4.58-1.479 8.04-1.849 19.81-1.849 24.69z" stroke="#fff"/><path d="m487.762 1240.65c-2.158-2.14-7.084-5.12-9.522 0-.181 1.52-.435 4.75 0 5.49.545.91 8.624.91 10.42 3.65 2.693 2.75 9.515 11.16 11.67 19.21 0-9.45.718-28.53 3.591-29.27 2.872-.73 5.984.31 7.181.92l.898-9.15c-3.292-1.83-10.234-3.47-11.67 4.58-1.437 8.04-1.796 19.81-1.796 24.69z" stroke="#fff"/><path d="m210.049 1008.65c-2.222-2.14-7.293-5.12-9.801 0-.187 1.52-.449 4.75 0 5.49.56.91 8.877.91 10.725 3.65 2.772 2.75 9.796 11.16 12.014 19.21 0-9.45.739-28.53 3.696-29.27 2.957-.73 6.161.31 7.393.92l.924-9.147c-3.388-1.829-10.535-3.475-12.013 4.577-1.479 8.04-1.849 19.81-1.849 24.69z" stroke="#fff"/><path d="m226.435 1100c1.073-1.44 1.865-2.76 2.423-3.97-2.124-1.08-4.092-2.31-5.365-3.21.91-2.18 3.095-6.32 4.552-5.47 1.61.77 2.73 1.67 3.426 2.67 4.198 3.44 8.506 7.71 5.678 8.27-1.592.32-3.821-.28-6.081-1.23-.664 1.18-1.564 2.39-2.65 3.63 8.706 2.89 11.898 2.2 12.373 1.25 5.827-8.02-7.284-19.75-14.567-24.62-4.37.73-6.07 13.68-6.373 20.06 2.45 1.05 4.636 1.92 6.584 2.62z"/><path d="m228.858 1096.03c-.558 1.21-1.35 2.53-2.423 3.97.691.25 1.352.48 1.983.69 1.086-1.24 1.986-2.45 2.65-3.63-.74-.31-1.484-.66-2.21-1.03z"/><path d="m320 998c-42.488 13.07-125.096 42.49-115.627 55.62 1.518 2.13 6.373 7.11 13.657 10.03l.91-8.21c-6.373-1.52-14.567-4.36-5.462-9.12 20.94-10.94 69.74-32.46 104.701-41.94z"/><path d="m231.471 1090.02c-1.209-1-2.408-1.92-3.426-2.67 1.799 1.42 2.825 4.32.813 8.68.726.37 1.47.72 2.21 1.03 1.486-2.62 1.8-5.04.403-7.04z"/><path d="m198 1122c9.649-5.01 23.655-13.6 30.418-21.31-.631-.21-1.292-.44-1.983-.69-4.199 5.62-12.714 12.96-28.435 22z"/><path d="m403.762 1191.65c-2.158-2.14-7.084-5.12-9.522 0-.181 1.52-.435 4.75 0 5.49.545.91 8.624.91 10.42 3.65 2.693 2.75 9.515 11.16 11.67 19.21 0-9.45.718-28.53 3.591-29.27 2.872-.73 5.984.31 7.181.92l.898-9.15c-3.292-1.83-10.234-3.47-11.67 4.58-1.437 8.04-1.796 19.81-1.796 24.69z" stroke="#fff"/><path d="m675.762 1008.65c-2.158-2.14-7.084-5.12-9.522 0-.181 1.52-.435 4.75 0 5.49.545.91 8.624.91 10.42 3.65 2.693 2.75 9.515 11.16 11.67 19.21 0-9.45.718-28.53 3.591-29.27 2.872-.73 5.984.31 7.181.92l.898-9.147c-3.292-1.829-10.234-3.475-11.67 4.577-1.437 8.04-1.796 19.81-1.796 24.69z" stroke="#fff"/><path d="m234.049 1265.65c-2.222-2.14-7.293-5.12-9.801 0-.187 1.52-.449 4.75 0 5.49.56.91 8.877.91 10.725 3.65 2.772 2.75 9.796 11.16 12.014 19.21 0-9.45.739-28.53 3.696-29.27 2.957-.73 6.161.31 7.393.92l.924-9.15c-3.388-1.83-10.535-3.47-12.013 4.58-1.479 8.04-1.849 19.81-1.849 24.69z" stroke="#fff"/><path d="m469.049 1328.38c-2.222-2.08-7.293-4.99-9.801 0-.187 1.48-.449 4.63 0 5.34.56.89 8.877.89 10.725 3.57 2.772 2.67 9.796 10.87 12.014 18.71 0-9.21.739-27.8 3.696-28.52 2.957-.71 6.161.3 7.393.9l.924-8.92c-3.388-1.78-10.535-3.38-12.013 4.46-1.479 7.84-1.849 19.31-1.849 24.06z" stroke="#fff"/><path d="m684.762 1118.65c-2.158-2.14-7.084-5.12-9.522 0-.181 1.52-.435 4.75 0 5.49.545.91 8.624.91 10.42 3.65 2.693 2.75 9.515 11.16 11.67 19.21 0-9.45.718-28.53 3.591-29.27 2.872-.73 5.984.31 7.181.92l.898-9.15c-3.292-1.83-10.234-3.47-11.67 4.58-1.437 8.04-1.796 19.81-1.796 24.69z" stroke="#fff"/><path d="m770.049 1222.65c-2.222-2.14-7.293-5.12-9.801 0-.187 1.52-.449 4.75 0 5.49.56.91 8.877.91 10.725 3.65 2.772 2.75 9.796 11.16 12.014 19.21 0-9.45.739-28.53 3.696-29.27 2.957-.73 6.161.31 7.393.92l.924-9.15c-3.388-1.83-10.535-3.47-12.013 4.58-1.479 8.04-1.849 19.81-1.849 24.69z" stroke="#fff"/><path d="m551 1205.53 3.405-6.53c4.217 2.68 15.081 11.06 10.703 39.2-1.946 6.53-10.216 29.65-2.432 31.66.973 0 3.6-1.31 6.324-6.53-.324 4.19-2.53 12.96-8.757 14.57-7.784 2.01-.973-27.64 2.433-38.69 1.459-7.54 1.556-22.02-11.676-33.68z"/><path d="m852.489 1328c-3.437 10.28-9.658 33.38-2.713 36.91 1.447.55 5.317 0 9.224-6.61-.362 5.32-3.018 18.82-10.852 17.63-10.852-1.66-2.17-40.77 4.341-47.93z"/><path d="m790.489 1318c-3.437 10.07-9.658 32.69-2.713 36.14 1.447.54 5.317 0 9.224-6.47-.362 5.21-3.018 18.43-10.852 17.26-10.852-1.62-2.17-39.92 4.341-46.93z"/><path clip-rule="evenodd" d="m725.584 1001c-.608 1.52-1.094 4.75 1.824 5.48 3.649.91 12.769 5.47 9.121 12.78-3.648 7.3-10.945 10.95-15.505 10.04-4.561-.91-3.649-21.91 4.56-28.3zm6.385 18.26c0-1.46-5.473-3.65-8.209-4.57-1.459 0-1.216 4.87-.912 7.31 3.04-.31 9.121-1.28 9.121-2.74z" fill-rule="evenodd"/><path clip-rule="evenodd" d="m833.21 1142.5c-.608 1.52-1.095 4.74 1.824 5.47 3.648.92 12.769 5.48 9.121 12.78-3.649 7.31-10.945 10.96-15.506 10.04-4.56-.91-3.648-21.9 4.561-28.29zm6.384 18.25c0-1.46-5.472-3.65-8.209-4.56-1.459 0-1.216 4.87-.912 7.3 3.041-.3 9.121-1.28 9.121-2.74z" fill-rule="evenodd"/><path clip-rule="evenodd" d="m544.992 1055.77c-.608 1.52-1.095 4.75 1.824 5.48 3.648.91 12.769 5.48 9.121 12.78s-10.945 10.95-15.506 10.04c-4.56-.91-3.648-21.91 4.561-28.3zm6.384 18.26c0-1.46-5.472-3.65-8.208-4.56-1.46 0-1.216 4.86-.912 7.3 3.04-.31 9.12-1.28 9.12-2.74z" fill-rule="evenodd"/><path clip-rule="evenodd" d="m782.133 1246.56c-.608 1.52-1.094 4.75 1.824 5.48 3.649.91 12.769 5.48 9.121 12.78s-10.945 10.95-15.505 10.04c-4.561-.91-3.649-21.91 4.56-28.3zm6.385 18.26c0-1.46-5.473-3.65-8.209-4.56-1.459 0-1.216 4.86-.912 7.3 3.04-.31 9.121-1.28 9.121-2.74z" fill-rule="evenodd"/><path clip-rule="evenodd" d="m220.291 1176.27c-.608 1.52-1.095 4.75 1.824 5.48 3.648.91 12.769 5.48 9.121 12.78-3.649 7.3-10.945 10.95-15.506 10.04-4.56-.91-3.648-21.91 4.561-28.3zm6.384 18.26c0-1.46-5.472-3.65-8.208-4.57-1.46 0-1.216 4.87-.912 7.31 3.04-.31 9.12-1.28 9.12-2.74z" fill-rule="evenodd"/><path d="m842.71 1201c-2.792 8.14-7.848 26.43-2.205 29.22 1.176.44 4.321 0 7.495-5.23-.294 4.21-2.452 14.9-8.817 13.95-8.817-1.31-1.764-32.27 3.527-37.94z"/><path d="m673.71 1208c-2.792 8.14-7.848 26.43-2.205 29.22 1.176.44 4.321 0 7.495-5.23-.294 4.21-2.452 14.9-8.817 13.95-8.817-1.31-1.764-32.27 3.527-37.94z"/><path d="m618.71 1188c-2.792 8.14-7.848 26.43-2.205 29.22 1.176.44 4.321 0 7.495-5.23-.294 4.21-2.452 14.9-8.817 13.95-8.817-1.31-1.764-32.27 3.527-37.94z"/><path d="m829.303 1068c-3.007 9.21-8.451 29.91-2.374 33.06 1.266.5 4.653 0 8.071-5.92-.317 4.77-2.641 16.86-9.495 15.79-9.496-1.48-1.899-36.51 3.798-42.93z"/><path d="m747.303 1071c-3.007 9.21-8.451 29.91-2.374 33.06 1.266.5 4.653 0 8.071-5.92-.317 4.77-2.641 16.86-9.495 15.79-9.496-1.48-1.899-36.51 3.798-42.93z"/><path d="m551.896 1102c-3.222 9.21-9.055 29.91-2.544 33.06 1.357.5 4.985 0 8.648-5.92-.339 4.77-2.83 16.86-10.174 15.79-10.173-1.48-2.034-36.51 4.07-42.93z"/><path d="m489.896 1177c-3.222 9.21-9.055 29.91-2.544 33.06 1.357.5 4.985 0 8.648-5.92-.339 4.77-2.83 16.86-10.174 15.79-10.173-1.48-2.034-36.51 4.07-42.93z"/><path d="m300.303 1190c-3.007 9.21-8.451 29.91-2.374 33.06 1.266.5 4.653 0 8.071-5.92-.317 4.77-2.641 16.86-9.495 15.79-9.496-1.48-1.899-36.51 3.798-42.93z"/><path d="m353.71 1318c-2.792 8.14-7.848 26.43-2.205 29.22 1.176.44 4.321 0 7.495-5.23-.294 4.21-2.452 14.9-8.817 13.95-8.817-1.31-1.764-32.27 3.527-37.94z"/><path d="m252.896 1089c-3.222 9.43-9.055 30.6-2.544 33.83 1.357.51 4.985 0 8.648-6.06-.339 4.88-2.83 17.26-10.174 16.16-10.173-1.51-2.034-37.37 4.07-43.93z"/><path d="m389.896 1073c-3.222 9.21-9.055 29.91-2.544 33.06 1.357.5 4.985 0 8.648-5.92-.339 4.77-2.83 16.86-10.174 15.79-10.173-1.48-2.034-36.51 4.07-42.93z"/><path d="m422.303 996c-3.007 9.43-8.451 30.6-2.374 33.83 1.266.51 4.653 0 8.071-6.06-.317 4.88-2.641 17.26-9.495 16.16-9.496-1.51-1.899-37.37 3.798-43.93z"/><path d="m779.633 1088c-5.263 14.99-16.281 68.7-5.644 73.84 2.216.8 10.028-1.36 16.011-11-.554 7.76-6.507 28.8-18.504 27.06-16.619-2.41-1.834-79.46 8.137-89.9z"/></g><path d="m211.235 1122c-13.592 37.3-30.808 124.73 0 133.9 4.973 1.48 16.673-13.21 14.498-40.35-2.132 10.08-8.924 27.51-19.028 16.5-12.631-13.75-4.531-48.6 4.53-110.05z" fill="#d9d9d9"/><ellipse cx="521.5" cy="1383" fill="#fff" rx="12.5" ry="13"/><path d="m825.906 1024.68c2.141-1.84 4.588-4.95.917-6.42-4.588-1.83-14.682 6.42-13.764 10.08.734 2.93 3.976 5.5 5.506 6.41l-5.506 6.42 1.835 1.83 20.188-15.58.918-4.58-11.93 7.33c-2.141.92-6.423 1.47-6.423-3.66s5.812-3.67 8.259-1.83z" fill="#fff"/><path d="m544.906 1022.68c2.141-1.84 4.588-4.95.917-6.42-4.588-1.83-14.682 6.42-13.764 10.08.734 2.93 3.976 5.5 5.506 6.41l-5.506 6.42 1.835 1.83 20.188-15.58.918-4.58-11.93 7.33c-2.141.92-6.423 1.47-6.423-3.66s5.812-3.67 8.259-1.83z" fill="#fff"/><path d="m813.621 1325.12c2.748.3 8.061 1.08 7.328 1.8-.916.9-10.992 2.71-11.908 11.73s13.74 39.68 10.992 48.7c-.677 2.22-1.14 3.65-1.447 4.51 3.853-.33 7.593-10.3-5.881-48.7-1.221-3.01 1.283-9.93 17.404-9.93.611-1.2 1.655-4.04 0-8.11-1.832-4.51-6.412-5.41-10.992-8.12-1.832 1.8-7.694 5.95-5.496 8.12z" fill="#fff"/><path d="m643.991 1297.05c2.373.26 6.962.94 6.329 1.57-.791.78-9.493 2.35-10.284 10.18s11.866 34.46 9.493 42.29c-.585 1.93-.985 3.17-1.25 3.92 3.327-.29 6.558-8.94-5.079-42.3-1.055-2.61 1.107-8.61 15.03-8.61.528-1.05 1.43-3.51 0-7.05-1.582-3.92-5.537-4.7-9.492-7.05-1.583 1.57-6.646 5.17-4.747 7.05z" fill="#fff"/><path d="m314 1059.39 1.826-6.39c3.347 2.13 9.495 10.04 7.304 24.64-.609-6.69-3.287-19.71-9.13-18.25z" fill="#fff"/><path d="m755.872 1370.59c-1.217-1.52-4.199-3.1-6.39 2.74-.305 1.22.73 3.11 7.303.92l8.217-8.22c-4.565 5.48-13.694 16.79-13.694 18.25 0 1.83-3.652 10.04 16.433 3.65l18.259-10.03c-2.13 3.95-8.947 13.5-30.128 20.07-4.26.31-10.042-1.82-7.303-15.51l.913-2.74c-4.565.61-10.225-.36-3.652-9.13 8.216-10.95 16.433-8.21 10.042 0z" fill="#fff"/><path d="m261.5 1369.5c-1.2-.4-1.834-1.5-2-2l-.5 2 1 1.5c0 1.6-1.217 4.59-5.772 5.33-.669.11-1.409.17-2.228.17-.639-.32-1.248-1.68 1.17-4.61-.251-.01-.534-.01-.841-.01-1.767 1.85-3.789 4.98-1.329 6.62 4.5 3 10-5.5 10.5-7 .667.17 2-.3 2-3.5s-1-2.33-1.5-1.5c.333 1.17.7 3.4-.5 3z" fill="#fff"/><path d="m246 1368.5c-4-1.6-1-5.67 1-7.5-1.667 1-5 3.9-5 7.5 0 3.59 6.796 3.36 10.329 3.38 1.466-1.54 2.758-2.19 1.171-.38-.116.13-.226.26-.33.39.485.01.854.04 1.058.11 1.221.4.508 3.05 0 4.33.757-1.28 2.272-4.23 2.272-5.83s-7.5-1-10.5-2z" fill="#fff"/><path d="m252.329 1371.88c.307 0 .59 0 .841.01.104-.13.214-.26.33-.39 1.587-1.81.295-1.16-1.171.38z" fill="#fff"/><path d="m270 1374.5c-.493 0-.84-.16-1.08-.4-.362.42-.862.61-1.42.66-.167.58-.2 1.74 1 1.74 1.5 0 13-1 11 1-1.6 1.6-14 3-14.5 2l-1.5-1.5-.527-1.05c-.146.67-.502 1.36-.897 1.99.443.55 1.043 1.18 1.424 1.56 3.5 2 13.5.5 15.5-.5s2.5-4.5 1.5-5.5-8.5 0-10.5 0z" fill="#fff"/><path d="m269.5 1369c-.4-1.2 2.833-1.83 4.5-2 1.2-2 .167-2.5-.5-2.5-8 1.6-6.667 5.67-5 7.5-.115.58-.119 1.55.42 2.1.028-.03.054-.07.08-.1 1.2-1.6 5.833-2.67 8-3l.5-2c-2.5.5-7.6 1.2-8 0z" fill="#fff"/><path d="m263.5 1370.5v3c.925.58 2.638 1.37 4 1.26.558-.05 1.058-.24 1.42-.66-.539-.55-.535-1.52-.42-2.1-1.2.4-2.5-.83-3-1.5z" fill="#fff"/><path d="m259.5 1377.5c0 .5 2 0 2 .5l1-2 .473.95c.199-.91.014-1.79-.973-2.45-3-2-2.5 2.5-2.5 3z" fill="#fff"/><path d="m262.5 1376-1 2c0 .17.244.53.576.94.395-.63.751-1.32.897-1.99z" fill="#fff"/><path d="m250.5 1389v1l5.5-4.5 5-5c.3-.43.706-.97 1.076-1.56-.332-.41-.576-.77-.576-.94z" fill="#fff"/><path d="m264 1373c1.166 2 1.3 6.3-7.5 7.5-1.334.17-3.5-.5-1.5-4.5 2.5-5-4.5 5-.5 6s9.5-3 10.5-4 0-4.5 0-5c0-.4-.667-.17-1 0z" fill="#fff"/><circle cx="271" cy="1364" fill="#fff" r="1.5"/></g></svg>