<svg width="691" height="409" viewBox="0 0 691 409" fill="none" xmlns="http://www.w3.org/2000/svg">
<path d="M655.747 2.1697C652.705 10.6779 646.62 28.0589 646.62 29.5175C647.142 27.6943 648.969 26.6004 652.096 36.8102C655.224 47.0201 673.48 258.631 682.217 363.161C691.71 349.305 691.649 296.007 690.432 271.09L679.023 159.42L667.613 47.7494L676.741 59.6C678.201 59.6 677.958 54.7382 677.654 52.3073C677.654 50.1195 663.049 17.9707 655.747 2.1697Z" fill="white"/>
<path d="M594.592 33.1639L590.941 29.5175L598.243 4.90448C606.762 22.8325 623.07 59.2354 620.149 61.4232C619.541 61.4232 616.863 59.9647 611.022 54.1305C605.18 48.2963 620.149 182.361 628.364 250.123C628.364 258.024 635.666 276.924 664.875 289.322C665.483 297.83 665.605 314.482 661.224 313.023C656.349 311.4 625.438 277.996 573.641 316.325C571.407 317.979 569.133 319.765 566.822 321.694C562.519 325.284 558.084 329.364 553.517 333.99C502.402 385.768 476.845 373.188 470.456 360.426C462.723 351.218 455.455 322.38 486.511 279.533C487.224 278.549 487.957 277.558 488.711 276.559C491.033 274.498 494.143 272.786 491.027 279.429C490.469 280.619 489.71 282.079 488.711 283.852C480.496 298.438 458.59 334.901 475.019 347.664C488.163 357.874 501.185 353.741 506.054 350.399C520.36 338.921 547.864 317.297 566.407 303.98C569.068 302.069 571.545 300.329 573.771 298.815C576.157 297.192 578.256 295.829 579.988 294.791C598.243 283.852 608.283 278.383 621.975 277.471C624.929 277.274 626.354 277.842 626.716 278.028C625.597 277.256 614.891 267.984 611.022 210.013C606.64 144.378 598.243 64.7658 594.592 33.1639Z" fill="white"/>
<path fill-rule="evenodd" clip-rule="evenodd" d="M527.047 159.875V137.997C528.873 136.478 537.27 138.726 556.256 159.875H544.39C556.864 167.776 577.797 192.328 561.732 216.394C545.668 240.46 524.005 241.919 515.181 241.007C505.963 236.966 488.937 226.453 471.469 212.412C468.393 209.94 465.304 207.359 462.241 204.684C459.158 201.991 456.101 199.204 453.113 196.339C447.636 189.958 432.119 183.212 417.515 192.693C417.819 185.704 421.166 176.284 424.817 172.638C424.932 172.523 425.05 172.404 425.171 172.283C431.981 165.45 448.059 149.317 523.396 170.815C524.613 176.892 523.396 190.14 508.792 194.516C490.537 199.986 482.322 202.72 492.362 210.013C502.403 217.306 527.96 231.891 557.168 206.367C559.907 204.847 560.819 200.897 544.39 184.488C538 178.107 531.246 167.897 529.785 163.522C529.785 162.914 529.238 161.334 527.047 159.875ZM491.449 181.754C485.608 178.837 469.543 179.323 462.241 179.93C460.78 182.848 470.76 189.654 475.932 192.693C483.539 190.262 497.291 184.671 491.449 181.754Z" fill="white"/>
<path d="M205.754 68.716C206.058 66.2851 205.936 61.2409 203.015 60.5116C200.095 59.7824 205.45 46.23 208.492 39.545C213.664 45.9262 224.192 59.6001 224.922 63.2464C225.652 66.8928 225.835 70.2353 225.835 71.4508C222.488 67.1967 216.524 61.7879 219.445 74.1856C223.096 89.6827 249.384 149.848 227.66 165.345C221.271 169.903 208.492 178.472 190.237 172.638C183.543 169.903 169.973 158.964 169.243 137.086C164.984 153.494 150.258 185.765 125.43 183.577C94.3964 180.842 92.7692 157.048 91.6581 150.759C88.9198 135.262 89.8325 104.268 91.6581 98.7986C93.4836 92.4174 91.4755 89.1357 87.0943 105.18C87.4795 103.797 83.9908 110.832 78.8794 148.025C77.6623 160.787 71.2121 186.129 55.1475 185.4C35.0666 184.488 25.939 152.583 25.0262 124.323C25.0262 119.765 26.3041 110.467 27.7645 109.738C28.373 130.097 33.9713 170.45 51.4964 168.991C73.4028 167.168 75.1976 127.241 77.0538 116.119C78.8794 105.18 90.7453 69.6276 98.9602 66.8928C105.532 64.705 101.09 96.9754 98.0474 113.384C96.2219 131.008 100.238 165.527 130.907 162.61C169.243 158.964 161.028 103.357 159.203 84.2131C157.742 68.8983 154.943 63.8542 153.726 63.2464L160.115 40.4566C166.809 56.2576 179.649 94.4229 177.458 120.677C177.762 133.743 185.125 158.964 212.143 155.317C221.271 153.494 236.788 157.141 216.707 116.119C212.143 103.357 204.293 77.4673 205.754 68.716Z" fill="white"/>
<path d="M245.003 36.8102L241.352 33.1639L249.566 9.46245C256.869 24.3518 271.108 55.2244 269.647 59.6C268.187 63.9757 262.954 57.7769 260.52 54.1305C264.779 92.4175 273.298 173.732 273.298 192.693C273.298 216.394 276.037 246.477 265.996 269.267C263.562 232.195 256.869 156.571 256.869 149.848C256.869 143.467 248.958 72.3624 245.915 37.7218L245.003 36.8102Z" fill="white"/>
<path d="M305.245 29.5175C308.958 44.3486 316.34 104.969 322.72 169.374C327.418 170.477 332.176 171.066 336.953 171.221C325.082 33.2638 313.316 4.47202 312.547 2.1697C311.817 -0.0181293 307.375 19.4899 305.245 29.5175Z" fill="white"/>
<path d="M315.286 167.168C302.811 162.306 281.148 139.82 294.292 88.771C281.869 120.203 272.902 180.156 324.809 190.992C324.13 183.778 323.431 176.552 322.72 169.374C320.223 168.788 317.742 168.056 315.286 167.168Z" fill="white"/>
<path d="M336.953 171.221C332.176 171.066 327.418 170.477 322.72 169.374C323.431 176.552 324.13 183.778 324.809 190.992C329.034 191.874 333.661 192.431 338.723 192.62C338.134 185.21 337.543 178.081 336.953 171.221Z" fill="white"/>
<path d="M382.707 182.151C382.192 175.33 381.681 168.714 381.174 162.307C367.129 167.918 351.951 171.708 336.953 171.221C337.543 178.081 338.134 185.21 338.723 192.62C340.01 192.668 341.325 192.693 342.668 192.693C350.897 192.126 365.304 189.154 382.707 182.151Z" fill="white"/>
<path d="M334.251 327.9C338.364 323.894 342.522 320.279 346.646 317.026C345.315 297.764 344.198 275.536 343.581 261.062C341.989 235.942 340.36 213.201 338.723 192.62C333.661 192.431 329.034 191.874 324.809 190.992C328.826 233.63 332.182 275.878 333.541 305.73C333.541 313.811 333.79 321.181 334.251 327.9Z" fill="white"/>
<path d="M395.283 176.596C394.891 170.467 394.441 163.738 393.942 156.602C389.823 158.631 385.553 160.558 381.174 162.307C381.681 168.714 382.192 175.33 382.707 182.151C386.75 180.524 390.956 178.679 395.283 176.596Z" fill="white"/>
<path d="M447.637 52.3073L457.677 54.1305C451.592 45.9262 438.691 28.9706 435.771 26.7827C432.85 24.5949 432.119 42.8875 432.119 52.3073C434.249 52.0035 438.691 54.1305 439.422 65.0696C441.247 71.4508 447.089 86.7655 455.851 96.9754C466.644 109.55 454.396 117.7 443.556 124.913L443.073 125.235C437.521 128.931 418.372 144.569 393.942 156.602C394.441 163.738 394.891 170.467 395.283 176.596C412.271 168.418 431.136 156.571 449.462 139.82C460.719 133.135 478.488 110.467 459.502 73.274C456.156 66.8928 449.097 53.7659 447.637 52.3073Z" fill="white"/>
<path d="M376.441 4.90448C374.919 6.11994 371.147 12.7442 368.226 29.5175C370.585 46.6514 375.604 91.8936 381.174 162.307C385.553 160.558 389.823 158.631 393.942 156.602C389.93 99.2555 382.734 15.5886 376.441 4.90448Z" fill="white"/>
<path d="M411.388 274.237C413.363 266.938 416.12 260.055 419.37 253.65C395.447 240.267 403.421 211.011 395.609 181.754C395.505 180.087 395.397 178.367 395.283 176.596C390.956 178.679 386.75 180.524 382.707 182.151C384.56 206.725 386.451 233.975 388.307 263.797C389.524 271.09 392.688 286.952 395.609 292.057C386.37 293.814 366.922 301.035 346.646 317.026C347.171 324.611 347.728 331.736 348.302 337.746C361.893 325.72 374.576 316.372 383.743 314.846C392.455 313.487 399.786 313.993 405.906 315.444C406.227 306.973 407.153 297.883 408.628 288.117C399.718 276.881 398.807 265.364 400.173 259.239C403.262 266.292 407.619 271.171 411.388 274.237Z" fill="white"/>
<path d="M471.469 212.412C468.393 209.94 465.304 207.359 462.241 204.684C451.392 211.725 431.78 229.2 419.37 253.65C421.206 254.678 423.231 255.611 425.464 256.444C436.382 237.998 454.035 223.209 471.469 212.412Z" fill="white"/>
<path d="M419.37 253.65C416.12 260.055 413.363 266.938 411.388 274.237C413.403 275.876 415.25 276.997 416.646 277.654C418.509 270.126 421.555 263.05 425.464 256.444C423.231 255.611 421.206 254.678 419.37 253.65Z" fill="white"/>
<path d="M486.511 279.533C487.224 278.549 487.957 277.558 488.711 276.559C491.033 274.498 494.143 272.786 491.027 279.429C506.439 279.054 521.085 278.508 531.611 278.028C546.049 279.888 561.652 289.228 566.407 303.98C569.068 302.069 571.545 300.329 573.771 298.815C571.63 285.528 563.988 273.243 548.954 263.797C548.345 261.974 531.063 258.875 466.805 261.062C448.165 261.697 434.933 259.975 425.464 256.444C421.555 263.05 418.509 270.126 416.646 277.654C416.96 277.802 417.25 277.927 417.515 278.028C428.453 280.127 458.213 280.152 486.511 279.533Z" fill="white"/>
<path d="M573.641 316.325C571.407 317.979 569.133 319.765 566.822 321.694C564.963 329.293 560.509 337.695 552.605 346.752C525.587 377.713 481.105 382.138 462.241 380.481C434.22 370.649 416.698 358.933 414.301 318.261C411.799 317.159 409.008 316.18 405.906 315.444C404.66 348.392 412.579 371.988 433.032 389.597C462.241 406.917 489.036 403.046 517.919 387.774C545.247 373.325 569.115 344.38 573.641 316.325Z" fill="white"/>
<path d="M408.628 288.117C407.153 297.883 406.227 306.973 405.906 315.444C409.008 316.18 411.799 317.159 414.301 318.261C413.885 311.196 413.925 303.257 414.445 294.302C412.207 292.274 410.28 290.201 408.628 288.117Z" fill="white"/>
<path d="M437.596 319.404C440.517 312.112 435.162 307.25 432.119 305.73C424.757 302.306 418.966 298.397 414.445 294.302C413.925 303.257 413.885 311.196 414.301 318.261C423.414 322.275 428.694 327.926 431.207 329.432C434.858 331.62 436.988 323.658 437.596 319.404Z" fill="white"/>
<path d="M378.266 322.139L376.441 343.106C389.585 358.421 389.219 363.465 387.394 364.072C367.364 385.039 354.534 363.161 350.883 354.957C350.025 353.028 349.146 346.595 348.302 337.746C344.457 341.148 340.539 344.765 336.607 348.479C342.985 386.192 357.94 394.389 368.226 394.155C377.354 393.851 395.609 387.227 395.609 363.161C395.609 339.095 384.047 325.786 378.266 322.139Z" fill="white"/>
<path d="M346.646 317.026C342.522 320.279 338.364 323.894 334.251 327.9C334.777 335.582 335.581 342.413 336.607 348.479C340.539 344.765 344.457 341.148 348.302 337.746C347.728 331.736 347.171 324.611 346.646 317.026Z" fill="white"/>
<path d="M263.902 305.205C270.579 293.101 274.722 289.141 267.247 304.164C273.123 302.534 279.659 301.775 286.077 302.996C305.245 306.642 307.071 313.935 308.896 316.67C311.33 310.592 315.103 297.161 310.722 292.057C305.245 285.675 280.6 272.001 251.392 292.057C222.183 312.112 202.127 330.32 184.76 347.664L184.405 348.018C171.389 361.021 139.3 393.077 119.041 375.012C117.239 372.312 115.348 365.572 115.475 354.091C113.919 354.917 112.401 355.71 110.928 356.467C110.539 362.027 110.725 367.144 111.739 371.365C117.216 394.155 143.686 400.536 155.552 395.978C167.418 391.42 237.479 313.023 248.654 313.023C251.697 310.744 257.221 307.506 263.902 305.205Z" fill="white"/>
<path d="M323.5 339.459C289.728 379.57 264.171 382.304 255.956 375.012C247.741 367.719 244.09 349.487 265.996 306.642C266.445 305.764 266.861 304.939 267.247 304.164C266.105 304.481 264.988 304.83 263.902 305.205C254.105 322.962 238.853 358.25 246.828 376.835C257.781 402.359 278.775 395.978 293.379 389.597C305.639 379.042 321.227 363.011 336.607 348.479C335.581 342.413 334.777 335.582 334.251 327.9C330.614 331.442 327.013 335.288 323.5 339.459Z" fill="white"/>
<path d="M179.284 202.72C184.76 192.997 191.15 173.914 172.894 175.372C150.075 177.196 119.954 235.538 119.041 243.742C118.128 251.946 115.39 272.001 138.209 275.648C161.028 279.294 183.847 281.117 183.847 286.587C183.847 290.231 151.931 316.128 117.611 332.201C116.154 340.849 115.541 348.113 115.475 354.091C145.318 338.244 188.934 310.274 190.237 292.057C192.062 266.532 189.324 268.355 184.76 263.797C180.196 259.239 128.169 257.416 128.169 242.83C128.169 228.245 173.807 179.93 179.284 202.72Z" fill="white"/>
<path d="M67.9262 344.929C23.1385 342.146 7.68367 312.112 17.7241 256.504C15.29 260.151 5.34997 277.969 10.422 318.493C16.8113 369.542 76.1411 369.542 89.8326 365.896C93.2425 364.988 101.068 361.535 110.928 356.467C111.434 349.226 112.915 341.234 114.811 333.488C98.4957 340.841 81.8208 345.792 67.9262 344.929Z" fill="white"/>
<path d="M110.928 356.467C112.401 355.71 113.919 354.917 115.475 354.091C115.541 348.113 116.154 340.849 117.611 332.201C116.679 332.638 115.745 333.067 114.811 333.488C112.915 341.234 111.434 349.226 110.928 356.467Z" fill="white"/>
<path d="M117.611 332.201C119.026 323.802 121.238 314.097 124.518 302.996C121.676 310.091 117.746 321.493 114.811 333.488C115.745 333.067 116.679 332.638 117.611 332.201Z" fill="white"/>
<path d="M263.902 305.205C270.579 293.101 274.722 289.141 267.247 304.164C266.105 304.481 264.988 304.83 263.902 305.205Z" fill="white"/>
<path d="M140.282 102.429L142.109 96.0476C146.066 101.821 152.703 115.373 147.589 123.395C142.474 131.416 137.542 124.914 135.716 120.66C134.498 124.306 131.149 131.052 127.496 128.864C122.93 126.129 121.103 114.279 121.103 111.544C121.103 109.356 118.668 110.025 117.45 110.633L116.537 108.81C117.146 106.683 118.911 102.611 121.103 103.34C123.295 104.069 124.452 106.075 124.756 106.986C123.539 113.671 122.747 125.947 129.323 121.571C135.899 117.196 132.672 109.417 130.236 106.075L132.063 97.8708C133.585 102.732 136.812 113.003 137.542 115.19C138.456 117.925 141.196 120.66 143.935 119.748C146.675 118.837 144.849 104.252 140.282 102.429Z" fill="white"/>
<path d="M418.834 51.381L420.661 45C424.618 50.7732 431.255 64.3252 426.14 72.3469C421.026 80.3687 416.094 73.8662 414.268 69.6122C413.05 73.2585 409.701 80.0041 406.048 77.8163C401.482 75.0816 399.655 63.2313 399.655 60.4966C399.655 58.3088 397.22 58.9773 396.002 59.585L395.089 57.7619C395.697 55.6349 397.463 51.5633 399.655 52.2925C401.847 53.0218 403.004 55.0272 403.308 55.9388C402.09 62.6236 401.299 74.8993 407.875 70.5238C414.45 66.1483 411.223 58.3696 408.788 55.0272L410.614 46.8231C412.137 51.6848 415.363 61.9551 416.094 64.1429C417.007 66.8776 419.747 69.6122 422.487 68.7007C425.227 67.7891 423.4 53.2041 418.834 51.381Z" fill="white"/>
<path d="M59 224.578L64.4797 202.701C72.3948 214.247 88.2251 241.898 88.2251 260.129C88.5295 275.322 87.4945 307.166 80.9188 313H79.0923C82.1365 297.807 86.3985 264.322 79.0923 251.925C71.786 239.528 62.6531 228.528 59 224.578Z" fill="white"/>
<path d="M587 22L583.145 32.4096L472 76L475.212 64.2892L587 22Z" fill="url(#paint0_linear_30_204)"/>
<path d="M260 212L256.816 220.096L165 254L167.654 244.892L260 212Z" fill="url(#paint1_linear_30_204)"/>
<path d="M207 1L201.637 15.4578L47 76L51.4693 59.7349L207 1Z" fill="white"/>
<path d="M466 2L463.318 9.13253L386 39L388.235 30.9759L466 2Z" fill="white"/>
<path d="M587 53L583.145 63.4096L472 107L475.212 95.2892L587 53Z" fill="url(#paint2_linear_30_204)"/>
<path d="M642 0V4.66145L614 19V13.1909L642 0Z" fill="url(#paint3_linear_30_204)"/>
<path d="M364 2V7.6428L329 25V17.9679L364 2Z" fill="url(#paint4_linear_30_204)"/>
<path d="M419 381V387.133L382 406V398.356L419 381Z" fill="url(#paint5_linear_30_204)"/>
<path d="M152 283L148.715 291.482L54 327L56.7374 317.458L152 283Z" fill="url(#paint6_linear_30_204)"/>
<path d="M219.233 363.758L214.431 380.749L190.596 370.026L183.637 393.207L208.317 405.075L215.629 387.649L238.101 397.962L244.541 375.517L231.887 369.638L219.233 363.758Z" fill="url(#paint7_linear_30_204)"/>
<path d="M520.244 290.786L515.442 307.776L491.607 297.054L484.648 320.235L509.328 332.103L516.64 314.676L539.112 324.989L545.552 302.545L532.898 296.665L520.244 290.786Z" fill="url(#paint8_linear_30_204)"/>
<path d="M437 105.676L414.273 92L407 111.147L427 123L437 105.676Z" fill="url(#paint9_linear_30_204)"/>
<path d="M437 105.676L414.273 92L407 111.147L427 123L437 105.676Z" fill="url(#paint10_linear_30_204)"/>
<path d="M215.049 257.649C212.827 255.515 207.756 252.527 205.248 257.649C205.061 259.173 204.799 262.404 205.248 263.136C205.808 264.051 214.125 264.051 215.973 266.794C218.745 269.538 225.769 277.952 227.987 286C227.987 276.55 228.726 257.466 231.683 256.734C234.64 256.003 237.844 257.039 239.076 257.649L240 248.503C236.612 246.674 229.465 245.028 227.987 253.076C226.508 261.124 226.138 272.891 226.138 277.769L215.049 257.649Z" fill="white" stroke="white"/>
<path d="M293.762 244.649C291.604 242.515 286.678 239.527 284.24 244.649C284.059 246.173 283.805 249.404 284.24 250.136C284.785 251.051 292.864 251.051 294.66 253.794C297.353 256.538 304.175 264.952 306.33 273C306.33 263.55 307.048 244.466 309.921 243.734C312.793 243.003 315.905 244.039 317.102 244.649L318 235.503C314.708 233.674 307.766 232.028 306.33 240.076C304.893 248.124 304.534 259.891 304.534 264.769L293.762 244.649Z" fill="white" stroke="white"/>
<path d="M16.049 12.6488C13.8272 10.5148 8.75637 7.52725 6.24754 12.6488C6.06074 14.173 5.79922 17.4045 6.24754 18.1361C6.80795 19.0507 15.1249 19.0507 16.9732 21.7943C19.7455 24.538 26.7687 32.9519 28.9866 41C28.9866 31.5496 29.7259 12.4659 32.683 11.7342C35.6402 11.0026 38.8437 12.0391 40.0759 12.6488L41 3.50321C37.6116 1.67409 30.4652 0.0278932 28.9866 8.07599C27.508 16.1241 27.1384 27.8914 27.1384 32.769L16.049 12.6488Z" fill="white" stroke="white"/>
<path d="M32.4351 103.999C33.5085 102.564 34.3 101.24 34.8578 100.03C32.7336 98.9511 30.7658 97.7161 29.4925 96.8235C30.403 94.6443 32.5881 90.4992 34.0448 91.3529C35.6555 92.121 36.7755 93.0172 37.4712 94.0159C41.6693 97.4605 45.9768 101.728 43.1493 102.294C41.5574 102.613 39.3277 102.014 37.0685 101.062C36.4038 102.235 35.5045 103.45 34.4185 104.688C43.124 107.584 46.3158 106.893 46.791 105.941C52.6179 97.9176 39.5075 86.1863 32.2239 81.3235C27.8537 82.0529 26.1542 95 25.8507 101.382C28.3007 102.434 30.4875 103.297 32.4351 103.999Z" fill="white"/>
<path d="M34.8578 100.03C34.3 101.24 33.5085 102.564 32.4351 103.999C33.1259 104.248 33.7867 104.478 34.4185 104.688C35.5045 103.45 36.4038 102.235 37.0685 101.062C36.3276 100.749 35.5836 100.399 34.8578 100.03Z" fill="white"/>
<path d="M126 2C83.5124 15.0686 0.904478 44.4882 10.3731 57.6176C11.8905 59.7451 16.7463 64.7294 24.0299 67.6471L24.9403 59.4412C18.5672 57.9216 10.3731 55.0806 19.4776 50.3235C40.4179 39.3824 89.2179 17.8647 124.179 8.38235L126 2Z" fill="white"/>
<path d="M37.4712 94.0159C36.2623 93.024 35.0625 92.1004 34.0448 91.3529C35.8435 92.7683 36.8699 95.6653 34.8578 100.03C35.5836 100.399 36.3276 100.749 37.0685 101.062C38.5545 98.4378 38.8675 96.0204 37.4712 94.0159Z" fill="white"/>
<path d="M4 126C13.6493 120.989 27.6545 112.396 34.4185 104.688C33.7867 104.478 33.1259 104.248 32.4351 103.999C28.2356 109.616 19.7215 116.955 4 126Z" fill="white"/>
<path d="M209.762 195.649C207.604 193.515 202.678 190.527 200.24 195.649C200.059 197.173 199.805 200.404 200.24 201.136C200.785 202.051 208.864 202.051 210.66 204.794C213.353 207.538 220.175 215.952 222.33 224C222.33 214.55 223.048 195.466 225.921 194.734C228.793 194.003 231.905 195.039 233.102 195.649L234 186.503C230.708 184.674 223.766 183.028 222.33 191.076C220.893 199.124 220.534 210.891 220.534 215.769L209.762 195.649Z" fill="white" stroke="white"/>
<path d="M481.762 12.6488C479.604 10.5148 474.678 7.52725 472.24 12.6488C472.059 14.173 471.805 17.4045 472.24 18.1361C472.785 19.0507 480.864 19.0507 482.66 21.7943C485.353 24.538 492.175 32.9519 494.33 41C494.33 31.5496 495.048 12.4659 497.921 11.7342C500.793 11.0026 503.905 12.0391 505.102 12.6488L506 3.50321C502.708 1.67409 495.766 0.0278932 494.33 8.07599C492.893 16.1241 492.534 27.8914 492.534 32.769L481.762 12.6488Z" fill="white" stroke="white"/>
<path d="M40.049 269.649C37.8272 267.515 32.7564 264.527 30.2475 269.649C30.0607 271.173 29.7992 274.404 30.2475 275.136C30.808 276.051 39.1249 276.051 40.9732 278.794C43.7455 281.538 50.7687 289.952 52.9866 298C52.9866 288.55 53.7259 269.466 56.683 268.734C59.6402 268.003 62.8437 269.039 64.0759 269.649L65 260.503C61.6116 258.674 54.4652 257.028 52.9866 265.076C51.508 273.124 51.1384 284.891 51.1384 289.769L40.049 269.649Z" fill="white" stroke="white"/>
<path d="M275.049 332.376C272.827 330.296 267.756 327.386 265.248 332.376C265.061 333.861 264.799 337.009 265.248 337.722C265.808 338.613 274.125 338.613 275.973 341.287C278.745 343.96 285.769 352.158 287.987 360C287.987 350.792 288.726 332.197 291.683 331.485C294.64 330.772 297.844 331.782 299.076 332.376L300 323.465C296.612 321.682 289.465 320.078 287.987 327.92C286.508 335.762 286.138 347.227 286.138 351.98L275.049 332.376Z" fill="white" stroke="white"/>
<path d="M490.762 122.649C488.604 120.515 483.678 117.527 481.24 122.649C481.059 124.173 480.805 127.404 481.24 128.136C481.785 129.051 489.864 129.051 491.66 131.794C494.353 134.538 501.175 142.952 503.33 151C503.33 141.55 504.048 122.466 506.921 121.734C509.793 121.003 512.905 122.039 514.102 122.649L515 113.503C511.708 111.674 504.766 110.028 503.33 118.076C501.893 126.124 501.534 137.891 501.534 142.769L490.762 122.649Z" fill="white" stroke="white"/>
<path d="M576.049 226.649C573.827 224.515 568.756 221.527 566.248 226.649C566.061 228.173 565.799 231.404 566.248 232.136C566.808 233.051 575.125 233.051 576.973 235.794C579.745 238.538 586.769 246.952 588.987 255C588.987 245.55 589.726 226.466 592.683 225.734C595.64 225.003 598.844 226.039 600.076 226.649L601 217.503C597.612 215.674 590.465 214.028 588.987 222.076C587.508 230.124 587.138 241.891 587.138 246.769L576.049 226.649Z" fill="white" stroke="white"/>
<path d="M357 209.533L360.405 203C364.622 205.68 375.486 214.056 371.108 242.2C369.162 248.733 360.892 271.851 368.676 273.862C369.649 273.862 372.276 272.555 375 267.328C374.676 271.516 372.47 280.294 366.243 281.903C358.459 283.913 365.27 254.262 368.676 243.205C370.135 235.667 370.232 221.193 357 209.533Z" fill="white"/>
<path d="M658.489 332C655.052 342.283 648.831 365.383 655.776 368.908C657.223 369.459 661.093 368.908 665 362.298C664.638 367.623 661.982 381.119 654.148 379.926C643.296 378.273 651.978 339.161 658.489 332Z" fill="white"/>
<path d="M596.489 322C593.052 332.069 586.831 354.687 593.776 358.139C595.223 358.679 599.093 358.139 603 351.667C602.638 356.881 599.982 370.095 592.148 368.927C581.296 367.309 589.978 329.012 596.489 322Z" fill="white"/>
<path fill-rule="evenodd" clip-rule="evenodd" d="M531.584 5C530.976 6.52146 530.49 9.74694 533.408 10.4772C537.057 11.3901 546.177 15.9545 542.529 23.2575C538.881 30.5605 531.584 34.212 527.024 33.2991C522.463 32.3862 523.375 11.3901 531.584 5ZM537.969 23.2575C537.969 21.7969 532.496 19.606 529.76 18.6931C528.301 18.6931 528.544 23.5618 528.848 25.9961C531.888 25.6918 537.969 24.7181 537.969 23.2575Z" fill="white"/>
<path fill-rule="evenodd" clip-rule="evenodd" d="M639.21 146.495C638.602 148.017 638.115 151.242 641.034 151.973C644.682 152.886 653.803 157.45 650.155 164.753C646.506 172.056 639.21 175.707 634.649 174.795C630.089 173.882 631.001 152.886 639.21 146.495ZM645.594 164.753C645.594 163.292 640.122 161.101 637.385 160.189C635.926 160.189 636.169 165.057 636.473 167.492C639.514 167.187 645.594 166.214 645.594 164.753Z" fill="white"/>
<path fill-rule="evenodd" clip-rule="evenodd" d="M350.992 59.7724C350.384 61.2939 349.897 64.5194 352.816 65.2497C356.464 66.1625 365.585 70.7269 361.937 78.0299C358.289 85.3329 350.992 88.9844 346.431 88.0715C341.871 87.1586 342.783 66.1625 350.992 59.7724ZM357.376 78.0299C357.376 76.5693 351.904 74.3784 349.168 73.4655C347.708 73.4655 347.952 78.3342 348.256 80.7685C351.296 80.4642 357.376 79.4905 357.376 78.0299Z" fill="white"/>
<path fill-rule="evenodd" clip-rule="evenodd" d="M588.133 250.563C587.525 252.084 587.039 255.31 589.957 256.04C593.606 256.953 602.726 261.518 599.078 268.821C595.43 276.124 588.133 279.775 583.573 278.862C579.012 277.949 579.924 256.953 588.133 250.563ZM594.518 268.821C594.518 267.36 589.045 265.169 586.309 264.256C584.85 264.256 585.093 269.125 585.397 271.559C588.437 271.255 594.518 270.281 594.518 268.821Z" fill="white"/>
<path fill-rule="evenodd" clip-rule="evenodd" d="M26.2908 180.272C25.6828 181.793 25.1963 185.019 28.115 185.749C31.7633 186.662 40.8841 191.226 37.2358 198.529C33.5875 205.832 26.2908 209.484 21.7304 208.571C17.17 207.658 18.0821 186.662 26.2908 180.272ZM32.6754 198.529C32.6754 197.069 27.2029 194.878 24.4666 193.965C23.0073 193.965 23.2505 198.834 23.5546 201.268C26.5948 200.964 32.6754 199.99 32.6754 198.529Z" fill="white"/>
<path d="M648.71 205C645.918 213.141 640.862 231.428 646.505 234.219C647.681 234.655 650.826 234.219 654 228.986C653.706 233.202 651.548 243.886 645.183 242.941C636.366 241.633 643.419 210.669 648.71 205Z" fill="white"/>
<path d="M479.71 212C476.918 220.141 471.862 238.428 477.505 241.219C478.681 241.655 481.826 241.219 485 235.986C484.706 240.202 482.548 250.886 476.183 249.941C467.366 248.633 474.419 217.669 479.71 212Z" fill="white"/>
<path d="M424.71 192C421.918 200.141 416.862 218.428 422.505 221.219C423.681 221.655 426.826 221.219 430 215.986C429.706 220.202 427.548 230.886 421.183 229.941C412.366 228.633 419.419 197.669 424.71 192Z" fill="white"/>
<path d="M635.303 72C632.296 81.2118 626.852 101.905 632.929 105.064C634.195 105.557 637.582 105.064 641 99.1418C640.683 103.912 638.359 116.002 631.505 114.933C622.009 113.453 629.606 78.4153 635.303 72Z" fill="white"/>
<path d="M553.303 75C550.296 84.2118 544.852 104.905 550.929 108.064C552.195 108.557 555.582 108.064 559 102.142C558.683 106.912 556.359 119.002 549.505 117.933C540.009 116.453 547.606 81.4153 553.303 75Z" fill="white"/>
<path d="M357.896 106C354.674 115.212 348.841 135.905 355.352 139.064C356.709 139.557 360.337 139.064 364 133.142C363.661 137.912 361.17 150.002 353.826 148.933C343.653 147.453 351.792 112.415 357.896 106Z" fill="white"/>
<path d="M295.896 181C292.674 190.212 286.841 210.905 293.352 214.064C294.709 214.557 298.337 214.064 302 208.142C301.661 212.912 299.17 225.002 291.826 223.933C281.653 222.453 289.792 187.415 295.896 181Z" fill="white"/>
<path d="M106.303 194C103.296 203.212 97.8519 223.905 103.929 227.064C105.195 227.557 108.582 227.064 112 221.142C111.683 225.912 109.359 238.002 102.505 236.933C93.0092 235.453 100.606 200.415 106.303 194Z" fill="white"/>
<path d="M159.71 322C156.918 330.141 151.862 348.428 157.505 351.219C158.681 351.655 161.826 351.219 165 345.986C164.706 350.202 162.548 360.886 156.183 359.941C147.366 358.633 154.419 327.669 159.71 322Z" fill="white"/>
<path d="M58.8958 93C55.6742 102.426 49.8413 123.601 56.3524 126.833C57.7089 127.338 61.3375 126.833 65 120.773C64.6609 125.654 62.1703 138.025 54.8264 136.932C44.6528 135.417 52.7916 99.5645 58.8958 93Z" fill="white"/>
<path d="M195.896 77C192.674 86.2118 186.841 106.905 193.352 110.064C194.709 110.557 198.337 110.064 202 104.142C201.661 108.912 199.17 121.002 191.826 119.933C181.653 118.453 189.792 83.4153 195.896 77Z" fill="white"/>
<path d="M228.303 0C225.296 9.42601 219.852 30.6009 225.929 33.8326C227.195 34.3376 230.582 33.8326 234 27.7731C233.683 32.6544 231.359 45.0255 224.505 43.9319C215.009 42.417 222.606 6.56454 228.303 0Z" fill="white"/>
<path d="M585.633 92C580.37 106.99 569.352 160.699 579.989 165.838C582.205 166.641 590.017 164.477 596 154.841C595.446 162.604 589.493 183.637 577.496 181.898C560.877 179.489 575.662 102.439 585.633 92Z" fill="white"/>
<path d="M17.2354 126C3.6435 163.296 -13.5729 250.727 17.2354 259.898C22.2077 261.378 33.9082 246.692 31.7335 219.545C29.6008 229.633 22.8093 247.058 12.7048 236.053C0.0742645 222.297 8.1741 187.446 17.2354 126Z" fill="#D9D9D9"/>
<ellipse cx="327.5" cy="387" rx="12.5" ry="13" fill="white"/>
<path d="M631.906 28.6757C634.047 26.8432 636.494 23.7281 632.823 22.2622C628.235 20.4297 618.141 28.6757 619.059 32.3405C619.793 35.2724 623.035 37.8378 624.565 38.7541L619.059 45.1676L620.894 47L641.082 31.4243L642 26.8432L630.07 34.173C627.929 35.0892 623.647 35.6389 623.647 30.5081C623.647 25.3773 629.459 26.8432 631.906 28.6757Z" fill="white"/>
<path d="M350.906 26.6757C353.047 24.8432 355.494 21.7281 351.823 20.2622C347.235 18.4297 337.141 26.6757 338.059 30.3405C338.793 33.2724 342.035 35.8378 343.565 36.7541L338.059 43.1676L339.894 45L360.082 29.4243L361 24.8432L349.07 32.173C346.929 33.0892 342.647 33.6389 342.647 28.5081C342.647 23.3773 348.459 24.8432 350.906 26.6757Z" fill="white"/>
<path d="M619.621 329.117C622.369 329.418 627.682 330.2 626.949 330.921C626.033 331.823 615.957 333.627 615.041 342.646C614.125 351.665 628.781 382.331 626.033 391.35C625.356 393.572 624.893 394.996 624.586 395.858C628.439 395.527 632.179 385.56 618.705 347.156C617.484 344.149 619.988 337.235 636.109 337.235C636.72 336.032 637.764 333.192 636.109 329.117C634.277 324.608 629.697 323.706 625.117 321C623.285 322.804 617.423 326.953 619.621 329.117Z" fill="white"/>
<path d="M449.991 301.049C452.364 301.31 456.953 301.989 456.32 302.616C455.529 303.399 446.827 304.965 446.036 312.798C445.245 320.63 457.902 347.261 455.529 355.093C454.944 357.023 454.544 358.259 454.279 359.008C457.606 358.721 460.837 350.066 449.2 316.714C448.145 314.103 450.307 308.098 464.23 308.098C464.758 307.054 465.66 304.588 464.23 301.049C462.648 297.133 458.693 296.35 454.738 294C453.155 295.566 448.092 299.169 449.991 301.049Z" fill="white"/>
<path d="M120 63.3884L121.826 57C125.173 59.1295 131.321 67.0389 129.13 81.641C128.521 74.9484 125.843 61.9282 120 63.3884Z" fill="white"/>
<path d="M561.872 374.595C560.655 373.074 557.673 371.492 555.482 377.332C555.177 378.549 556.212 380.435 562.785 378.245L571.002 370.031C566.437 375.507 557.308 386.824 557.308 388.284C557.308 390.109 553.656 398.323 573.741 391.934L592 381.896C589.87 385.85 583.053 395.402 561.872 401.973C557.612 402.278 551.83 400.148 554.569 386.459L555.482 383.721C550.917 384.329 545.256 383.356 551.83 374.595C560.046 363.643 568.263 366.381 561.872 374.595Z" fill="white"/>
<defs>
<linearGradient id="paint0_linear_30_204" x1="529.5" y1="22" x2="529.5" y2="76" gradientUnits="userSpaceOnUse">
<stop stop-color="#F3E07B"/>
<stop offset="1" stop-color="#BC6317"/>
</linearGradient>
<linearGradient id="paint1_linear_30_204" x1="212.5" y1="212" x2="212.5" y2="254" gradientUnits="userSpaceOnUse">
<stop stop-color="#F3E07B"/>
<stop offset="1" stop-color="#BC6317"/>
</linearGradient>
<linearGradient id="paint2_linear_30_204" x1="529.5" y1="53" x2="529.5" y2="107" gradientUnits="userSpaceOnUse">
<stop stop-color="#F3E07B"/>
<stop offset="1" stop-color="#BC6317"/>
</linearGradient>
<linearGradient id="paint3_linear_30_204" x1="636.358" y1="-5.59374" x2="636.358" y2="16.75" gradientUnits="userSpaceOnUse">
<stop stop-color="#F3E07B"/>
<stop offset="1" stop-color="#BC6317"/>
</linearGradient>
<linearGradient id="paint4_linear_30_204" x1="356.948" y1="-4.77136" x2="356.948" y2="22.2763" gradientUnits="userSpaceOnUse">
<stop stop-color="#F3E07B"/>
<stop offset="1" stop-color="#BC6317"/>
</linearGradient>
<linearGradient id="paint5_linear_30_204" x1="411.545" y1="373.64" x2="411.545" y2="403.039" gradientUnits="userSpaceOnUse">
<stop stop-color="#F3E07B"/>
<stop offset="1" stop-color="#BC6317"/>
</linearGradient>
<linearGradient id="paint6_linear_30_204" x1="103" y1="283" x2="103" y2="327" gradientUnits="userSpaceOnUse">
<stop stop-color="#F3E07B"/>
<stop offset="1" stop-color="#BC6317"/>
</linearGradient>
<linearGradient id="paint7_linear_30_204" x1="210.765" y1="365.23" x2="217.413" y2="403.495" gradientUnits="userSpaceOnUse">
<stop stop-color="#F3E07B"/>
<stop offset="1" stop-color="#BC6317"/>
</linearGradient>
<linearGradient id="paint8_linear_30_204" x1="511.776" y1="292.257" x2="518.424" y2="330.522" gradientUnits="userSpaceOnUse">
<stop stop-color="#F3E07B"/>
<stop offset="1" stop-color="#BC6317"/>
</linearGradient>
<linearGradient id="paint9_linear_30_204" x1="422" y1="92" x2="422" y2="123" gradientUnits="userSpaceOnUse">
<stop stop-color="#F3E07B"/>
<stop offset="1" stop-color="#BC6317"/>
</linearGradient>
<linearGradient id="paint10_linear_30_204" x1="422" y1="92" x2="422" y2="123" gradientUnits="userSpaceOnUse">
<stop stop-color="#F3E07B"/>
<stop offset="1" stop-color="#BC6317"/>
</linearGradient>
</defs>
</svg>
