<svg fill="none" height="409" width="691" xmlns="http://www.w3.org/2000/svg" xmlns:xlink="http://www.w3.org/1999/xlink"><linearGradient id="a"><stop offset="0" stop-color="#f3e07b"/><stop offset="1" stop-color="#bc6317"/></linearGradient><linearGradient id="b" x1="529.5" x2="529.5" xlink:href="#a" y1="22" y2="76"/><linearGradient id="c" x1="212.5" x2="212.5" xlink:href="#a" y1="212" y2="254"/><linearGradient id="d" x1="529.5" x2="529.5" xlink:href="#a" y1="53" y2="107"/><linearGradient id="e" x1="636.358" x2="636.358" xlink:href="#a" y1="-5.594" y2="16.75"/><linearGradient id="f" x1="356.948" x2="356.948" xlink:href="#a" y1="-4.771" y2="22.276"/><linearGradient id="g" x1="411.545" x2="411.545" xlink:href="#a" y1="373.64" y2="403.039"/><linearGradient id="h" x1="103" x2="103" xlink:href="#a" y1="283" y2="327"/><linearGradient id="i" x1="210.765" x2="217.413" xlink:href="#a" y1="365.23" y2="403.495"/><linearGradient id="j" x1="511.776" x2="518.424" xlink:href="#a" y1="292.257" y2="330.522"/><g fill="#fff"><path d="m655.747 2.17c-3.042 8.508-9.127 25.889-9.127 27.348.522-1.823 2.349-2.917 5.476 7.293s21.384 221.821 30.121 326.351c9.493-13.856 9.432-67.154 8.215-92.071l-11.409-111.67-11.41-111.671 9.128 11.851c1.46 0 1.217-4.862.913-7.293 0-2.188-14.605-34.337-21.907-50.138zm-61.155 30.994-3.651-3.646 7.302-24.613c8.519 17.928 24.827 54.331 21.906 56.519-.608 0-3.286-1.459-9.127-7.293s9.127 128.231 17.342 195.993c0 7.901 7.302 26.801 36.511 39.199.608 8.508.73 25.16-3.651 23.701-4.875-1.623-35.786-35.027-87.583 3.302-2.234 1.654-4.508 3.44-6.819 5.369-4.303 3.59-8.738 7.67-13.305 12.296-51.115 51.778-76.672 39.198-83.061 26.436-7.733-9.208-15.001-38.046 16.055-80.893l2.2-2.974c2.322-2.061 5.432-3.773 2.316 2.87-.558 1.19-1.317 2.65-2.316 4.423-8.215 14.586-30.121 51.049-13.692 63.812 13.144 10.21 26.166 6.077 31.035 2.735 14.306-11.478 41.81-33.102 60.353-46.419l7.364-5.165c2.386-1.623 4.485-2.986 6.217-4.024 18.255-10.939 28.295-16.408 41.987-17.32 2.954-.197 4.379.371 4.741.557-1.119-.772-11.825-10.044-15.694-68.015-4.382-65.635-12.779-145.247-16.43-176.849z"/><path d="m527.047 159.875v-21.878c1.826-1.519 10.223.729 29.209 21.878h-11.866c12.474 7.901 33.407 32.453 17.342 56.519s-37.727 25.525-46.551 24.613c-9.218-4.041-26.244-14.554-43.712-28.595-3.076-2.472-6.165-5.053-9.228-7.728-3.083-2.693-6.14-5.48-9.128-8.345-5.477-6.381-20.994-13.127-35.598-3.646.304-6.989 3.651-16.409 7.302-20.055l.354-.355c6.81-6.833 22.888-22.966 98.225-1.468 1.217 6.077 0 19.325-14.604 23.701-18.255 5.47-26.47 8.204-16.43 15.497s35.598 21.878 64.806-3.646c2.739-1.52 3.651-5.47-12.778-21.879-6.39-6.381-13.144-16.591-14.605-20.966 0-.608-.547-2.188-2.738-3.647zm-35.598 21.879c-5.841-2.917-21.906-2.431-29.208-1.824-1.461 2.918 8.519 9.724 13.691 12.763 7.607-2.431 21.359-8.022 15.517-10.939z" fill-rule="evenodd"/><path d="m205.754 68.716c.304-2.431.182-7.475-2.739-8.204s2.435-14.282 5.477-20.967c5.172 6.381 15.7 20.055 16.43 23.701s.913 6.989.913 8.204c-3.347-4.254-9.311-9.663-6.39 2.735 3.651 15.497 29.939 75.662 8.215 91.159-6.389 4.558-19.168 13.127-37.423 7.293-6.694-2.735-20.264-13.674-20.994-35.552-4.259 16.408-18.985 48.679-43.813 46.491-31.034-2.735-32.661-26.529-33.772-32.818-2.738-15.497-1.826-46.491 0-51.96 1.825-6.381-.183-9.663-4.564 6.381.385-1.383-3.104 5.652-8.215 42.845-1.217 12.762-7.667 38.104-23.732 37.375-20.081-.912-29.208-32.817-30.121-61.077 0-4.558 1.278-13.856 2.738-14.585.608 20.359 6.207 60.712 23.732 59.253 21.906-1.823 23.701-41.75 25.557-52.872 1.826-10.939 13.692-46.491 21.906-49.226 6.572-2.188 2.13 30.083-.913 46.491-1.825 17.624 2.191 52.143 32.86 49.226 38.336-3.646 30.121-59.253 28.296-78.397-1.461-15.315-4.26-20.359-5.477-20.967l6.389-22.79c6.694 15.801 19.534 53.966 17.343 80.22.304 13.066 7.667 38.287 34.685 34.64 9.128-1.823 24.645 1.824 4.564-39.198-4.564-12.762-12.414-38.652-10.953-47.403zm39.249-31.906-3.651-3.646 8.214-23.701c7.303 14.889 21.542 45.762 20.081 50.138s-6.693-1.823-9.127-5.47c4.259 38.287 12.778 119.602 12.778 138.563 0 23.701 2.739 53.784-7.302 76.574l-9.127-119.419c0-6.381-7.911-77.486-10.954-112.126l-.912-.912zm60.242-7.292c3.713 14.831 11.095 75.452 17.475 139.856 4.698 1.103 9.456 1.692 14.233 1.847-11.871-137.957-23.637-166.749-24.406-169.051-.73-2.188-5.172 17.32-7.302 27.348z"/><path d="m315.286 167.168c-12.475-4.862-34.138-27.348-20.994-78.397-12.423 31.432-21.39 91.385 30.517 102.221l-2.089-21.618c-2.497-.586-4.978-1.318-7.434-2.206z"/><path d="m336.953 171.221c-4.777-.155-9.535-.744-14.233-1.847l2.089 21.618c4.225.882 8.852 1.439 13.914 1.628z"/><path d="m382.707 182.151-1.533-19.844c-14.045 5.611-29.223 9.401-44.221 8.914l1.77 21.399c1.287.048 2.602.073 3.945.073 8.229-.567 22.636-3.539 40.039-10.542z"/><path d="m334.251 327.9a158.11 158.11 0 0 1 12.395-10.874l-3.065-55.964-4.858-68.442c-5.062-.189-9.689-.746-13.914-1.628 4.017 42.638 7.373 84.886 8.732 114.738 0 8.081.249 15.451.71 22.17zm61.032-151.304-1.341-19.994c-4.119 2.029-8.389 3.956-12.768 5.705l1.533 19.844c4.043-1.627 8.249-3.472 12.576-5.555z"/><path d="m447.637 52.307 10.04 1.823c-6.085-8.204-18.986-25.16-21.906-27.348s-3.652 16.105-3.652 25.525c2.13-.304 6.572 1.823 7.303 12.762 1.825 6.381 7.667 21.696 16.429 31.906 10.793 12.575-1.455 20.725-12.295 27.938l-.483.322c-5.552 3.696-24.701 19.334-49.131 31.367l1.341 19.994c16.988-8.178 35.853-20.025 54.179-36.776 11.257-6.685 29.026-29.353 10.04-66.546-3.346-6.381-10.405-19.508-11.865-20.967z"/><path d="m376.441 4.904c-1.522 1.215-5.294 7.84-8.215 24.613 2.359 17.134 7.378 62.376 12.948 132.789 4.379-1.749 8.649-3.676 12.768-5.705-4.012-57.347-11.208-141.013-17.501-151.698zm34.947 269.333c1.975-7.299 4.732-14.182 7.982-20.587-23.923-13.383-15.949-42.639-23.761-71.896l-.326-5.158c-4.327 2.083-8.533 3.928-12.576 5.555l5.6 81.646c1.217 7.293 4.381 23.155 7.302 28.26-9.239 1.757-28.687 8.978-48.963 24.969l1.656 20.72c13.591-12.026 26.274-21.374 35.441-22.9 8.712-1.359 16.043-.853 22.163.598.321-8.471 1.247-17.561 2.722-27.327-8.91-11.236-9.821-22.753-8.455-28.878 3.089 7.053 7.446 11.932 11.215 14.998z"/><path d="m471.469 212.412c-3.076-2.472-6.165-5.053-9.228-7.728-10.849 7.041-30.461 24.516-42.871 48.966 1.836 1.028 3.861 1.961 6.094 2.794 10.918-18.446 28.571-33.235 46.005-44.032z"/><path d="m419.37 253.65c-3.25 6.405-6.007 13.288-7.982 20.587 2.015 1.639 3.862 2.76 5.258 3.417 1.863-7.528 4.909-14.604 8.818-21.21-2.233-.833-4.258-1.766-6.094-2.794z"/><path d="m486.511 279.533 2.2-2.974c2.322-2.061 5.432-3.773 2.316 2.87l40.584-1.401c14.438 1.86 30.041 11.2 34.796 25.952l7.364-5.165c-2.141-13.287-9.783-25.572-24.817-35.018-.609-1.823-17.891-4.922-82.149-2.735-18.64.635-31.872-1.087-41.341-4.618-3.909 6.606-6.955 13.682-8.818 21.21.314.148.604.273.869.374 10.938 2.099 40.698 2.124 68.996 1.505zm87.13 36.792-6.819 5.369c-1.859 7.599-6.313 16.001-14.217 25.058-27.018 30.961-71.5 35.386-90.364 33.729-28.021-9.832-45.543-21.548-47.94-62.22-2.502-1.102-5.293-2.081-8.395-2.817-1.246 32.948 6.673 56.544 27.126 74.153 29.209 17.32 56.004 13.449 84.887-1.823 27.328-14.449 51.196-43.394 55.722-71.449z"/><path d="m408.628 288.117c-1.475 9.766-2.401 18.856-2.722 27.327 3.102.736 5.893 1.715 8.395 2.817-.416-7.065-.376-15.004.144-23.959-2.238-2.028-4.165-4.101-5.817-6.185z"/><path d="m437.596 319.404c2.921-7.292-2.434-12.154-5.477-13.674-7.362-3.424-13.153-7.333-17.674-11.428-.52 8.955-.56 16.894-.144 23.959 9.113 4.014 14.393 9.665 16.906 11.171 3.651 2.188 5.781-5.774 6.389-10.028zm-59.33 2.735-1.825 20.967c13.144 15.315 12.778 20.359 10.953 20.966-20.03 20.967-32.86-.911-36.511-9.115-.858-1.929-1.737-8.362-2.581-17.211-3.845 3.402-7.763 7.019-11.695 10.733 6.378 37.713 21.333 45.91 31.619 45.676 9.128-.304 27.383-6.928 27.383-30.994s-11.562-37.375-17.343-41.022z"/><path d="m346.646 317.026a158.11 158.11 0 0 0 -12.395 10.874c.526 7.682 1.33 14.513 2.356 20.579l11.695-10.733zm-82.744-11.821c6.677-12.104 10.82-16.064 3.345-1.041 5.876-1.63 12.412-2.389 18.83-1.168 19.168 3.646 20.994 10.939 22.819 13.674 2.434-6.078 6.207-19.509 1.826-24.613-5.477-6.382-30.122-20.056-59.33 0s-49.265 38.263-66.632 55.607l-.355.354c-13.016 13.003-45.105 45.059-65.364 26.994-1.802-2.7-3.693-9.44-3.566-20.921l-4.547 2.376c-.389 5.56-.203 10.677.811 14.898 5.477 22.79 31.947 29.171 43.813 24.613s81.927-82.955 93.102-82.955c3.043-2.279 8.567-5.517 15.248-7.818z"/><path d="m323.5 339.459c-33.772 40.111-59.329 42.845-67.544 35.553s-11.866-25.525 10.04-68.37l1.251-2.478a56.81 56.81 0 0 0 -3.345 1.041c-9.797 17.757-25.049 53.045-17.074 71.63 10.953 25.524 31.947 19.143 46.551 12.762 12.26-10.555 27.848-26.586 43.228-41.118-1.026-6.066-1.83-12.897-2.356-20.579a160.04 160.04 0 0 0 -10.751 11.559zm-144.216-136.739c5.476-9.723 11.866-28.806-6.39-27.348-22.819 1.824-52.94 60.166-53.853 68.37s-3.651 28.259 19.168 31.906 45.638 5.469 45.638 10.939c0 3.644-31.916 29.541-66.236 45.614-1.457 8.648-2.07 15.912-2.136 21.89 29.843-15.847 73.459-43.817 74.762-62.034 1.825-25.525-.913-23.702-5.477-28.26s-56.591-6.381-56.591-20.967 45.638-62.9 51.115-40.11zm-111.358 142.209c-44.788-2.783-60.243-32.817-50.202-88.425-2.434 3.647-12.374 21.465-7.302 61.989 6.389 51.049 65.719 51.049 79.411 47.403 3.41-.908 11.235-4.361 21.095-9.429.506-7.241 1.987-15.233 3.883-22.979-16.315 7.353-32.99 12.304-46.885 11.441z"/><path d="m110.928 356.467 4.547-2.376c.066-5.978.679-13.242 2.136-21.89l-2.8 1.287c-1.896 7.746-3.377 15.738-3.883 22.979z"/><path d="m117.611 332.201c1.415-8.399 3.627-18.104 6.907-29.205-2.842 7.095-6.772 18.497-9.707 30.492zm146.291-26.996c6.677-12.104 10.82-16.064 3.345-1.041zm-123.62-202.776 1.827-6.381c3.957 5.773 10.594 19.325 5.48 27.347s-10.047 1.519-11.873-2.735c-1.218 3.646-4.567 10.392-8.22 8.204-4.566-2.735-6.393-14.585-6.393-17.32 0-2.188-2.435-1.519-3.653-.911l-.913-1.823c.609-2.127 2.374-6.199 4.566-5.47s3.349 2.735 3.653 3.646c-1.217 6.685-2.009 18.961 4.567 14.585s3.349-12.154.913-15.496l1.827-8.204 5.479 17.319c.914 2.735 3.654 5.47 6.393 4.558s.914-15.496-3.653-17.319zm278.552-51.048 1.827-6.381c3.957 5.773 10.594 19.325 5.479 27.347s-10.046 1.519-11.872-2.735c-1.218 3.646-4.567 10.392-8.22 8.204-4.566-2.735-6.393-14.585-6.393-17.32 0-2.188-2.435-1.519-3.653-.912l-.913-1.823c.608-2.127 2.374-6.199 4.566-5.469s3.349 2.735 3.653 3.646c-1.218 6.685-2.009 18.96 4.567 14.585s3.348-12.154.913-15.497l1.826-8.204 5.48 17.32c.913 2.735 3.653 5.469 6.393 4.558s.913-15.497-3.653-17.32zm-359.834 173.197 5.48-21.877c7.915 11.546 23.745 39.197 23.745 57.428.304 15.193-.731 47.037-7.306 52.871h-1.827c3.044-15.193 7.306-48.678 0-61.075s-16.439-23.397-20.092-27.347z"/></g><path d="m587 22-3.855 10.41-111.145 43.59 3.212-11.711z" fill="url(#b)"/><path d="m260 212-3.184 8.096-91.816 33.904 2.654-9.108z" fill="url(#c)"/><path d="m207 1-5.363 14.458-154.637 60.542 4.469-16.265zm259 1-2.682 7.133-77.318 29.867 2.235-8.024z" fill="#fff"/><path d="m587 53-3.855 10.41-111.145 43.59 3.212-11.711z" fill="url(#d)"/><path d="m642 0v4.661l-28 14.339v-5.809z" fill="url(#e)"/><path d="m364 2v5.643l-35 17.357v-7.032z" fill="url(#f)"/><path d="m419 381v6.133l-37 18.867v-7.644z" fill="url(#g)"/><path d="m152 283-3.285 8.482-94.715 35.518 2.737-9.542z" fill="url(#h)"/><path d="m219.233 363.758-4.802 16.991-23.835-10.723-6.959 23.181 24.68 11.868 7.312-17.426 22.472 10.313 6.44-22.445-12.654-5.879z" fill="url(#i)"/><path d="m520.244 290.786-4.802 16.99-23.835-10.722-6.959 23.181 24.68 11.868 7.312-17.427 22.472 10.313 6.44-22.444-12.654-5.88z" fill="url(#j)"/><g fill="#fff"><path d="m16.049 12.649c-2.222-2.134-7.293-5.122-9.801 0-.187 1.524-.448 4.756 0 5.487.56.915 8.877.915 10.726 3.658 2.772 2.744 9.795 11.158 12.013 19.206 0-9.45.739-28.534 3.696-29.266s6.161.305 7.393.915l.924-9.146c-3.388-1.829-10.535-3.475-12.013 4.573s-1.848 19.815-1.848 24.693l-11.089-20.12z" stroke="#fff"/><path d="m32.435 103.999c1.073-1.435 1.865-2.759 2.423-3.969-2.124-1.079-4.092-2.314-5.365-3.207.91-2.179 3.096-6.324 4.552-5.471 1.611.768 2.731 1.664 3.426 2.663 4.198 3.445 8.506 7.712 5.678 8.278-1.592.319-3.822-.28-6.081-1.232-.665 1.173-1.564 2.388-2.65 3.626 8.706 2.896 11.897 2.205 12.372 1.253 5.827-8.023-7.283-19.755-14.567-24.618-4.37.729-6.07 13.677-6.373 20.059 2.45 1.052 4.637 1.915 6.584 2.617z"/><path d="m34.858 100.03c-.558 1.21-1.349 2.534-2.423 3.969l1.983.689c1.086-1.238 1.985-2.453 2.65-3.626l-2.211-1.032zm91.142-98.03c-42.488 13.069-125.096 42.488-115.627 55.618 1.517 2.127 6.373 7.112 13.657 10.029l.91-8.206c-6.373-1.52-14.567-4.361-5.463-9.118 20.94-10.941 69.74-32.459 104.701-41.941z"/><path d="m37.471 94.016-3.426-2.663c1.799 1.415 2.825 4.312.813 8.677l2.211 1.032c1.486-2.624 1.799-5.042.403-7.046zm-33.471 31.984c9.649-5.011 23.655-13.604 30.419-21.312l-1.983-.689c-4.2 5.617-12.714 12.956-28.436 22.001z"/><path d="m481.762 12.649c-2.158-2.134-7.084-5.122-9.522 0-.181 1.524-.435 4.756 0 5.487.545.915 8.624.915 10.42 3.658 2.693 2.744 9.515 11.158 11.67 19.206 0-9.45.718-28.534 3.591-29.266s5.984.305 7.181.915l.898-9.146c-3.292-1.829-10.234-3.475-11.67 4.573s-1.796 19.815-1.796 24.693zm-441.713 257c-2.222-2.134-7.293-5.122-9.801 0-.187 1.524-.448 4.755 0 5.487.561.915 8.877.915 10.726 3.658 2.772 2.744 9.796 11.158 12.013 19.206 0-9.45.739-28.534 3.696-29.266s6.161.305 7.393.915l.924-9.146c-3.388-1.829-10.535-3.475-12.013 4.573s-1.848 19.815-1.848 24.693l-11.089-20.12zm235 62.727c-2.222-2.08-7.293-4.99-9.801 0-.187 1.485-.449 4.633 0 5.346.56.891 8.877.891 10.725 3.565 2.772 2.673 9.796 10.871 12.014 18.713 0-9.208.739-27.803 3.696-28.515s6.161.297 7.393.891l.924-8.911c-3.388-1.783-10.535-3.387-12.013 4.455s-1.849 19.307-1.849 24.06z" stroke="#fff"/><path d="m357 209.533 3.405-6.533c4.217 2.68 15.081 11.056 10.703 39.2-1.946 6.533-10.216 29.651-2.432 31.662.973 0 3.6-1.307 6.324-6.534-.324 4.188-2.53 12.966-8.757 14.575-7.784 2.01-.973-27.641 2.433-38.698 1.459-7.538 1.556-22.012-11.676-33.672zm301.489 122.467c-3.437 10.283-9.658 33.383-2.713 36.908 1.447.551 5.317 0 9.224-6.61-.362 5.325-3.018 18.821-10.852 17.628-10.852-1.653-2.17-40.765 4.341-47.926zm-62-10c-3.437 10.069-9.658 32.687-2.713 36.139 1.447.54 5.317 0 9.224-6.472-.362 5.214-3.018 18.428-10.852 17.26-10.852-1.618-2.17-39.915 4.341-46.927z"/><path d="m531.584 5c-.608 1.521-1.094 4.747 1.824 5.477 3.649.913 12.769 5.477 9.121 12.78s-10.945 10.955-15.505 10.042-3.649-21.909 4.56-28.299zm6.385 18.258c0-1.461-5.473-3.651-8.209-4.564-1.459 0-1.216 4.869-.912 7.303 3.04-.304 9.121-1.278 9.121-2.739zm101.241 123.237c-.608 1.522-1.095 4.747 1.824 5.478 3.648.913 12.769 5.477 9.121 12.78s-10.945 10.954-15.506 10.042-3.648-21.909 4.561-28.3zm6.384 18.258c0-1.461-5.472-3.652-8.209-4.564-1.459 0-1.216 4.868-.912 7.303 3.041-.305 9.121-1.278 9.121-2.739zm-294.602-104.981c-.608 1.522-1.095 4.747 1.824 5.477 3.648.913 12.769 5.477 9.121 12.78s-10.945 10.954-15.506 10.042-3.648-21.909 4.561-28.299zm6.384 18.258c0-1.461-5.472-3.651-8.208-4.564-1.46 0-1.216 4.869-.912 7.303 3.04-.304 9.12-1.278 9.12-2.739zm230.757 172.533c-.608 1.521-1.094 4.747 1.824 5.477 3.649.913 12.769 5.478 9.121 12.781s-10.945 10.954-15.505 10.041-3.649-21.909 4.56-28.299zm6.385 18.258c0-1.461-5.473-3.652-8.209-4.565-1.459 0-1.216 4.869-.912 7.303 3.04-.304 9.121-1.278 9.121-2.738zm-568.227-88.549c-.608 1.521-1.094 4.747 1.824 5.477 3.648.913 12.769 5.477 9.121 12.78s-10.945 10.955-15.505 10.042-3.648-21.909 4.56-28.299zm6.385 18.257c0-1.46-5.473-3.651-8.209-4.564-1.459 0-1.216 4.869-.912 7.303 3.04-.304 9.121-1.278 9.121-2.739z" fill-rule="evenodd"/><path d="m58.896 93c-3.222 9.426-9.055 30.601-2.543 33.833 1.356.505 4.985 0 8.648-6.06-.339 4.881-2.83 17.252-10.174 16.159-10.174-1.515-2.035-37.367 4.069-43.932z"/><path d="m228.303 0c-3.007 9.426-8.451 30.601-2.374 33.833 1.266.505 4.653 0 8.071-6.059-.317 4.881-2.641 17.252-9.495 16.159-9.496-1.515-1.899-37.367 3.798-43.932zm357.33 92c-5.263 14.99-16.281 68.699-5.644 73.838 2.216.803 10.028-1.361 16.011-10.997-.554 7.763-6.507 28.796-18.504 27.057-16.619-2.409-1.834-79.459 8.137-89.898z"/></g><path d="m17.235 126c-13.592 37.296-30.808 124.727 0 133.898 4.972 1.48 16.673-13.206 14.498-40.353-2.133 10.088-8.924 27.513-19.029 16.508-12.63-13.756-4.53-48.607 4.531-110.053z" fill="#d9d9d9"/><g fill="#fff"><ellipse cx="327.5" cy="387" rx="12.5" ry="13"/><path d="m631.906 28.676c2.141-1.832 4.588-4.948.917-6.413-4.588-1.832-14.682 6.413-13.764 10.078.734 2.932 3.976 5.497 5.506 6.414l-5.506 6.413 1.835 1.832 20.188-15.576.918-4.581-11.93 7.33c-2.141.916-6.423 1.466-6.423-3.665s5.812-3.665 8.259-1.832zm-281-2c2.141-1.832 4.588-4.948.917-6.413-4.588-1.832-14.682 6.413-13.764 10.078.734 2.932 3.976 5.497 5.506 6.414l-5.506 6.413 1.835 1.832 20.188-15.576.918-4.581-11.93 7.33c-2.141.916-6.423 1.466-6.423-3.665s5.812-3.665 8.259-1.832zm268.715 302.441c2.748.301 8.061 1.083 7.328 1.804-.916.902-10.992 2.706-11.908 11.725s13.74 39.685 10.992 48.704l-1.447 4.508c3.853-.331 7.593-10.298-5.881-48.702-1.221-3.007 1.283-9.921 17.404-9.921.611-1.203 1.655-4.043 0-8.118-1.832-4.509-6.412-5.411-10.992-8.117-1.832 1.804-7.694 5.953-5.496 8.117zm-169.63-28.068c2.373.261 6.962.94 6.329 1.567-.791.783-9.493 2.349-10.284 10.182s11.866 34.463 9.493 42.295l-1.25 3.915c3.327-.287 6.558-8.942-5.079-42.294-1.055-2.611 1.107-8.616 15.03-8.616.528-1.044 1.43-3.51 0-7.049-1.582-3.916-5.537-4.699-9.492-7.049-1.583 1.566-6.646 5.169-4.747 7.049zm-329.991-237.661 1.826-6.388c3.347 2.13 9.495 10.039 7.304 24.641-.609-6.693-3.287-19.713-9.13-18.253zm441.872 311.207c-1.217-1.521-4.199-3.103-6.39 2.737-.305 1.217.73 3.103 7.303.913l8.217-8.214c-4.565 5.476-13.694 16.793-13.694 18.253 0 1.825-3.652 10.039 16.433 3.65l18.259-10.038c-2.13 3.954-8.947 13.506-30.128 20.077-4.26.305-10.042-1.825-7.303-15.514l.913-2.738c-4.565.608-10.226-.365-3.652-9.126 8.216-10.952 16.433-8.214 10.042 0z"/></g></svg>