<svg width="663" height="410" viewBox="0 0 663 410" fill="none" xmlns="http://www.w3.org/2000/svg">
<path d="M662 114.5L659 122.5L572.5 156L575 147L662 114.5Z" fill="white" stroke="white"/>
<path d="M302.5 148L299.818 155.133L222.5 185L224.735 176.976L302.5 148Z" fill="white" stroke="white"/>
<path d="M443 301L440 309L353.5 342.5L356 333.5L443 301Z" fill="white" stroke="white"/>
<path d="M550.5 110L544.5 122.5L527.5 111L519 128L536.5 140.5L544.5 128L560.5 139L568.5 122.5L559.5 116.25L550.5 110Z" fill="url(#paint0_linear_19_56)"/>
<path d="M563.007 58.9905L568.5 62.5C570.5 62.9 567.333 67.6667 565.5 70C563.006 68.7529 560.767 67.563 558.766 66.4297C546.744 82.8565 520.31 94.4316 505 99C516.333 92.5 541.2 77.6 550 70C552.177 68.12 553.889 66.2013 555.225 64.3301C545.997 58.5809 543.464 54.4904 545 52C559.8 28 564.5 39.1667 565 47.5C565.243 51.5085 564.505 55.3448 563.007 58.9905Z" fill="white"/>
<path d="M568.5 62.5L550.5 51C551.333 49.1666 553.7 45.7 556.5 46.5C559.3 47.3 559.667 49.8333 559.5 51C560 54.1667 558.8 62.4 550 70C541.2 77.6 516.333 92.5 505 99C525.667 92.8333 566.6 73.9 565 47.5C564.5 39.1667 559.8 28 545 52C543 55.2432 547.9 61.2 565.5 70C567.333 67.6667 570.5 62.9 568.5 62.5Z" stroke="white"/>
<path d="M199.507 22.4896L205 25.9991C207 26.3991 203.833 31.1657 202 33.4991C199.506 32.252 197.267 31.062 195.266 29.9288C183.244 46.3556 156.81 57.9307 141.5 62.4991C152.833 55.9991 177.7 41.0991 186.5 33.4991C188.677 31.6191 190.389 29.7004 191.725 27.8292C182.497 22.08 179.964 17.9895 181.5 15.4991C196.3 -8.50091 201 2.66575 201.5 10.9991C201.743 15.0076 201.005 18.8439 199.507 22.4896Z" fill="white"/>
<path d="M205 25.9991L187 14.4991C187.833 12.6657 190.2 9.19907 193 9.99907C195.8 10.7991 196.167 13.3324 196 14.4991C196.5 17.6657 195.3 25.8991 186.5 33.4991C177.7 41.0991 152.833 55.9991 141.5 62.4991C162.167 56.3324 203.1 37.3991 201.5 10.9991C201 2.66575 196.3 -8.50091 181.5 15.4991C179.5 18.7423 184.4 24.6991 202 33.4991C203.833 31.1657 207 26.3991 205 25.9991Z" stroke="white"/>
<path d="M550.5 51C553.833 47 560.1 42.4 558.5 56L550.5 51Z" fill="black"/>
<path d="M187 14.499C190.333 10.499 196.6 5.89905 195 19.499L187 14.499Z" fill="black"/>
<path d="M187 14.499C190.333 10.499 196.6 5.89905 195 19.499L187 14.499Z" fill="black"/>
<path d="M547 183.5C528 182.5 522.901 185 522.501 179C522.001 171.5 560.999 161 568 214C543.167 231 493 254.2 491 211C489.167 155.167 482.8 40.1 472 26.5C471 25.6667 468.7 29.9 467.5 53.5C473.5 91.5 483.7 178.3 476.5 221.5C437.333 261.667 354.1 323.3 334.5 248.5C333.167 240 332.2 217.8 341 203C342.167 199.5 342.5 196.2 334.5 211C324.5 229.5 320.5 307.5 375 303C418.6 299.4 461 258 476.5 238.5C483.5 227.5 483.7 210.7 482.5 227.5C481 248.5 508.406 258.143 522.501 257C541 255.5 584.5 232 574.5 193C563.333 165.667 535.4 124 513 176C509.833 184.667 509.1 202.3 531.5 203.5C540.5 203 557.7 198.5 560.5 204.5C560.501 199.667 550.5 183 547 183.5Z" fill="white"/>
<path d="M383.5 42L388.5 20.5C408.667 51 450.5 116 456.5 132C464 152 494.5 213 403.5 268C400.833 269.5 397.4 270.8 405 264L405.138 263.877C414.967 255.083 463.784 211.409 458.5 177.5C452.5 139 403.5 79 383.5 42Z" fill="white"/>
<path fill-rule="evenodd" clip-rule="evenodd" d="M305.5 111.5C323.5 65.5 380.833 85 400.5 101.5C346.9 91.1 318.5 106 313 113C320 151 356.833 162.167 371 159C375.472 159 409.833 146 426.5 139C426.5 143.8 419.5 154.333 416 159C382 173.4 329 196.5 308 206.5C332.5 222 325.5 261.5 304 261.5C286.8 261.5 274.167 240.5 270 230C264 252.4 246.833 260.5 239 261.5C214.6 261.9 207.667 244.167 207 235C205 198.6 203.833 198.5 203.5 203C199.766 219.597 185.014 226.897 180.387 229.187C179.438 229.656 178.915 229.915 179 230C179.4 230.4 178.167 238.833 177.5 243C177.5 262 126.696 302.479 86.5 315.5C51 327 15.1667 331.667 1 333.5C16.8333 327.333 62.1 308.3 116.5 281.5C170.9 254.7 174.167 236.667 169 231L163 232.5C129.8 236.5 124.5 221.833 126 214C142.8 160.4 167.667 189.667 177.5 211C195.1 202.6 200.833 193.833 201.5 190.5C203.753 138.314 198.394 110.936 194.949 93.3363C193.806 87.4975 192.874 82.735 192.5 78.5C191.162 63.3379 196.833 54.5 198.5 52C205 63.5 212 139 213.5 181.5C214.715 215.937 218.667 232.833 222.5 237C238 247.5 261 234 268 219C273.6 207 277 205.667 278 206.5C284.8 196.5 319.833 182 336.5 176C303.3 159.6 301 124.5 305.5 111.5ZM283.5 223.5C291.333 223.833 307.4 227.3 309 238.5C304 240.333 291.9 239.9 283.5 223.5ZM137.5 206.5C140.333 202.333 148.7 197.6 159.5 212C151 213.5 134.7 214.5 137.5 206.5Z" fill="white"/>
<path d="M405 264C397.4 270.8 400.833 269.5 403.5 268C494.5 213 464 152 456.5 132C450.5 116 408.667 51 388.5 20.5L383.5 42C403.5 79 452.5 139 458.5 177.5C463.784 211.409 414.967 255.083 405.138 263.877M405 264L405.138 263.877M405 264C405.045 263.96 405.091 263.918 405.138 263.877M547 183.5C528 182.5 522.901 185 522.501 179C522.001 171.5 560.999 161 568 214C543.167 231 493 254.2 491 211C489.167 155.167 482.8 40.1 472 26.5C471 25.6667 468.7 29.9 467.5 53.5C473.5 91.5 483.7 178.3 476.5 221.5C437.333 261.667 354.1 323.3 334.5 248.5C333.167 240 332.2 217.8 341 203C342.167 199.5 342.5 196.2 334.5 211C324.5 229.5 320.5 307.5 375 303C418.6 299.4 461 258 476.5 238.5C483.5 227.5 483.7 210.7 482.5 227.5C481 248.5 508.406 258.143 522.501 257C541 255.5 584.5 232 574.5 193C563.333 165.667 535.4 124 513 176C509.833 184.667 509.1 202.3 531.5 203.5C540.5 203 557.7 198.5 560.5 204.5C560.501 199.667 550.5 183 547 183.5ZM400.5 101.5C380.833 85 323.5 65.5 305.5 111.5C301 124.5 303.3 159.6 336.5 176C319.833 182 284.8 196.5 278 206.5C277 205.667 273.6 207 268 219C261 234 238 247.5 222.5 237C218.667 232.833 214.715 215.937 213.5 181.5C212 139 205 63.5 198.5 52C196.833 54.5 191.162 63.3379 192.5 78.5C192.874 82.735 193.806 87.4975 194.949 93.3363C198.394 110.936 203.753 138.314 201.5 190.5C200.833 193.833 195.1 202.6 177.5 211C167.667 189.667 142.8 160.4 126 214C124.5 221.833 129.8 236.5 163 232.5L169 231C174.167 236.667 170.9 254.7 116.5 281.5C62.1 308.3 16.8333 327.333 1 333.5C15.1667 331.667 51 327 86.5 315.5C126.696 302.479 177.5 262 177.5 243C178.167 238.833 179.4 230.4 179 230C178.915 229.915 179.438 229.656 180.387 229.187C185.014 226.897 199.766 219.597 203.5 203C203.833 198.5 205 198.6 207 235C207.667 244.167 214.6 261.9 239 261.5C246.833 260.5 264 252.4 270 230C274.167 240.5 286.8 261.5 304 261.5C325.5 261.5 332.5 222 308 206.5C329 196.5 382 173.4 416 159C419.5 154.333 426.5 143.8 426.5 139C409.833 146 375.472 159 371 159C356.833 162.167 320 151 313 113C318.5 106 346.9 91.1 400.5 101.5ZM283.5 223.5C291.333 223.833 307.4 227.3 309 238.5C304 240.333 291.9 239.9 283.5 223.5ZM137.5 206.5C140.333 202.333 148.7 197.6 159.5 212C151 213.5 134.7 214.5 137.5 206.5Z" stroke="white"/>
<path fill-rule="evenodd" clip-rule="evenodd" d="M601.64 163.467C609.14 161.467 625.84 164.767 634.64 195.967C636.807 206.134 638.14 229.867 626.14 243.467C611.14 260.467 565.14 306.967 531.14 296.967C497.14 286.967 505.14 237.967 515.14 213.467C518.14 206.467 522.34 198.867 515.14 224.467C506.14 256.467 519.14 291.467 561.14 274.467C595.14 258.967 642.64 220.967 623.64 215.467C616.64 213.967 610.14 212.967 600.14 212.467C590.145 211.967 583.716 206.979 583.14 204.467C577.64 180.467 594.64 164.967 601.64 163.467ZM598.64 182.467C607.44 181.267 614.307 189.3 616.64 193.467C609.474 194.467 594.74 195.067 593.14 189.467C591.54 183.867 596.14 182.467 598.64 182.467Z" fill="white"/>
<path d="M598.64 182.467C607.44 181.267 614.307 189.3 616.64 193.467C609.474 194.467 594.74 195.067 593.14 189.467C591.54 183.867 596.14 182.467 598.64 182.467Z" fill="black"/>
<path d="M74 61C76.3333 52.8334 81.3 37.5 82.5 41.5C84 46.5 101.5 88.5 99.5 91C97.9 93 92 85.8334 89.5 82.5C92.3333 125.833 98 214.2 98 221C98 229.5 96 269 86.5 274.5C87 258.145 87.7 223.04 86.5 213.467C85.3 203.893 80 114.5 77.5 71C77.5 69.8334 76.8 66.2 74 61Z" fill="white"/>
<path d="M291 35.5C311 33.1667 344.778 31 330 50C326.5 54.5 319.5 65.6 309.5 72C304.833 73.5 291.8 77.3 277 80.5C287.333 74.8333 309.1 62.6 313.5 59C317.9 55.4 313.667 54.5 311 54.5L276 54C278.667 47.8333 285.4 35.5 291 35.5Z" fill="white"/>
<path fill-rule="evenodd" clip-rule="evenodd" d="M601.64 163.467C609.14 161.467 625.84 164.767 634.64 195.967C636.807 206.134 638.14 229.867 626.14 243.467C611.14 260.467 565.14 306.967 531.14 296.967C497.14 286.967 505.14 237.967 515.14 213.467C518.14 206.467 522.34 198.867 515.14 224.467C506.14 256.467 519.14 291.467 561.14 274.467C595.14 258.967 642.64 220.967 623.64 215.467C616.64 213.967 610.14 212.967 600.14 212.467C590.145 211.967 583.716 206.979 583.14 204.467C577.64 180.467 594.64 164.967 601.64 163.467ZM598.64 182.467C607.44 181.267 614.307 189.3 616.64 193.467C609.474 194.467 594.74 195.067 593.14 189.467C591.54 183.867 596.14 182.467 598.64 182.467Z" stroke="white"/>
<path d="M598.64 182.467C607.44 181.267 614.307 189.3 616.64 193.467C609.474 194.467 594.74 195.067 593.14 189.467C591.54 183.867 596.14 182.467 598.64 182.467Z" stroke="white"/>
<path d="M74 61C76.3333 52.8334 81.3 37.5 82.5 41.5C84 46.5 101.5 88.5 99.5 91C97.9 93 92 85.8334 89.5 82.5C92.3333 125.833 98 214.2 98 221C98 229.5 96 269 86.5 274.5C87 258.145 87.7 223.04 86.5 213.467C85.3 203.893 80 114.5 77.5 71C77.5 69.8334 76.8 66.2 74 61Z" stroke="white"/>
<path d="M291 35.5C311 33.1667 344.778 31 330 50C326.5 54.5 319.5 65.6 309.5 72C304.833 73.5 291.8 77.3 277 80.5C287.333 74.8333 309.1 62.6 313.5 59C317.9 55.4 313.667 54.5 311 54.5L276 54C278.667 47.8333 285.4 35.5 291 35.5Z" stroke="white"/>
<path d="M455 24.0962C452.333 20.4295 446.5 15.7962 444.5 26.5962C442 40.0962 437 53.0962 435 55.0962C433 57.0962 436 36.0962 424.5 28.0962C422.333 29.7629 417 31.0962 413 23.0962C414.5 19.7629 417.9 13.3962 419.5 14.5962C423.667 15.4295 432.8 21.4962 436 39.0962C436.5 41.0962 438.2 40.5962 441 22.5962C443.8 4.59619 453.5 9.76287 458 14.5962L455 24.0962Z" fill="white"/>
<path d="M413.5 214.596C423.5 206.93 441 188.596 428.5 182.096C425.5 181.096 418.7 182.334 417.5 192.451C426.259 189.992 437.05 191.832 413.5 214.596Z" fill="white"/>
<path d="M392 203.596C389.086 205.873 385.562 208.958 382 212.505C379.043 215.45 376.059 218.713 373.375 222.096C367.458 229.555 363 237.596 363.5 244.096C362.5 249.596 367.7 259.796 388.5 252.596C393.167 250.43 402.8 245.496 404 243.096C392.833 246.43 369.8 250.896 367 242.096C364.2 233.296 380.833 220.096 389.5 214.596L392 203.596Z" fill="white"/>
<path d="M380.5 204.596C382.833 202.166 386.4 196.334 382 192.451C376.5 194.832 365.1 202.496 363.5 214.096C363.917 215.93 366.475 220.096 373.375 222.096C376.059 218.713 379.043 215.45 382 212.505C378.167 212.536 370.5 211.696 370.5 208.096C370.5 203.596 377.562 198.096 380.5 204.596Z" fill="white"/>
<path fill-rule="evenodd" clip-rule="evenodd" d="M259 265.096C263.833 258.763 273.8 251.596 275 273.596C275.167 277.596 273 284.396 263 279.596L256 274.596C255.333 273.596 253.9 273.196 253.5 279.596C253 287.596 225.5 306.096 220.5 307.596C215.5 309.096 208.5 311.096 180.5 317.096C204 308.096 251.5 286.196 253.5 270.596C254.3 270.596 257.5 266.93 259 265.096ZM260.5 269.096C263.667 266.596 270.4 263.996 272 273.596C270.5 273.93 266.1 273.496 260.5 269.096Z" fill="white"/>
<path d="M417 192.596C417.166 192.546 417.333 192.498 417.5 192.451M417.5 192.451C426.259 189.992 437.05 191.832 413.5 214.596C423.5 206.93 441 188.596 428.5 182.096C425.5 181.096 418.7 182.334 417.5 192.451ZM373.375 222.096C367.458 229.555 363 237.596 363.5 244.096C362.5 249.596 367.7 259.796 388.5 252.596C393.167 250.43 402.8 245.496 404 243.096C392.833 246.43 369.8 250.896 367 242.096C364.2 233.296 380.833 220.096 389.5 214.596L392 203.596C389.086 205.873 385.562 208.958 382 212.505M373.375 222.096C366.475 220.096 363.917 215.93 363.5 214.096C365.1 202.496 376.5 194.832 382 192.451C386.4 196.334 382.833 202.166 380.5 204.596C377.562 198.096 370.5 203.596 370.5 208.096C370.5 211.696 378.167 212.536 382 212.505M373.375 222.096C376.059 218.713 379.043 215.45 382 212.505M455 24.0962C452.333 20.4295 446.5 15.7962 444.5 26.5962C442 40.0962 437 53.0962 435 55.0962C433 57.0962 436 36.0962 424.5 28.0962C422.333 29.7629 417 31.0962 413 23.0962C414.5 19.7629 417.9 13.3962 419.5 14.5962C423.667 15.4295 432.8 21.4962 436 39.0962C436.5 41.0962 438.2 40.5962 441 22.5962C443.8 4.59619 453.5 9.76287 458 14.5962L455 24.0962ZM259 265.096C263.833 258.763 273.8 251.596 275 273.596C275.167 277.596 273 284.396 263 279.596L256 274.596C255.333 273.596 253.9 273.196 253.5 279.596C253 287.596 225.5 306.096 220.5 307.596C215.5 309.096 208.5 311.096 180.5 317.096C204 308.096 251.5 286.196 253.5 270.596C254.3 270.596 257.5 266.93 259 265.096ZM260.5 269.096C263.667 266.596 270.4 263.996 272 273.596C270.5 273.93 266.1 273.496 260.5 269.096Z" stroke="white"/>
<path d="M251 94.5C247.833 103.833 242.1 124.8 248.5 128C249.833 128.5 253.4 128 257 122C256.667 126.833 254.218 139.083 247 138C237 136.5 245 101 251 94.5Z" fill="white" stroke="white"/>
<path d="M193.244 244C190.077 253.333 184.344 274.3 190.744 277.5C192.077 278 195.644 277.5 199.244 271.5C198.911 276.333 196.463 288.583 189.244 287.5C179.244 286 187.244 250.5 193.244 244Z" fill="white" stroke="white"/>
<path d="M133.5 94.5L137 88C141.333 90.6667 152.5 99 148 127C146 133.5 137.5 156.5 145.5 158.5C146.5 158.5 149.2 157.2 152 152C151.667 156.167 149.4 164.9 143 166.5C135 168.5 142 139 145.5 128C147 120.5 147.1 106.1 133.5 94.5Z" fill="white" stroke="white"/>
<path d="M40.8457 385.321V399C40.8457 401.89 38.4723 403.335 33.7256 403.335C28.7393 403.335 26.2461 401.89 26.2461 399V385.321H31.8613V397.113C31.8613 398.745 32.4154 399.562 33.5234 399.562C34.6615 399.562 35.2305 398.745 35.2305 397.113V385.321H40.8457ZM35.7246 381.323C35.7246 381.892 35.5075 382.386 35.0732 382.806C34.639 383.225 34.1374 383.435 33.5684 383.435C32.9844 383.435 32.4753 383.232 32.041 382.828C31.6068 382.409 31.3896 381.907 31.3896 381.323C31.3896 380.724 31.5993 380.223 32.0186 379.818C32.4528 379.399 32.9694 379.189 33.5684 379.189C34.1673 379.189 34.6764 379.399 35.0957 379.818C35.515 380.223 35.7246 380.724 35.7246 381.323ZM63.3965 393.385V399H59.8926V402.773C59.668 404.061 58.3952 404.765 56.0742 404.885L52.6152 401.965C53.7233 401.875 54.2773 400.887 54.2773 399H49.7852C46.7904 399 45.293 397.57 45.293 394.71V389.252C45.293 386.018 47.4193 384.4 51.6719 384.4H59.8926V393.385H63.3965ZM54.2773 395.631V388.331C52.0312 388.331 50.9082 388.96 50.9082 390.218V393.34C50.9082 394.867 52.0312 395.631 54.2773 395.631ZM77.0977 385.276V393.385H80.4668V399H63.3965V393.385H71.4824V385.276H77.0977ZM70.1797 381.323C70.1797 381.892 69.9626 382.386 69.5283 382.806C69.0941 383.225 68.5924 383.435 68.0234 383.435C67.4395 383.435 66.9303 383.232 66.4961 382.828C66.0618 382.409 65.8447 381.907 65.8447 381.323C65.8447 380.724 66.0544 380.223 66.4736 379.818C66.9079 379.399 67.4245 379.189 68.0234 379.189C68.6224 379.189 69.1315 379.399 69.5508 379.818C69.9701 380.223 70.1797 380.724 70.1797 381.323ZM92.8203 395.631C92.8203 394.133 92.2588 393.385 91.1357 393.385C90.0127 393.385 89.4512 394.133 89.4512 395.631V396.754C89.4512 398.251 90.0127 399 91.1357 399C92.2588 399 92.8203 398.251 92.8203 396.754V395.631ZM84.1729 393.385C84.9964 390.39 87.3174 388.893 91.1357 388.893C96.0023 388.893 98.4355 391.326 98.4355 396.192C98.4355 401.059 96.0023 403.492 91.1357 403.492C87.3174 403.492 84.9964 401.995 84.1729 399H80.4668V393.385H84.1729ZM120.762 393.385V399H117.258V402.773C117.033 404.061 115.76 404.765 113.439 404.885L109.98 401.965C111.089 401.875 111.643 400.887 111.643 399H107.15C104.156 399 102.658 397.57 102.658 394.71V390.375C102.658 387.141 104.785 385.523 109.037 385.523H117.258V393.385H120.762ZM111.643 395.631V389.454C109.396 389.454 108.273 390.083 108.273 391.341V393.34C108.273 394.867 109.396 395.631 111.643 395.631ZM113.439 378.066V379.841H110.879C110.759 379.841 110.654 379.908 110.564 380.043C110.49 380.178 110.452 380.32 110.452 380.47C110.452 380.754 110.535 381.024 110.699 381.278C110.894 381.578 111.118 381.728 111.373 381.728H113.439V383.502H107.981V381.728H109.284C108.67 381.353 108.363 380.747 108.363 379.908C108.363 379.429 108.513 379.002 108.812 378.628C109.127 378.254 109.524 378.066 110.003 378.066H113.439ZM133.115 395.631C133.115 394.133 132.554 393.385 131.431 393.385C130.308 393.385 129.746 394.133 129.746 395.631V396.754C129.746 398.251 130.308 399 131.431 399C132.554 399 133.115 398.251 133.115 396.754V395.631ZM141.695 393.385V399H138.394C137.57 401.995 135.249 403.492 131.431 403.492C127.612 403.492 125.291 401.995 124.468 399H120.762V393.385H124.468C125.291 390.39 127.612 388.893 131.431 388.893C135.249 388.893 137.57 390.39 138.394 393.385H141.695ZM145.064 393.385V372.047H150.68V399H141.695V393.385H145.064ZM160.787 399H155.172V372.047H160.787V399ZM179.834 402.773C179.609 404.061 178.337 404.765 176.016 404.885L172.557 401.965C173.665 401.875 174.219 400.887 174.219 399H169.727C166.732 399 165.234 397.57 165.234 394.71V389.252C165.234 386.018 167.361 384.4 171.613 384.4H179.834V402.773ZM174.219 395.631V388.331C171.973 388.331 170.85 388.96 170.85 390.218V393.34C170.85 394.867 171.973 395.631 174.219 395.631ZM217.074 393.385V399H203.463C200.468 399 198.971 397.57 198.971 394.71V389.252C198.971 386.018 201.097 384.4 205.35 384.4H213.57V393.385H217.074ZM207.955 395.631V388.331C205.709 388.331 204.586 388.96 204.586 390.218V393.34C204.586 394.867 205.709 395.631 207.955 395.631ZM220.443 393.385V372.047H226.059V399H217.074V393.385H220.443ZM248.654 393.385V399H245.15V402.773C244.926 404.061 243.653 404.765 241.332 404.885L237.873 401.965C238.981 401.875 239.535 400.887 239.535 399H235.043C232.048 399 230.551 397.57 230.551 394.71V389.252C230.551 386.018 232.677 384.4 236.93 384.4H245.15V393.385H248.654ZM239.535 395.631V388.331C237.289 388.331 236.166 388.96 236.166 390.218V393.34C236.166 394.867 237.289 395.631 239.535 395.631ZM276.281 399H248.654V393.385H252.697V385.321H258.312V393.385H261.682V385.321H267.297V393.385H270.666V385.321H276.281V399ZM286.883 402.773C286.658 404.061 285.385 404.765 283.064 404.885L279.605 401.965C280.714 401.875 281.268 400.887 281.268 399V385.523H286.883V402.773ZM306.109 402.773C305.885 404.061 304.612 404.765 302.291 404.885L298.832 401.965C299.94 401.875 300.494 400.887 300.494 399H296.002C293.007 399 291.51 397.57 291.51 394.71V389.252C291.51 386.018 293.636 384.4 297.889 384.4H306.109V402.773ZM300.494 395.631V388.331C298.248 388.331 297.125 388.96 297.125 390.218V393.34C297.125 394.867 298.248 395.631 300.494 395.631ZM332.523 388.331V395.631C334.74 395.616 335.848 394.852 335.848 393.34V390.218C335.848 388.96 334.74 388.331 332.523 388.331ZM344.787 399H341.373V395.833C341.014 397.944 339.546 399 336.971 399H332.523V402.1C332.299 403.837 331.026 404.765 328.705 404.885L325.246 401.965C326.354 401.875 326.908 400.887 326.908 399H326.863V384.4H335.084C339.337 384.4 341.463 386.018 341.463 389.252V393.385H344.787V399ZM381.623 399H378.209V394.485C377.49 397.495 375.334 399 371.74 399H344.787V393.385H373.088C374.436 393.385 375.109 392.793 375.109 391.61C375.109 390.547 374.436 390.016 373.088 390.016H349.324V384.4L357.5 376.674H365.406L357.051 384.4H371.74C376.232 384.4 378.479 386.916 378.479 391.947C378.479 392.456 378.456 392.936 378.411 393.385H381.623V399ZM393.977 399H381.623V393.385H384.992V372.047H390.607V393.385H393.977V399ZM406.33 395.631C406.33 394.133 405.769 393.385 404.646 393.385C403.522 393.385 402.961 394.133 402.961 395.631V396.754C402.961 398.251 403.522 399 404.646 399C405.769 399 406.33 398.251 406.33 396.754V395.631ZM414.91 393.385V399H411.608C410.785 401.995 408.464 403.492 404.646 403.492C400.827 403.492 398.506 401.995 397.683 399H393.977V393.385H397.683C398.506 390.39 400.827 388.893 404.646 388.893C408.464 388.893 410.785 390.39 411.608 393.385H414.91ZM424.973 393.385H434.586L437.281 399H414.91V393.385H419.357V386.287C419.357 383.397 421.731 381.952 426.478 381.952C431.464 381.952 433.957 383.397 433.957 386.287V390.083H428.342V388.174C428.342 386.542 427.788 385.726 426.68 385.726C425.542 385.726 424.973 386.542 424.973 388.174V393.385ZM465.402 388.331C463.156 388.331 462.033 388.96 462.033 390.218V393.34C462.033 394.867 463.156 395.631 465.402 395.631V388.331ZM489.436 393.385V378.561H495.051V399H460.91C457.915 399 456.418 397.57 456.418 394.71V389.252C456.418 386.018 458.544 384.4 462.797 384.4H471.018V393.385H477.531V378.561H483.146V393.385H489.436ZM475.465 376.651V372.384H477.307V374.989H479.081V372.384H480.923V374.989H482.518V372.384H484.382V376.651H475.465ZM505.158 399H499.543V372.047H505.158V399ZM533.324 377.011C533.324 374.121 535.698 372.676 540.444 372.676C545.431 372.676 547.924 374.121 547.924 377.011V380.807H542.309V378.897C542.309 377.265 541.755 376.449 540.646 376.449C539.508 376.449 538.939 377.265 538.939 378.897V384.4H544.465C548.957 384.4 551.203 386.916 551.203 391.947C551.203 396.649 548.957 399 544.465 399H527.754L524.25 393.385H545.812C547.16 393.385 547.834 392.793 547.834 391.61C547.834 390.547 547.16 390.016 545.812 390.016H533.324V377.011ZM566.477 393.385V399H562.973V402.773C562.748 404.061 561.475 404.765 559.154 404.885L555.695 401.965C556.803 401.875 557.357 400.887 557.357 399V385.523H562.973V393.385H566.477ZM580.178 385.276V393.385H583.547V399H566.477V393.385H574.562V385.276H580.178ZM571.351 403.604C571.351 404.174 571.133 404.668 570.699 405.087C570.265 405.506 569.763 405.716 569.194 405.716C568.61 405.716 568.101 405.506 567.667 405.087C567.233 404.683 567.016 404.188 567.016 403.604C567.016 403.006 567.225 402.496 567.645 402.077C568.079 401.673 568.595 401.471 569.194 401.471C569.793 401.471 570.302 401.673 570.722 402.077C571.141 402.496 571.351 403.006 571.351 403.604ZM576.517 403.604C576.517 404.174 576.299 404.668 575.865 405.087C575.431 405.506 574.929 405.716 574.36 405.716C573.776 405.716 573.267 405.506 572.833 405.087C572.399 404.683 572.182 404.188 572.182 403.604C572.182 403.006 572.391 402.496 572.811 402.077C573.245 401.673 573.761 401.471 574.36 401.471C574.959 401.471 575.468 401.673 575.888 402.077C576.307 402.496 576.517 403.006 576.517 403.604ZM611.174 393.385H614.543V399H583.547V393.385H587.59V385.321H593.205V393.385H596.574V385.321H602.189V393.385H605.559V385.321H611.174V393.385ZM628.851 373.013C628.851 373.582 628.633 374.076 628.199 374.495C627.765 374.914 627.263 375.124 626.694 375.124C626.11 375.124 625.601 374.922 625.167 374.518C624.733 374.098 624.516 373.597 624.516 373.013C624.516 372.414 624.725 371.912 625.145 371.508C625.579 371.089 626.095 370.879 626.694 370.879C627.293 370.879 627.802 371.089 628.222 371.508C628.641 371.912 628.851 372.414 628.851 373.013ZM633.635 399H614.543V393.385H628.02V390.645H623.527C620.533 390.645 619.035 389.215 619.035 386.354V381.795C619.035 378.561 621.161 376.943 625.414 376.943H633.635V399ZM628.02 387.275V380.874C625.773 380.874 624.65 381.503 624.65 382.761V384.984C624.65 386.512 625.773 387.275 628.02 387.275Z" fill="url(#paint1_linear_19_56)"/>
<defs>
<linearGradient id="paint0_linear_19_56" x1="543.75" y1="110" x2="543.75" y2="140.5" gradientUnits="userSpaceOnUse">
<stop stop-color="#F3E07B"/>
<stop offset="1" stop-color="#BC6317"/>
</linearGradient>
<linearGradient id="paint1_linear_19_56" x1="24" y1="383" x2="636" y2="383" gradientUnits="userSpaceOnUse">
<stop stop-color="#EBCB6A"/>
<stop offset="1" stop-color="#BC6317"/>
</linearGradient>
</defs>
</svg>
