<svg fill="none" height="2400" viewBox="0 0 1080 2400" width="1080" xmlns="http://www.w3.org/2000/svg" xmlns:xlink="http://www.w3.org/1999/xlink"><linearGradient id="a"><stop offset="0" stop-color="#f3e07b"/><stop offset="1" stop-color="#bc6317"/></linearGradient><linearGradient id="b" gradientUnits="userSpaceOnUse" x1="796.244" x2="792.887" xlink:href="#a" y1="1121.72" y2="1163.06"/><linearGradient id="c" gradientUnits="userSpaceOnUse" x1="625.251" x2="621.894" xlink:href="#a" y1="1246.03" y2="1287.37"/><linearGradient id="d" gradientUnits="userSpaceOnUse" x1="364" x2="364" xlink:href="#a" y1="917" y2="995.5"/><linearGradient id="e" gradientUnits="userSpaceOnUse" x1="340" x2="340" xlink:href="#a" y1="1390.5" y2="1469"/><path d="m0 0h1080v2400h-1080z" fill="#000"/><path d="m708.5 1194.5-9 27.5c10 17.67 30.1 51.6 30.5 46s-14.167-51.33-21.5-73.5z" fill="#fff" stroke="#fff"/><path d="m702 1221.5c5.667 110.17 14.6 335.7 5 356.5 6.167-.67 19.972-23.11 18.5-107.5-1.5-86-9.667-198.83-14.5-245.5z" fill="#fff" stroke="#fff"/><path d="m749.5 1198.5c9.667-15 33.7-35.1 52.5 4.5 23.5 49.5 15 81-43 98s-156 33.5-193.5-14.5c-8-12-23.6-45.9-20-119.5s3.5-196 3-248c0-41.833-2.6-129-13-143l11-33c5 20 15.2 72.8 16 124s-3 251.33-5 345c-2.167 28.33 15.8 84.4 105 82 111.5-3 176.5-33.5 127.5-52.5l-36.5-3c-6.167-6.17-15.6-22.8-4-40z" fill="#fff" stroke="#fff"/><path d="m762 1204c-13.2 9.2 2.5 11.5 12 11.5 11.084 1.6 9.618-2.67 7.5-5-7.6-9.2-16.167-8.17-19.5-6.5z" fill="#000" stroke="#fff"/><path d="m662.782 852.953c-5.561-8.06-12.701-19.634-18.328-29.053 2.05 13.154 4.452 43.934 5.546 107.1 1.5 25.333 3.6 77.2 0 82s1.167 1 4-1.5c3.667-3.17 11.3-17.1 12.5-47.5 1.5-38-9.5-91-8-98 1.11-5.182.577-13.926 4.282-13.047z" fill="#fff"/><path d="m652 788-12.5 27.5c1.414 2.432 3.102 5.299 4.954 8.4-.536-3.445-1.049-5.681-1.507-6.973-.322-.485-.638-.961-.947-1.427.275 0 .595.436.947 1.427 12.335 18.614 33.35 50.819 25.553 41.073-2.597-3.246-4.418-4.739-5.718-5.047 3.398 4.925 6.206 8.539 7.718 9.547 4.8 3.2-10.333-48.333-18.5-74.5z" fill="#fff"/><path d="m644.454 823.9c5.627 9.419 12.767 20.993 18.328 29.053 1.3.308 3.121 1.801 5.718 5.047 7.797 9.746-13.218-22.459-25.553-41.073.458 1.292.971 3.528 1.507 6.973z" fill="#fff"/><path d="m662.782 852.953c-5.561-8.06-12.701-19.634-18.328-29.053m18.328 29.053c-3.705-.879-3.172 7.865-4.282 13.047-1.5 7 9.5 60 8 98-1.2 30.4-8.833 44.33-12.5 47.5-2.833 2.5-7.6 6.3-4 1.5s1.5-56.667 0-82c-1.094-63.166-3.496-93.946-5.546-107.1m18.328 29.053c1.3.308 3.121 1.801 5.718 5.047 7.797 9.746-13.218-22.459-25.553-41.073m19.835 36.026c3.398 4.925 6.206 8.539 7.718 9.547 4.8 3.2-10.333-48.333-18.5-74.5l-12.5 27.5c1.414 2.432 3.102 5.299 4.954 8.4m0 0c-.536-3.445-1.049-5.681-1.507-6.973m0 0c-.322-.485-.638-.961-.947-1.427.275 0 .595.436.947 1.427z" stroke="#fff"/><path clip-rule="evenodd" d="m613.5 1065c25.667-33.5 84.3-99.3 113.5-94.5 36.5 6 51.5 27.5 38.5 57s-94.5 66-225 63c-39 0-105.9-10.4-107.5-88-2-97 3.5-133-12.5-186l9-29.5c6.833 21.833 19.7 79.1 16.5 133.5-4 68-3.5 123.47 44.5 137.5 11.5 3.36 35.5 14 123 7zm144-44c-36-61.6-99.333.33-126.5 39-4.104 5.6 34.957-2.33 55-7 64.8-17.6 74.667-28.67 71.5-32z" fill="#fff" fill-rule="evenodd" stroke="#fff"/><path d="m582 854c-18.5-17.333-65.7-41.6-106.5 0-7 7.333-17.7 29.9-4.5 61.5 4.5 9.5 21.4 30.6 53 39 2.334.833 5.1 3.8-2.5 9-3.66 2.505-12.815 11.32-22.915 25.387 3.804 2.017 7.496 3.398 11.04 4.379 20.656-22.198 55.935-50.385 118.875-83.766l8.5-24c-23.667 15.333-72.1 46.1-76.5 46.5-5.5.5-73.5 3.5-85-56.5-.666-2 1.5-7.8 15.5-15 17.5-9 44.5-19.5 91-6.5z" fill="#fff"/><path d="m471 962c-17-25.5-14.5-50.5-44.5-18s-31.5 77-57.5 81-40.5-65-35-86c-1-1.5-3.3-1.9-4.5 8.5-1.5 13 2.5 92 39.5 97.5 5.44.81 14.1-5.9 22.5-23.5 8.5-22.5 32-67 58-65 1.333.667 4.8 4.3 8 13.5 2.656 7.634 11.701 25.404 29.037 37.8 3.978-7.07 8.086-13.394 12.048-18.913-8.748-4.639-18.088-12.643-27.585-26.887z" fill="#fff"/><path d="m509.625 993.266c-3.544-.981-7.236-2.362-11.04-4.379-3.962 5.519-8.07 11.843-12.048 18.913 2.339 1.68 4.828 3.25 7.474 4.69 4.018-5.79 9.086-12.21 15.614-19.224z" fill="#fff"/><path d="m461.5 1092c-.333 40.83 21.7 117.5 112.5 97.5 8.342-2.39 19.564-6.76 31.598-13.31 6.25-3.4 12.718-7.4 19.115-12.01 14.435-10.4 28.509-23.95 38.894-40.98 4.262-6.99 7.903-14.57 10.692-22.76.608-1.78 1.176-3.6 1.701-5.44 7.667-30.83 7.2-92.7-56-93.5-79-1-88.5-4.5-102-6.5-2.68-.397-5.478-.932-8.375-1.734-6.528 7.014-11.596 13.434-15.614 19.224 7.284 3.97 15.748 6.9 25.489 8.01 34 1.67 104.4 5.6 114 8 12 3 48 23 37 66.5-.417 1.65-.942 3.28-1.566 4.9-3.078 7.96-8.567 15.46-15.464 22.37-11.9 11.93-27.994 22.11-43.133 29.89-8.296 4.26-16.305 7.8-23.182 10.52-10.659 4.22-18.596 6.46-20.655 6.32-7.5-.5-56 8.5-82-36.5s-14.5-73-5.5-92.5c2.964-6.42 6.795-15.66 15.011-27.51-2.646-1.44-5.135-3.01-7.474-4.69-12.199 21.69-23.183 50.36-25.037 84.2z" fill="#fff"/><path d="m674.299 1100.44c-2.789 8.19-6.43 15.77-10.692 22.76 18.881 1.81 37.25 4.1 49.393 5.8 6 .17 15.2 1.7 4 6.5-10.5 4.5-46.029 21.94-78.957 45.77 2.545 4.48 4.288 8.8 5.407 12.84 3.084-1.62 6.267-3.16 9.55-4.61 23-12.17 76.6-39.4 107-51l8.5-25c-24.218-4.15-60.125-9.51-94.201-13.06z" fill="#fff"/><path d="m653.47 1122.27c6.897-6.91 12.386-14.41 15.464-22.37-40.538-4.02-77.428-5.21-87.434 1.6-18.8 12.8-16.5 34-13 43 2.508 3.93 8.357 10.01 18.655 18.18 6.877-2.72 14.886-6.26 23.182-10.52-3.593-2.57-7.529-5.13-11.837-7.66-3.667-2.5-11.8-7.8-15-9-4-1.5-14-10.5 15-14.5 11.549-1.59 32.911-.61 54.97 1.27z" fill="#fff"/><path d="m610.5 1179.5c6.034 4.02 10.819 7.89 14.664 11.56 4.204-3.37 8.519-6.63 12.879-9.79-3.124-5.5-7.458-11.26-13.33-17.09-6.397 4.61-12.865 8.61-19.115 12.01 1.578 1.08 3.211 2.18 4.902 3.31z" fill="#fff"/><path d="m643.45 1194.11c-1.119-4.04-2.862-8.36-5.407-12.84-4.36 3.16-8.675 6.42-12.879 9.79 3.308 3.15 5.92 6.15 8.032 8.96 3.287-2.07 6.705-4.05 10.254-5.91z" fill="#fff"/><path d="m643 1217.5c2.168-5.08 3.218-13.4.45-23.39-3.549 1.86-6.967 3.84-10.254 5.91 5.511 7.34 7.617 13.38 9.804 17.48z" fill="#fff"/><path d="m607 1207c-2.645 2.98-5.882 6.99-9.404 11.83 3.47.51 6.924 1.01 10.35 1.47 7.342-7.44 15.752-14.28 25.25-20.28-2.112-2.81-4.724-5.81-8.032-8.96-6.382 5.11-12.512 10.44-18.164 15.94z" fill="#fff"/><path d="m584.592 1238.79c2.367.41 4.771.82 7.212 1.21 4.649-6.89 10.025-13.5 16.142-19.7-3.426-.46-6.88-.96-10.35-1.47-4.109 5.64-8.606 12.4-13.004 19.96z" fill="#fff"/><path d="m561.5 1301.5c-6.5 50.5 12.5 140.5 116.5 110.5 38.5-12.33 111.7-57.9 96.5-141.5-1.833-17.17-13.5-43.5-111-44.5-16.196-1.09-35.403-2.96-55.554-5.7-6.117 6.2-11.493 12.81-16.142 19.7 27.537 4.48 59.849 8.07 97.696 10 34.333-.83 97.7 12.9 76.5 74.5-12.667 24.67-56.3 72.9-129.5 68.5-68.983-4.15-87.096-90.14-44.696-153-2.441-.39-4.845-.8-7.212-1.21-10.365 17.83-20.184 40.12-23.092 62.71z" fill="#fff"/><path d="m450 1148.5c-6.5 11-15.1 39 4.5 49l.111.06c17.68 9.02 55.512 28.32 129.981 41.23 4.398-7.56 8.895-14.32 13.004-19.96-70.012-10.42-146.999-31.23-147.596-65.83z" fill="#fff"/><path d="m498.585 988.887c10.1-14.067 19.255-22.882 22.915-25.387 7.6-5.2 4.834-8.167 2.5-9-31.6-8.4-48.5-29.5-53-39-13.2-31.6-2.5-54.167 4.5-61.5 40.8-41.6 88-17.333 106.5 0-46.5-13-73.5-2.5-91 6.5-14 7.2-16.166 13-15.5 15 11.5 60 79.5 57 85 56.5 4.4-.4 52.833-31.167 76.5-46.5l-8.5 24c-62.94 33.381-98.219 61.568-118.875 83.766m-11.04-4.379c3.804 2.017 7.496 3.398 11.04 4.379m-11.04-4.379c-8.748-4.639-18.088-12.643-27.585-26.887-17-25.5-14.5-50.5-44.5-18s-31.5 77-57.5 81-40.5-65-35-86c-1-1.5-3.3-1.9-4.5 8.5-1.5 13 2.5 92 39.5 97.5 5.44.81 14.1-5.9 22.5-23.5 8.5-22.5 32-67 58-65 1.333.667 4.8 4.3 8 13.5 2.656 7.634 11.701 25.404 29.037 37.8m12.048-18.913c-3.962 5.519-8.07 11.843-12.048 18.913m23.088-14.534c2.897.802 5.695 1.337 8.375 1.734 13.5 2 23 5.5 102 6.5 63.2.8 63.667 62.67 56 93.5-.525 1.84-1.093 3.66-1.701 5.44m-164.674-107.174c-6.528 7.014-11.596 13.434-15.614 19.224m-7.474-4.69c-12.199 21.69-23.183 50.36-25.037 84.2-.333 40.83 21.7 117.5 112.5 97.5 8.342-2.39 19.564-6.76 31.598-13.31m-119.061-168.39c2.339 1.68 4.828 3.25 7.474 4.69m0 0c7.284 3.97 15.748 6.9 25.489 8.01 34 1.67 104.4 5.6 114 8 12 3 48 23 37 66.5-.417 1.65-.942 3.28-1.566 4.9m-174.923-87.41c-8.216 11.85-12.047 21.09-15.011 27.51-9 19.5-20.5 47.5 5.5 92.5s74.5 36 82 36.5c2.059.14 9.996-2.1 20.655-6.32m-132.655 34.82c-19.6-10-11-38-4.5-49v4.5c.597 34.6 77.584 55.41 147.596 65.83m-143.096-21.33.111.06m-.111-.06.111.06m219.688-97.12c-2.789 8.19-6.43 15.77-10.692 22.76m10.692-22.76c34.076 3.55 69.983 8.91 94.201 13.06l-8.5 25c-30.4 11.6-84 38.83-107 51-3.283 1.45-6.466 2.99-9.55 4.61m30.849-93.67c-1.794-.18-3.583-.37-5.365-.54m-5.327 23.3c18.881 1.81 37.25 4.1 49.393 5.8 6 .17 15.2 1.7 4 6.5-10.5 4.5-46.029 21.94-78.957 45.77m25.564-58.07c-3.373-.33-6.763-.64-10.137-.93m10.137.93c-10.385 17.03-24.459 30.58-38.894 40.98m13.33 17.09c2.545 4.48 4.288 8.8 5.407 12.84m-5.407-12.84c-4.36 3.16-8.675 6.42-12.879 9.79m12.879-9.79c-3.124-5.5-7.458-11.26-13.33-17.09m18.737 29.93c2.768 9.99 1.718 18.31-.45 23.39-2.187-4.1-4.293-10.14-9.804-17.48m10.254-5.91c-3.549 1.86-6.967 3.84-10.254 5.91m20.274-77.75c6.897-6.91 12.386-14.41 15.464-22.37m-15.464 22.37c-22.059-1.88-43.421-2.86-54.97-1.27-29 4-19 13-15 14.5 3.2 1.2 11.333 6.5 15 9 4.308 2.53 8.244 5.09 11.837 7.66m43.133-29.89c-11.9 11.93-27.994 22.11-43.133 29.89m58.597-52.26c-40.538-4.02-77.428-5.21-87.434 1.6-18.8 12.8-16.5 34-13 43 2.508 3.93 8.357 10.01 18.655 18.18m0 0c6.877-2.72 14.886-6.26 23.182-10.52m-23.182 10.52c5.039 4 11.144 8.51 18.443 13.51m4.739-24.03c5.588 3.99 10.345 8.02 14.376 12.02m.451 26.88c-3.845-3.67-8.63-7.54-14.664-11.56-1.691-1.13-3.324-2.23-4.902-3.31m19.566 14.87c-6.382 5.11-12.512 10.44-18.164 15.94-2.645 2.98-5.882 6.99-9.404 11.83m27.568-27.77c3.308 3.15 5.92 6.15 8.032 8.96m-8.483-35.84c-6.397 4.61-12.865 8.61-19.115 12.01m27.598 23.83c-9.498 6-17.908 12.84-25.25 20.28m-10.35-1.47c3.47.51 6.924 1.01 10.35 1.47m-10.35-1.47c-4.109 5.64-8.606 12.4-13.004 19.96m23.354-18.49c20.151 2.74 39.358 4.61 55.554 5.7 97.5 1 109.167 27.33 111 44.5 15.2 83.6-58 129.17-96.5 141.5-104 30-123-60-116.5-110.5 2.908-22.59 12.727-44.88 23.092-62.71m23.354-18.49c-6.117 6.2-11.493 12.81-16.142 19.7m-7.212-1.21c2.367.41 4.771.82 7.212 1.21m-7.212-1.21c-74.469-12.91-112.301-32.21-129.981-41.23m137.193 42.44c-42.4 62.86-24.287 148.85 44.696 153 73.2 4.4 116.833-43.83 129.5-68.5 21.2-61.6-42.167-75.33-76.5-74.5-37.847-1.93-70.159-5.52-97.696-10z" stroke="#fff"/><path clip-rule="evenodd" d="m586.095 1616.62c-8.295 4.27-16.305 7.81-23.181 10.53 5.039 4 11.143 8.51 18.443 13.51 6.249-3.41 12.718-7.4 19.115-12.01 14.435-10.4 28.509-23.95 38.894-40.98 4.262-6.99 7.903-14.57 10.692-22.76 0 0-3.583-.37-5.365-.54-3.078 7.96-8.567 15.46-15.464 22.37-11.901 11.93-27.994 22.1-43.134 29.88z" fill="#fff" fill-rule="evenodd"/><path d="m557.759 1318.47c-18.5-17.33-65.7-41.6-106.5 0-7 7.33-17.7 29.9-4.5 61.5 4.5 9.5 21.4 30.6 53 39 2.333.83 6.341 4.33-1.259 9.53-3.661 2.5-16.9 18.93-27 33 2.771 1.21 7.085 2.24 11.216 3.03 12.175-15.19 27.991-31.26 46.784-43.53 47.5-31 71.017-47.03 74.759-47.03l8.5-24c-23.667 15.33-72.1 46.1-76.5 46.5-5.5.5-73.5 3.5-85-56.5-.667-2 1.5-7.8 15.5-15 17.5-9 44.5-19.5 91-6.5z" fill="#fff"/><path d="m651.759 1559.47c7.666-30.83 11.913-87.17-51.287-87.97-79-1-94.972-3.53-108.472-5.53-2.18-.25-5.662-.75-9.284-1.44-5.977 7.46-11.077 14.7-15.22 21.17 6.645 2.35 14.139 3.77 22.504 3.77 34 1.67 111.9 3.63 121.5 6.03 12 3 45.759 20.47 34.759 63.97-.418 1.65-.943 3.28-1.566 4.9 1.782.17 5.365.54 5.365.54.608-1.78 1.176-3.6 1.701-5.44z" fill="#fff"/><path d="m471.5 1461.5c-4.338 6.86-8.158 13.92-11.515 21 2.37 1.19 4.874 2.27 7.511 3.2 4.143-6.47 9.243-13.71 15.22-21.17-4.131-.79-8.445-1.82-11.216-3.03z" fill="#fff"/><path d="m442.185 1441.97c-17-25.5-13.501-41.97-44.501-18-34.989 27.05-30.684 76.53-56.684 80.53s-37-54.53-35.816-85.53c-1-1.5-3.3.63-4.5 11.03-1.5 13 2.5 92 39.5 97.5 5.441.81 14.1-8.43 22.5-26.03 8.5-22.5 32-67 58-65 1.334.67 4.8 4.3 8 13.5 3.674 8.89 13.934 23.79 31.301 32.53 3.357-7.08 7.177-14.14 11.515-21-8.748-4.64-19.819-5.29-29.315-19.53z" fill="#fff"/><path d="m437.5 1573c-.333 40.83 21.459 100.97 112.259 80.97 8.342-2.39 19.564-6.76 31.598-13.31-7.3-5-13.404-9.51-18.443-13.51-56.469 21.33-93.636-5.65-103.414-23.65-24.403-44.92-11.5-76-3.444-97.04.117-.25.232-.5.347-.75l.097-.21c.39-.85.718-1.57 1.01-2.22 2.144-4.49 5.506-10.58 9.986-17.58-2.637-.93-5.141-2.01-7.511-3.2-17.382 36.67-22.345 74.16-22.485 90.5z" fill="#fff"/><path d="m456.5 1505.5c.39-.85.718-1.57 1.01-2.22 2.144-4.49 5.506-10.58 9.986-17.58m-10.996 19.8-.097.21m.097-.21c-.032.07-.065.14-.097.21m15.097-44.21c10.1-14.07 23.339-30.5 27-33 7.6-5.2 3.592-8.7 1.259-9.53-31.6-8.4-48.5-29.5-53-39-13.2-31.6-2.5-54.17 4.5-61.5 40.8-41.6 88-17.33 106.5 0-46.5-13-73.5-2.5-91 6.5-14 7.2-16.167 13-15.5 15 11.5 60 79.5 57 85 56.5 4.4-.4 52.833-31.17 76.5-46.5l-8.5 24c-3.742 0-27.259 16.03-74.759 47.03-18.793 12.27-34.609 28.34-46.784 43.53m-11.216-3.03c-8.748-4.64-19.819-5.29-29.315-19.53-17-25.5-13.501-41.97-44.501-18-34.989 27.05-30.684 76.53-56.684 80.53s-37-54.53-35.816-85.53c-1-1.5-3.3.63-4.5 11.03-1.5 13 2.5 92 39.5 97.5 5.441.81 14.1-8.43 22.5-26.03 8.5-22.5 32-67 58-65 1.334.67 4.8 4.3 8 13.5 3.674 8.89 13.934 23.79 31.301 32.53m11.515-21c2.771 1.21 7.085 2.24 11.216 3.03m-11.216-3.03c-4.338 6.86-8.158 13.92-11.515 21m190.073 82.41c-2.789 8.19-6.43 15.77-10.692 22.76-10.385 17.03-24.459 30.58-38.894 40.98m49.586-63.74c.608-1.78 1.176-3.6 1.701-5.44 7.666-30.83 11.913-87.17-51.287-87.97-79-1-94.972-3.53-108.472-5.53-2.18-.25-5.662-.75-9.284-1.44m167.342 100.38s-3.583-.37-5.365-.54m0 0c-3.078 7.96-8.567 15.46-15.464 22.37-11.901 11.93-27.994 22.1-43.134 29.88m58.598-52.25c.623-1.62 1.148-3.25 1.566-4.9 11-43.5-22.759-60.97-34.759-63.97-9.6-2.4-87.5-4.36-121.5-6.03-8.365 0-15.859-1.42-22.504-3.77m95.418 141.45c6.876-2.72 14.886-6.26 23.181-10.53m-23.181 10.53c5.039 4 11.143 8.51 18.443 13.51m-18.443-13.51c-56.469 21.33-93.636-5.65-103.414-23.65-24.403-44.92-11.5-76-3.444-97.04.117-.25.232-.5.347-.75m129.692 110.91c5.589 4 10.346 8.03 14.377 12.03m0 0c-6.397 4.61-12.866 8.6-19.115 12.01m0 0c-12.034 6.55-23.256 10.92-31.598 13.31-90.8 20-112.592-40.14-112.259-80.97.14-16.34 5.103-53.83 22.485-90.5m22.731-17.97c-5.977 7.46-11.077 14.7-15.22 21.17m0 0c-2.637-.93-5.141-2.01-7.511-3.2" stroke="#fff"/><path d="m323.71 1307.49c-.34 40.53 22.14 116.61 114.781 96.77 8.51-2.38 19.96-6.71 32.239-13.21 6.376-3.38 12.975-7.34 19.502-11.92 14.728-10.32 29.087-23.77 39.683-40.68 4.348-6.93 8.063-14.45 10.908-22.58.621-1.77 1.2-3.57 1.736-5.4 7.822-30.6 7.346-92-57.136-92.79-18.525 1.28-53.94-2-62.898-23.06l8.314 35.38c3.685 4.82 22.515 14.47 68.358 14.47 12.243 2.98 48.973 22.83 37.75 66-.426 1.64-.961 3.26-1.598 4.86-3.14 7.91-8.74 15.35-15.777 22.21-12.142 11.84-28.561 21.93-44.008 29.65-8.464 4.24-16.636 7.75-23.651 10.45-10.876 4.19-18.974 6.41-21.074 6.27-7.653-.49-57.136 8.44-83.663-36.22s-14.794-72.45-5.612-91.8c3.024-6.37 6.933-15.55 15.316-27.3-2.699-1.43-5.24-2.99-7.626-4.65-12.446 21.51-23.653 49.98-25.544 83.55z" fill="#fff"/><path d="m446.653 1071.3c-18.875-17.21-67.032-41.29-108.659 0-7.142 7.27-18.059 29.67-4.592 61.03 4.592 9.43 21.834 30.37 54.075 38.7 2.381.83 5.203 3.78-2.551 8.94-3.735 2.48-13.075 11.23-23.379 25.19 3.881 2 7.647 3.37 11.263 4.35 21.075-22.03 57.069-50.01 121.286-83.13l8.672-23.82c-24.147 15.21-73.562 45.75-78.051 46.15-5.612.49-74.99 3.47-86.723-56.08-.681-1.98 1.53-7.74 15.814-14.88 17.855-8.94 45.402-19.36 92.845-6.45z" fill="#fff"/><path d="m372.81 1209.51c-3.616-.98-7.382-2.35-11.263-4.35-4.043 5.48-8.234 11.76-12.293 18.78 2.386 1.66 4.927 3.22 7.626 4.65 4.1-5.75 9.27-12.12 15.93-19.08z" fill="#fff"/><path d="m361.547 1205.16c10.304-13.96 19.644-22.71 23.379-25.19 7.754-5.16 4.932-8.11 2.551-8.94-32.241-8.33-49.483-29.27-54.075-38.7-13.467-31.36-2.55-53.76 4.592-61.03 41.627-41.29 89.784-17.21 108.659 0-47.443-12.91-74.99-2.49-92.845 6.45-14.284 7.14-16.495 12.9-15.814 14.88 11.733 59.55 81.111 56.57 86.723 56.08 4.489-.4 53.904-30.94 78.051-46.15l-8.672 23.82c-64.217 33.12-100.211 61.1-121.286 83.13m-11.263-4.35c3.881 2 7.647 3.37 11.263 4.35m-11.263-4.35c-4.043 5.48-8.234 11.76-12.293 18.78m23.556-14.43c-6.66 6.96-11.83 13.33-15.93 19.08m-7.626-4.65c-12.446 21.51-23.653 49.98-25.544 83.55-.34 40.53 22.14 116.61 114.781 96.77 8.51-2.38 19.96-6.71 32.239-13.21m-121.476-167.11c2.386 1.66 4.927 3.22 7.626 4.65m0 0c-8.383 11.75-12.292 20.93-15.316 27.3-9.182 19.35-20.915 47.14 5.612 91.8s76.01 35.73 83.663 36.22c2.1.14 10.198-2.08 21.074-6.27 7.015-2.7 15.187-6.21 23.651-10.45 15.447-7.72 31.866-17.81 44.008-29.65 7.037-6.86 12.637-14.3 15.777-22.21.637-1.6 1.172-3.22 1.598-4.86 11.223-43.17-25.507-63.02-37.75-66-45.843 0-64.673-9.65-68.358-14.47l-8.314-35.38m53.206 199.71c-1.725-1.12-3.392-2.21-5.001-3.28m0 0c6.376-3.38 12.975-7.34 19.502-11.92 14.728-10.32 29.087-23.77 39.683-40.68 4.348-6.93 8.063-14.45 10.908-22.58.621-1.77 1.2-3.57 1.736-5.4 7.822-30.6 7.346-92-57.136-92.79-18.525 1.28-53.94-2-62.898-23.06m0 0-2.025-8.62c.219 3.16.921 6.02 2.025 8.62z" stroke="#fff"/><path d="m807 1410.5c.8-10.4-3.333-19.33-5.5-22.5-2.833 5.83-8.3 18.5-7.5 22.5 1 5 9 13-2 15s-30.5 1.5-31-10c-.4-9.2 5.5-17.83 8.5-21v-3c-4.5 3.33-14.4 12.4-18 22-4.5 12-15.5 30-46.5 25-5.333-1.67-14.1-8.6-6.5-23-2.544 3.63-6.933 15.25-9.339 22.09.599 1.46-.405 3.95-1.604 5.91-2.956 17.08 11.028 21.5 18.943 21.5 11 0 30.4-8.5 36-24.5s10.333-8 12-2c1.167 4.33 7.6 12.5 24 10.5 20.5-2.5 27.5-25.5 28.5-38.5z" fill="#fff"/><path d="m698.5 1415.5c2.8-4-3.833-3-7.5-2-16 9.5-60.9 28-112.5 26s-63.167-41.5-62.5-61l-3.5-328c3.333-81 4.6-253.5-17-295.5l-11.5 28.5c4.667 5.833 14.1 31.9 14.5 89.5 1.833 40 4.8 130.9 2 174.5s-1.167 228.5 0 315.5c-.5 17.33 4.8 58.8 28 86 6.397 7.5 33.3 19 94.5 9 12-1.96 40.1-11.3 54.5-18.5 7.877-3.94 10.938-3.67 11.661-1.91 2.406-6.84 6.795-18.46 9.339-22.09z" fill="#fff"/><path d="m698.5 1415.5c2.8-4-3.833-3-7.5-2-16 9.5-60.9 28-112.5 26s-63.167-41.5-62.5-61l-3.5-328c3.333-81 4.6-253.5-17-295.5l-11.5 28.5c4.667 5.833 14.1 31.9 14.5 89.5 1.833 40 4.8 130.9 2 174.5s-1.167 228.5 0 315.5c-.5 17.33 4.8 58.8 28 86 6.397 7.5 33.3 19 94.5 9 12-1.96 40.1-11.3 54.5-18.5 7.877-3.94 10.938-3.67 11.661-1.91m9.339-22.09c-7.6 14.4 1.167 21.33 6.5 23 31 5 42-13 46.5-25 3.6-9.6 13.5-18.67 18-22v3c-3 3.17-8.9 11.8-8.5 21 .5 11.5 20 12 31 10s3-10 2-15c-.8-4 4.667-16.67 7.5-22.5 2.167 3.17 6.3 12.1 5.5 22.5-1 13-8 36-28.5 38.5-16.4 2-22.833-6.17-24-10.5-1.667-6-6.4-14-12 2s-25 24.5-36 24.5c-7.915 0-21.899-4.42-18.943-21.5m10.943-28c-2.544 3.63-6.933 15.25-9.339 22.09m-1.604 5.91c.219-1.26.53-2.6.943-4 .198-.58.42-1.22.661-1.91m-1.604 5.91c1.199-1.96 2.203-4.45 1.604-5.91" stroke="#fff"/><path d="m675.939 1259.3c-6.603-8.96-18.073-25.34-23.939-33.8l4.5 14.5 2.5 91.5c2.167 68.67 6.6 208.9 7 220.5s-7.167 17.5-11 19c-33.2 18.4-45.5-9.67-47.5-26-1.2-78-20.167-130.83-29.5-147.5l-5.5 25c19 32 25.5 108 26 134.5.4 21.2 7.167 31.83 10.5 34.5 14.4 12 30.333 8.33 36.5 5 5.833-3 19.1-12.3 25.5-25.5s8-53.83 8-72.5l-4-118c-2-33.17-5.9-102.7-5.5-115.5.304-9.72 3.636-8.71 6.439-5.7z" fill="#fff"/><path d="m684 1260.5-19.5-65c0-5.6-8.333 17.67-12.5 30 5.866 8.46 17.336 24.84 23.939 33.8.889.96 1.724 2.12 2.393 3.2.438.57.83 1.08 1.168 1.5 4.8 6 6 0 4.5-3.5z" fill="#fff"/><path d="m652 1225.5c4.167-12.33 12.5-35.6 12.5-30l19.5 65c1.5 3.5.3 9.5-4.5 3.5-.338-.42-.73-.93-1.168-1.5m-26.332-37 4.5 14.5 2.5 91.5c2.167 68.67 6.6 208.9 7 220.5s-7.167 17.5-11 19c-33.2 18.4-45.5-9.67-47.5-26-1.2-78-20.167-130.83-29.5-147.5l-5.5 25c19 32 25.5 108 26 134.5.4 21.2 7.167 31.83 10.5 34.5 14.4 12 30.333 8.33 36.5 5 5.833-3 19.1-12.3 25.5-25.5s8-53.83 8-72.5l-4-118c-2-33.17-5.9-102.7-5.5-115.5.304-9.72 3.636-8.71 6.439-5.7m-23.939-33.8c5.866 8.46 17.336 24.84 23.939 33.8m2.393 3.2c-.669-1.08-1.504-2.24-2.393-3.2m2.393 3.2c-.691-.9-1.497-1.98-2.393-3.2" stroke="#fff"/><path d="m542.5 1499.5c4.667 6.33 12 24.2 4 45-8.077 21-30.667 25-41 24.5-7.167-.5-20.6-6.6-17-27 0-4-6.4-4.7-10 2.5-3.333 9.33-17.5 35.5-45 35.5-14 0-38.7-10.5-39.5-50.5v-169c-.833-11.83-3-36.6-5-41l9-24c2.5 6.67 7.7 26 8.5 50s1 34.67 1 37l-2 94.5c-1 20.83-.5 65.5 14 73 12.567 6.5 28.9 14.6 50.5-13 9.333-14.67 27.6-39.4 26-21s-.2 19 1 22c2 5 17.7 12.3 40.5 1.5 2-1.5 4.5-6.4-1.5-14z" fill="#fff" stroke="#fff"/><path d="m376.094 1284.58c-5.803-3.36-10.893-8.21-13.699-15.01-7.265 1.55-13.184 1.8-16.895 1.43-35.6 5.2-30-52.5-30-82.5-.333-22.5.2-77.7 1-118.5s-3.333-64.33-5.5-71c-4.333 11.17-12.6 34-11 36s2.667 23.17 3 33.5l-1.5 160.5c-1.2 21.6 2.187 37.5 7.5 46 10 16 17.3 26.4 60.5 12 2.293-.76 4.49-1.57 6.594-2.42z" fill="#fff"/><path d="m402.431 1268.25c-8.317-.72-14.615-2.92-19.288-5.81-7.53 3.58-14.619 5.82-20.748 7.13 2.806 6.8 7.896 11.65 13.699 15.01 11.224-4.54 19.821-10.23 26.337-16.33z" fill="#fff"/><path d="m405 880-9 23.5c2.333 35.833 6.8 112.3 6 131.5s1.667 113.67 3 158.5c-17.2 7.6-38.087 34.5-42.5 49-3.446 11.32-2.941 20.19-.105 27.07 6.129-1.31 13.218-3.55 20.748-7.13-7.753-4.79-11.033-11.48-11.643-16.44.167-13 6.8-37.7 32-32.5s13.5 23.83 4.5 32.5c-8.371 7.32-16.863 12.64-24.857 16.44 4.673 2.89 10.971 5.09 19.288 5.81 15.283-14.29 19.122-30.79 18.569-39.75l5.5 4.5c4.333 1.33 16.7 5.4 31.5 11s-10.833 16.67-25.5 21.5c-12.14 2.77-22.044 3.45-30.069 2.75-6.516 6.1-15.113 11.79-26.337 16.33 7.392 4.26 15.942 6.1 22.406 6.42 18.5-.17 57.9-7.1 67.5-33.5s-4-39.33-12-42.5c-16-3.2-24.5-10.5-27.5-14-8.143-9.5-10-47.17-10-69-.667-48.67-2.5-156.2-4.5-197s-5.5-53.667-7-55z" fill="#fff"/><path d="m376.094 1284.58c-5.803-3.36-10.893-8.21-13.699-15.01m13.699 15.01c-2.104.85-4.301 1.66-6.594 2.42-43.2 14.4-50.5 4-60.5-12-5.313-8.5-8.7-24.4-7.5-46l1.5-160.5c-.333-10.33-1.4-31.5-3-33.5s6.667-24.83 11-36c2.167 6.67 6.3 30.2 5.5 71s-1.333 96-1 118.5c0 30-5.6 87.7 30 82.5 3.711.37 9.63.12 16.895-1.43m13.699 15.01c7.392 4.26 15.942 6.1 22.406 6.42 18.5-.17 57.9-7.1 67.5-33.5s-4-39.33-12-42.5c-16-3.2-24.5-10.5-27.5-14-8.143-9.5-10-47.17-10-69-.667-48.67-2.5-156.2-4.5-197s-5.5-53.667-7-55l-9 23.5c2.333 35.833 6.8 112.3 6 131.5s1.667 113.67 3 158.5c-17.2 7.6-38.087 34.5-42.5 49-3.446 11.32-2.941 20.19-.105 27.07m13.699 15.01c11.224-4.54 19.821-10.23 26.337-16.33m-40.036 1.32c6.129-1.31 13.218-3.55 20.748-7.13m19.288 5.81c-8.317-.72-14.615-2.92-19.288-5.81m19.288 5.81c15.283-14.29 19.122-30.79 18.569-39.75l5.5 4.5c4.333 1.33 16.7 5.4 31.5 11s-10.833 16.67-25.5 21.5c-12.14 2.77-22.044 3.45-30.069 2.75zm-19.288-5.81c7.994-3.8 16.486-9.12 24.857-16.44 9-8.67 20.7-27.3-4.5-32.5s-31.833 19.5-32 32.5c.61 4.96 3.89 11.65 11.643 16.44z" stroke="#fff"/><path d="m592.572 1524c-3.5 6-44 56.5-90 70.5-36.8 11.2-33-30.67-26.5-53l-4 4c-3.167 8.17-8.9 29.6-6.5 50s23 23.83 33 23c10.666-1.33 39.8-13 81-59 2.687-3 7.4-8.8 11-18s6.833-6.17 8-3.5z" fill="#fff"/><path d="m595 1500c1.167 6.17.372 19.2-2.428 24l6 14 4.428.5-1-38z" fill="#fff"/><path d="m592.572 1524c2.8-4.8 3.595-17.83 2.428-24l7 .5 1 38-4.428-.5m-6-14c-3.5 6-44 56.5-90 70.5-36.8 11.2-33-30.67-26.5-53l-4 4c-3.167 8.17-8.9 29.6-6.5 50s23 23.83 33 23c10.666-1.33 39.8-13 81-59 2.687-3 7.4-8.8 11-18s6.833-6.17 8-3.5m-6-14 6 14" stroke="#fff"/><path d="m825.861 1155.5c-4.295 10.07-12.073 32.69-3.391 36.14 1.809.54 6.647 0 11.53-6.47-.452 5.21-3.773 18.43-13.565 17.26-13.565-1.62-2.713-39.92 5.426-46.93z" fill="#fff"/><path d="m700.743 1510.95c-4.408 7.1-12.924 23.28-6.917 26.93 1.274.62 4.922.79 9.327-3.52-.971 3.89-5.04 13.48-12.148 11.43-9.847-2.84 2.856-30.51 9.738-34.84z" fill="#fff"/><path d="m579.512 1500.92c-4.408 7.1-12.924 23.27-6.917 26.92 1.274.62 4.922.79 9.327-3.52-.971 3.89-5.04 13.49-12.148 11.43-9.847-2.84 2.857-30.5 9.738-34.83z" fill="#fff"/><path d="m694.489 1327.5c-3.437 7.93-9.658 25.73-2.713 28.45 1.447.42 5.317 0 9.224-5.1-.362 4.11-3.018 14.51-10.852 13.59-10.852-1.27-2.17-31.42 4.341-36.94z" fill="#fff"/><path d="m428.489 1329.5c-3.437 7.93-9.658 25.73-2.713 28.45 1.447.42 5.317 0 9.224-5.1-.362 4.11-3.018 14.51-10.852 13.59-10.852-1.27-2.17-31.42 4.341-36.94z" fill="#fff"/><path d="m817.781 1284.77c-13.09 17.72-38.764 58.38-23.016 69.11 3.362 1.88 13.246 3.05 25.889-7.37-3.247 9.99-15.809 34.31-34.797 27.53-26.304-9.38 12.55-79.29 31.924-89.27z" fill="#fff"/><path d="m787.082 1002.5c-3.651 8.57-10.262 27.82-2.883 30.76 1.538.46 5.65 0 9.801-5.51-.384 4.44-3.207 15.68-11.53 14.69-11.53-1.38-2.306-33.97 4.612-39.94z" fill="#fff"/><path d="m757.896 934.5c-3.222 7.712-9.055 25.037-2.544 27.681 1.357.413 4.985 0 8.648-4.958-.339 3.994-2.83 14.116-10.174 13.221-10.173-1.239-2.034-30.573 4.07-35.944z" fill="#fff"/><path d="m289.5 1056c-4.296 10.28-17.712 49.88-9.03 53.41 1.809.55 6.647 0 11.53-6.61-.452 5.32-3.773 18.82-13.565 17.63-13.565-1.66 2.926-57.27 11.065-64.43z" fill="#fff"/><path d="m696.861 830.5c-4.295 10.497-12.073 34.078-3.391 37.677 1.809.563 6.647 0 11.53-6.748-.452 5.436-3.773 19.213-13.565 17.995-13.565-1.687-2.713-41.613 5.426-48.924z" fill="#fff"/><path d="m538.122 864.052c-5.301 8.467-15.548 27.76-8.347 32.138 1.527.75 5.904.965 11.197-4.17-1.172 4.642-6.072 16.092-14.597 13.615-11.809-3.431 3.483-36.434 11.747-41.583z" fill="#fff"/><path d="m531.315 760.108c-4.95 7.906-14.517 25.92-7.794 30.007 1.426.7 5.513.902 10.455-3.893-1.094 4.334-5.67 15.024-13.629 12.712-11.027-3.204 3.252-34.018 10.968-38.826z" fill="#fff"/><path d="m414.315 824.108c-4.95 7.906-14.517 25.92-7.794 30.007 1.426.7 5.513.902 10.455-3.893-1.094 4.334-5.67 15.024-13.629 12.712-11.027-3.204 3.252-34.018 10.968-38.826z" fill="#fff"/><path d="m601.807 1026.76c-3.886 6.21-11.396 20.35-6.118 23.56 1.119.55 4.327.7 8.206-3.06-.859 3.4-4.45 11.79-10.698 9.98-8.655-2.52 2.553-26.7 8.61-30.48z" fill="#fff"/><path d="m720.587 1063.94c-4.426 7.07-12.98 23.17-6.968 26.83 1.274.62 4.928.8 9.346-3.48-.977 3.87-5.068 13.43-12.185 11.36-9.858-2.86 2.908-30.41 9.807-34.71z" fill="#fff"/><path d="m622.617 772.824c-8.707 15.151-25.417 49.575-12.953 56.861 2.636 1.232 10.113 1.369 18.939-7.934-1.812 8.211-9.714 28.574-24.361 24.697-20.29-5.371 4.479-64.133 18.375-73.624z" fill="#fff"/><path d="m606.485 950.39c1.839-1.979 4.649-6.728 1.182-9.89-4.333 1.94-13.315 8.18-14.575 17.626.328 1.493 2.344 4.886 7.78 6.515 2.114-2.755 4.465-5.412 6.795-7.81-3.02.025-9.06-.659-9.06-3.591 0-3.664 5.564-8.143 7.878-2.85z" fill="#fff"/><path d="m593.092 982.556c-.788 4.479 3.309 12.785 19.696 6.921 11.345-4.418 19.535-12.492 22.212-15.977.5-2.833.9-7.5-1.5-3.5-3 5-34.893 20-36 9-.885-8.8 10.348-17.311 16.076-20.466l1.97-8.958c-2.296 1.854-5.072 4.366-7.879 7.255-2.33 2.398-4.681 5.055-6.795 7.81-4.662 6.073-8.174 12.622-7.78 17.915z" fill="#fff"/><path d="m579.137 1578.65c1.518-1.63 3.839-5.55.976-8.15-3.579 1.6-10.996 6.74-12.037 14.52.271 1.23 1.936 4.02 6.425 5.36 1.746-2.27 3.688-4.46 5.612-6.43-2.494.02-7.483-.54-7.483-2.96 0-3.02 4.596-6.7 6.507-2.34z" fill="#fff"/><path d="m568.076 1605.13c-.651 3.69 2.733 10.53 16.267 5.7 9.369-3.63 16.133-10.28 18.344-13.15.413-2.34.743-6.18-1.239-2.89-2.478 4.12-28.818 16.47-29.732 7.42-.731-7.25 8.547-14.26 13.277-16.86l1.627-7.38c-1.896 1.53-4.189 3.6-6.507 5.98-1.924 1.97-3.866 4.16-5.612 6.43-3.85 5-6.751 10.4-6.425 14.75z" fill="#fff"/><path d="m812.476 1141.4-23.642-16.25-13.704 22.38 23.661 16.01z" fill="url(#b)"/><path d="m641.483 1265.71-23.642-16.25-13.704 22.38 23.661 16.01z" fill="url(#c)"/><g fill="#fff"><path d="m824 1090.5-1.542 4.1-44.458 17.18 1.285-4.62z"/><path d="m455.758 1096.5-.77 4.16-33.59 20.93.507-4.64z"/><path d="m392.249 877.852-1.307 4.027-36.035 16.357 1.108-4.537z"/><path d="m392.343 867.113-1.307 4.027-36.036 16.357 1.109-4.536z"/><path d="m766.505 1150.73-2.468 8.85-84.542 41.69 1.899-9.9z"/><path d="m495.07 1266.5-1.742 9.02-80.875 48.42 1.088-10.02z"/><path d="m760.997 925.5-2.946 8.699-86.685 37.031 2.434-9.779z"/><path d="m635.455 854.5-1.639 6.61-61.763 32.724 1.194-7.377z"/><path d="m734.242 1320.47c-1.512-1.94-5.18-4.9-7.76-1.13-.325 1.18-.906 3.71-.636 4.34.338.79 6.922 1.75 8.067 4.14 1.877 2.49 6.462 9.97 7.285 16.6 1.095-7.48 3.893-22.51 6.319-22.74 2.425-.24 4.842.95 5.746 1.58l1.792-7.14c-2.471-1.84-7.938-3.97-10.041 2.23s-3.76 15.48-4.325 19.34z" stroke="#fff" stroke-width=".657143"/><path d="m353.945 1314.26c-2.01-2.59-6.887-6.52-10.316-1.51-.432 1.57-1.205 4.93-.846 5.77.449 1.05 9.203 2.33 10.725 5.5 2.495 3.32 8.591 13.26 9.685 22.07 1.456-9.95 5.174-29.92 8.4-30.23 3.225-.32 6.437 1.27 7.64 2.1l2.381-9.49c-3.284-2.44-10.552-5.28-13.348 2.97-2.796 8.24-4.999 20.57-5.75 25.7z" stroke="#fff" stroke-width=".657143"/><path d="m618.293 1533.85c-1.788-2.31-6.125-5.8-9.176-1.35-.384 1.4-1.071 4.39-.752 5.14.399.93 8.185 2.07 9.54 4.89 2.219 2.95 7.641 11.79 8.614 19.63 1.295-8.85 4.602-26.61 7.471-26.89s5.726 1.13 6.796 1.87l2.118-8.44c-2.921-2.17-9.386-4.69-11.873 2.64s-4.446 18.3-5.114 22.86z" stroke="#fff" stroke-width=".657143"/><path d="m695.565 901.639c-2.228-2.869-7.633-7.22-11.434-1.674-.479 1.746-1.336 5.471-.938 6.401.498 1.163 10.2 2.583 11.888 6.099 2.765 3.675 9.522 14.689 10.734 24.457 1.614-11.025 5.736-33.161 9.311-33.509 3.574-.349 7.134 1.407 8.468 2.329l2.64-10.511c-3.641-2.713-11.696-5.853-14.796 3.283-3.099 9.136-5.54 22.8-6.373 28.49z" stroke="#fff" stroke-width=".657143"/><path d="m577.212 766.63c-1.911-2.461-6.549-6.194-9.81-1.436-.41 1.498-1.146 4.694-.804 5.492.427.998 8.751 2.216 10.199 5.233 2.372 3.152 8.169 12.603 9.209 20.983 1.385-9.459 4.921-28.451 7.988-28.75s6.122 1.208 7.265 1.999l2.265-9.018c-3.123-2.327-10.034-5.022-12.693 2.816-2.66 7.839-4.754 19.562-5.468 24.444z" stroke="#fff" stroke-width=".657143"/><path clip-rule="evenodd" d="m600.372 1335.7-5.396-3.54c1.472-3.67 2.197-7.54 1.958-11.58-.491-8.4-5.107-19.66-19.645 4.54-1.508 2.51.98 6.63 10.043 12.43-1.312 1.88-2.993 3.82-5.131 5.71-8.644 7.67-37.069 28.19-48.201 34.74 15.038-4.61 45.002-21.77 56.811-38.34 1.965 1.15 4.164 2.35 6.614 3.6 1.801-2.35 4.911-7.15 2.947-7.56zm-9.309-6.1-8.371-5.49c.818-1.85 3.143-5.34 5.893-4.54 2.75.81 3.111 3.36 2.947 4.54.185 1.2.133 3.14-.469 5.49z" fill-rule="evenodd"/><path clip-rule="evenodd" d="m297.372 1304.7-5.396-3.54c1.472-3.67 2.197-7.54 1.958-11.58-.491-8.4-5.107-19.66-19.645 4.54-1.508 2.51.98 6.63 10.043 12.43-1.312 1.88-2.993 3.82-5.131 5.71-8.644 7.67-22.069 22.69-33.201 29.24 15.038-4.61 30.002-16.27 41.811-32.84 1.965 1.15 4.164 2.35 6.614 3.6 1.801-2.35 4.911-7.15 2.947-7.56zm-9.309-6.1-8.371-5.49c.818-1.85 3.143-5.34 5.893-4.54 2.75.81 3.111 3.36 2.947 4.54.185 1.2.133 3.14-.469 5.49z" fill-rule="evenodd"/><path d="m265.316 1148.43c-2.194-2.83-7.518-7.12-11.262-1.65-.471 1.72-1.315 5.39-.923 6.3.49 1.15 10.047 2.55 11.709 6.01 2.724 3.62 9.379 14.47 10.573 24.09 1.59-10.86 5.65-32.66 9.171-33.01 3.521-.34 7.028 1.39 8.341 2.3l2.6-10.36c-3.586-2.67-11.52-5.76-14.573 3.24s-5.457 22.46-6.278 28.06z" stroke="#fff" stroke-width=".657143"/><path d="m268.851 1189.95c2.914.46 8.543 1.6 7.74 2.49-1.003 1.13-11.781 3.16-13.041 14.61-1.259 11.46 13.366 50.88 10.157 62.29-.79 2.81-1.328 4.61-1.682 5.7 4.11-.32 8.405-12.91-4.719-62.15-1.204-3.86 1.678-12.59 18.832-12.17.688-1.51 1.89-5.1.257-10.33-1.807-5.79-6.652-7.06-11.44-10.62-2.006 2.24-8.375 7.37-6.104 10.18z"/><path clip-rule="evenodd" d="m535.057 1025.06c-1.681-1.67-6.342-.57-11.53 17.16-5.189 17.74 4.083 16.45 9.368 13.59 1.922-.72 5.621-4.01 5.045-11.44-.577-7.44-6.006-11.21-8.648-12.16.721-2.86 2.883-8.3 5.765-7.15zm-9.368 25.03c-1.73-2.29.72-8.58 2.162-11.44 9.8 6.29 7.446 10.25 5.044 11.44-1.681.95-5.477 2.29-7.206 0z" fill-rule="evenodd"/><path clip-rule="evenodd" d="m337.057 1023.06c-1.681-1.67-6.342-.57-11.53 17.16-5.189 17.74 4.083 16.45 9.368 13.59 1.922-.72 5.621-4.01 5.045-11.44-.577-7.44-6.006-11.21-8.648-12.16.721-2.86 2.883-8.3 5.765-7.15zm-9.368 25.03c-1.73-2.29.72-8.58 2.162-11.44 9.8 6.29 7.446 10.25 5.044 11.44-1.681.95-5.477 2.29-7.206 0z" fill-rule="evenodd"/><path clip-rule="evenodd" d="m379.057 1087.06c-1.681-1.67-6.342-.57-11.53 17.16-5.189 17.74 4.083 16.45 9.368 13.59 1.922-.72 5.621-4.01 5.045-11.44-.577-7.44-6.006-11.21-8.648-12.16.721-2.86 2.883-8.3 5.765-7.15zm-9.368 25.03c-1.73-2.29.72-8.58 2.162-11.44 9.8 6.29 7.446 10.25 5.044 11.44-1.681.95-5.477 2.29-7.206 0z" fill-rule="evenodd"/><path clip-rule="evenodd" d="m474.057 1408.06c-1.681-1.67-6.342-.57-11.53 17.16-5.189 17.74 4.083 16.45 9.368 13.59 1.922-.72 5.621-4.01 5.045-11.44-.577-7.44-6.006-11.21-8.648-12.16.721-2.86 2.883-8.3 5.765-7.15zm-9.368 25.03c-1.73-2.29.72-8.58 2.162-11.44 9.8 6.29 7.446 10.25 5.044 11.44-1.681.95-5.477 2.29-7.206 0z" fill-rule="evenodd"/><path clip-rule="evenodd" d="m467.057 788.058c-1.681-1.668-6.342-.572-11.53 17.163-5.189 17.735 4.083 16.448 9.368 13.588 1.922-.716 5.621-4.005 5.045-11.442-.577-7.438-6.006-11.204-8.648-12.157.721-2.861 2.883-8.296 5.765-7.152zm-9.368 25.03c-1.73-2.289.72-8.582 2.162-11.442 9.8 6.293 7.446 10.25 5.044 11.442-1.681.953-5.477 2.288-7.206 0z" fill-rule="evenodd"/><path d="m737 1081.5c1 0 11-7 29.5-4.5 14.8 2 4.5 7.83-2.5 10.5l-27 14.5 35.5-7c6.5-5 19.3-21.7 26.5-34.5.667-2-1.7-5.9-16.5-5.5-18.5.5-28 0-30.5 2s-15 23-15 24.5z" stroke="#fff"/></g><path d="m350 917 23.5 15c-2.5 5.833-7.5 18.2-7.5 21s14.667 14.167 22 19.5l-7.5 23-24.5-17c3-5.5 8.8-17.5 8-21.5s-16.333-14.667-24-19.5z" fill="url(#d)"/><path d="m326 1390.5 23.5 15c-2.5 5.83-7.5 18.2-7.5 21s14.667 14.17 22 19.5l-7.5 23-24.5-17c3-5.5 8.8-17.5 8-21.5s-16.333-14.67-24-19.5z" fill="url(#e)"/><path d="m625.649 1336.4v7.91c0 2.75-.225 5.62.224 8.37.56 3.44 3.697 4.59 6.61 2.87 3.698-2.18 4.706-5.05 3.81-10.78-.336-2.06-1.009-4.13-1.121-6.19-.112-1.72.336-3.56.56-5.39.449 0 .897 0 1.345-.12.672 3.56 1.569 7 2.129 10.55.336 1.84.336 3.67.672 5.51.56 3.44 2.577 5.16 5.602 5.27 3.25 0 4.482-1.72 3.362-4.7-.897-2.29-2.017-4.47-2.914-6.77-1.12-2.86-2.016-5.73-.672-8.82.224-.69.897-1.15 1.233-1.61 1.792 5.16 3.585 9.86 5.042 14.68 1.456 4.93-.673 9.17-3.698 12.95-1.793 2.18-4.706 1.84-6.61-.45-.224-.35-.449-.81-.785-1.15-2.353-3.44-2.689-3.44-4.818.11-2.352 3.79-5.042 5.39-7.843 4.7-2.353-.57-4.705-4.58-4.818-8.37-.112-2.17.113-4.47-.112-6.65-.112-1.49-.896-2.86-1.232-4.35-.336-1.26-.896-2.87-.448-3.9.784-1.95 1.68-3.9 4.482-3.67z" fill="#fff"/><circle cx="516.5" cy="1512" fill="#fff" r="10.5"/><circle cx="370.5" cy="1539" fill="#fff" r="10.5"/><circle cx="344.5" cy="1554" fill="#fff" r="10.5"/><path d="m324 1169.77 3.744-15.27c5.408 8.06 16.224 27.36 16.224 40.09.208 10.61-.499 32.84-4.992 36.91h-1.248c2.08-10.61 4.992-33.98 0-42.64-4.992-8.65-11.232-16.33-13.728-19.09z" fill="#fff"/><path d="m414 1479.19 3.37-13.69c4.867 7.22 14.601 24.52 14.601 35.93.187 9.5-.449 29.42-4.493 33.07h-1.123c1.872-9.5 4.493-30.45 0-38.21-4.493-7.75-10.109-14.63-12.355-17.1z" fill="#fff"/><path d="m521 1104.62 2.434-10.12c3.515 5.34 10.545 18.12 10.545 26.55.135 7.03-.324 21.75-3.245 24.45h-.811c1.352-7.02 3.245-22.51 0-28.24s-7.301-10.82-8.923-12.64z" fill="#fff"/><path d="m299.5 1278c1.167-4.33 2.4-13.4-2-15s-15.563 3-19.5 6.5c-7.5 6.67-21.6 23.4-18 37s11.167 4.33 14.5-2c-1.667 1.67-4.469 2.76-7.5 2-4-1-6.5-6.5-1.5-16s27.5-38 34-12.5z" fill="#fff" stroke="#fff"/><path d="m432.789 1634.28c6.995-2 15.29-5.77 7.211-9.28-11.5-5-24.5-13.5-19-14s4 1.5 7 1.5 5.5-1 6-4-1.5-7.5-5.5-6-4.5 5.5-9 3.5c-3.6-1.6-8.833-1.33-11-1-.167.5-.2 1.6 1 2 1.5.5 3.5 5.5-.5 6s-8 .5-7.5-1.5 5-8.5 3-10.5-11-3-11.5 2c-.4 4 .5 4.06 1 4.5 1.5 1.33 3.5 3-.5 4-7.667 1.5-22 1.7-18-9.5l-2-.5c-2.333 4-4.1 12.4 7.5 14 9.904 1.37 21.728.64 28.5-.12 13.476 4.74 35.643 14.73 23.289 18.9z" fill="#fff"/><path d="m412.5 1615c-.828.12-1.84.25-3 .38m0 0c-6.772.76-18.596 1.49-28.5.12-11.6-1.6-9.833-10-7.5-14l2 .5c-4 11.2 10.333 11 18 9.5 4-1 2-2.67.5-4-.5-.44-1.4-.5-1-4.5.5-5 9.5-4 11.5-2s-2.5 8.5-3 10.5 3.5 2 7.5 1.5 2-5.5.5-6c-1.2-.4-1.167-1.5-1-2 2.167-.33 7.4-.6 11 1 4.5 2 5-2 9-3.5s6 3 5.5 6-3 4-6 4-1.5-2-7-1.5 7.5 9 19 14c8.079 3.51-.216 7.28-7.211 9.28m-23.289-18.9c13.476 4.74 35.643 14.73 23.289 18.9m0 0c-.786.26-1.712.5-2.789.72.873-.2 1.819-.45 2.789-.72z" stroke="#fff"/><path d="m398 1587.5c2-2 6.7-4.4 9.5 2s-5.833 4.67-10.5 3c.5-.5 1.5-1.7 1.5-2.5 0-1-1-2.04-.5-2.5z" fill="#fff" stroke="#fff"/><path d="m380.5 1589c-7.167-5-18.4-16.2-6-21s36.5 18.33 47 30.5l1-2c-11-12.67-36.4-36.5-50-30.5-17 7.5-4 19 3.5 25.5 1.5.17 4.5-.1 4.5-2.5z" fill="#fff"/><path d="m385 1590c-.5-3.5-.8-10.4 2-10 3.5.5 3 9.5 2.5 10s4 8 1 10-16 5-26.5-2.5c-1-1-1.6-3.9 4-7.5l3.5-2.5c-1.333 1.33-3.8 4.4-3 6 1 2 2 6.5 17 5 1.333-.17 3.1-2.1-.5-8.5z" fill="#fff"/><path d="m405 1613.5c-2 1.83-3.1 7.2 8.5 14 5.667 2 16.5 6.8 14.5 10-2.5 4-5.5 10.5-14 8.5-1.167-.33-3.5-1.4-3.5-3 0-2-10-2-10-5s-6.5 1-7-9.5c-.333-1-2.4-2.4-8 0-7 3-7.5-5.5-3-12.5h2.5c-1.667 2-4.5 6.3-2.5 7.5s3.5 1.5 4 1.5c4-1.5 11.9-3.4 11.5 1-.5 5.5 4 7.5 4.5 7.5s6 .5 6 2.5c0 1.6 3 2.67 4.5 3 1.167-.17 3.7 0 4.5 2 1 2.5 11-.5-.5-6.5s-20.5-16-20-20c.4-3.2 5.5-2 8-1z" fill="#fff"/><path d="m380.5 1589c-7.167-5-18.4-16.2-6-21s36.5 18.33 47 30.5l1-2c-11-12.67-36.4-36.5-50-30.5-17 7.5-4 19 3.5 25.5 1.5.17 4.5-.1 4.5-2.5z" stroke="#fff"/><path d="m385 1590c-.5-3.5-.8-10.4 2-10 3.5.5 3 9.5 2.5 10s4 8 1 10-16 5-26.5-2.5c-1-1-1.6-3.9 4-7.5l3.5-2.5c-1.333 1.33-3.8 4.4-3 6 1 2 2 6.5 17 5 1.333-.17 3.1-2.1-.5-8.5z" stroke="#fff"/><path d="m405 1613.5c-2 1.83-3.1 7.2 8.5 14 5.667 2 16.5 6.8 14.5 10-2.5 4-5.5 10.5-14 8.5-1.167-.33-3.5-1.4-3.5-3 0-2-10-2-10-5s-6.5 1-7-9.5c-.333-1-2.4-2.4-8 0-7 3-7.5-5.5-3-12.5h2.5c-1.667 2-4.5 6.3-2.5 7.5s3.5 1.5 4 1.5c4-1.5 11.9-3.4 11.5 1-.5 5.5 4 7.5 4.5 7.5s6 .5 6 2.5c0 1.6 3 2.67 4.5 3 1.167-.17 3.7 0 4.5 2 1 2.5 11-.5-.5-6.5s-20.5-16-20-20c.4-3.2 5.5-2 8-1z" stroke="#fff"/><path d="m774.5 1457.5c-2.5 8.83-8.3 27.5-11.5 31.5-4 5-17.5 32-5 44 10 9.6 11.833 0 11.5-6 2.667-4.5 8.2-12.8 9-10 1 3.5-14 43-26 40-9.6-2.4-13-11.67-13.5-16 .333-8.17 3.1-27.9 11.5-41.5 10.5-17 24-47.5 24-42z" fill="#fff" stroke="#fff"/><path d="m316.5 1324.65c-2.5 8.84-8.3 27.5-11.5 31.5-4 5-17.5 32-5 44 10 9.6 11.833 0 11.5-6 2.667-4.5 8.2-12.8 9-10 1 3.5-14 43-26 40-9.6-2.4-13-11.66-13.5-16 .333-8.16 3.1-27.9 11.5-41.5 10.5-17 24-47.5 24-42z" fill="#fff" stroke="#fff"/></svg>