<svg fill="none" height="758" viewBox="0 0 895 758" width="895" xmlns="http://www.w3.org/2000/svg" xmlns:xlink="http://www.w3.org/1999/xlink"><linearGradient id="a"><stop offset="0" stop-color="#f3e07b"/><stop offset="1" stop-color="#bc6317"/></linearGradient><linearGradient id="b" gradientUnits="userSpaceOnUse" x1="607.293" x2="602.367" xlink:href="#a" y1="269.165" y2="302.383"/><linearGradient id="c" gradientUnits="userSpaceOnUse" x1="541.4" x2="536.475" xlink:href="#a" y1="152.833" y2="186.052"/><linearGradient id="d" gradientUnits="userSpaceOnUse" x1="709.395" x2="704.469" xlink:href="#a" y1="407.341" y2="440.559"/><linearGradient id="e" gradientUnits="userSpaceOnUse" x1="356.775" x2="345.753" xlink:href="#a" y1="413.951" y2="445.673"/><linearGradient id="f" gradientUnits="userSpaceOnUse" x1="854.968" x2="865.728" xlink:href="#a" y1="617.284" y2="639.506"/><linearGradient id="g" gradientUnits="userSpaceOnUse" x1="802.949" x2="813.71" xlink:href="#a" y1="497.625" y2="519.846"/><linearGradient id="h" gradientUnits="userSpaceOnUse" x1="594.995" x2="600.508" xlink:href="#a" y1="622.29" y2="645.563"/><linearGradient id="i" gradientUnits="userSpaceOnUse" x1="491.321" x2="492.785" xlink:href="#a" y1="561.653" y2="585.525"/><linearGradient id="j" gradientUnits="userSpaceOnUse" x1="491.933" x2="493.397" xlink:href="#a" y1="705.032" y2="728.904"/><linearGradient id="k" gradientUnits="userSpaceOnUse" x1="466.078" x2="467.542" xlink:href="#a" y1="711.206" y2="735.078"/><linearGradient id="l" gradientUnits="userSpaceOnUse" x1="464.022" x2="465.486" xlink:href="#a" y1="569.156" y2="593.029"/><linearGradient id="m" gradientUnits="userSpaceOnUse" x1="377.618" x2="370.158" xlink:href="#a" y1="602.21" y2="624.934"/><linearGradient id="n" gradientUnits="userSpaceOnUse" x1="99.584" x2="85.2511" xlink:href="#a" y1="598.47" y2="617.617"/><linearGradient id="o" gradientUnits="userSpaceOnUse" x1="570.675" x2="576.188" xlink:href="#a" y1="632.914" y2="656.187"/><linearGradient id="p" gradientUnits="userSpaceOnUse" x1="830.816" x2="841.576" xlink:href="#a" y1="634.117" y2="656.338"/><linearGradient id="q" gradientUnits="userSpaceOnUse" x1="778.797" x2="789.558" xlink:href="#a" y1="514.457" y2="536.678"/><path d="m657.554 662.823-.739-14.195c5.899 2.374 18.733 10.349 22.871 23.254 4.137 12.904-6.446 28.379-12.311 32.604-11.125 8.211-42.758 24.883-79.233 32.723-45.595 9.8-69.075-14.93-68.908-23.603-.169-4.763.613-16.934 5.101-27.513-3.858 13.562-.554 39.906 43.518 36.788 41.952-2.494 95.216-24.058 106.595-43.216.667-1.066-1.593-8.232-16.894-16.842z" fill="#fff" stroke="#fff"/><path d="m884.606 580.636c2.112-1.038 4.284-6.128 2.523-22.127-1.014-19.461-55.063-82.082-50.323-87.858-4.341.164-7.76.09-10.221-.067-1.103-.07-2.024.068-2.748.177-.04.006-.08.012-.119.017 5.103 10.262 50.534 75.997 59.877 89.456 3.067 5.41-6.904 11.016-13.586 13.427-4.346 1.76-13.91 4.409-24.466 4.416-1.014 5.066-3.333 11.956-7.767 15.818 25.24-1.69 41.713-9.52 46.83-13.259z" fill="#fff"/><path clip-rule="evenodd" d="m826.418 468.373c-.026-.288-.048-.549-.062-.822z" fill="#fff" fill-rule="evenodd"/><path d="m842.319 471.052c11.097-.825-10.356-10.703-22.469-15.539-1.517-.614 1.138 9.966 2.655 15.333.295.062.701.008 1.213-.068l.119-.017c.724-.109 1.645-.247 2.748-.177l-.167-2.211c-.026-.288-.048-.549-.062-.822l10.232.396c-.123.729-.09 1.215.218 2.704 1.707-.065 3.523.549 5.513.401z" fill="#fff"/><path clip-rule="evenodd" d="m826.585 470.584c-.046-.89-.102-1.501-.149-2.014l-.018-.197z" fill="#fff" fill-rule="evenodd"/><path d="m836.588 467.947-10.232-.396.062.822.018.197c.047.513.103 1.124.149 2.014 2.461.157 5.88.231 10.221.067-.308-1.489-.341-1.975-.218-2.704z" fill="#fff"/><path d="m828.146 537.487c-4.455-.387-13.336 4.16-13.218 25.442.065 11.826 6.24 20.389 11.244 24.296 3.7-3.461 5.052-6.195 8.182-10.245-10.133-.711-15.312-6.353-15.418-8.38.579-12.655 5.878-15.881 8.454-15.912 7.029 1.862 11.745 5.427 14.189 11.02-.473 6.505-4.567 9.832-7.225 13.272 3.731.783 7.52 1.1 11.189 1.097.318-1.593.508-3.005.594-4.086 1.029-9.956-1.159-18.299-2.343-21.229-5.191-10.559-12.936-14.694-15.648-15.275z" fill="#fff"/><path d="m836.994 594.659c.251-.015.534-.747.782-.764 4.434-3.862 6.753-10.752 7.767-15.818-3.669.003-7.458-.314-11.189-1.097-3.13 4.05-4.482 6.784-8.182 10.245 4.003 3.124 7.748 7.365 10.822 7.434z" fill="#fff"/><path d="m780.175 608.757c15.26 12.573 29.879 9.274 35.273 5.899 9.062-5.729 16.758-13.878 22.328-20.761-.248.017-.531.749-.782.764-3.074-.069-6.819-4.31-10.822-7.434-9.181 8.592-20.473 16.303-27.211 16.3-11.758-.007-19.012-6.961-20.328-7.986-.78-.608-5.11-4.579-5.722-4.444-17.508 10.813-20.33 31.54-18.986 39.515.132 4.238 2.375 17.639 12.056 25.888 1.217-1.604 4.824-5.461 5.443-6.644.679-1.3.034-.004.861-1.598-10.173-4.341-13.293-13.893-13.497-16.362 2.347-14.356 9.033-20.538 12.266-23.801 3.234-3.262 8.196.712 9.121.664z" fill="#fff"/><path d="m800.912 648.003c.193 3.703-10.212 3.935-14.066 3.208-1.763-.389-3.422-.799-4.983-1.225-2.286 2.784-4.957 7.989-7.307 12.179 16.307 9.319 27.402 3.043 30.57 1.399 3.314-1.719 2.884-15.931.062-22.591-2.823-6.66-10.145-10.611-17.86-10.209-6.142.319-11.189 10.056-14.799 17.021l-.244.471c2.66 1.135 5.902.727 9.578 1.73 1.142-1.39 2.302-2.528 3.507-3.34 7.175-4.829 15.462-.186 15.542 1.357z" fill="#fff"/><path d="m771.424 649.854c-.619 1.183-4.226 5.04-5.443 6.644 1.609 1.372 3.408 2.708 5.415 3.98.774.49 2.409 1.258 3.16 1.687 2.35-4.19 5.021-9.395 7.307-12.179-3.676-1.003-6.918-.595-9.578-1.73-.827 1.594-.182.298-.861 1.598z" fill="#fff"/><path d="m722.429 688.71c14.173 10.711 26.021 4.524 31.264.229 8.888-6.554 15.652-17.488 20.863-26.774-.751-.429-2.386-1.197-3.16-1.687-2.007-1.272-3.806-2.608-5.415-3.98-4.546 5.986-12.336 14.077-16.437 18.114-10.059 8.878-20.175 4.763-22.708 3.658-6.113-2.669-15.07-21.487-26.33-41.632-13.503-28.737-43.864-88.663-57.278-98.47.649 3.845 2.002 12.506 2.215 16.387.267 4.851 1.643-9.795 29.68 47.704 28.038 57.499 43.949 82.465 47.306 86.451z" fill="#fff"/><path d="m515.702 638.681-1.234 16.951c4.735 4.475 13.724 14.073 11.801 16.659-2.404 3.234-2.192 8.826-26.561 7.362-3.097-2.178-7.797-7.024-12.591-13.437-2.218 1.928-4.748 3.975-7.506 6.031 6.815 11.798 15.845 23.828 24.433 24.453 14.207 1.033 25.53-10.226 26.657-12.932 1.126-2.707 2.37-11.291 2.247-18.116-.098-5.46-11.538-20.256-17.246-26.971z" fill="#fff"/><path d="m469.832 630.386c-.992.857-1.324 18.183-1.368 18.8-.017.229 2.549 6.672 6.649 14.745 2.577-1.574 4.971-3.208 7.116-4.798-3.371-5.298-6.522-11.214-8.89-17.338-.499-5.923 2.917-14.536 8.775-9.896 4.647 4.263 13.249 13.791 10.478 17.803-1.263 1.83-5.051 5.495-10.363 9.431 1.6 2.515 3.25 4.891 4.888 7.083 5.063-4.399 8.505-8.178 9.342-10.036 2.452-6.741 4.487-23.344-6.998-35.829-14.355-15.606-18.638 9.178-19.629 10.035z" fill="#fff"/><path d="m479.611 672.247c2.758-2.056 5.288-4.103 7.506-6.031-1.638-2.192-3.288-4.568-4.888-7.083-2.145 1.59-4.539 3.224-7.116 4.798 1.347 2.651 2.858 5.477 4.498 8.316z" fill="#fff"/><path d="m430.311 689.253c6.968.562 14.09.29 19.497-.838 10.481-3.303 21.242-9.783 29.803-16.168-1.64-2.839-3.151-5.665-4.498-8.316-8.531 5.214-19.065 9.78-29.205 9.949-9.879.164-17.693-.151-23.569-1.953.25.098.504.196.763.293 5.4 2.025 7.307 9.551 7.209 17.033z" fill="#fff"/><path d="m406.496 661.442c-.674 3.453-1.457 9.031-1.454 16.28.002 6.598 12.373 10.491 25.269 11.531.098-7.482-1.809-15.008-7.209-17.033-.259-.097-.513-.195-.763-.293-2.893-.887-5.317-2.136-7.285-3.865-3.911-2.895-5.258-6.012-5.254-8.893.005-3.47-1.567-2.593-2.354-1.72.047 1.136-.215 2.54-.95 3.993z" fill="#fff"/><path d="m403.954 684.149c5.859 8.895 18.526 25.577 22.318 21.143 2.245-2.623 3.952-9.313 4.039-16.039-12.896-1.04-25.267-4.933-25.269-11.531-.003-7.249.78-12.827 1.454-16.28-2.215 4.372-8.732 9.182-24.12 8.434-12.017-.584-18.921-5.395-22.628-10.59 1.037 5.27 1.798 11.635 1.736 18.681 6.436 6.757 10.193 6.312 17.327 6.831 13.869 1.009 22.699-5.371 25.065-8.09z" fill="#fff"/><path d="m350.044 662.876c.487.628.937 1.294 1.35 1.993 4.152 6.075 7.362 10.234 10.09 13.098.062-7.046-.699-13.411-1.736-18.681-2.616-3.668-3.639-7.528-3.742-10.228z" fill="#fff"/><path d="m263.842 736.228c28.174-1.151 86.385-9.453 93.832-33.449 2.706-8.718 3.743-17.166 3.81-24.812-2.728-2.864-5.938-7.023-10.09-13.098 6.497 10.994 4.061 30.152 1.876 38.829-21.505 12.811-61.081 17.656-78.181 18.477-21.269 1.344-62.729-5.68-58.415-44.528 1.236-11.136 5.414-20.56 11.204-28.438-.925-.85-1.787-1.735-2.581-2.656-6.18 8.115-11.386 17.643-14.961 28.774-16.023 49.894 28.994 61.39 53.506 60.901z" fill="#fff"/><path d="m354.824 644.015c-1.714-1.984-4.735 18.245-4.78 18.861l5.962-13.818c.103 2.7 1.126 6.56 3.742 10.228-1.709-8.686-4.167-14.395-4.924-15.271z" fill="#fff"/><path d="m331.346 634.561c-12.013-25.66-27.538-30.301-33.799-29.414-14.94 1.737-41.628 10.185-62.498 30.43.865.885 1.834 1.764 2.917 2.633 14.003-12.465 31.608-19.244 42.635-21.594 21.12-4.969 31.361 13.645 36.428 23.099 5.183 9.672 9.917 24.528-48.23 11.362-15.037-3.404-24.739-7.976-30.833-12.867-3.672 3.268-7.095 6.927-10.088 10.999 14.951 13.75 46.144 18.365 66.68 18.305 33.004-2.246 40.542-24.934 36.788-32.953z" fill="#fff"/><path d="m182.646 621.571c11.121 7.254 32.263-1.989 41.444-7.518-7.392 13.955-5.634 24.563 1.207 32.5 3.041-3.993 6.318-7.644 9.752-10.976-11.237-11.493-4.884-23.891-2.212-26.774 3.228-3.483.247-3.39-1.647-2.908-17.815 6.387-28.724 5.862-31.952 4.801-24.458-4.507-19.387-28.779-13.794-40.352 13.125-29.924 39.405-90.204 39.531-91.93.125-1.726-7.442 5.758-11.241 9.716-12.843 27.466-39.483 85.303-43.302 96.923-4.775 14.524-1.688 27.451 12.214 36.518z" fill="#fff"/><path d="m225.297 646.553c.794.921 1.656 1.806 2.581 2.656 2.993-4.072 6.416-7.731 10.088-10.999-1.083-.869-2.052-1.748-2.917-2.633-3.434 3.332-6.711 6.983-9.752 10.976z" fill="#fff"/><path d="m823.263 469.666c.044.221.198.597.455 1.112m2.638-3.227 10.232.396c-.123.729-.09 1.215.218 2.704m-10.45-3.1c.014.273.036.534.062.822m-.062-.822.062.822m11.358 125.522c-.248.017-.531.749-.782.764-3.074-.069-6.819-4.31-10.822-7.434m11.604 6.67c-5.57 6.883-13.266 15.032-22.328 20.761-5.394 3.375-20.013 6.674-35.273-5.899-.925.048-5.887-3.926-9.121-.664-3.233 3.263-9.919 9.445-12.266 23.801.204 2.469 3.324 12.021 13.497 16.362m65.491-54.361c25.24-1.69 41.713-9.52 46.83-13.259 2.112-1.038 4.284-6.128 2.523-22.127-1.014-19.461-55.063-82.082-50.323-87.858m.97 123.244c4.434-3.862 6.753-10.752 7.767-15.818m-19.371 9.148c-9.181 8.592-20.473 16.303-27.211 16.3-11.758-.007-19.012-6.961-20.328-7.986-.78-.608-5.11-4.579-5.722-4.444-17.508 10.813-20.33 31.54-18.986 39.515.132 4.238 2.375 17.639 12.056 25.888m60.191-69.273c-5.004-3.907-11.179-12.47-11.244-24.296-.118-21.282 8.763-25.829 13.218-25.442 2.712.581 10.457 4.716 15.648 15.275 1.184 2.93 3.372 11.273 2.343 21.229-.086 1.081-.276 2.493-.594 4.086m-19.371 9.148c3.7-3.461 5.052-6.195 8.182-10.245m-68.373 79.518c1.217-1.604 4.824-5.461 5.443-6.644.679-1.3.034-.004.861-1.598m-6.304 8.242c-4.546 5.986-12.336 14.077-16.437 18.114-10.059 8.878-20.175 4.763-22.708 3.658-6.113-2.669-15.07-21.487-26.33-41.632-13.503-28.737-43.864-88.663-57.278-98.47.649 3.845 2.002 12.506 2.215 16.387.267 4.851 1.643-9.795 29.68 47.704 28.038 57.499 43.949 82.465 47.306 86.451 14.173 10.711 26.021 4.524 31.264.229 8.888-6.554 15.652-17.488 20.863-26.774m-8.575-5.667c1.609 1.372 3.408 2.708 5.415 3.98.774.49 2.409 1.258 3.16 1.687m-2.271-13.909c2.66 1.135 5.902.727 9.578 1.73m-9.578-1.73.244-.471m-.244.471c.081-.155.162-.312.244-.471m61.825-70.805c2.658-3.44 6.752-6.767 7.225-13.272-2.444-5.593-7.16-9.158-14.189-11.02-2.576.031-7.875 3.257-8.454 15.912.106 2.027 5.285 7.669 15.418 8.38zm0 0c3.731.783 7.52 1.1 11.189 1.097m-8.737-107.426c-4.341.164-7.76.09-10.221-.067m10.221.067c1.707-.065 3.523.549 5.513.401 11.097-.825-10.356-10.703-22.469-15.539-1.517-.614 1.138 9.966 2.655 15.333.295.062.701.008 1.213-.068m2.867-.194-.167-2.211m.167 2.211c-1.103-.07-2.024.068-2.748.177m2.748-.177c-.046-.89-.102-1.501-.149-2.014m-44.573 181.416c1.561.426 3.22.836 4.983 1.225 3.854.727 14.259.495 14.066-3.208-.08-1.543-8.367-6.186-15.542-1.357-1.205.812-2.365 1.95-3.507 3.34zm0 0c-2.286 2.784-4.957 7.989-7.307 12.179m0 0c16.307 9.319 27.402 3.043 30.57 1.399 3.314-1.719 2.884-15.931.062-22.591-2.823-6.66-10.145-10.611-17.86-10.209-6.142.319-11.189 10.056-14.799 17.021m-365.083 9.664c.787-.873 2.359-1.75 2.354 1.72m-2.354-1.72c.047 1.136-.215 2.54-.95 3.993m.95-3.993s-.444 1.395-.95 3.993m3.304-2.273c-.004 2.881 1.343 5.998 5.254 8.893m-5.254-8.893c1.069 3.859 2.811 6.746 5.254 8.893m-65.01-5.186c.045-.616 3.066-20.845 4.78-18.861.757.876 3.215 6.585 4.924 15.271m-9.704 3.59 5.962-13.818c.103 2.7 1.126 6.56 3.742 10.228m-9.704 3.59c.487.628.937 1.294 1.35 1.993m-1.35-1.993c.461.686.91 1.351 1.35 1.993m472.324-194.091c5.103 10.262 50.534 75.997 59.877 89.456 3.067 5.41-6.904 11.016-13.586 13.427-4.346 1.76-13.91 4.409-24.466 4.416m-21.825-107.299.119-.017m-.119.017c.039-.005.079-.011.119-.017m2.581-2.388.018.197m-.018-.197c.006.064.012.13.018.197m-339.319 197.646c4.794 6.413 9.494 11.259 12.591 13.437 24.369 1.464 24.157-4.128 26.561-7.362 1.923-2.586-7.066-12.184-11.801-16.659l1.234-16.951c5.708 6.715 17.148 21.511 17.246 26.971.123 6.825-1.121 15.409-2.247 18.116-1.127 2.706-12.45 13.965-26.657 12.932-8.588-.625-17.618-12.655-24.433-24.453m7.506-6.031c-2.218 1.928-4.748 3.975-7.506 6.031m7.506-6.031c5.063-4.399 8.505-8.178 9.342-10.036 2.452-6.741 4.487-23.344-6.998-35.829-14.355-15.606-18.638 9.178-19.629 10.035-.992.857-1.324 18.183-1.368 18.8-.017.229 2.549 6.672 6.649 14.745m12.004 2.285c-1.638-2.192-3.288-4.568-4.888-7.083m-2.618 13.114c-8.561 6.385-19.322 12.865-29.803 16.168-5.407 1.128-12.529 1.4-19.497.838m49.3-17.006c-1.64-2.839-3.151-5.665-4.498-8.316m0 0c2.577-1.574 4.971-3.208 7.116-4.798m-7.116 4.798c-8.531 5.214-19.065 9.78-29.205 9.949-9.879.164-17.693-.151-23.569-1.953m59.89-12.794c-3.371-5.298-6.522-11.214-8.89-17.338-.499-5.923 2.917-14.536 8.775-9.896 4.647 4.263 13.249 13.791 10.478 17.803-1.263 1.83-5.051 5.495-10.363 9.431zm-51.918 30.12c.098-7.482-1.809-15.008-7.209-17.033-.259-.097-.513-.195-.763-.293m7.972 17.326c-.087 6.726-1.794 13.416-4.039 16.039-3.792 4.434-16.459-12.248-22.318-21.143l-.078-7.441c-2.366 2.719-11.196 9.099-25.065 8.09-7.134-.519-10.891-.074-17.327-6.831m68.827 11.286c-12.896-1.04-25.267-4.933-25.269-11.531-.003-7.249.78-12.827 1.454-16.28m15.843 10.485c-2.893-.887-5.317-2.136-7.285-3.865m7.285 3.865c-3.07-1.209-5.458-2.513-7.285-3.865m-8.558-6.62c-2.215 4.372-8.732 9.182-24.12 8.434-12.017-.584-18.921-5.395-22.628-10.59m0 0c1.037 5.27 1.798 11.635 1.736 18.681m0 0c-.067 7.646-1.104 16.094-3.81 24.812-7.447 23.996-65.658 32.298-93.832 33.449-24.512.489-69.529-11.007-53.506-60.901 3.575-11.131 8.781-20.659 14.961-28.774m136.187 31.414c-2.728-2.864-5.938-7.023-10.09-13.098m0 0c6.497 10.994 4.061 30.152 1.876 38.829-21.505 12.811-61.081 17.656-78.181 18.477-21.269 1.344-62.729-5.68-58.415-44.528 1.236-11.136 5.414-20.56 11.204-28.438m0 0c-.925-.85-1.787-1.735-2.581-2.656m2.581 2.656c14.951 13.75 46.144 18.365 66.68 18.305 33.004-2.246 40.542-24.934 36.788-32.953-12.013-25.66-27.538-30.301-33.799-29.414-14.94 1.737-41.628 10.185-62.498 30.43m-7.171 13.632c2.993-4.072 6.416-7.731 10.088-10.999m-12.669 8.343c-6.841-7.937-8.599-18.545-1.207-32.5-9.181 5.529-30.323 14.772-41.444 7.518-13.902-9.067-16.989-21.994-12.214-36.518 3.819-11.62 30.459-69.457 43.302-96.923 3.799-3.958 11.366-11.442 11.241-9.716-.126 1.726-26.406 62.006-39.531 91.93-5.593 11.573-10.664 35.845 13.794 40.352 3.228 1.061 14.137 1.586 31.952-4.801 1.894-.482 4.875-.575 1.647 2.908-2.672 2.883-9.025 15.281 2.212 26.774m-9.752 10.976c3.041-3.993 6.318-7.644 9.752-10.976m0 0c.865.885 1.834 1.764 2.917 2.633m0 0c14.003-12.465 31.608-19.244 42.635-21.594 21.12-4.969 31.361 13.645 36.428 23.099 5.183 9.672 9.917 24.528-48.23 11.362-15.037-3.404-24.739-7.976-30.833-12.867z" stroke="#fff"/><path d="m214.416 492.122 1.371-6.082-7.023 7.216c-12.02 29.109-37.912 88.119-45.321 91.289l7.079.515z" fill="#fff"/><path d="m163.443 584.545c-9.262 3.963-18.255 4.236-22.358-3.172-4.102-7.408-3.962-13.58 2.4-20.227 6.363-6.646-11.438 4.114-27.113 2.664-15.676-1.45-33.041-5.186-23.3608-44.666 1.0296-2.81-2.3787-7.282-24.2487-2.692-27.3376 5.739-29.1167 21.683-47.937 20.932-18.82025-.752-12.28515-39.533 15.8972-52.628-7.8533 3.035-24.7664 13.777-29.59194 32.466-4.82557 18.69-.29007 26.666 2.58087 28.317 2.27027 1.402 10.05437 2.153 23.02847-6.052 16.2176-10.257 32.8047-17.087 47.2657-11.707 1.1584-.328 2.7993 1.502.0955 11.444-3.3797 12.427-.234 28.73 15.6988 35.144 12.7459 5.131 28.9009-1.709 35.3849-5.771 1.078-.643 1.472-.597-1.723 6.675-4.08 9.286.868 26.337 15.228 24.6 11.488-1.389 22.008-10.453 25.832-14.812z" fill="#fff"/><path d="m163.443 584.545c7.409-3.17 33.301-62.18 45.321-91.289l7.023-7.216-1.371 6.082-43.894 92.938m-7.079-.515c-9.262 3.963-18.255 4.236-22.358-3.172-4.102-7.408-3.962-13.58 2.4-20.227 6.363-6.646-11.438 4.114-27.113 2.664-15.676-1.45-33.041-5.186-23.3608-44.666 1.0296-2.81-2.3787-7.282-24.2487-2.692-27.3376 5.739-29.1167 21.683-47.937 20.932-18.82025-.752-12.28515-39.533 15.8972-52.628-7.8533 3.035-24.7664 13.777-29.59194 32.466-4.82557 18.69-.29007 26.666 2.58087 28.317 2.27027 1.402 10.05437 2.153 23.02847-6.052 16.2176-10.257 32.8047-17.087 47.2657-11.707 1.1584-.328 2.7993 1.502.0955 11.444-3.3797 12.427-.234 28.73 15.6988 35.144 12.7459 5.131 28.9009-1.709 35.3849-5.771 1.078-.643 1.472-.597-1.723 6.675-4.08 9.286.868 26.337 15.228 24.6 11.488-1.389 22.008-10.453 25.832-14.812m-7.079-.515 7.079.515" stroke="#fff"/><path d="m327.677 225.796c-.629-1.978-1.506-3.913-2.794-5.442-2.284-2.708-5.879-6.957-9.15-10.847-12.334 3.81-24.146 8.409-31.463 13.462-20.267 13.997-38.507 26.593-44.654 31.716-6.148 5.122-42.572 38.365-65.549 36.693-21.174.007-17.635-30.988-14.567-37.882 2.454-5.514 15.06-21.801 21.342-28.771 3.443-4.7 7.911-12.671.358-4.924-9.013 9.246-20.116 25.147-24.141 31.971-4.026 6.824-8.186 33.132 8.52 50.437 13.365 13.845 30.748 6.57 37.769 1.201 15.756-12.261 51.286-41.329 70.47-55.829 13.112-9.911 34.821-17.016 53.859-21.785z" fill="#fff"/><path d="m331.937 229.222c.01-1.441-.102-2.908-.318-4.389-1.298.31-2.613.631-3.942.963 1.678 5.276 1.59 10.855 2.832 9.82 1.366-1.138 1.521-4.737 1.428-6.394z" fill="#fff"/><path d="m324.883 220.354c1.288 1.529 2.165 3.464 2.794 5.442 1.329-.332 2.644-.653 3.942-.963-.879-6.021-3.487-12.273-6.697-18.004-3.055.841-6.138 1.735-9.189 2.678 3.271 3.89 6.866 8.139 9.15 10.847z" fill="#fff"/><path d="m309.414 172.815c-8.874 11.731-2.519 25.808-1.058 27.771.755 1.014 3.88 4.762 7.377 8.921 3.051-.943 6.134-1.837 9.189-2.678-4.538-8.102-10.277-15.163-14.03-19.054-.549-1.278 4.826-4.6 12.44-3.427 6.091.938 21.42 8.366 28.323 11.963 4.488 1.812 4.692 3.126 4.244 3.403-7.484 1.349-19.014 3.823-30.977 7.115 3.21 5.731 5.818 11.983 6.697 18.004 17.192-4.106 31.436-6.244 33.854-6.785 8.152-1.824 14.03-25.281 14.299-28.974.268-3.694-15.788-12.288-37.455-23.148-17.333-8.687-29.157.973-32.903 6.889z" fill="#fff"/><path d="m327.677 225.796c-.629-1.978-1.506-3.913-2.794-5.442-2.284-2.708-5.879-6.957-9.15-10.847m11.944 16.289c-19.038 4.769-40.747 11.874-53.859 21.785-19.184 14.5-54.714 43.568-70.47 55.829-7.021 5.369-24.404 12.644-37.769-1.201-16.706-17.305-12.546-43.613-8.52-50.437 4.025-6.824 15.128-22.725 24.141-31.971 7.553-7.747 3.085.224-.358 4.924-6.282 6.97-18.888 23.257-21.342 28.771-3.068 6.894-6.607 37.889 14.567 37.882 22.977 1.672 59.401-31.571 65.549-36.693 6.147-5.123 24.387-17.719 44.654-31.716 7.317-5.053 19.129-9.652 31.463-13.462m11.944 16.289c1.678 5.276 1.59 10.855 2.832 9.82 1.366-1.138 1.521-4.737 1.428-6.394.01-1.441-.102-2.908-.318-4.389m-3.942.963c1.329-.332 2.644-.653 3.942-.963m-15.886-15.326c-3.497-4.159-6.622-7.907-7.377-8.921-1.461-1.963-7.816-16.04 1.058-27.771 3.746-5.916 15.57-15.576 32.903-6.889 21.667 10.86 37.723 19.454 37.455 23.148-.269 3.693-6.147 27.15-14.299 28.974-2.418.541-16.662 2.679-33.854 6.785m-15.886-15.326c3.051-.943 6.134-1.837 9.189-2.678m6.697 18.004c-.879-6.021-3.487-12.273-6.697-18.004m0 0c-4.538-8.102-10.277-15.163-14.03-19.054-.549-1.278 4.826-4.6 12.44-3.427 6.091.938 21.42 8.366 28.323 11.963 4.488 1.812 4.692 3.126 4.244 3.403-7.484 1.349-19.014 3.823-30.977 7.115z" stroke="#fff"/><path d="m358.436 119.675c4.731 4.479 13.02 11.678 21.253 14.262 10.291 3.23 10.615 7.285 5.072 6.882-5.544-.404-14.782-1.076-11.882 1.616s28.782 25.665 43.663 33.881c14.882 8.216 38.804 32.596 38.919 43.769.116 11.174-2.628 24.709-4.176 27.609-1.434 2.686-3.535 10.287-40.085 31.818-36.55 21.53-95.953 50.689-110.466 50.267-7.106-.207-20.271-5.631-17.834-35.723 1.116-11.084 8.855-40.852 30.881-71.255 1.057-.336 1.89 1.254-3.227 10.31-6.396 11.32-26.817 45.189-18.684 65.319 6.506 16.104 24.893 6.774 34.799 2.533 43.374-18.864 127.769-58.312 121.69-68.369-7.293-12.065-8.759-16.084-46.377-43.382-30.877-22.405-40.563-38.202-43.516-44.413l-4.485-2.187c.518-8.543 1.809-24.866 3.005-24.283z" fill="#fff" stroke="#fff"/><path d="m604.419 232.216c1.928-6.65 6.596-16.618 9.838-3.297.415 2.808 1.054 10.2.289 17.304-.956 8.88 6.661-14.946 5.783-36.922-.272-6.809-3.744-16.628-10.887-3.569-2.597 4.749-6.302 16.824-13.312 21.251-3.692 2.509-13.623 6.786-23.811 3.823-.842-.233-2.388-1.03-4.119-2.66 1.886 7.408 5.3 16.751 5.392 27.721 10.468.665 23.9-3.575 30.827-23.651z" fill="#fff"/><path clip-rule="evenodd" d="m567.6 225.646c.181.803.38 1.636.6 2.5-.689-.65-.658-1.231-.62-1.961.01-.171.019-.349.02-.539z" fill="#fff" fill-rule="evenodd"/><path d="m565.216 209.275c-1.334-7.196-3.875 2.187-3.897 2.494l-5.983 18.39c9.378 15.804 13.754 57.785 9.326 63.327-4.429 5.541-47.15 39.466-105.381 52.511-58.232 13.045-82.259-5.677-94.819-28.811s1.084-65.965 3.357-71.663c1.818-4.559-.43-2.603-1.781-1.055-4.54 7.076-23.532 51.06-8.903 92.553 11.152 31.629 51.716 36.785 71.446 35.134 85.05-11.402 131.879-59.224 134.986-63.627 2.486-3.522 8.104-26.26 9.502-36.959.644-5.466.563-10.904.523-15.702-1.013-.064-3.217-.153-3.484-.124-.349.037-.47.05-1.444-.234-1.834-13.095-4.737-37.872-1.681-32.218.075.138.141.271.199.401-1.425-7.046-1.435-11.556-1.966-14.417z" fill="#fff"/><path d="m566.983 223.291c-3.056-5.654-.153 19.123 1.681 32.218.974.284 1.095.271 1.444.234.267-.029 2.471.06 3.484.124-.092-10.97-3.506-20.313-5.392-27.721-.689-.65-.658-1.231-.62-1.961.01-.171.019-.349.02-.539-.152-.672-.291-1.323-.418-1.954-.058-.13-.124-.263-.199-.401z" fill="#fff"/><path d="m568.2 228.146c1.731 1.63 3.277 2.427 4.119 2.66 10.188 2.963 20.119-1.314 23.811-3.823 7.01-4.427 10.715-16.502 13.312-21.251 7.143-13.059 10.615-3.24 10.887 3.569.878 21.976-6.739 45.802-5.783 36.922.765-7.104.126-14.496-.289-17.304-3.242-13.321-7.91-3.353-9.838 3.297-6.927 20.076-20.359 24.316-30.827 23.651m-5.392-27.721c1.886 7.408 5.3 16.751 5.392 27.721m-5.392-27.721c-.22-.864-.419-1.697-.6-2.5m.6 2.5c-.689-.65-.658-1.231-.62-1.961.01-.171.019-.349.02-.539m5.992 30.221c.04 4.798.121 10.236-.523 15.702-1.398 10.699-7.016 33.437-9.502 36.959-3.107 4.403-49.936 52.225-134.986 63.627-19.73 1.651-60.294-3.505-71.446-35.134-14.629-41.493 4.363-85.477 8.903-92.553 1.351-1.548 3.599-3.504 1.781 1.055-2.273 5.698-15.917 48.529-3.357 71.663s36.587 41.856 94.819 28.811c58.231-13.045 100.952-46.97 105.381-52.511 4.428-5.542.052-47.523-9.326-63.327l5.983-18.39c.022-.307 2.563-9.69 3.897-2.494.531 2.861.541 7.371 1.966 14.417m6.41 32.175c-1.013-.064-3.217-.153-3.484-.124-.349.037-.47.05-1.444-.234-1.834-13.095-4.737-37.872-1.681-32.218.075.138.141.271.199.401m0 0c.352.783.42 1.413.418 1.954m-.418-1.954c.127.631.266 1.282.418 1.954" stroke="#fff"/><path d="m708.373 260.276c6.47.471 16.289 14.531-4.473 61.461 8.841-32.104 3.563-36.195-2.465-38.487-6.029-2.292-21.318 29.033-35.596 42.205-14.278 13.171-34.379 16.96-33.875 18.542.505 1.581-1.075-2.241 23.789 5.129 19.891 5.896 79.47 10.417 107.51 12.457-8.437 17.181-13.487 20.747-15.101 20.217-30.916-4.226-71.809 7.75-88.985 13.914 0 0-38.076 16.692-66.076 18.362s-31.964-16.228-31.673-20.223c.233-3.196-.9-1.816-1.496-.726-19.059 36.302-39.652 8.545-40.487 7.248-.668-1.037-1.085-.697-1.21-.397-2.934 6.274-14.708 23.335-34.54 23.437-15.865.081-20.868-18.304-20.946-27.165-11.636 6.67-41.36 20.963-55.622 19.431-17.827-1.915-23.589-24.887-24.924-32.089-1.334-7.203-12.442 4.964-64.742 25.564s-132.627 9.194-136.467-40.205c-1.628-38.92 15.503-64.056 21.805-69.776-17.974 29.894-13.997 56.133-11.055 62.526 12.329 28.082 39.955 34.109 70.152 36.306 54.343 2.41 117.889-36.525 122.029-38.077 4.14-1.553 4.644.029 5.34 7.494s6.178 25.781 24.358 27.104c18.179 1.323 51.415-16.957 55.622-19.431 3.365-1.979 3.339-.478 3.081.224-1.147 2.141-1.386 6.284-1.528 8.23-.85 11.678 12.305 18.196 16.003 18.465 5.238.381 14.706-2.019 24.044-6.901 7.343-3.462 15.809-16.738 19.911-23.17l.058-.091c2.05-2.631 2.532-.742 1.804.749-.931 1.907-1.814 7.9-1.573 8.845.342 2.393 3.908 8.44 14.472 9.703 13.205 1.579 18.351-13.802 21.152-18.232 2.24-3.545 3.142-2.037 3.148-.698l-.033.181c-1.048 5.82-2.827 15.701 17.487 19.625 20.528 3.965 64.784-10.527 84.346-18.268-12.412-2.551-40.953-8.479-55.829-11.786s-30.319-4.78-36.181-5.104l13.802-19.385c7.068-2.06 26.929-8.235 49.83-16.454 22.9-8.22 37.349-29.411 43.714-38.834 14.303-19.472 19.726-22.764 21.42-21.92z" fill="#fff"/><path d="m569.817 372.221c-.006-1.339-.908-2.847-3.148.698-2.801 4.43-7.947 19.811-21.152 18.232-10.564-1.263-14.13-7.31-14.472-9.703-.241-.945.642-6.938 1.573-8.845.728-1.491.246-3.38-1.804-.749m39.003.367-.033.181m.033-.181c-.011.06-.022.121-.033.181m-38.97-.548-.058.091m.058-.091c-.02.03-.039.061-.058.091m0 0c-4.102 6.432-12.568 19.708-19.911 23.17-9.338 4.882-18.806 7.282-24.044 6.901-3.698-.269-16.853-6.787-16.003-18.465.142-1.946.381-6.089 1.528-8.23.258-.702.284-2.203-3.081-.224-4.207 2.474-37.443 20.754-55.622 19.431-18.18-1.323-23.662-19.639-24.358-27.104s-1.2-9.047-5.34-7.494c-4.14 1.552-67.686 40.487-122.029 38.077-30.197-2.197-57.823-8.224-70.152-36.306-2.942-6.393-6.919-32.632 11.055-62.526-6.302 5.72-23.433 30.856-21.805 69.776 3.84 49.399 84.167 60.805 136.467 40.205s63.408-32.767 64.742-25.564c1.335 7.202 7.097 30.174 24.924 32.089 14.262 1.532 43.986-12.761 55.622-19.431.078 8.861 5.081 27.246 20.946 27.165 19.832-.102 31.606-17.163 34.54-23.437.125-.3.542-.64 1.21.397.835 1.297 21.428 29.054 40.487-7.248.596-1.09 1.729-2.47 1.496.726-.291 3.995 3.673 21.893 31.673 20.223s66.076-18.362 66.076-18.362c17.176-6.164 58.069-18.14 88.985-13.914 1.614.53 6.664-3.036 15.101-20.217-28.04-2.04-87.619-6.561-107.51-12.457-24.864-7.37-23.284-3.548-23.788-5.129-.505-1.582 19.596-5.371 33.874-18.542 14.278-13.172 29.567-44.497 35.596-42.205 6.028 2.292 11.306 6.383 2.465 38.487 20.762-46.93 10.943-60.99 4.473-61.461-1.694-.844-7.117 2.448-21.42 21.92-6.365 9.423-20.814 30.614-43.714 38.834-22.901 8.219-42.763 14.394-49.83 16.454l-13.801 19.385c5.861.324 21.304 1.797 36.18 5.104s43.417 9.235 55.829 11.786c-19.562 7.741-63.818 22.233-84.346 18.268-20.314-3.924-18.535-13.805-17.487-19.625" stroke="#fff"/><path d="m647.072 59.5242c7.354 18.126 20.694 54.2168 15.224 53.5698-.758.359-2.397.198-2.894-3.315s-5.535-5.783-7.992-6.479c-1.002-.591-2.905 1.154-2.503 12.855.402 11.702 5.385 77.379 8.35 109.259 3.518 37.817 9.218 90.446-6.965 95.725 6.618-4.795-7.322-139.913-9.984-168.667-2.106-22.753-3.896-49.85-3.102-60.7604l-4.003-9.6041 8.652-15.5127c2.322-7.778 4.445-7.9546 5.217-7.0706z" fill="#fff" stroke="#fff"/><path d="m496.277 60.135c6.689.8116-11.59-28.1413-16.24-57.94906 0 0 .14-4.86532-4.345 4.33698l-8.724 17.66708 2.685 1.4364c.987 13.8761-.98 50.492-.092 82.1976 1.025 36.615 15.666 216.931 8.485 229.322 15.036-19.207 11.862-97.053 10.035-141.855l-.031-.777c-1.561-38.278-5.602-119.1885-6.023-134.4851-.278-6.1209 1.013-15.6228 8.398-4.6626l.011.0154c.508.7093 3.829 5.3458 5.841 4.7533z" fill="#fff"/><g stroke="#fff"><path d="m488.05 194.514c-1.561-38.278-5.602-119.1885-6.023-134.4851-.278-6.1209 1.013-15.6228 8.398-4.6626m-2.375 139.1477.031.777m-.031-.777c.01.258.021.517.031.777m2.344-139.9247.011.0154m-.011-.0154c.003.0049.007.01.011.0154m-12.39 281.7643c7.181-12.391-7.46-192.707-8.485-229.322-.888-31.7056 1.079-68.3215.092-82.1976l-2.685-1.4364 8.724-17.66708c4.485-9.2023 4.345-4.33698 4.345-4.33698 4.65 29.80776 22.929 58.76066 16.24 57.94906-2.012.5926-5.333-4.044-5.841-4.7533m-12.39 281.7643c15.036-19.207 11.862-97.053 10.035-141.855m-10.035 141.855c-.136.173-.273.342-.412.506.145-.112.282-.282.412-.506z"/><path d="m724.343 208.909c-3.66-4.774-11.529-10.708-13.725 3.748-2.746 18.07-8.803 35.575-11.356 38.317s.548-25.331-14.919-35.519c-2.785 2.305-9.754 4.293-15.345-6.195 1.84-4.497 6.06-13.108 8.215-11.575 5.52.943 17.792 8.652 22.718 31.951.74 2.642 2.958 1.909 5.916-22.163 2.959-24.072 15.94-17.583 22.062-11.329z" fill="#fff"/><path d="m720.411 502.458c-3.355-1.125-9.145-1.431-5.461 6.342 4.604 9.716 7.407 20.246 7.065 22.423-.343 2.177-8.065-12.534-18.96-12.416-.6 2.04-3.345 5.302-9.522 2.026-.581-2.799-1.356-8.386.2-8.347 3.002-1.356 11.523-1.633 21.589 8.11 1.23 1.046 2.071-.042-4.404-12.755s1.991-13.819 7.033-12.782z" fill="#fff"/><path d="m454.892 296.468c-3.66-4.774-11.529-10.708-13.725 3.748-2.746 18.07-8.803 35.574-11.356 38.316-2.552 2.742.548-25.331-14.919-35.519-2.785 2.305-9.754 4.294-15.345-6.195 1.84-4.497 6.06-13.108 8.215-11.575 5.52.943 17.792 8.653 22.718 31.952.74 2.642 2.958 1.908 5.916-22.164 2.959-24.071 15.941-17.582 22.062-11.329z" fill="#fff"/><path d="m271.38 510.916c-1.16-3.898-4.699-9.544-9.573-.943-6.093 10.75-14.141 20.345-16.415 21.461s6.456-15.867-.855-26.033c-2.315.784-7.196.359-8.197-7.614 2.247-2.396 6.989-6.817 7.98-5.329 3.26 1.927 9.151 9.757 6.642 25.661-.171 1.847 1.407 1.918 9.083-12.571 7.675-14.49 14.309-7.26 16.666-1.834z" fill="#fff"/><path d="m61.4797 573.568c-.3323-3.722-2.4875-9.454-8.4492-2.599-7.4521 8.569-16.4541 15.74-18.7059 16.33s8.7143-13.111 3.9873-23.602c-2.2286.283-6.547-.992-5.9917-8.356 2.4618-1.748 7.5405-4.863 8.1615-3.341 2.5833 2.331 6.4584 10.459 1.2925 24.324-.491 1.633.9171 1.986 10.4775-9.662 9.5605-11.648 14.2142-3.924 15.346 1.394z" fill="#fff"/><path d="m646.456 599.527c-2.886-2.193-8.402-4.393-7.383 4.359 1.274 10.939.533 22.076-.516 24.075-1.048 1.999-3.704-14.811-14.312-18.277-1.253 1.783-4.988 4.045-9.903-1.164.355-2.906 1.44-8.581 2.937-8.032 3.358-.329 11.715 2.203 18.279 14.964.849 1.418 2.022.64-.081-13.822s6.473-12.752 11.024-10.089z" fill="#fff"/><path d="m566.624 80.9043c-3.66-4.7739-11.529-10.7078-13.725 3.7481-2.746 18.0696-8.804 35.5746-11.356 38.3166-2.553 2.742.548-25.3308-14.919-35.5192-2.786 2.3053-9.754 4.2936-15.345-6.195 1.84-4.497 6.059-13.1078 8.215-11.5746 5.52.9425 17.792 8.6521 22.718 31.9508.739 2.643 2.958 1.909 5.916-22.1628s15.94-17.5828 22.061-11.3294z" fill="#fff"/><path d="m269.074 190.23c-3.57-5.325-11.226-11.959-13.294 4.109-2.584 20.085-8.383 39.527-10.846 42.566-2.464 3.039.421-28.17-14.622-39.569-2.692 2.552-9.442 4.733-14.909-6.956 1.765-4.994 5.82-14.552 7.917-12.837 5.357 1.072 17.292 9.699 22.17 35.633.729 2.942 2.877 2.136 5.641-24.623 2.765-26.76 15.383-19.487 21.346-12.505z" fill="#fff"/><path d="m428.883 64.1449-2.57 7.8179-116.618 59.9302 1.639-8.473z" fill="#fff"/><path d="m328.677 420.182-3.971 8.114-70.164 22.739 3.834-9.262z" fill="#fff"/><path d="m787.194 462.937-.509 15.308-78.842 104.397-2.207-12.243z" fill="#fff"/><path d="m445.118 541.705-6.032 12.323-106.562 34.535 5.823-14.066z" fill="#fff"/><path d="m445.534 718.326-2.038 5.844-48.085 21.591 1.825-6.608z" fill="#fff"/><path d="m740.517 588.738.755 5.9-31.355 38.656-1.258-6.473z" fill="#fff"/><path d="m192.382 494.436-6.88 7.819-84.933 3.989 7.075-9.136z" fill="#fff"/><path d="m756.09 309.552-2.772 8.175-63.71 30.123 2.502-9.245z" fill="#fff"/><path d="m742.445 246.562c.155 4.171.26 13.056-.563 15.234-1.03 2.722-3.089 16.289 3.997 19.729 5.669 2.752 5.118-1.657 4.134-4.205.523-2.32 1.754-6.684 2.492-5.585.923 1.374-.034 20.557-5.644 20.939-4.488.307-7.256-3.225-8.079-5.029-.999-3.579-2.565-12.5-.836-19.558 2.161-8.822 3.729-23.903 4.499-21.525z" fill="#fff"/><path d="m623.177 645.509c.139 3.72.233 11.648-.503 13.591-.918 2.429-2.755 14.534 3.567 17.603 5.058 2.455 4.567-1.478 3.688-3.752.467-2.069 1.566-5.963 2.224-4.983.823 1.226-.031 18.341-5.036 18.683-4.004.273-6.473-2.878-7.208-4.488-.891-3.193-2.289-11.153-.746-17.45 1.928-7.871 3.327-21.327 4.014-19.204z" fill="#fff"/><path d="m555.445 665.247c.12 3.21.201 10.047-.433 11.724-.793 2.095-2.377 12.536 3.077 15.183 4.362 2.118 3.938-1.275 3.181-3.236.402-1.785 1.35-5.144 1.918-4.298.71 1.057-.027 15.82-4.344 16.115-3.454.236-5.584-2.482-6.217-3.871-.769-2.754-1.975-9.62-.644-15.052 1.663-6.789 2.87-18.395 3.462-16.565z" fill="#fff"/><path d="m620.341 543.122c.847 3.098 2.482 9.738 2.246 11.514-.295 2.221.539 12.749 6.452 14.085 4.73 1.069 3.545-2.138 2.361-3.875-.014-1.83.144-5.316.889-4.622.932.868 3.575 15.411-.562 16.681-3.309 1.015-6.002-1.147-6.935-2.354-1.375-2.507-4.112-8.919-4.053-14.511.075-6.99-1.392-18.566-.398-16.918z" fill="#fff"/><path d="m202.262 225.234c-1.294 3.967-4.262 12.343-5.787 14.102-1.906 2.2-8.52 14.223-3.057 19.897 4.371 4.539 5.375.211 5.331-2.52 1.292-1.996 3.953-5.668 4.267-4.382.391 1.608-7.128 19.282-12.525 17.705-4.317-1.261-5.696-5.531-5.846-7.509.297-3.703 1.906-12.617 5.965-18.645 5.073-7.534 11.75-21.147 11.652-18.648z" fill="#fff"/><path d="m165.373 301.839c-.845 5.889-2.963 18.378-4.674 21.222-2.138 3.556-8.484 22.061.578 28.691 7.25 5.305 7.601-1.019 6.87-4.844 1.325-3.12 4.164-8.927 4.919-7.198.944 2.162-5.288 28.824-13.254 27.931-6.373-.715-9.355-6.374-10.049-9.114-.489-5.274-.412-18.187 3.812-27.645 5.28-11.823 11.324-32.575 11.798-29.043z" fill="#fff"/><path d="m430.247 95.4773c-.488 4.8667-1.79 15.1997-3.096 17.5957-1.633 2.996-6.198 18.417 1.478 23.547 6.14 4.104 6.207-1.103 5.473-4.219.98-2.609 3.109-7.479 3.789-6.085.851 1.743-3.336 23.862-9.91 23.407-5.26-.365-7.907-4.909-8.573-7.135-.587-4.315-.975-14.925 2.164-22.842 3.924-9.896 8.163-27.1538 8.675-24.2687z" fill="#fff"/><path clip-rule="evenodd" d="m213.968 458.573c-.427-2.213-4.674-3.831-18.25 7.404-13.577 11.235-5.605 15.161.078 15.719 1.893.46 6.56-.165 10.092-6.344 3.531-6.178 1.286-12.045-.279-14.206 2.099-1.874 6.708-5.012 8.359-2.573zm-20.767 14.766c-.132-2.728 5.164-6.39 7.828-7.88 4.326 10.191.357 12.06-2.168 11.721-1.831-.143-5.527-1.112-5.66-3.841z" fill="#fff" fill-rule="evenodd"/><path clip-rule="evenodd" d="m605.964 107.374c-2.82-3.247-11.389-1.872-23.109 29.606-11.719 31.478 5.212 30.363 15.143 25.871 3.568-1.044 10.689-6.522 10.629-20.085-.061-13.562-9.378-21.106-14.029-23.183 1.68-5.092 6.306-14.663 11.366-12.209zm-20.239 44.155c-2.824-4.377 2.436-15.467 5.418-20.464 16.887 12.701 12.109 19.567 7.61 21.412-3.166 1.508-10.203 3.429-13.028-.948z" fill="#fff" fill-rule="evenodd"/><path clip-rule="evenodd" d="m747.602 549.511c-2.643-.779-6.803 2.918-2.306 23.937s13.27 14.579 17.094 8.732c1.57-1.794 3.536-7.205-1.166-14.499-4.701-7.293-12.336-8.149-15.566-7.665-.844-3.326-1.638-10.083 1.944-10.505zm4.254 30.794c-3.034-1.386-4.007-9.181-4.114-12.905 13.504 1.026 13.283 6.377 11.485 8.924-1.193 1.905-4.337 5.368-7.371 3.981z" fill="#fff" fill-rule="evenodd"/><path clip-rule="evenodd" d="m421.427 586.896c-2.031-1.714-10.74 9.174-14.901 29.511s6.072 18.045 11.709 14.357c2.079-.977 5.907-5 4.579-13.276s-7.735-11.996-10.772-12.821c.541-3.27 6.062-18.788 9.385-17.771zm-11.764 38.122c-2.141-2.404.016-9.676 1.361-13.012 11.521 6.149 9.257 10.797 6.685 12.352-1.79 1.222-5.904 3.065-8.046.66z" fill="#fff" fill-rule="evenodd"/></g><path d="m621.712 286.281-21.532-14.886-13.843 17.113 21.561 14.696z" fill="url(#b)"/><path d="m555.819 169.949-21.532-14.885-13.842 17.112 21.56 14.696z" fill="url(#c)"/><path d="m723.814 424.456-21.532-14.885-13.843 17.112 21.561 14.696z" fill="url(#d)"/><path d="m367.757 433.452-18.386-18.633-16.785 14.237 18.448 18.452z" fill="url(#e)"/><path d="m870.814 621.713-19.245-.128-1.325 16.127 19.184.003z" fill="url(#f)"/><path d="m818.796 502.054-19.245-.129-1.325 16.128 19.184.002z" fill="url(#g)"/><path d="m609.051 629.804-18.173-4.16-4.637 14.974 18.142 4.027z" fill="url(#h)"/><path d="m503.891 571.453-17.198-7.198-7.122 13.964 17.189 7.062z" fill="url(#i)"/><path d="m504.503 714.832-17.198-7.198-7.122 13.964 17.189 7.062z" fill="url(#j)"/><path d="m478.648 721.006-17.197-7.198-7.123 13.964 17.189 7.062z" fill="url(#k)"/><path d="m476.591 578.957-17.197-7.198-7.123 13.964 17.189 7.062z" fill="url(#l)"/><path d="m385.677 615.962-13.321-13.043-11.778 10.344 13.363 12.913z" fill="url(#m)"/><path d="m102.824 614.076-8.4523-16.617-14.4668 6.036 8.534 16.508z" fill="url(#n)"/><path d="m584.732 640.428-18.173-4.16-4.637 14.973 18.141 4.028z" fill="url(#o)"/><path d="m846.662 638.545-19.245-.128-1.325 16.127 19.184.003z" fill="url(#p)"/><path d="m794.644 518.886-19.245-.129-1.325 16.128 19.184.002z" fill="url(#q)"/><path clip-rule="evenodd" d="m609.396 593.686-5.025-3.856c1.702-3.501 2.687-7.245 2.742-11.227.12-8.279-3.592-19.655-19.54 3.053-1.655 2.356.484 6.58 8.936 12.913-1.418 1.757-3.201 3.536-5.428 5.243-9.002 6.904-23.206 20.688-34.564 26.326 15.04-3.449 30.51-13.835 43.244-29.245 1.841 1.261 3.906 2.595 6.213 4.003 1.929-2.18 5.315-6.674 3.422-7.21zm-8.67-6.653-7.796-5.982c.932-1.755 3.456-5.019 6.088-4.032 2.633.987 2.803 3.519 2.559 4.661.095 1.196-.094 3.089-.851 5.353z" fill="#fff" fill-rule="evenodd"/><path d="m604.371 589.83 5.025 3.856c1.893.536-1.493 5.03-3.422 7.21-2.307-1.408-4.372-2.742-6.213-4.003m4.61-7.063c1.702-3.501 2.687-7.245 2.742-11.227.12-8.279-3.592-19.655-19.54 3.053-1.655 2.356.484 6.58 8.936 12.913m7.862-4.739c-1.203 2.476-2.765 4.831-4.61 7.063m4.61-7.063-3.645-2.797m-.965 9.86c-12.734 15.41-28.204 25.796-43.244 29.245 11.358-5.638 25.562-19.422 34.564-26.326 2.227-1.707 4.01-3.486 5.428-5.243m3.252 2.324c-1.174-.804-2.257-1.579-3.252-2.324m0 0c2.152-2.666 3.465-5.285 4.217-7.536m0 0-7.796-5.982c.932-1.755 3.456-5.019 6.088-4.032 2.633.987 2.803 3.519 2.559 4.661.095 1.196-.094 3.089-.851 5.353z" stroke="#fff" stroke-width="1.26667"/><path d="m608.996 577.535c1.445-4.173 5.939-22.447 1.77-24.33-4.168-1.883-15.363 1.844-19.445 5.002-7.777 6.015-20.169 20.401-17.637 34.011 2.533 13.611 12.862 8.42 16.559 2.437-3.548 1.915-9.89-.383-11.318-2.055-4.5-5.271-3.39-11.749-1.191-15.772 5.546-8.975 34.077-37.986 31.262.707z" fill="#fff" stroke="#fff"/><path d="m525.321 227.731c-4.193 11.976-11.877 38.91-3.902 43.182 1.665.674 6.16.108 10.823-7.557-.529 6.231-3.885 21.987-12.936 20.43-12.539-2.157-1.676-47.799 6.015-56.055z" fill="#fff"/><path d="m292.58 559.003c-6.791 5.947-20.982 19.932-17.541 25.37.794 1.001 3.776 2.225 9.348-.888-2.51 3.673-10.106 12.253-15.165 8.119-7.009-5.727 15.704-30.183 23.358-32.601z" fill="#fff"/><path d="m234.461 557.253c-6.791 5.946-20.983 19.932-17.542 25.37.795 1.001 3.777 2.225 9.348-.888-2.51 3.673-10.106 12.253-15.165 8.119-7.009-5.728 15.704-30.183 23.359-32.601z" fill="#fff"/><path d="m163.197 506.213c-6.791 5.946-20.983 19.932-17.541 25.37.794 1.001 3.776 2.225 9.348-.888-2.51 3.673-10.107 12.253-15.166 8.119-7.008-5.728 15.705-30.183 23.359-32.601z" fill="#fff"/><path d="m143.68 599.961c-8.03 4.121-25.191 14.247-23.171 20.357.528 1.164 3.124 3.075 9.284 1.407-3.326 2.954-12.776 9.435-16.682 4.197-5.409-7.256 22.557-25.472 30.569-25.961z" fill="#fff"/><path d="m780.329 542.629c1.232 7.67 4.941 24.413 10.479 24.39 1.093-.122 3.349-1.737 3.627-7.222 1.53 3.509 4.314 12.971-1.014 14.769-7.38 2.492-14.828-25.25-13.092-31.937z" fill="#fff"/><path d="m724.605 627.184c1.231 7.67 4.94 24.413 10.478 24.39 1.094-.122 3.349-1.737 3.627-7.222 1.531 3.509 4.314 12.971-1.014 14.77-7.38 2.491-14.828-25.251-13.091-31.938z" fill="#fff"/><path d="m207.373 119.1c-11.42 20.725-33.891 67.874-20.55 78.198 2.853 1.757 11.295 2.107 22.242-10.543-2.901 11.294-13.952 39.228-30.114 33.562-22.39-7.85 11.722-88.415 28.422-101.217z" fill="#fff"/><path d="m226.657 306.274c2.043 5.114 17.02 17.983 38.595 24.187l1.14-5.71c-10.871-3.274-37.536-13.526-35.521-25.296.828-4.277 9.852-11.056 39.326-3.954l.202-2.774c-11.015-2.757-34.738-5.556-41.825 5.195-.953 1.109-2.671 4.332-1.917 8.352z" fill="#fff"/><path d="m228.495 298.043c.026-.041.052-.081.079-.121m0 0c7.087-10.751 30.81-7.952 41.825-5.195l-.202 2.774c-29.474-7.102-38.498-.323-39.326 3.954-2.015 11.77 24.65 22.022 35.521 25.296l-1.14 5.71c-21.575-6.204-36.552-19.073-38.595-24.187-.754-4.02.964-7.243 1.917-8.352z" stroke="#fff"/><path d="m307.646 347.928c-5.975 2.232-18.348-.78-23.789-2.565l-2.696-1.863c1.498 1.532 2.199 3.268 2.515 4.351.23.784.318 1.695.276 2.663l11.68 2.768c-5.331 3.37-14.608 11.045-17.679 13.321-2.31 1.712-15.035 6.572-15.706-2.075-1.042.452-2.077.8-3.071.997.283 5.131 3.092 7.045 4.236 7.674 3.041 1.673 11.819.86 19.333-6.094 6.834-6.326 22.17-14.931 29.9-17.98l-.542-2.54z" fill="#fff"/><path d="m264.678 349.674c-.271.458-.536.924-.794 1.394-1.615 2.947-2.946 6.09-3.78 8.828.899-.27 1.909-.688 3.035-1.292.057-.186.117-.375.18-.567 8.096-15.413 13.613-14.011 15.359-11.384 3.715 4.859 2.408 6.843.842 8.396-1.059 1.05-3.361 2.256-4.276-1.144-.915-3.401-3.232-2.18-4.276-1.145-3.067 2.826-5.663 4.681-7.829 5.844-.754 2.455-1.011 4.4-.892 5.924 3.711-1.609 7.503-4.54 9.805-6.689l1.324 1.764c6.159 3.27 10.344-3.756 10.576-9.089.042-.968-.046-1.879-.276-2.663-.316-1.083-1.017-2.819-2.515-4.351-1.252-1.281-3.063-2.419-5.674-2.913-2.372-.448-4.988 1.368-7.419 4.241-.543.642-1.077 1.337-1.597 2.071-.62.877-1.221 1.81-1.793 2.775z" fill="#fff"/><path d="m259.176 365.525c.994-.197 2.029-.545 3.071-.997-.119-1.524.138-3.469.892-5.924-1.126.604-2.136 1.022-3.035 1.292-.643 2.114-.99 3.986-.941 5.34.003.097.007.194.013.289z" fill="#fff"/><path d="m263.884 351.068c.258-.47.523-.936.794-1.394.572-.965 1.173-1.898 1.793-2.775.52-.734 1.054-1.429 1.597-2.071-1.883-3.515-8.025-9.418-17.524-4.904-11.774 5.595-8.386-12.988-1.735-16.751-3.579 1.998-9.894 8.599-7.79 19.907.24 1.684 3.011 4.219 12.174.885 8.376-3.047 10.206 3.461 10.691 7.103z" fill="#fff"/><path d="m252.549 354.942c-.536-1.15.731-7.913 3.742-10.971l-.138-.23c-7.648 6.631-6.297 14.15-4.142 18.597.758 1.564 4.904 3.635 7.165 3.187-.006-.095-.01-.192-.013-.289-.049-1.354.298-3.226.941-5.34-3.08.925-6.885-3.517-7.555-4.954z" fill="#fff"/><path d="m264.585 350.629c.043-.337.073-.655.093-.955m16.483-6.174c-1.252-1.281-3.063-2.419-5.674-2.913-2.372-.448-4.988 1.368-7.419 4.241m13.093-1.328c1.498 1.532 2.199 3.268 2.515 4.351.23.784.318 1.695.276 2.663m-2.791-7.014 2.696 1.863c5.441 1.785 17.814 4.797 23.789 2.565l4.457-1.343.542 2.54c-7.73 3.049-23.066 11.654-29.9 17.98-7.514 6.954-16.292 7.767-19.333 6.094-1.144-.629-3.953-2.543-4.236-7.674m24.776-15.011c-.232 5.333-4.417 12.359-10.576 9.089l-1.324-1.764c-2.302 2.149-6.094 5.08-9.805 6.689m21.705-14.014 11.68 2.768c-5.331 3.37-14.608 11.045-17.679 13.321-2.31 1.712-15.035 6.572-15.706-2.075m0 0c-1.042.452-2.077.8-3.071.997m3.071-.997c-.119-1.524.138-3.469.892-5.924m-3.963 6.921c-.006-.095-.01-.192-.013-.289-.049-1.354.298-3.226.941-5.34m-.928 5.629c-2.261.448-6.407-1.623-7.165-3.187-2.155-4.447-3.506-11.966 4.142-18.597l.138.23c-3.011 3.058-4.278 9.821-3.742 10.971.67 1.437 4.475 5.879 7.555 4.954m4.574-10.222c.572-.965 1.173-1.898 1.793-2.774.52-.735 1.054-1.43 1.597-2.072m-3.39 4.846c-.271.458-.536.924-.794 1.394m-3.78 8.828c.899-.27 1.909-.688 3.035-1.292m-3.035 1.292c.834-2.738 2.165-5.881 3.78-8.828m-.745 7.536c.057-.186.117-.375.18-.567 8.096-15.413 13.613-14.011 15.359-11.384 3.715 4.859 2.408 6.843.842 8.396-1.059 1.05-3.361 2.256-4.276-1.144-.915-3.401-3.232-2.18-4.276-1.145-3.067 2.826-5.663 4.681-7.829 5.844zm4.929-13.776c-1.883-3.515-8.025-9.418-17.524-4.904-11.774 5.595-8.386-12.988-1.735-16.751m19.259 21.655c-1.221 2.762-3.719 8.326-3.936 8.478-.073.051-.07-.9-.248-2.238m0 0c-.485-3.642-2.315-10.15-10.691-7.103-9.163 3.334-11.934.799-12.174-.885-2.104-11.308 4.211-17.909 7.79-19.907m0 0c.057-.032.115-.063.172-.093-.056.03-.114.061-.172.093z" stroke="#fff"/><path d="m277.947 331.446c-.163 2.244-1.742 3.772-3.339 3.656-1.597-.117-2.938-1.857-2.775-4.101.163-2.243 1.743-3.771 3.339-3.655 1.597.116 2.938 1.857 2.775 4.1z" fill="#fff" stroke="#fff"/><path d="m297.817 339.394c-.148 2.034-1.688 3.461-3.316 3.343-1.628-.119-2.946-1.754-2.798-3.788.148-2.033 1.689-3.461 3.316-3.342 1.628.118 2.946 1.754 2.798 3.787z" fill="#fff" stroke="#fff"/><path d="m675.884 129.384 4.11-12.628c4.091 7.12 12.078 24.039 11.298 34.755-.474 8.942-2.435 27.615-6.493 30.767l-1.058-.077c2.413-8.802 6.314-28.303 2.612-35.897-3.702-7.595-8.522-14.445-10.469-16.92z" fill="#fff" stroke="#fff"/><path d="m671.987 539.096-3.472-7.954c5.047 1.756 16.203 6.667 20.455 12.263 3.633 4.595 10.751 14.603 10.156 17.88l-.543.412c-2.638-5.351-9.179-16.592-14.243-18.747-5.064-2.154-10.345-3.467-12.353-3.854z" fill="#fff" stroke="#fff"/><path d="m376.73 704.043c1.997.706 5.823 2.22 5.151 2.627-.841.509-8.672.079-10.933 6.617s3.305 31.889-.322 38.105c-.894 1.531-1.488 2.508-1.868 3.094 2.931.431 7.465-6.314 4.134-37.206-.385-2.448 2.692-7.144 14.716-4.311.666-.786 1.942-2.712 1.42-6.029-.577-3.672-3.836-5.146-6.778-7.96-1.682 1.017-6.781 3.069-5.52 5.063z" fill="#fff"/><path d="m373.606 229.367c3.92 1.519 5.064 8.046 2.857 7.607-2.445-.486-8.263-1.526-8.457-3.082-1.924 2.19-3.387 3.58-4.651 5.702 3.481 1.88 12.385 3.81 14.367 4.24l.1.021c2.136.464 4.961-4.263 5.336-5.161.375-.897-2.352-6.028-5.847-13.374-2.443-5.132-10.311 5.131-15.332 13.066.115.39.616.797 1.376 1.208 1.264-2.122 2.727-3.512 4.651-5.702 1.858-2.114 4.174-5.077 5.6-4.525z" fill="#fff"/><path d="m360.002 241.634c-.201 2.76-10.698 14.945-69.62 32.238 7.577.962 31.79-2.312 68.026-23.105.661-.569 3.025-7.488 3.4-8.385.097-.233.676-1.325 1.547-2.788-.76-.411-1.261-.818-1.376-1.208-.727 1.15-1.394 2.25-1.977 3.248z" fill="#fff"/><path d="m368.006 233.892c1.858-2.114 4.174-5.077 5.6-4.525 3.92 1.519 5.064 8.046 2.857 7.607-2.445-.486-8.263-1.526-8.457-3.082zm0 0c-1.924 2.19-3.387 3.58-4.651 5.702m14.467 4.261c2.136.464 4.961-4.263 5.336-5.161.375-.897-2.352-6.028-5.847-13.374-2.443-5.132-10.311 5.131-15.332 13.066m15.843 5.469-.1-.021m.1.021c-.031-.006-.065-.014-.1-.021m-15.743-5.448c-.727 1.15-1.394 2.25-1.977 3.248-.201 2.76-10.698 14.945-69.62 32.238 7.577.962 31.79-2.312 68.026-23.105.661-.569 3.025-7.488 3.4-8.385.097-.233.676-1.325 1.547-2.788m-1.376-1.208c.115.39.616.797 1.376 1.208m0 0c3.481 1.88 12.385 3.81 14.367 4.24" stroke="#fff"/><path d="m567.943 591.763c1.148-4.351 2.998-13.765 1.209-16.618-1.226-1.954-5.059-6.7-9.299-11.327-1.273 2.972-2.842 6.068-4.723 9.247 7.392 7.403 13.504 14.907 12.813 18.698z" fill="#fff"/><path d="m556.427 560.208c-1.119 2.757-2.76 5.824-5.037 9.217 1.265 1.199 2.52 2.418 3.74 3.64 1.881-3.179 3.45-6.275 4.723-9.247-1.127-1.23-2.283-2.452-3.426-3.61z" fill="#fff"/><path d="m549.77 554.245c-6.225-4.475-11.431-10.113-4.335-13.309 5.752-2.591 17.686 2.788 10.992 19.272 1.143 1.158 2.299 2.38 3.426 3.61 5.603-13.083 5.476-23.771.971-28.569-8.107-8.633-14.695-3.853-21.727 2.751-5.625 5.283-5.154 15.093-1.41 19.387 3.756 3.05 8.805 7.394 13.703 12.038 2.277-3.393 3.918-6.46 5.037-9.217-2.403-2.436-4.75-4.593-6.657-5.963z" fill="#fff"/><path d="m548.36 573.632c-20.681 26.957-54.59 47.073-63.724 48.265 7.322.842 27.592-2.757 50.095-23.889 8.946-8.401 15.662-16.934 20.399-24.943-1.22-1.222-2.475-2.441-3.74-3.64-.907 1.35-1.914 2.752-3.03 4.207z" fill="#fff"/><path d="m559.853 563.818c4.24 4.627 8.073 9.373 9.299 11.327 1.789 2.853-.061 12.267-1.209 16.618.691-3.791-5.421-11.295-12.813-18.698m4.723-9.247c-1.273 2.972-2.842 6.068-4.723 9.247m4.723-9.247c5.603-13.083 5.476-23.771.971-28.569-8.107-8.633-14.695-3.853-21.727 2.751-5.625 5.283-5.154 15.093-1.41 19.387 3.756 3.05 8.805 7.394 13.703 12.038m8.463-5.607c-1.127-1.23-2.283-2.452-3.426-3.61m-1.297 12.857c-4.737 8.009-11.453 16.542-20.399 24.943-22.503 21.132-42.773 24.731-50.095 23.889 9.134-1.192 43.043-21.308 63.724-48.265 1.116-1.455 2.123-2.857 3.03-4.207m3.74 3.64c-1.22-1.222-2.475-2.441-3.74-3.64m5.037-9.217c-1.119 2.757-2.76 5.824-5.037 9.217m5.037-9.217c-2.403-2.436-4.75-4.593-6.657-5.963-6.225-4.475-11.431-10.113-4.335-13.309 5.752-2.591 17.686 2.788 10.992 19.272z" stroke="#fff"/><path d="m815.317 444.775c-.614-2.246-2.226-6.942-3.758-7.761-1.05-.561-3.98-1.704-7.06-2.689.203 1.659.306 3.45.292 5.359 5.198 1.42 9.853 3.214 10.526 5.091z" fill="#fff"/><path d="m802.044 433.586c.215 1.524.279 3.32.144 5.426.873.213 1.745.437 2.603.672.014-1.909-.089-3.7-.292-5.359-.818-.262-1.648-.513-2.455-.739z" fill="#fff"/><path d="m797.545 432.623c-3.923-.407-7.693-1.598-5.366-4.853 1.886-2.639 8.578-3.293 9.865 5.816.807.226 1.637.477 2.455.739-.892-7.305-3.711-12.064-6.953-13.058-5.833-1.788-7.525 2.047-8.942 6.814-1.134 3.814 1.611 8.091 4.385 9.055 2.457.402 5.823 1.053 9.199 1.876.135-2.106.071-3.902-.144-5.426-1.697-.475-3.297-.839-4.499-.963z" fill="#fff"/><path d="m801.93 441.677c-2.221 17.398-10.524 45.368-14.274 48.249 3.471-1.504 9.313-12.552 13.849-27.806 1.803-6.065 3.251-17.629 3.286-22.436-.858-.235-1.73-.459-2.603-.672-.053.839-.139 1.726-.258 2.665z" fill="#fff"/><path d="m804.499 434.325c3.08.985 6.01 2.128 7.06 2.689 1.532.819 3.144 5.515 3.758 7.761-.673-1.877-5.328-3.671-10.526-5.091m-.292-5.359c.203 1.659.306 3.45.292 5.359m-.292-5.359c-.892-7.305-3.711-12.064-6.953-13.058-5.833-1.788-7.525 2.047-8.942 6.814-1.134 3.814 1.611 8.091 4.385 9.055 2.457.402 5.823 1.053 9.199 1.876m2.311-4.687c-.818-.262-1.648-.513-2.455-.739m2.747 6.098c-.035 4.807-1.483 16.371-3.286 22.436-4.536 15.254-10.378 26.302-13.849 27.806 3.75-2.881 12.053-30.851 14.274-48.249.119-.939.205-1.826.258-2.665m2.603.672c-.858-.235-1.73-.459-2.603-.672m-.144-5.426c.215 1.524.279 3.32.144 5.426m-.144-5.426c-1.697-.475-3.297-.839-4.499-.963-3.923-.407-7.693-1.598-5.366-4.853 1.886-2.639 8.578-3.293 9.865 5.816z" stroke="#fff"/><path d="m313.551 569.392c3.427-2.923 10.327-9.609 10.502-12.967.119-2.3-.289-8.373-1.097-14.578-2.74 1.721-5.793 3.375-9.147 4.921 1.789 10.272 2.475 19.902-.258 22.624z" fill="#fff"/><path d="m322.23 536.94c-2.492 1.63-5.586 3.22-9.386 4.716.345 1.703.67 3.416.965 5.112 3.354-1.546 6.407-3.2 9.147-4.921-.215-1.649-.458-3.308-.726-4.907z" fill="#fff"/><path d="m320.216 528.267c-2.514-7.206-3.53-14.789 4.086-13.392 6.174 1.132 12.825 12.317-2.072 22.065.268 1.599.511 3.258.726 4.907 12.061-7.572 18.078-16.425 17.151-22.92-1.667-11.689-9.776-11.496-19.292-10.057-7.612 1.151-12.845 9.478-12.252 15.128 1.317 4.635 2.946 11.066 4.281 17.658 3.8-1.496 6.894-3.086 9.386-4.716-.565-3.364-1.244-6.466-2.014-8.673z" fill="#fff"/><path d="m307.964 543.395c-32.3 10.423-93.718 15.302-101.848 11.103 5.488 4.843 46.325 5.801 76.775 1.197 12.107-1.831 22.469-5.034 30.918-8.927-.295-1.696-.62-3.409-.965-5.112-1.513.596-3.137 1.176-4.88 1.739z" fill="#fff"/><path d="m322.956 541.847c.808 6.205 1.216 12.278 1.097 14.578-.175 3.358-7.075 10.044-10.502 12.967 2.733-2.722 2.047-12.352.258-22.624m9.147-4.921c-2.74 1.721-5.793 3.375-9.147 4.921m9.147-4.921c12.061-7.572 18.078-16.425 17.151-22.92-1.667-11.689-9.776-11.496-19.292-10.057-7.612 1.151-12.845 9.478-12.252 15.128 1.317 4.635 2.946 11.066 4.281 17.658m10.112.191c-.215-1.649-.458-3.308-.726-4.907m-8.421 9.828c-8.449 3.893-18.811 7.096-30.918 8.927-30.45 4.604-71.287 3.646-76.775-1.197 8.13 4.199 69.548-.68 101.848-11.103 1.743-.563 3.367-1.143 4.88-1.739m.965 5.112c-.295-1.696-.62-3.409-.965-5.112m9.386-4.716c-2.492 1.63-5.586 3.22-9.386 4.716m9.386-4.716c-.565-3.364-1.244-6.466-2.014-8.673-2.514-7.206-3.53-14.789 4.086-13.392 6.174 1.132 12.825 12.317-2.072 22.065z" stroke="#fff"/><path d="m140.011 493.295c3.428-2.923 10.327-9.609 10.502-12.967.12-2.301-.289-8.373-1.097-14.578-2.74 1.72-5.792 3.375-9.146 4.92 1.788 10.272 2.475 19.902-.259 22.625z" fill="#fff"/><path d="m148.69 460.842c-2.491 1.631-5.585 3.221-9.385 4.717.344 1.702.67 3.416.965 5.111 3.354-1.545 6.406-3.2 9.146-4.92-.214-1.649-.457-3.308-.726-4.908z" fill="#fff"/><path d="m146.677 452.169c-2.515-7.206-3.531-14.788 4.086-13.391 6.173 1.132 12.825 12.317-2.073 22.064.269 1.6.512 3.259.726 4.908 12.061-7.572 18.078-16.425 17.152-22.92-1.667-11.689-9.776-11.496-19.292-10.058-7.613 1.152-12.846 9.479-12.252 15.129 1.317 4.635 2.945 11.066 4.281 17.658 3.8-1.496 6.894-3.086 9.385-4.717-.564-3.363-1.243-6.466-2.013-8.673z" fill="#fff"/><path d="m134.424 467.297c-32.3 10.423-98.1647 16.794-106.2954 12.595 5.4886 4.842 50.7726 4.31 81.2234-.294 12.107-1.831 22.469-5.034 30.918-8.928-.295-1.695-.621-3.409-.965-5.111-1.513.595-3.138 1.176-4.881 1.738z" fill="#fff"/><path d="m149.416 465.75c.808 6.205 1.217 12.277 1.097 14.578-.175 3.358-7.074 10.044-10.502 12.967 2.734-2.723 2.047-12.353.259-22.625m9.146-4.92c-2.74 1.72-5.792 3.375-9.146 4.92m9.146-4.92c12.061-7.572 18.078-16.425 17.152-22.92-1.667-11.689-9.776-11.496-19.292-10.058-7.613 1.152-12.846 9.479-12.252 15.129 1.317 4.635 2.945 11.066 4.281 17.658m10.111.191c-.214-1.649-.457-3.308-.726-4.908m-8.42 9.828c-8.449 3.894-18.811 7.097-30.918 8.928-30.4508 4.604-75.7348 5.136-81.2234.294 8.1307 4.199 73.9954-2.172 106.2954-12.595 1.743-.562 3.368-1.143 4.881-1.738m.965 5.111c-.295-1.695-.621-3.409-.965-5.111m9.385-4.717c-2.491 1.631-5.585 3.221-9.385 4.717m9.385-4.717c-.564-3.363-1.243-6.466-2.013-8.673-2.515-7.206-3.531-14.788 4.086-13.391 6.173 1.132 12.825 12.317-2.073 22.064z" stroke="#fff"/><path d="m429.485 32.0079 8.008-16.1175c-68.491 30.3753-206.202 95.1546-209.115 111.2726-3.64 20.146-3.443 21.707-1.701 23.38 1.743 1.673 13.084 8.065 22.333 9.047 1.957.143 6.392-2.442 8.469-13.919-10.101-2.075-29.549-7.222-26.525-11.208 3.78-4.982 83.855-50.8025 98.631-57.4589 8.995-4.0517 71.525-32.2162 99.9-44.9962z" fill="#fff" stroke="#fff"/><path d="m270.642 62.0506c-3.449 5.7586-8.95 13.5851-3.362-1.1771 6.984-18.4529 26.055-26.3903 18.103 5.3581-6.362 25.3987-17.829 35.3814-22.767 37.1984l-.935-.068c6.44-5.2305 19.53-21.1461 20.365-42.9682-.212-4.2636-2.79-9.9012-11.404 1.6568z" fill="#fff" stroke="#fff"/><path d="m366.01 541.607c-2.814 4.603-7.304 10.858-2.752-.946 5.689-14.755 21.28-21.081 14.816 4.311-5.171 20.313-14.538 28.285-18.576 29.732l-.765-.056c5.262-4.176 15.949-16.893 16.604-34.352-.179-3.411-2.295-7.925-9.327 1.311z" fill="#fff" stroke="#fff"/><path d="m196.217 642.621c-4.951-8.583-20.746 4.184-21.385 4.454l-1.929 1.315c.031.047.063.093.094.139 4.515-2.206 12.496-5.656 15.426-5.21 3.982.606 8.031 8.808-2.65 10.877-7.502 1.454-10.223-1.895-12.776-5.667-.394.193-.762.376-1.098.546l1.004-.685c-1.048-1.555-2.078-3.174-3.41-4.55-3.687-3.811-14.696-2.335-19.74-1.121-17.901 4.264-42.527 1.334-52.6018-.665 4.6778 3.82 40.9618 7.409 53.2978 3.879 9.868-2.824 14-.879 14.833.447 6.969 10.628 9.411 11.122 14.272 12.424 4.86 1.303 21.613-7.599 16.663-16.183z" fill="#fff"/><path d="m172.903 648.39 1.929-1.315c.639-.27 16.434-13.037 21.385-4.454 4.95 8.584-11.803 17.486-16.663 16.183-4.861-1.302-7.303-1.796-14.272-12.424-.833-1.326-4.965-3.271-14.833-.447-12.336 3.53-48.62-.059-53.2978-3.879 10.0748 1.999 34.7008 4.929 52.6018.665 5.044-1.214 16.053-2.69 19.74 1.121 1.332 1.376 2.362 2.995 3.41 4.55zm0 0c.031.047.063.093.094.139m-.094-.139-1.004.685c.336-.17.704-.353 1.098-.546m0 0c4.515-2.206 12.496-5.656 15.426-5.21 3.982.606 8.031 8.808-2.65 10.877-7.502 1.454-10.223-1.895-12.776-5.667z" stroke="#fff"/><path d="m509.146 23.2752c11.252 12.8284 8.393 25.6308 5.557 30.4285 4.115-6.9617 5.457-14.6702 5.574-21.0094.084-4.5825-.472-8.4495-1.083-10.8017-3.776-3.6246-5.579-7.6605-6.073-10.5255-1.265 3.1397-3.83 9.917-3.975 11.9081z" fill="#fff"/><path d="m601.733 19.6917c-2.474-.18-24.007 9.5121-54.56 10.7291-14.079.5608-22.85-3.6042-27.979-8.5282.611 2.3522 1.167 6.2192 1.083 10.8017 18.519 11.3899 43.057 8.4739 53.059 5.5726 9.72-3.984 31.003-10.817 38.382-6.2768 9.224 5.6752-2.21 13.2875-6.856 17.3279-2.866 2.4923-6.274 7.5629-8.044 10.3061 2.393-2.8855 7.945-7.3494 10.782-9.4814 3.655-1.819 11.25-8.5013 12.385-20.6786 1.418-15.2216-15.778-9.5924-18.252-9.7724z" fill="#fff"/><path d="m519.976 32.5075c.1.0627.2.125.301.1868m-1.083-10.8017c-3.776-3.6246-5.579-7.6605-6.073-10.5255-1.265 3.1397-3.83 9.917-3.975 11.9081 11.252 12.8284 8.393 25.6308 5.557 30.4285 4.115-6.9617 5.457-14.6702 5.574-21.0094m-1.083-10.8017c5.129 4.924 13.9 9.089 27.979 8.5282 30.553-1.217 52.086-10.9091 54.56-10.7291s19.67-5.4492 18.252 9.7724c-1.135 12.1773-8.73 18.8596-12.385 20.6786-2.837 2.132-8.389 6.5959-10.782 9.4814m-77.624-37.7315c.611 2.3522 1.167 6.2192 1.083 10.8017m0 0c18.519 11.3899 43.057 8.4739 53.059 5.5726 9.72-3.984 31.003-10.817 38.382-6.2768 9.224 5.6752-2.21 13.2875-6.856 17.3279-2.866 2.4923-6.274 7.5629-8.044 10.3061m0 0c-1.1 1.7041-1.567 2.5101-.879 1.2419.197-.3635.498-.7827.879-1.2419z" stroke="#fff"/><path d="m551.916 441.245c4.094-.934 6.438-11.855 6.263-13.716-.772 2.1-2.624 6.279-7.335 7.168-3.261.616-3.595-4.315-3.573-6.288-.486 3.486-10.281 12.912-14.143 7.156-3.911-5.83-17.34-.03-18.001.539-45.599 20.589-74.132 22.847-82.698 21.402l-.134 1.839c22.529 5.336 81.22-18.121 88.507-20.364 7.286-2.242 7.523 3.012 11.814 3.633 4.29.62 6.183.142 9.531-3.312 3.349-3.453 5.675 2.878 9.769 1.943z" fill="#fff"/><path d="m634.543 425.075c1.299-.829 11.875-14.232 24.587-5.913.784.571 1.04 2.725-4.21 6.78-1.366 1.749-20.615 9.221-20.126 12.708.612 4.357 3.314 9.792 16.565 6.443 10.601-2.68 19.781-5.134 23.046-6.026-6.033 3.464-21.642 10.564-35.815 11.258-3.784-.481-8.488-6.779-5.774-14.284.254-.702 4.25-3.08 20.037-11.482 1.842-1.201 3.823-2.863-.371-3.416-5.215-.687-11.421-.523-16.135 4.68-.713-.155-2.073-.521-1.804-.748z" fill="#fff"/><path d="m547.271 428.409c-.022 1.973.312 6.904 3.573 6.288 4.711-.889 6.563-5.068 7.335-7.168.175 1.861-2.169 12.782-6.263 13.716-4.094.935-6.42-5.396-9.769-1.943-3.348 3.454-5.241 3.932-9.531 3.312-4.291-.621-4.528-5.875-11.814-3.633-7.287 2.243-65.978 25.7-88.507 20.364l.134-1.839c8.566 1.445 37.099-.813 82.698-21.402.661-.569 14.09-6.369 18.001-.539 3.862 5.756 13.657-3.67 14.143-7.156zm0 0c.01-.877.09-1.169.015-.132-.004.043-.008.087-.015.132zm87.272-3.334c1.299-.829 11.875-14.232 24.587-5.913.784.571 1.04 2.725-4.21 6.78-1.366 1.749-20.615 9.221-20.126 12.708.612 4.357 3.314 9.792 16.565 6.443 10.601-2.68 19.781-5.134 23.046-6.026-6.033 3.464-21.642 10.564-35.815 11.258-3.784-.481-8.488-6.779-5.774-14.284.254-.702 4.25-3.08 20.037-11.482 1.842-1.201 3.823-2.863-.371-3.416-5.215-.687-11.421-.523-16.135 4.68-.713-.155-2.073-.521-1.804-.748z" stroke="#fff"/><path d="m84.2974 455.84c7.0312.697 14.7912.866 20.8746.792-6.5533 1.47-16.1685 2.212-24.9393 1.764-5.3367-.273-10.3206-.984-14.0848-2.221-1.8824-.618-3.4353-1.36-4.5718-2.225-1.134-.864-1.8265-1.828-2.054-2.896-.3757-1.764.1808-3.31 1.4011-4.691 1.2338-1.396 3.1322-2.601 5.3679-3.614 4.4567-2.019 10.0927-3.204 13.937-3.674 2.6847-.048 5.3511-.293 8.253-.56 1.191-.11 2.4217-.223 3.7095-.327l.7636-.063-.3643-.674c-.5368-.993-.955-1.807-1.3202-2.519-.4123-.802-.757-1.474-1.1289-2.123-1.0882-1.96-1.4468-3.43-1.1946-4.7.2523-1.271 1.1394-2.462 2.8358-3.806l.004-.004c2.3899-1.933 4.717-3.932 6.8239-6.106 1.5181-1.558 2.7491-2.224 3.7831-2.185 1.003.037 2.034.752 3.128 2.541l.001.001c3.575 5.801 5.608 12.023 4.486 18.797v.001c-.646 3.949-3.673 7.058-7.478 7.47h-.008l-.008.001c-.455.064-.991-.056-1.583-.309-.58-.249-1.1623-.603-1.7021-.951-.635-.48-1.2238-1.035-1.8228-1.629-.1779-.177-.3578-.358-.5401-.542-.4272-.43-.8677-.874-1.3269-1.303-.8203-.802-1.6834-1.304-2.6504-1.463-.9436-.156-1.9265.024-2.9868.469-4.7622.463-11.644 1.527-16.8928 3.23-2.6269.853-4.9101 1.886-6.3011 3.129-.7003.625-1.2108 1.336-1.3923 2.14-.1849.818-.0121 1.66.5173 2.501.5375.853 1.448 1.57 2.5934 2.181 1.151.614 2.5787 1.141 4.2008 1.596 3.2445.908 7.3277 1.542 11.6702 1.972zm14.5712-23.239.211-.029.1248-.173c1.3706-1.899 2.1446-3.839 2.3326-5.351.093-.751.047-1.446-.191-1.983-.251-.564-.721-.951-1.3799-.985-2.6135-.256-5.3818.558-7.7217 1.628h-.0011c-.3106.143-.4957.408-.596.685-.0982.271-.1274.582-.1174.895.0202.627.2028 1.38.4894 2.12.2882.745.693 1.509 1.1813 2.158.4838.644 1.0757 1.21 1.7498 1.51l.0164.008.0169.006c.7473.27 1.6264.126 2.3159-.046.327-.082.6384-.178.9003-.259.0235-.007.0465-.015.0692-.022.294-.09.4852-.146.5995-.162zm5.4094-2.463-.332-.284-.326.29c-.399.356-.81.702-1.228 1.054l-.017.015c-1.03.868-2.099 1.77-2.9791 2.825l-.008.009-.0075.01c-.3227.429-.5287 1.08-.608 1.667-.0407.301-.0517.61-.0194.894.0311.273.1083.574.2875.811l.0122.016.0135.015c1.0928 1.226 2.3228 2.335 3.5598 3.452l.011.009c.583.526 1.168 1.053 1.748 1.601l.406.383.337-.446c3.102-4.12 2.697-9.277-.85-12.321z" fill="#fff" stroke="#fff"/></svg>