<svg fill="none" height="410" viewBox="0 0 663 410" width="663" xmlns="http://www.w3.org/2000/svg" xmlns:xlink="http://www.w3.org/1999/xlink"><linearGradient id="a" gradientUnits="userSpaceOnUse" x1="543.75" x2="543.75" y1="110" y2="140.5"><stop offset="0" stop-color="#f3e07b"/><stop offset="1" stop-color="#bc6317"/></linearGradient><linearGradient id="b" gradientUnits="userSpaceOnUse" x1="24" x2="636" y1="383" y2="383"><stop offset="0" stop-color="#ebcb6a"/><stop offset="1" stop-color="#bc6317"/></linearGradient><path d="m662 114.5-3 8-86.5 33.5 2.5-9z" fill="#fff" stroke="#fff"/><path d="m302.5 148-2.682 7.133-77.318 29.867 2.235-8.024z" fill="#fff" stroke="#fff"/><path d="m443 301-3 8-86.5 33.5 2.5-9z" fill="#fff" stroke="#fff"/><path d="m550.5 110-6 12.5-17-11.5-8.5 17 17.5 12.5 8-12.5 16 11 8-16.5-9-6.25z" fill="url(#a)"/><path d="m563.007 58.9905 5.493 3.5095c2 .4-1.167 5.1667-3 7.5-2.494-1.2471-4.733-2.437-6.734-3.5703-12.022 16.4268-38.456 28.0019-53.766 32.5703 11.333-6.5 36.2-21.4 45-29 2.177-1.88 3.889-3.7987 5.225-5.6699-9.228-5.7492-11.761-9.8397-10.225-12.3301 14.8-24 19.5-12.8333 20-4.5.243 4.0085-.495 7.8448-1.993 11.4905z" fill="#fff"/><path d="m568.5 62.5-18-11.5c.833-1.8334 3.2-5.3 6-4.5s3.167 3.3333 3 4.5c.5 3.1667-.7 11.4-9.5 19s-33.667 22.5-45 29c20.667-6.1667 61.6-25.1 60-51.5-.5-8.3333-5.2-19.5-20 4.5-2 3.2432 2.9 9.2 20.5 18 1.833-2.3333 5-7.1 3-7.5z" stroke="#fff"/><path d="m199.507 22.4896 5.493 3.5095c2 .4-1.167 5.1666-3 7.5-2.494-1.2471-4.733-2.4371-6.734-3.5703-12.022 16.4268-38.456 28.0019-53.766 32.5703 11.333-6.5 36.2-21.4 45-29 2.177-1.88 3.889-3.7987 5.225-5.6699-9.228-5.7492-11.761-9.8397-10.225-12.3301 14.8-24.00001 19.5-12.83335 20-4.5.243 4.0085-.495 7.8448-1.993 11.4905z" fill="#fff"/><path d="m205 25.9991-18-11.5c.833-1.8334 3.2-5.30003 6-4.50003 2.8.80003 3.167 3.33333 3 4.50003.5 3.1666-.7 11.4-9.5 19s-33.667 22.5-45 29c20.667-6.1667 61.6-25.1 60-51.5-.5-8.33335-5.2-19.50001-20 4.5-2 3.2432 2.9 9.2 20.5 18 1.833-2.3334 5-7.1 3-7.5z" stroke="#fff"/><path d="m550.5 51c3.333-4 9.6-8.6 8 5z" fill="#000"/><path d="m187 14.499c3.333-4 9.6-8.59995 8 5z" fill="#000"/><path d="m187 14.499c3.333-4 9.6-8.59995 8 5z" fill="#000"/><path d="m547 183.5c-19-1-24.099 1.5-24.499-4.5-.5-7.5 38.498-18 45.499 35-24.833 17-75 40.2-77-3-1.833-55.833-8.2-170.9-19-184.5-1-.8333-3.3 3.4-4.5 27 6 38 16.2 124.8 9 168-39.167 40.167-122.4 101.8-142 27-1.333-8.5-2.3-30.7 6.5-45.5 1.167-3.5 1.5-6.8-6.5 8-10 18.5-14 96.5 40.5 92 43.6-3.6 86-45 101.5-64.5 7-11 7.2-27.8 6-11-1.5 21 25.906 30.643 40.001 29.5 18.499-1.5 61.999-25 51.999-64-11.167-27.333-39.1-69-61.5-17-3.167 8.667-3.9 26.3 18.5 27.5 9-.5 26.2-5 29 1 .001-4.833-10-21.5-13.5-21z" fill="#fff"/><path d="m383.5 42 5-21.5c20.167 30.5 62 95.5 68 111.5 7.5 20 38 81-53 136-2.667 1.5-6.1 2.8 1.5-4l.138-.123c9.829-8.794 58.646-52.468 53.362-86.377-6-38.5-55-98.5-75-135.5z" fill="#fff"/><path clip-rule="evenodd" d="m305.5 111.5c18-46 75.333-26.5 95-10-53.6-10.4-82 4.5-87.5 11.5 7 38 43.833 49.167 58 46 4.472 0 38.833-13 55.5-20 0 4.8-7 15.333-10.5 20-34 14.4-87 37.5-108 47.5 24.5 15.5 17.5 55-4 55-17.2 0-29.833-21-34-31.5-6 22.4-23.167 30.5-31 31.5-24.4.4-31.333-17.333-32-26.5-2-36.4-3.167-36.5-3.5-32-3.734 16.597-18.486 23.897-23.113 26.187-.949.469-1.472.728-1.387.813.4.4-.833 8.833-1.5 13 0 19-50.804 59.479-91 72.5-35.5 11.5-71.3333 16.167-85.5 18 15.8333-6.167 61.1-25.2 115.5-52s57.667-44.833 52.5-50.5l-6 1.5c-33.2 4-38.5-10.667-37-18.5 16.8-53.6 41.667-24.333 51.5-3 17.6-8.4 23.333-17.167 24-20.5 2.253-52.186-3.106-79.564-6.551-97.1637-1.143-5.8388-2.075-10.6013-2.449-14.8363-1.338-15.1621 4.333-24 6-26.5 6.5 11.5 13.5 87 15 129.5 1.215 34.437 5.167 51.333 9 55.5 15.5 10.5 38.5-3 45.5-18 5.6-12 9-13.333 10-12.5 6.8-10 41.833-24.5 58.5-30.5-33.2-16.4-35.5-51.5-31-64.5zm-22 112c7.833.333 23.9 3.8 25.5 15-5 1.833-17.1 1.4-25.5-15zm-146-17c2.833-4.167 11.2-8.9 22 5.5-8.5 1.5-24.8 2.5-22-5.5z" fill="#fff" fill-rule="evenodd"/><path d="m405 264c-7.6 6.8-4.167 5.5-1.5 4 91-55 60.5-116 53-136-6-16-47.833-81-68-111.5l-5 21.5c20 37 69 97 75 135.5 5.284 33.909-43.533 77.583-53.362 86.377m-.138.123.138-.123m-.138.123c.045-.04.091-.082.138-.123m141.862-80.377c-19-1-24.099 1.5-24.499-4.5-.5-7.5 38.498-18 45.499 35-24.833 17-75 40.2-77-3-1.833-55.833-8.2-170.9-19-184.5-1-.8333-3.3 3.4-4.5 27 6 38 16.2 124.8 9 168-39.167 40.167-122.4 101.8-142 27-1.333-8.5-2.3-30.7 6.5-45.5 1.167-3.5 1.5-6.8-6.5 8-10 18.5-14 96.5 40.5 92 43.6-3.6 86-45 101.5-64.5 7-11 7.2-27.8 6-11-1.5 21 25.906 30.643 40.001 29.5 18.499-1.5 61.999-25 51.999-64-11.167-27.333-39.1-69-61.5-17-3.167 8.667-3.9 26.3 18.5 27.5 9-.5 26.2-5 29 1 .001-4.833-10-21.5-13.5-21zm-146.5-82c-19.667-16.5-77-36-95 10-4.5 13-2.2 48.1 31 64.5-16.667 6-51.7 20.5-58.5 30.5-1-.833-4.4.5-10 12.5-7 15-30 28.5-45.5 18-3.833-4.167-7.785-21.063-9-55.5-1.5-42.5-8.5-118-15-129.5-1.667 2.5-7.338 11.3379-6 26.5.374 4.235 1.306 8.9975 2.449 14.8363 3.445 17.5997 8.804 44.9777 6.551 97.1637-.667 3.333-6.4 12.1-24 20.5-9.833-21.333-34.7-50.6-51.5 3-1.5 7.833 3.8 22.5 37 18.5l6-1.5c5.167 5.667 1.9 23.7-52.5 50.5s-99.6667 45.833-115.5 52c14.1667-1.833 50-6.5 85.5-18 40.196-13.021 91-53.5 91-72.5.667-4.167 1.9-12.6 1.5-13-.085-.085.438-.344 1.387-.813 4.627-2.29 19.379-9.59 23.113-26.187.333-4.5 1.5-4.4 3.5 32 .667 9.167 7.6 26.9 32 26.5 7.833-1 25-9.1 31-31.5 4.167 10.5 16.8 31.5 34 31.5 21.5 0 28.5-39.5 4-55 21-10 74-33.1 108-47.5 3.5-4.667 10.5-15.2 10.5-20-16.667 7-51.028 20-55.5 20-14.167 3.167-51-8-58-46 5.5-7 33.9-21.9 87.5-11.5zm-117 122c7.833.333 23.9 3.8 25.5 15-5 1.833-17.1 1.4-25.5-15zm-146-17c2.833-4.167 11.2-8.9 22 5.5-8.5 1.5-24.8 2.5-22-5.5z" stroke="#fff"/><path clip-rule="evenodd" d="m601.64 163.467c7.5-2 24.2 1.3 33 32.5 2.167 10.167 3.5 33.9-8.5 47.5-15 17-61 63.5-95 53.5s-26-59-16-83.5c3-7 7.2-14.6 0 11-9 32 4 67 46 50 34-15.5 81.5-53.5 62.5-59-7-1.5-13.5-2.5-23.5-3-9.995-.5-16.424-5.488-17-8-5.5-24 11.5-39.5 18.5-41zm-3 19c8.8-1.2 15.667 6.833 18 11-7.166 1-21.9 1.6-23.5-4s3-7 5.5-7z" fill="#fff" fill-rule="evenodd"/><path d="m598.64 182.467c8.8-1.2 15.667 6.833 18 11-7.166 1-21.9 1.6-23.5-4s3-7 5.5-7z" fill="#000"/><path d="m74 61c2.3333-8.1666 7.3-23.5 8.5-19.5 1.5 5 19 47 17 49.5-1.6 2-7.5-5.1666-10-8.5 2.8333 43.333 8.5 131.7 8.5 138.5 0 8.5-2 48-11.5 53.5.5-16.355 1.2-51.46 0-61.033-1.2-9.574-6.5-98.967-9-142.467 0-1.1666-.7-4.8-3.5-10z" fill="#fff"/><path d="m291 35.5c20-2.3333 53.778-4.5 39 14.5-3.5 4.5-10.5 15.6-20.5 22-4.667 1.5-17.7 5.3-32.5 8.5 10.333-5.6667 32.1-17.9 36.5-21.5s.167-4.5-2.5-4.5l-35-.5c2.667-6.1667 9.4-18.5 15-18.5z" fill="#fff"/><path clip-rule="evenodd" d="m601.64 163.467c7.5-2 24.2 1.3 33 32.5 2.167 10.167 3.5 33.9-8.5 47.5-15 17-61 63.5-95 53.5s-26-59-16-83.5c3-7 7.2-14.6 0 11-9 32 4 67 46 50 34-15.5 81.5-53.5 62.5-59-7-1.5-13.5-2.5-23.5-3-9.995-.5-16.424-5.488-17-8-5.5-24 11.5-39.5 18.5-41zm-3 19c8.8-1.2 15.667 6.833 18 11-7.166 1-21.9 1.6-23.5-4s3-7 5.5-7z" fill-rule="evenodd" stroke="#fff"/><path d="m598.64 182.467c8.8-1.2 15.667 6.833 18 11-7.166 1-21.9 1.6-23.5-4s3-7 5.5-7z" stroke="#fff"/><path d="m74 61c2.3333-8.1666 7.3-23.5 8.5-19.5 1.5 5 19 47 17 49.5-1.6 2-7.5-5.1666-10-8.5 2.8333 43.333 8.5 131.7 8.5 138.5 0 8.5-2 48-11.5 53.5.5-16.355 1.2-51.46 0-61.033-1.2-9.574-6.5-98.967-9-142.467 0-1.1666-.7-4.8-3.5-10z" stroke="#fff"/><path d="m291 35.5c20-2.3333 53.778-4.5 39 14.5-3.5 4.5-10.5 15.6-20.5 22-4.667 1.5-17.7 5.3-32.5 8.5 10.333-5.6667 32.1-17.9 36.5-21.5s.167-4.5-2.5-4.5l-35-.5c2.667-6.1667 9.4-18.5 15-18.5z" stroke="#fff"/><g fill="#fff"><path d="m455 24.0962c-2.667-3.6667-8.5-8.3-10.5 2.5-2.5 13.5-7.5 26.5-9.5 28.5s1-19-10.5-27c-2.167 1.6667-7.5 3-11.5-5 1.5-3.3333 4.9-9.7 6.5-8.5 4.167.8333 13.3 6.9 16.5 24.5.5 2 2.2 1.5 5-16.5 2.8-18.00001 12.5-12.83333 17-8z"/><path d="m413.5 214.596c10-7.666 27.5-26 15-32.5-3-1-9.8.238-11 10.355 8.759-2.459 19.55-.619-4 22.145z"/><path d="m392 203.596c-2.914 2.277-6.438 5.362-10 8.909-2.957 2.945-5.941 6.208-8.625 9.591-5.917 7.459-10.375 15.5-9.875 22-1 5.5 4.2 15.7 25 8.5 4.667-2.166 14.3-7.1 15.5-9.5-11.167 3.334-34.2 7.8-37-1s13.833-22 22.5-27.5z"/><path d="m380.5 204.596c2.333-2.43 5.9-8.262 1.5-12.145-5.5 2.381-16.9 10.045-18.5 21.645.417 1.834 2.975 6 9.875 8 2.684-3.383 5.668-6.646 8.625-9.591-3.833.031-11.5-.809-11.5-4.409 0-4.5 7.062-10 10-3.5z"/><path clip-rule="evenodd" d="m259 265.096c4.833-6.333 14.8-13.5 16 8.5.167 4-2 10.8-12 6l-7-5c-.667-1-2.1-1.4-2.5 5-.5 8-28 26.5-33 28s-12 3.5-40 9.5c23.5-9 71-30.9 73-46.5.8 0 4-3.666 5.5-5.5zm1.5 4c3.167-2.5 9.9-5.1 11.5 4.5-1.5.334-5.9-.1-11.5-4.5z" fill-rule="evenodd"/></g><path d="m417 192.596c.166-.05.333-.098.5-.145m0 0c8.759-2.459 19.55-.619-4 22.145 10-7.666 27.5-26 15-32.5-3-1-9.8.238-11 10.355zm-44.125 29.645c-5.917 7.459-10.375 15.5-9.875 22-1 5.5 4.2 15.7 25 8.5 4.667-2.166 14.3-7.1 15.5-9.5-11.167 3.334-34.2 7.8-37-1s13.833-22 22.5-27.5l2.5-11c-2.914 2.277-6.438 5.362-10 8.909m-8.625 9.591c-6.9-2-9.458-6.166-9.875-8 1.6-11.6 13-19.264 18.5-21.645 4.4 3.883.833 9.715-1.5 12.145-2.938-6.5-10-1-10 3.5 0 3.6 7.667 4.44 11.5 4.409m-8.625 9.591c2.684-3.383 5.668-6.646 8.625-9.591m73-188.4088c-2.667-3.6667-8.5-8.3-10.5 2.5-2.5 13.5-7.5 26.5-9.5 28.5s1-19-10.5-27c-2.167 1.6667-7.5 3-11.5-5 1.5-3.3333 4.9-9.7 6.5-8.5 4.167.8333 13.3 6.9 16.5 24.5.5 2 2.2 1.5 5-16.5 2.8-18.00001 12.5-12.83333 17-8zm-196 240.9998c4.833-6.333 14.8-13.5 16 8.5.167 4-2 10.8-12 6l-7-5c-.667-1-2.1-1.4-2.5 5-.5 8-28 26.5-33 28s-12 3.5-40 9.5c23.5-9 71-30.9 73-46.5.8 0 4-3.666 5.5-5.5zm1.5 4c3.167-2.5 9.9-5.1 11.5 4.5-1.5.334-5.9-.1-11.5-4.5z" stroke="#fff"/><path d="m251 94.5c-3.167 9.333-8.9 30.3-2.5 33.5 1.333.5 4.9 0 8.5-6-.333 4.833-2.782 17.083-10 16-10-1.5-2-37 4-43.5z" fill="#fff" stroke="#fff"/><path d="m193.244 244c-3.167 9.333-8.9 30.3-2.5 33.5 1.333.5 4.9 0 8.5-6-.333 4.833-2.781 17.083-10 16-10-1.5-2-37 4-43.5z" fill="#fff" stroke="#fff"/><path d="m133.5 94.5 3.5-6.5c4.333 2.6667 15.5 11 11 39-2 6.5-10.5 29.5-2.5 31.5 1 0 3.7-1.3 6.5-6.5-.333 4.167-2.6 12.9-9 14.5-8 2-1-27.5 2.5-38.5 1.5-7.5 1.6-21.9-12-33.5z" fill="#fff" stroke="#fff"/><path d="m40.8457 385.321v13.679c0 2.89-2.3734 4.335-7.1201 4.335-4.9863 0-7.4795-1.445-7.4795-4.335v-13.679h5.6152v11.792c0 1.632.5541 2.449 1.6621 2.449 1.1381 0 1.7071-.817 1.7071-2.449v-11.792zm-5.1211-3.998c0 .569-.2171 1.063-.6514 1.483-.4342.419-.9358.629-1.5048.629-.584 0-1.0931-.203-1.5274-.607-.4342-.419-.6514-.921-.6514-1.505 0-.599.2097-1.1.629-1.505.4342-.419.9508-.629 1.5498-.629.5989 0 1.108.21 1.5273.629.4193.405.6289.906.6289 1.505zm27.6719 12.062v5.615h-3.5039v3.773c-.2246 1.288-1.4974 1.992-3.8184 2.112l-3.459-2.92c1.1081-.09 1.6621-1.078 1.6621-2.965h-4.4921c-2.9948 0-4.4922-1.43-4.4922-4.29v-5.458c0-3.234 2.1263-4.852 6.3789-4.852h8.2207v8.985zm-9.1192 2.246v-7.3c-2.2461 0-3.3691.629-3.3691 1.887v3.122c0 1.527 1.123 2.291 3.3691 2.291zm22.8204-10.355v8.109h3.3691v5.615h-17.0703v-5.615h8.0859v-8.109zm-6.918-3.953c0 .569-.2171 1.063-.6514 1.483-.4342.419-.9359.629-1.5049.629-.5839 0-1.0931-.203-1.5273-.607-.4343-.419-.6514-.921-.6514-1.505 0-.599.2097-1.1.6289-1.505.4343-.419.9509-.629 1.5498-.629.599 0 1.1081.21 1.5274.629.4193.405.6289.906.6289 1.505zm22.6406 14.308c0-1.498-.5615-2.246-1.6846-2.246-1.123 0-1.6845.748-1.6845 2.246v1.123c0 1.497.5615 2.246 1.6845 2.246 1.1231 0 1.6846-.749 1.6846-2.246zm-8.6474-2.246c.8235-2.995 3.1445-4.492 6.9628-4.492 4.8666 0 7.2998 2.433 7.2998 7.299 0 4.867-2.4332 7.3-7.2998 7.3-3.8183 0-6.1393-1.497-6.9628-4.492h-3.7061v-5.615zm36.5891 0v5.615h-3.504v3.773c-.225 1.288-1.498 1.992-3.819 2.112l-3.459-2.92c1.109-.09 1.663-1.078 1.663-2.965h-4.493c-2.994 0-4.492-1.43-4.492-4.29v-4.335c0-3.234 2.127-4.852 6.379-4.852h8.221v7.862zm-9.119 2.246v-6.177c-2.247 0-3.37.629-3.37 1.887v1.999c0 1.527 1.123 2.291 3.37 2.291zm1.796-17.565v1.775h-2.56c-.12 0-.225.067-.315.202-.074.135-.112.277-.112.427 0 .284.083.554.247.808.195.3.419.45.674.45h2.066v1.774h-5.458v-1.774h1.303c-.614-.375-.921-.981-.921-1.82 0-.479.15-.906.449-1.28.315-.374.712-.562 1.191-.562zm19.676 17.565c0-1.498-.561-2.246-1.684-2.246s-1.685.748-1.685 2.246v1.123c0 1.497.562 2.246 1.685 2.246s1.684-.749 1.684-2.246zm8.58-2.246v5.615h-3.301c-.824 2.995-3.145 4.492-6.963 4.492-3.819 0-6.14-1.497-6.963-4.492h-3.706v-5.615h3.706c.823-2.995 3.144-4.492 6.963-4.492 3.818 0 6.139 1.497 6.963 4.492zm3.369 0v-21.338h5.616v26.953h-8.985v-5.615zm15.723 5.615h-5.615v-26.953h5.615zm19.047 3.773c-.225 1.288-1.497 1.992-3.818 2.112l-3.459-2.92c1.108-.09 1.662-1.078 1.662-2.965h-4.492c-2.995 0-4.493-1.43-4.493-4.29v-5.458c0-3.234 2.127-4.852 6.379-4.852h8.221zm-5.615-7.142v-7.3c-2.246 0-3.369.629-3.369 1.887v3.122c0 1.527 1.123 2.291 3.369 2.291zm42.855-2.246v5.615h-13.611c-2.995 0-4.492-1.43-4.492-4.29v-5.458c0-3.234 2.126-4.852 6.379-4.852h8.22v8.985zm-9.119 2.246v-7.3c-2.246 0-3.369.629-3.369 1.887v3.122c0 1.527 1.123 2.291 3.369 2.291zm12.488-2.246v-21.338h5.616v26.953h-8.985v-5.615zm28.211 0v5.615h-3.504v3.773c-.224 1.288-1.497 1.992-3.818 2.112l-3.459-2.92c1.108-.09 1.662-1.078 1.662-2.965h-4.492c-2.995 0-4.492-1.43-4.492-4.29v-5.458c0-3.234 2.126-4.852 6.379-4.852h8.22v8.985zm-9.119 2.246v-7.3c-2.246 0-3.369.629-3.369 1.887v3.122c0 1.527 1.123 2.291 3.369 2.291zm36.746 3.369h-27.627v-5.615h4.043v-8.064h5.615v8.064h3.37v-8.064h5.615v8.064h3.369v-8.064h5.615zm10.602 3.773c-.225 1.288-1.498 1.992-3.819 2.112l-3.459-2.92c1.109-.09 1.663-1.078 1.663-2.965v-13.477h5.615zm19.226 0c-.224 1.288-1.497 1.992-3.818 2.112l-3.459-2.92c1.108-.09 1.662-1.078 1.662-2.965h-4.492c-2.995 0-4.492-1.43-4.492-4.29v-5.458c0-3.234 2.126-4.852 6.379-4.852h8.22zm-5.615-7.142v-7.3c-2.246 0-3.369.629-3.369 1.887v3.122c0 1.527 1.123 2.291 3.369 2.291zm32.029-7.3v7.3c2.217-.015 3.325-.779 3.325-2.291v-3.122c0-1.258-1.108-1.887-3.325-1.887zm12.264 10.669h-3.414v-3.167c-.359 2.111-1.827 3.167-4.402 3.167h-4.448v3.1c-.224 1.737-1.497 2.665-3.818 2.785l-3.459-2.92c1.108-.09 1.662-1.078 1.662-2.965h-.045v-14.6h8.221c4.253 0 6.379 1.618 6.379 4.852v4.133h3.324zm36.836 0h-3.414v-4.515c-.719 3.01-2.875 4.515-6.469 4.515h-26.953v-5.615h28.301c1.348 0 2.021-.592 2.021-1.775 0-1.063-.673-1.594-2.021-1.594h-23.764v-5.616l8.176-7.726h7.906l-8.355 7.726h14.689c4.492 0 6.739 2.516 6.739 7.547 0 .509-.023.989-.068 1.438h3.212zm12.354 0h-12.354v-5.615h3.369v-21.338h5.615v21.338h3.37zm12.353-3.369c0-1.498-.561-2.246-1.684-2.246-1.124 0-1.685.748-1.685 2.246v1.123c0 1.497.561 2.246 1.685 2.246 1.123 0 1.684-.749 1.684-2.246zm8.58-2.246v5.615h-3.302c-.823 2.995-3.144 4.492-6.962 4.492-3.819 0-6.14-1.497-6.963-4.492h-3.706v-5.615h3.706c.823-2.995 3.144-4.492 6.963-4.492 3.818 0 6.139 1.497 6.962 4.492zm10.063 0h9.613l2.695 5.615h-22.371v-5.615h4.447v-7.098c0-2.89 2.374-4.335 7.121-4.335 4.986 0 7.479 1.445 7.479 4.335v3.796h-5.615v-1.909c0-1.632-.554-2.448-1.662-2.448-1.138 0-1.707.816-1.707 2.448zm40.429-5.054c-2.246 0-3.369.629-3.369 1.887v3.122c0 1.527 1.123 2.291 3.369 2.291zm24.034 5.054v-14.824h5.615v20.439h-34.141c-2.995 0-4.492-1.43-4.492-4.29v-5.458c0-3.234 2.126-4.852 6.379-4.852h8.221v8.985h6.513v-14.824h5.615v14.824zm-13.971-16.734v-4.267h1.842v2.605h1.774v-2.605h1.842v2.605h1.595v-2.605h1.864v4.267zm29.693 22.349h-5.615v-26.953h5.615zm28.166-21.989c0-2.89 2.374-4.335 7.12-4.335 4.987 0 7.48 1.445 7.48 4.335v3.796h-5.615v-1.91c0-1.632-.554-2.448-1.663-2.448-1.138 0-1.707.816-1.707 2.448v5.503h5.526c4.492 0 6.738 2.516 6.738 7.547 0 4.702-2.246 7.053-6.738 7.053h-16.711l-3.504-5.615h21.562c1.348 0 2.022-.592 2.022-1.775 0-1.063-.674-1.594-2.022-1.594h-12.488zm33.153 16.374v5.615h-3.504v3.773c-.225 1.288-1.498 1.992-3.819 2.112l-3.459-2.92c1.108-.09 1.662-1.078 1.662-2.965v-13.477h5.616v7.862zm13.701-8.109v8.109h3.369v5.615h-17.07v-5.615h8.085v-8.109zm-8.827 18.328c0 .57-.218 1.064-.652 1.483s-.936.629-1.505.629c-.584 0-1.093-.21-1.527-.629-.434-.404-.651-.899-.651-1.483 0-.598.209-1.108.629-1.527.434-.404.95-.606 1.549-.606s1.108.202 1.528.606c.419.419.629.929.629 1.527zm5.166 0c0 .57-.218 1.064-.652 1.483s-.936.629-1.505.629c-.584 0-1.093-.21-1.527-.629-.434-.404-.651-.899-.651-1.483 0-.598.209-1.108.629-1.527.434-.404.95-.606 1.549-.606s1.108.202 1.528.606c.419.419.629.929.629 1.527zm34.657-10.219h3.369v5.615h-30.996v-5.615h4.043v-8.064h5.615v8.064h3.369v-8.064h5.615v8.064h3.37v-8.064h5.615zm17.677-20.372c0 .569-.218 1.063-.652 1.482s-.936.629-1.505.629c-.584 0-1.093-.202-1.527-.606-.434-.42-.651-.921-.651-1.505 0-.599.209-1.101.629-1.505.434-.419.95-.629 1.549-.629s1.108.21 1.528.629c.419.404.629.906.629 1.505zm4.784 25.987h-19.092v-5.615h13.477v-2.74h-4.493c-2.994 0-4.492-1.43-4.492-4.291v-4.559c0-3.234 2.126-4.852 6.379-4.852h8.221zm-5.615-11.725v-6.401c-2.247 0-3.37.629-3.37 1.887v2.223c0 1.528 1.123 2.291 3.37 2.291z" fill="url(#b)"/></svg>