<svg fill="none" height="132" viewBox="0 0 442 132" width="442" xmlns="http://www.w3.org/2000/svg" xmlns:xlink="http://www.w3.org/1999/xlink"><linearGradient id="a"><stop offset="0" stop-color="#f3e07b"/><stop offset="1" stop-color="#bc6317"/></linearGradient><linearGradient id="b" gradientUnits="userSpaceOnUse" x1="397.609" x2="396.642" xlink:href="#a" y1="27.7159" y2="35.9803"/><linearGradient id="c" gradientUnits="userSpaceOnUse" x1="350.609" x2="349.642" xlink:href="#a" y1="45.7159" y2="53.9803"/><linearGradient id="d" gradientUnits="userSpaceOnUse" x1="303.609" x2="302.642" xlink:href="#a" y1="43.7159" y2="51.9803"/><linearGradient id="e" gradientUnits="userSpaceOnUse" x1="377.609" x2="376.642" xlink:href="#a" y1="122.716" y2="130.98"/><linearGradient id="f" gradientUnits="userSpaceOnUse" x1="328.609" x2="327.642" xlink:href="#a" y1="109.716" y2="117.98"/><linearGradient id="g" gradientUnits="userSpaceOnUse" x1="288.609" x2="287.642" xlink:href="#a" y1="78.7159" y2="86.9803"/><linearGradient id="h" gradientUnits="userSpaceOnUse" x1="167.609" x2="166.642" xlink:href="#a" y1="30.7159" y2="38.9803"/><linearGradient id="i" gradientUnits="userSpaceOnUse" x1="353.6" x2="362.773" xlink:href="#a" y1="118.519" y2="116.278"/><linearGradient id="j" gradientUnits="userSpaceOnUse" x1="37.0843" x2="46.2569" xlink:href="#a" y1="56.7953" y2="54.5538"/><linearGradient id="k" gradientUnits="userSpaceOnUse" x1="12.0843" x2="21.2569" xlink:href="#a" y1="56.7953" y2="54.5538"/><linearGradient id="l" gradientUnits="userSpaceOnUse" x1="305.015" x2="305.015" xlink:href="#a" y1="60.4424" y2="51"/><linearGradient id="m" gradientUnits="userSpaceOnUse" x1="237.015" x2="237.015" xlink:href="#a" y1="112.442" y2="103"/><linearGradient id="n" gradientUnits="userSpaceOnUse" x1="176.015" x2="176.015" xlink:href="#a" y1="79.4424" y2="70"/><linearGradient id="o" gradientUnits="userSpaceOnUse" x1="134.738" x2="134.738" xlink:href="#a" y1="130" y2="121"/><linearGradient id="p" gradientUnits="userSpaceOnUse" x1="78.7385" x2="78.7385" xlink:href="#a" y1="121" y2="112"/><g fill="#fff"><path d="m432.611 70c-.859 2.785-2.415 9.0412-.679 9.996.362.1492 1.33 0 2.306-1.7903-.09 1.4422-.754 5.0973-2.712 4.7742-2.713-.4476-.543-11.0404 1.085-12.9799z"/><path d="m369.611 5c-.859 2.78496-2.415 9.0412-.679 9.996.362.1492 1.33 0 2.306-1.7903-.09 1.4422-.754 5.0973-2.712 4.7742-2.713-.4476-.543-11.04038 1.085-12.9799z"/><path d="m337.611 22c-.859 2.785-2.415 9.0412-.679 9.996.362.1492 1.33 0 2.306-1.7903-.09 1.4422-.754 5.0973-2.712 4.7742-2.713-.4476-.543-11.0404 1.085-12.9799z"/><path d="m229.611 35c-.859 2.785-2.415 9.0412-.679 9.996.362.1492 1.33 0 2.306-1.7903-.09 1.4422-.754 5.0973-2.712 4.7742-2.713-.4476-.543-11.0404 1.085-12.9799z"/><path d="m4.20374 70c-1.07388 3.4276-3.01817 11.1276-.8478 12.3028.45216.1836 1.66169 0 2.88252-2.2035-.11304 1.775-.94324 6.2736-3.3912 5.8759-3.391207-.5508-.67825-13.5881 1.35648-15.9752z"/><path d="m181.611 24c-.859 2.785-2.415 9.0412-.679 9.996.362.1492 1.33 0 2.306-1.7903-.09 1.4422-.754 5.0973-2.712 4.7742-2.713-.4476-.543-11.0404 1.085-12.9799z"/><path d="m51.6107 21c-.8591 2.785-2.4146 9.0412-.6783 9.996.3618.1492 1.3294 0 2.3061-1.7903-.0905 1.4422-.7546 5.0973-2.713 4.7742-2.713-.4476-.5426-11.0404 1.0852-12.9799z"/><path d="m219.611 55c-.859 2.785-2.415 9.0412-.679 9.996.362.1492 1.33 0 2.306-1.7903-.09 1.4422-.754 5.0973-2.712 4.7742-2.713-.4476-.543-11.0404 1.085-12.9799z"/><path d="m140.797 32c-1.289 3.2134-3.622 10.4321-1.018 11.5338.543.1722 1.994 0 3.459-2.0657-.135 1.6641-1.131 5.8815-4.069 5.5087-4.069-.5165-.814-12.7389 1.628-14.9768z"/><path d="m68.2037 115c-1.0738 2.571-3.0181 8.346-.8478 9.227.4522.138 1.6617 0 2.8826-1.653-.1131 1.332-.9433 4.706-3.3912 4.407-3.3912-.413-.6783-10.191 1.3564-11.981z"/><path d="m7.9829 110c-1.71821 4.07-4.82907 13.214-1.35647 14.61.72345.218 2.6587 0 4.61207-2.617-.1809 2.108-1.50922 7.45-5.42596 6.978-5.425934-.655-1.0852-16.136 2.17036-18.971z"/><path d="m208.611 57c-.859 2.785-2.415 9.0412-.679 9.996.362.1492 1.33 0 2.306-1.7903-.09 1.4422-.754 5.0973-2.712 4.7742-2.713-.4476-.543-11.0404 1.085-12.9799z"/><path d="m197.611 59c-.859 2.785-2.415 9.0412-.679 9.996.362.1492 1.33 0 2.306-1.7903-.09 1.4422-.754 5.0973-2.712 4.7742-2.713-.4476-.543-11.0404 1.085-12.9799z"/><path d="m119.611 105c-.859 2.785-2.415 9.041-.679 9.996.362.149 1.33 0 2.306-1.79-.09 1.442-.754 5.097-2.712 4.774-2.713-.448-.543-11.04 1.085-12.98z"/><path d="m338.611 80c-.859 2.785-2.415 9.0412-.679 9.996.362.1492 1.33 0 2.306-1.7903-.09 1.4422-.754 5.0973-2.712 4.7742-2.713-.4476-.543-11.0404 1.085-12.9799z"/><path d="m320.611 81c-.859 2.785-2.415 9.0412-.679 9.996.362.1492 1.33 0 2.306-1.7903-.09 1.4422-.754 5.0973-2.712 4.7742-2.713-.4476-.543-11.0404 1.085-12.9799z"/><path d="m273.611 46c-.859 2.785-2.415 9.0412-.679 9.996.362.1492 1.33 0 2.306-1.7903-.09 1.4422-.754 5.0973-2.712 4.7742-2.713-.4476-.543-11.0404 1.085-12.9799z"/><path d="m253.611 88c-.859 2.785-2.415 9.0412-.679 9.996.362.1492 1.33 0 2.306-1.7903-.09 1.4422-.754 5.0973-2.712 4.7743-2.713-.448-.543-11.0405 1.085-12.98z"/><path d="m261.611 6c-.859 2.78496-2.415 9.0412-.679 9.996.362.1492 1.33 0 2.306-1.7903-.09 1.4422-.754 5.0973-2.712 4.7742-2.713-.4476-.543-11.04038 1.085-12.9799z"/><path d="m413.611 63c-.859 2.785-2.415 9.0412-.679 9.996.362.1492 1.33 0 2.306-1.7903-.09 1.4422-.754 5.0973-2.712 4.7742-2.713-.4476-.543-11.0404 1.085-12.9799z"/><path d="m428.072 48.8642c-.609-.7841-2.086-1.9733-3.125-.4575-.131.4773-.365 1.4954-.256 1.7496.136.3177 2.787.7059 3.249 1.667.755 1.0041 2.602 4.0146 2.933 6.6841.442-3.0131 1.568-9.0631 2.545-9.1584.977-.0952 1.95.3848 2.314.6367l.722-2.8728c-.995-.7413-3.197-1.5997-4.044.8972-.847 2.497-1.514 6.2316-1.742 7.7867z" stroke="#fff" stroke-width=".657143"/><path d="m400.766 17.8642c-.609-.7841-2.086-1.9733-3.125-.4575-.131.4773-.365 1.4954-.256 1.7496.136.3177 2.787.7059 3.248 1.667.756 1.0041 2.603 4.0146 2.934 6.6841.441-3.0131 1.568-9.0631 2.545-9.1584.977-.0952 1.95.3848 2.314.6367l.722-2.8728c-.995-.7413-3.197-1.5997-4.044.8972-.847 2.497-1.514 6.2316-1.742 7.7867z" stroke="#fff" stroke-width=".657143"/><path d="m313.766 41.8642c-.609-.7841-2.086-1.9733-3.125-.4575-.131.4773-.365 1.4954-.256 1.7496.136.3177 2.787.7059 3.248 1.667.756 1.0041 2.603 4.0146 2.934 6.6841.441-3.0131 1.568-9.0631 2.545-9.1584.977-.0952 1.95.3848 2.314.6367l.722-2.8728c-.995-.7413-3.197-1.5997-4.044.8972-.847 2.497-1.514 6.2316-1.742 7.7867z" stroke="#fff" stroke-width=".657143"/><path d="m282.134 27.1666c-.658-.8479-2.256-2.1339-3.379-.4947-.142.5161-.395 1.6171-.277 1.892.147.3436 3.014.7634 3.513 1.8026.818 1.0859 2.814 4.3414 3.173 7.2282.477-3.2583 1.695-9.8008 2.752-9.9038 1.056-.103 2.108.4161 2.502.6885l.781-3.1066c-1.076-.8017-3.457-1.73-4.373.9702-.916 2.7003-1.638 6.7388-1.884 8.4205z" stroke="#fff" stroke-width=".657143"/><path d="m229.87 7.80655c-.757-.97529-2.595-2.45451-3.887-.56906-.163.59365-.454 1.86-.319 2.17619.169.39523 3.468.87812 4.041 2.07352.94 1.249 3.237 4.9936 3.65 8.3141.548-3.7479 1.949-11.27324 3.165-11.39172 1.215-.11847 2.425.47858 2.878.79192l.898-3.57333c-1.238-.92212-3.976-1.98988-5.03 1.11602-1.054 3.10589-1.883 7.75111-2.167 9.68551z" stroke="#fff" stroke-width=".657143"/><path d="m154.773 109.87c-.61-.785-2.089-1.976-3.13-.458-.131.478-.366 1.498-.257 1.752.137.319 2.793.708 3.254 1.67.758 1.006 2.607 4.021 2.939 6.695.442-3.018 1.57-9.078 2.549-9.173.978-.095 1.953.385 2.318.638l.722-2.878c-.996-.742-3.201-1.602-4.05.899-.848 2.501-1.516 6.241-1.744 7.799z" stroke="#fff" stroke-width=".657143"/><path d="m233.317 59.3344c-.683-.8795-2.34-2.2134-3.506-.5131-.146.5353-.409 1.6773-.287 1.9624.153.3564 3.127.7919 3.644 1.8698.848 1.1264 2.919 4.5032 3.291 7.4975.495-3.3797 1.758-10.1659 2.854-10.2728 1.096-.1068 2.188.4316 2.596.7142l.81-3.2224c-1.116-.8315-3.586-1.7944-4.536 1.0064s-1.699 6.9898-1.954 8.7342z" stroke="#fff" stroke-width=".657143"/><path d="m150.317 25.3344c-.683-.8795-2.34-2.2134-3.506-.5131-.146.5353-.409 1.6773-.287 1.9624.153.3564 3.127.7919 3.644 1.8698.848 1.1264 2.919 4.5032 3.291 7.4975.495-3.3797 1.758-10.1659 2.854-10.2728 1.096-.1068 2.188.4316 2.596.7142l.81-3.2224c-1.116-.8315-3.586-1.7944-4.536 1.0064s-1.699 6.9898-1.954 8.7342z" stroke="#fff" stroke-width=".657143"/><path d="m98.132 23.0708c-.6414-.826-2.1977-2.0788-3.2922-.4819-.1377.5027-.3844 1.5753-.2698 1.843.1433.3348 2.9368.7437 3.4226 1.7562.7963 1.0578 2.7414 4.2292 3.0904 7.0414.465-3.1742 1.652-9.5476 2.681-9.648 1.029-.1003 2.054.4054 2.438.6707l.76-3.0263c-1.048-.781-3.367-1.6853-4.26.9452-.892 2.6304-1.595 6.5646-1.835 8.2029z" stroke="#fff" stroke-width=".657143"/><path d="m7.31665 6.33443c-.68287-.87949-2.33994-2.21341-3.50531-.51316-.1466.53534-.40932 1.6773-.28729 1.96243.15254.35641 3.12694.79185 3.64427 1.86983.84782 1.12637 2.91898 4.50317 3.29088 7.49747.4947-3.3797 1.7583-10.16593 2.8541-10.27277 1.0959-.10683 2.1873.43157 2.596.71413l.8094-3.22234c-1.1161-.83154-3.5857-1.79442-4.5358 1.0064s-1.6984 6.98978-1.9538 8.73418z" stroke="#fff" stroke-width=".657143"/><path d="m116.95 84.0212c-.634-.8159-2.171-2.0535-3.252-.4761-.136.4967-.38 1.5561-.267 1.8206.142.3307 2.901.7346 3.381 1.7347.787 1.045 2.708 4.1777 3.053 6.9557.459-3.1355 1.631-9.4313 2.648-9.5304s2.029.4004 2.408.6625l.751-2.9895c-1.035-.7714-3.326-1.6647-4.208.9337-.881 2.5984-1.575 6.4847-1.812 8.103z" stroke="#fff" stroke-width=".657143"/><path d="m310.766 112.864c-.609-.784-2.086-1.973-3.125-.457-.131.477-.365 1.495-.256 1.749.136.318 2.787.706 3.248 1.667.756 1.004 2.603 4.015 2.934 6.684.441-3.013 1.568-9.063 2.545-9.158s1.95.385 2.314.637l.722-2.873c-.995-.741-3.197-1.6-4.044.897s-1.514 6.232-1.742 7.787z" stroke="#fff" stroke-width=".657143"/><path d="m428.85 31.9373c.931-.8063 1.995-2.1769.399-2.822-1.995-.8062-6.384 2.822-5.985 4.4345.319 1.2901 1.729 2.4188 2.394 2.822l-2.394 2.8219.798.8063 8.777-6.8533.399-2.0157-5.186 3.2251c-.931.4031-2.793.645-2.793-1.6125 0-2.2576 2.527-1.6126 3.591-.8063z"/><path d="m347.85 16.9373c.931-.8063 1.995-2.1769.399-2.822-1.995-.8062-6.384 2.822-5.985 4.4345.319 1.2901 1.729 2.4188 2.394 2.822l-2.394 2.8219.798.8063 8.777-6.8533.399-2.0157-5.186 3.2251c-.931.4031-2.793.645-2.793-1.6125 0-2.2576 2.527-1.6126 3.591-.8063z"/><path d="m314.85 20.9373c.931-.8063 1.995-2.1769.399-2.822-1.995-.8062-6.384 2.822-5.985 4.4345.319 1.2901 1.729 2.4188 2.394 2.822l-2.394 2.8219.798.8063 8.777-6.8533.399-2.0157-5.186 3.2251c-.931.4031-2.793.645-2.793-1.6125 0-2.2576 2.527-1.6126 3.591-.8063z"/><path d="m178.565 20.1573c1.092-.5687 2.445-1.6556 1.042-2.6527-1.754-1.2465-6.864 1.2663-6.849 2.9274.011 1.3288 1.121 2.7535 1.675 3.2997l-2.983 2.1906.59.9692 10.126-4.6334.855-1.8684-5.793 1.9358c-.999.1765-2.866-.0196-2.343-2.2157.523-2.1962 2.832-.9833 3.68.0475z"/><path d="m436.238 17-.603 1.9277-17.397 8.0723.503-2.1687z"/><path d="m351.238 6-.67 2.12048-19.33 8.87952.559-2.3855z"/><path d="m247.238 93-.838 2.3133-24.162 9.6867.699-2.602z"/><path d="m249.238 70-.77 2.3133-22.23 9.6867.643-2.6024z"/><path d="m21.2385 15-.6369 1.9277-18.36314 8.0723.53073-2.1687z"/><path d="m170.238 80-.636 1.9277-18.364 8.0723.531-2.1687z"/><path d="m156.238 65-.636 1.9277-18.364 8.0723.531-2.1687z"/><path d="m25.2385 85-.6369 1.9277-18.36314 8.0723.53073-2.1687z"/><path d="m319.238 10-.536 1.7349-15.464 7.2651.447-1.9518z"/><path d="m263.238 100-.536 1.735-15.464 7.265.447-1.952z"/><path d="m297.238 115-.536 1.735-15.464 7.265.447-1.952z"/><path d="m351.238 121-.67 2.12-19.33 8.88.559-2.386z"/><path d="m441.238 63-.603 1.9277-17.397 8.0723.503-2.1687z"/><path d="m398.238 92-.536 1.7349-15.464 7.2651.447-1.9518z"/><path clip-rule="evenodd" d="m403.406 74.1242c2.142-.532 6.91.3457 9.423 8.6435.619 2.7039 1 9.0159-2.427 12.6329-4.283 4.5213-17.419 16.8884-27.127 14.2284-9.709-2.659-7.425-15.6911-4.569-22.2071.856-1.8616 2.056-3.8829 0 2.9256-2.57 8.5105 1.142 17.8185 13.135 13.2975 9.709-4.1221 23.273-14.2284 17.847-15.6911-1.999-.399-3.855-.6649-6.71-.7979-2.855-.1329-4.69-1.4596-4.855-2.1277-1.57-6.3829 3.284-10.5052 5.283-10.9041zm-.857 5.0531c2.513-.3191 4.474 1.8174 5.14 2.9255-2.046.266-6.253.4256-6.71-1.0638s.856-1.8617 1.57-1.8617z" fill-rule="evenodd"/></g><path d="m402.549 79.1773c2.513-.3191 4.474 1.8174 5.14 2.9255-2.046.266-6.253.4256-6.71-1.0638s.856-1.8617 1.57-1.8617z" fill="#000"/><path clip-rule="evenodd" d="m113.406 21.1242c2.142-.532 6.91.3457 9.423 8.6435.619 2.7039 1 9.0159-2.427 12.6329-4.283 4.5213-17.419 16.8882-27.1274 14.2287-9.7088-2.6596-7.4244-15.6914-4.5689-22.2074.8567-1.8616 2.056-3.8829 0 2.9256-2.5699 8.5105 1.1423 17.819 13.1353 13.2977 9.709-4.1223 23.273-14.2286 17.847-15.6913-1.999-.399-3.855-.6649-6.71-.7979-2.855-.1329-4.69-1.4596-4.855-2.1277-1.57-6.3829 3.284-10.5052 5.283-10.9041zm-.857 5.0531c2.513-.3191 4.474 1.8174 5.14 2.9255-2.046.266-6.253.4256-6.71-1.0638s.856-1.8617 1.57-1.8617z" fill="#fff" fill-rule="evenodd"/><path d="m112.549 26.1773c2.513-.3191 4.474 1.8174 5.14 2.9255-2.046.266-6.253.4256-6.71-1.0638s.856-1.8617 1.57-1.8617z" fill="#000"/><path d="m414.671 12.6531c-1.091-1.09-2.213-2.2636-3.138-3.2515 6.579 31.6421 9.034 66.7369 8.705 76.0984 5.276-5.2757-.659-45.9862-5.567-72.8469z" fill="#fff"/><path d="m412.738 2.5-1.5 5.5c.1.46638.198.93361.295 1.4016.925.9879 2.047 2.1615 3.138 3.2515-.674-3.68799-1.329-7.11487-1.933-10.1531z" fill="#fff"/><path d="m417.738 15.5c2 1.6-2.5-8-5-13 .604 3.03823 1.259 6.46511 1.933 10.1531 1.146 1.1455 2.257 2.1986 3.067 2.8469z" fill="#fff"/><path d="m432.165 90.1126c-1.391-.2817-2.813-.6047-3.866-.855.15 1.3514.437 2.572.939 3.2424 1.5 2 8.5 11.5 6.5 13-.833 3.167-12.2 12.4-51 24l24-2.5c9.167-3.833 27.8-13 29-19s-.166-9.5-1-10.5z" fill="#fff"/><path d="m430.238 87-2-3c-.096 1.2588-.148 3.3839.061 5.2576 1.053.2503 2.475.5733 3.866.855z" fill="#fff"/><path d="m434.238 90.5c2.4.4-3-4.8333-6-7.5l-1 6c.278.0695.64.1578 1.061.2576-.209-1.8737-.157-3.9988-.061-5.2576l2 3 1.927 3.1126c.718.1453 1.427.2797 2.073.3874z" fill="#fff"/><path d="m419.738 88.5-1.5 6c1.667 2 4.8 6.2 4 7-1 1-6.5 8-38.5 12-9.666 1.167-27.3-1.1-20.5-19.5-4.666 9.833-6.4 28.4 24 24s38-14.5 38-19c-.833-2.5-3.1-8.1-5.5-10.5z" fill="#fff"/><path d="m263.738 33c.667.3333 2 1.2 2 2 0 1 1-4-1-4s-10 6-8.5 9.5c0 .3333 2.4.9 12 .5 1.167.6667 2.1 2.2-3.5 3s-10.666-.3333-12.5-1c.5 1.1667 1.8 3.5 3 3.5 1.5 0 13 0 14.5-1.5s2-6.5-1-6.5c-3.666.1667-10.9.3-10.5-.5.5-1 5-5 5.5-5z" fill="#fff"/><path d="m345.983 96-2.745-.5c1.29 2.2544 5.298 14.252 4.679 15.154-.773 1.127-5.029 9.017-29.787 13.526-7.479 1.315-21.122-1.24-15.861-21.98-3.611 11.084-4.952 32.012 18.569 27.052 23.52-4.959 29.4-16.344 29.4-21.416-.644-2.818-2.398-9.1307-4.255-11.836z" fill="#fff" stroke="#fff"/><path d="m177.238 41-2-3c-.096 1.2588-.148 3.3839.061 5.2576 1.053.2503 2.475.5733 3.866.855z" fill="#fff"/><path d="m181.238 44.5c2.4.4-3-4.8333-6-7.5l-1 6c.278.0695.64.1578 1.061.2576-.209-1.8737-.157-3.9988-.061-5.2576l2 3 1.927 3.1126c.718.1453 1.427.2797 2.073.3874z" fill="#fff"/><path d="m179.165 44.1126c-1.391-.2817-2.813-.6047-3.866-.855m3.866.855-1.927-3.1126-2-3c-.096 1.2588-.148 3.3839.061 5.2576m3.866.855c.718.1453 1.427.2797 2.073.3874 2.4.4-3-4.8333-6-7.5l-1 6c.278.0695.64.1578 1.061.2576" stroke="#fff"/><path d="m298.238 85-2-3c-.096 1.2588-.148 3.3839.061 5.2576 1.053.2503 2.475.5733 3.866.855z" fill="#fff"/><path d="m302.238 88.5c2.4.4-3-4.8333-6-7.5l-1 6c.278.0695.64.1578 1.061.2576-.209-1.8737-.157-3.9988-.061-5.2576l2 3 1.927 3.1126c.718.1453 1.427.2797 2.073.3874z" fill="#fff"/><path d="m300.165 88.1126c-1.391-.2817-2.813-.6047-3.866-.855m3.866.855-1.927-3.1126-2-3c-.096 1.2588-.148 3.3839.061 5.2576m3.866.855c.718.1453 1.427.2797 2.073.3874 2.4.4-3-4.8333-6-7.5l-1 6c.278.0695.64.1578 1.061.2576" stroke="#fff"/><path clip-rule="evenodd" d="m298.738 84-2.5.5c0 2.4 4.5 10.8333 6.5 15-7 9-18.5 3.5-20.5 2.5s7-3.5 7-4c0-.4 1.667-3.8333 2.5-5.5-12.4-6.8-23.833-2.8333-28 0l-.5 5c3.6-2.8 8.834 1.1667 11 3.5-3.122.347-10.232 4.481-14.673 7.311 2.595-.06 5.796.587 7.173 1.689l11.5-5.5c1.6 2.8 6.334 4.833 8.5 5.5 9.2 2.4 14.5-2.667 16-5.5 1-2.333 2.6-7.5 1-9.5s-4-8.1667-5-11zm-15 11c-4.4-1.2-7.833-.5-9 0 .8 0 3.334 2 4.5 3 .4-1.2 3.167-2.5 4.5-3z" fill="#fff" fill-rule="evenodd"/><path d="m268.738 124.5c4.8-6.4.667-12.333-2-14.5l-9-.5c.531-.354 1.148-.756 1.827-1.189-2.114.049-3.827.567-3.827 1.689 0 2-2.333 5.5-3.5 7-12.8 11.2-14.833 2.667-14-3-14 12.4-20 7.5-20.5 3-3-69.5-12-114-12-113 0 .8-.666 7.3333-1 10.5 5 13 8 89 11.5 106.5 2.8 14 13.5 5.833 18.5 0 0 4.4 3 6.5 4.5 7 9.2.8 14.167-7 15.5-11 6 10.8 12 9.5 14 7.5z" fill="#fff"/><path d="m257.738 109.5 9 .5c-1.377-1.102-4.578-1.749-7.173-1.689-.679.433-1.296.835-1.827 1.189z" fill="#fff"/><path d="m266.738 110 11.5-5.5c1.6 2.8 6.334 4.833 8.5 5.5 9.2 2.4 14.5-2.667 16-5.5 1-2.333 2.6-7.5 1-9.5s-4-8.1667-5-11l-2.5.5c0 2.4 4.5 10.8333 6.5 15-7 9-18.5 3.5-20.5 2.5s7-3.5 7-4c0-.4 1.667-3.8333 2.5-5.5-12.4-6.8-23.833-2.8333-28 0l-.5 5c3.6-2.8 8.834 1.1667 11 3.5-3.122.347-10.232 4.481-14.673 7.311m7.173 1.689c2.667 2.167 6.8 8.1 2 14.5-2 2-8 3.3-14-7.5-1.333 4-6.3 11.8-15.5 11-1.5-.5-4.5-2.6-4.5-7-5 5.833-15.7 14-18.5 0-3.5-17.5-6.5-93.5-11.5-106.5.334-3.1667 1-9.7 1-10.5 0-1 9 43.5 12 113 .5 4.5 6.5 9.4 20.5-3-.833 5.667 1.2 14.2 14 3 1.167-1.5 3.5-5 3.5-7 0-1.122 1.713-1.64 3.827-1.689m7.173 1.689-9-.5c.531-.354 1.148-.756 1.827-1.189m7.173 1.689c-1.377-1.102-4.578-1.749-7.173-1.689m15.173-13.311c1.167-.5 4.6-1.2 9 0-1.333.5-4.1 1.8-4.5 3-1.166-1-3.7-3-4.5-3z" stroke="#fff"/><path d="m257.738 114.5c2.334-.333 7.6.3 10 5.5-1.166.667-4.8.5-10-5.5z" fill="#000" stroke="#fff"/><path d="m214.238 108.01c-.307 2.399-1.441 5.272-4.5 7.99-4.682 4.162-16.5 9-24.5 9s-17.5 0-13-19.5c-3.166 7.333-6.2 22.5 7 24.5 16.5 2.5 35.5-11.5 35-16.5z" fill="#fff"/><path d="m214.238 108.01c-.307 2.399-1.441 5.272-4.5 7.99-4.682 4.162-16.5 9-24.5 9s-17.5 0-13-19.5c-3.166 7.333-6.2 22.5 7 24.5 16.5 2.5 35.5-11.5 35-16.5zm0 0v-3.01c.107.854.146 1.88 0 3.01z" stroke="#fff"/><path d="m194.738 106.5c.5-1.833 1.9-5.3 3.5-4.5 2 1 1.5 1.5 1.5.5 0-2-.2-6-1-6-1 0-6.5 7-6 15 .167.667 1.6 2.1 6 2.5-1.166 1.167-4.9 3.8-10.5 5 3.167 0 9.6-.2 10-1 1-1 3.1-4.4 3.5-10 0-.167-.5-.5-2.5-.5-2.5 0-4.812 0-4.5-1z" fill="#fff"/><path d="m345.238 94-2-3c-.096 1.2588-.148 3.3839.061 5.2576 1.053.2503 2.475.5733 3.866.855z" fill="#fff"/><path d="m349.238 97.5c2.4.4-3-4.8333-6-7.5l-1 6c.278.0695.64.1578 1.061.2576-.209-1.8737-.157-3.9988-.061-5.2576l2 3 1.927 3.1126c.718.1453 1.427.2797 2.073.3874z" fill="#fff"/><path d="m347.165 97.1126c-1.391-.2817-2.813-.6047-3.866-.855m3.866.855-1.927-3.1126-2-3c-.096 1.2588-.148 3.3839.061 5.2576m3.866.855c.718.1453 1.427.2797 2.073.3874 2.4.4-3-4.8333-6-7.5l-1 6c.278.0695.64.1578 1.061.2576" stroke="#fff"/><path d="m407.665 42.1126c-1.391-.2817-2.813-.6047-3.866-.855.15 1.3514.437 2.572.939 3.2424 1.5 2 8.5 11.5 6.5 13-.833 3.1667-12.2 12.4-51 24l24-2.5c9.167-3.8333 27.8-13 29-19s-.166-9.5-1-10.5z" fill="#fff"/><path d="m405.738 39-2-3c-.096 1.2588-.148 3.3839.061 5.2576 1.053.2503 2.475.5733 3.866.855z" fill="#fff"/><path d="m409.738 42.5c2.4.4-3-4.8333-6-7.5l-1 6c.278.0695.64.1578 1.061.2576-.209-1.8737-.157-3.9988-.061-5.2576l2 3 1.927 3.1126c.718.1453 1.427.2797 2.073.3874z" fill="#fff"/><path d="m407.665 42.1126c-1.391-.2817-2.813-.6047-3.866-.855m3.866.855 4.573 7.3874c.834 1 2.2 4.5 1 10.5s-19.833 15.1667-29 19l-24 2.5c38.8-11.6 50.167-20.8333 51-24 2-1.5-5-11-6.5-13-.502-.6704-.789-1.891-.939-3.2424m3.866.855-1.927-3.1126-2-3c-.096 1.2588-.148 3.3839.061 5.2576m3.866.855c.718.1453 1.427.2797 2.073.3874 2.4.4-3-4.8333-6-7.5l-1 6c.278.0695.64.1578 1.061.2576" stroke="#fff"/><path d="m392.239 45.5c-4-1.8333-13.2-3.2-22 4 1 3.6667 5.2 11 14 11s17-6.3333 20-9.5l-.5 4.5c-4.667 3.6667-17.5 12.2-31.5 17-3.334.8333-10.5.6-12.5-7-.834-.8333-3.1-1.9-5.5.5-3 3-8 7.5-8 9-.167 1.1667 2 3.8 12 5 2.333.1667 6.999 4-.501 13.5-9.458 11.981-55.499 32-45.499-13.5.333-1.1667 1.2-3.4 2-3-1.667 5.2463-3.101 17.2912 4.499 23.5 9.5 7.761 36.5-7 40-11.5s-14.5-5-15-8.5 1.391-9.331 2-10.5c4-7.6667 13.7-19.1 20.5-3.5 2.834 0 8.501-.4 8.501-2-8-7.6-8.283-13-7.5-15 4.5-11.5 20.5-10 25-6 3.6 3.2 1.5 2.6667 0 2z" fill="#fff"/><path d="m331.738 36c2.834 2.3333 11.2 5.6 22 0 2.5-1.1667 5.7-.9-1.5 7.5 1-1.5 2.8-4.6 2-5-1-.5-11 4.5-20.5 1 .334.6667.9 2.4.5 4-.5-2.1667-1.7-6.7-2.5-7.5z" fill="#fff"/><path d="m392.239 45.5c-4-1.8333-13.2-3.2-22 4 1 3.6667 5.2 11 14 11s17-6.3333 20-9.5l-.5 4.5c-4.667 3.6667-17.5 12.2-31.5 17-3.334.8333-10.5.6-12.5-7-.834-.8333-3.1-1.9-5.5.5-3 3-8 7.5-8 9-.167 1.1667 2 3.8 12 5 2.333.1667 6.999 4-.501 13.5-9.458 11.981-55.499 32-45.499-13.5.333-1.1667 1.2-3.4 2-3-1.667 5.2463-3.101 17.2912 4.499 23.5 9.5 7.761 36.5-7 40-11.5s-14.5-5-15-8.5 1.391-9.331 2-10.5c4-7.6667 13.7-19.1 20.5-3.5 2.834 0 8.501-.4 8.501-2-8-7.6-8.283-13-7.5-15 4.5-11.5 20.5-10 25-6 3.6 3.2 1.5 2.6667 0 2z" stroke="#fff"/><path d="m331.738 36c2.834 2.3333 11.2 5.6 22 0 2.5-1.1667 5.7-.9-1.5 7.5 1-1.5 2.8-4.6 2-5-1-.5-11 4.5-20.5 1 .334.6667.9 2.4.5 4-.5-2.1667-1.7-6.7-2.5-7.5z" stroke="#fff"/><path d="m324.647 13.887c-1.085-1.1688-2.201-2.4272-3.121-3.4865 6.544 33.9295 8.986 71.5612 8.66 81.5995 5.247-5.657-.656-49.3105-5.539-78.113z" fill="#fff"/><path d="m322.725 3-1.492 5.89759c.099.5001.196 1.0011.293 1.50291.92 1.0593 2.036 2.3177 3.121 3.4865-.67-3.95453-1.321-7.62914-1.922-10.887z" fill="#fff"/><path d="m327.699 16.9398c1.989 1.7156-2.487-8.57835-4.974-13.9398.601 3.25786 1.252 6.93247 1.922 10.887 1.14 1.2283 2.246 2.3576 3.052 3.0528z" fill="#fff"/><path d="m322.725 3-2.487 5.89759c.347.41147.789.92784 1.288 1.50291m1.199-7.4005c2.487 5.36145 6.963 15.6554 4.974 13.9398-.806-.6952-1.912-1.8245-3.052-3.0528m-1.922-10.887-1.492 5.89759c.099.5001.196 1.0011.293 1.50291m1.199-7.4005c.601 3.25786 1.252 6.93247 1.922 10.887m0 0c-1.085-1.1688-2.201-2.4272-3.121-3.4865m3.121 3.4865c4.883 28.8025 10.786 72.456 5.539 78.113.326-10.0383-2.116-47.67-8.66-81.5995" stroke="#fff"/><path d="m196.014 3-1.665 5.89759c.11.5001.219 1.0011.327 1.50291.573.5917 1.215 1.2456 1.881 1.9112.526.526 1.067 1.0594 1.601 1.5753-.748-3.95453-1.474-7.62914-2.144-10.887z" fill="#fff"/><path d="m201.564 16.9398c2.22 1.7156-2.775-8.57835-5.55-13.9398.67 3.25786 1.396 6.93247 2.144 10.887 1.273 1.2283 2.506 2.3576 3.406 3.0528z" fill="#fff"/><path d="m196.557 12.3117c-.666-.6656-1.308-1.3195-1.881-1.9112 3.431 24.5332 9.612 74.3995 6.888 77.5995-1.442.5-5.026 1.2-7.826 0-3.5-1.5-5.5-14-14.5-4.5s-7.5 16.5-7.5 17.5 1.5 4.5 12.5 6-44.5 41.5-44-2.5c-.833 5.333-1.4 17.3 3 22.5 5.5 6.5 29 3.5 45-14.5.834-2.167 2.5-9.5-2.5-11s-9.5-.7-11.5-3.5c.167-3.3333 2.4-10.3 10-11.5 1.167-.3333 3 1 9.5 7 1 .5 7.7 1.7 10.5-5.5 2.725-7.005-3.796-52.1875-7.681-75.6883z" fill="#fff"/><path d="m196.014 3-2.776 5.89759c.388.41147.88.92784 1.438 1.50291m1.338-7.4005c2.775 5.36145 7.77 15.6554 5.55 13.9398-.9-.6952-2.133-1.8245-3.406-3.0528m-2.144-10.887-1.665 5.89759c.11.5001.219 1.0011.327 1.50291m1.338-7.4005c.67 3.25786 1.396 6.93247 2.144 10.887m0 0c-.534-.5159-1.075-1.0493-1.601-1.5753m-1.881-1.9112c3.431 24.5332 9.612 74.3995 6.888 77.5995-1.442.5-5.026 1.2-7.826 0-3.5-1.5-5.5-14-14.5-4.5s-7.5 16.5-7.5 17.5 1.5 4.5 12.5 6-44.5 41.5-44-2.5c-.833 5.333-1.4 17.3 3 22.5 5.5 6.5 29 3.5 45-14.5.834-2.167 2.5-9.5-2.5-11s-9.5-.7-11.5-3.5c.167-3.3333 2.4-10.3 10-11.5 1.167-.3333 3 1 9.5 7 1 .5 7.7 1.7 10.5-5.5 2.725-7.005-3.796-52.1875-7.681-75.6883m-1.881-1.9112h1.562c.104.6194.21 1.2569.319 1.9112m-1.881-1.9112c.573.5917 1.215 1.2456 1.881 1.9112" stroke="#fff"/><path d="m218.912 11.9298c-.904-.9587-1.834-1.99087-2.6-2.85972 5.453 27.82982 7.488 58.69632 7.216 66.92992 4.373-4.64-.546-40.4457-4.616-64.0702z" fill="#fff"/><path d="m217.311 3-1.244 4.83735c.083.41019.164.82113.245 1.23273.766.86885 1.696 1.90102 2.6 2.85972-.558-3.24362-1.101-6.25762-1.601-8.9298z" fill="#fff"/><path d="m221.455 14.4337c1.658 1.4073-2.072-7.03611-4.144-11.4337.5 2.67218 1.043 5.68618 1.601 8.9298.951 1.0075 1.872 1.9338 2.543 2.5039z" fill="#fff"/><path d="m217.311 3-2.073 4.83735c.29.33749.657.76104 1.074 1.23273m.999-6.07008c2.072 4.39759 5.802 12.841 4.144 11.4337-.671-.5701-1.592-1.4964-2.543-2.5039m-1.601-8.9298-1.244 4.83735c.083.41019.164.82113.245 1.23273m.999-6.07008c.5 2.67218 1.043 5.68618 1.601 8.9298m0 0c-.904-.9587-1.834-1.99087-2.6-2.85972m2.6 2.85972c4.07 23.6245 8.989 59.4302 4.616 64.0702.272-8.2336-1.763-39.1001-7.216-66.92992" stroke="#fff"/><path d="m186.912 12.9298c-.904-.9587-1.834-1.9909-2.6-2.8597 5.453 27.8298 7.488 58.6963 7.216 66.9299 4.373-4.64-.546-40.4457-4.616-64.0702z" fill="#fff"/><path d="m185.311 4-1.244 4.83735c.083.41019.164.82113.245 1.23275.766.8688 1.696 1.901 2.6 2.8597-.558-3.24362-1.101-6.25762-1.601-8.9298z" fill="#fff"/><path d="m189.455 15.4337c1.658 1.4073-2.072-7.03611-4.144-11.4337.5 2.67218 1.043 5.68618 1.601 8.9298.951 1.0075 1.872 1.9338 2.543 2.5039z" fill="#fff"/><path d="m185.311 4-2.073 4.83735c.29.33749.657.76104 1.074 1.23275m.999-6.0701c2.072 4.39759 5.802 12.841 4.144 11.4337-.671-.5701-1.592-1.4964-2.543-2.5039m-1.601-8.9298-1.244 4.83735c.083.41019.164.82113.245 1.23275m.999-6.0701c.5 2.67218 1.043 5.68618 1.601 8.9298m0 0c-.904-.9587-1.834-1.9909-2.6-2.8597m2.6 2.8597c4.07 23.6245 8.989 59.4302 4.616 64.0702.272-8.2336-1.763-39.1001-7.216-66.9299" stroke="#fff"/><path d="m71.9125 14.6424c-.9041-1.1426-1.8344-2.3727-2.6009-3.4082 5.4533 33.1671 7.4885 69.9531 7.2162 79.7658 4.3732-5.5299-.5463-48.2024-4.6153-76.3576z" fill="#fff"/><path d="m70.3108 4-1.2434 5.76506c.0822.48884.1636.97864.2442 1.46914.7665 1.0355 1.6968 2.2656 2.6009 3.4082-.5587-3.8657-1.1013-7.45775-1.6017-10.6424z" fill="#fff"/><path d="m74.4555 17.6265c1.6578 1.6771-2.0724-8.38554-4.1447-13.6265.5004 3.18465 1.043 6.7767 1.6017 10.6424.9501 1.2007 1.8713 2.3046 2.543 2.9841z" fill="#fff"/><path d="m70.3108 4-2.0723 5.76506c.2891.40224.657.90704 1.0731 1.46914m.9992-7.2342c2.0723 5.24096 5.8025 15.3036 4.1447 13.6265-.6717-.6795-1.5929-1.7834-2.543-2.9841m-1.6017-10.6424-1.2434 5.76506c.0822.48884.1636.97864.2442 1.46914m.9992-7.2342c.5004 3.18465 1.043 6.7767 1.6017 10.6424m0 0c-.9041-1.1426-1.8344-2.3727-2.6009-3.4082m2.6009 3.4082c4.069 28.1552 8.9885 70.8277 4.6153 76.3576.2723-9.8127-1.7629-46.5987-7.2162-79.7658" stroke="#fff"/><path d="m359.382 14.5996c-1.266-1.3527-2.568-2.8091-3.641-4.035 7.634 39.2668 10.484 82.8181 10.103 94.4354 6.122-6.5469-.765-57.0672-6.462-90.4004z" fill="#fff"/><path d="m357.14 2-1.741 6.8253c.115.57876.229 1.15858.342 1.7393 1.073 1.2259 2.375 2.6823 3.641 4.035-.782-4.5766-1.542-8.82927-2.242-12.5996z" fill="#fff"/><path d="m362.942 18.1325c2.321 1.9856-2.901-9.92768-5.802-16.1325.7 3.77033 1.46 8.023 2.242 12.5996 1.33 1.4215 2.62 2.7285 3.56 3.5329z" fill="#fff"/><path d="m357.14 2-2.902 6.8253c.405.47619.92 1.0738 1.503 1.7393m1.399-8.5646c2.901 6.20482 8.123 18.1181 5.802 16.1325-.94-.8044-2.23-2.1114-3.56-3.5329m-2.242-12.5996-1.741 6.8253c.115.57876.229 1.15858.342 1.7393m1.399-8.5646c.7 3.77033 1.46 8.023 2.242 12.5996m0 0c-1.266-1.3527-2.568-2.8091-3.641-4.035m3.641 4.035c5.697 33.3332 12.584 83.8535 6.462 90.4004.381-11.6173-2.469-55.1686-10.103-94.4354" stroke="#fff"/><path d="m401.31 31.8454-5.445-3.5231-3.299 4.3431 5.451 3.476z" fill="url(#b)"/><path d="m354.31 49.8454-5.445-3.5231-3.299 4.3431 5.451 3.476z" fill="url(#c)"/><path d="m307.31 47.8454-5.445-3.5231-3.299 4.3431 5.451 3.476z" fill="url(#d)"/><path d="m381.31 126.845-5.445-3.523-3.299 4.343 5.451 3.476z" fill="url(#e)"/><path d="m332.31 113.845-5.445-3.523-3.299 4.343 5.451 3.476z" fill="url(#f)"/><path d="m292.31 82.8454-5.445-3.5231-3.299 4.3431 5.451 3.476z" fill="url(#g)"/><path d="m171.31 34.8454-5.445-3.5231-3.299 4.3431 5.451 3.476z" fill="url(#h)"/><path d="m408.238 6c-16.794 5.375-49.446 17.475-45.703 22.875.599.875 2.519 2.925 5.398 4.125l.36-3.375c-2.519-.625-5.758-1.7935-2.16-3.75 8.277-4.5 27.567-13.35 41.386-17.25z" fill="#fff"/><path d="m176.238 5c-16.794 5.375-49.446 17.475-45.703 22.875.599.875 2.519 2.925 5.398 4.125l.36-3.375c-2.519-.625-5.758-1.7935-2.16-3.75 8.277-4.5 27.567-13.35 41.386-17.25z" fill="#fff"/><path d="m119.238 11c-15.698 4.7778-46.2213 15.5333-42.7227 20.3333.5607.7778 2.3549 2.6 5.0461 3.6667l.3364-3c-2.3548-.5556-5.3825-1.5942-2.0184-3.3333 7.7372-4 25.7686-11.8667 38.6866-15.3334z" fill="#fff"/><path d="m123.238 72c-14.603 4.5787-42.9965 14.8861-39.742 19.4861.5216.7454 2.1905 2.4917 4.694 3.5139l.3129-2.875c-2.1905-.5324-5.0069-1.5278-1.8776-3.1944 7.1975-3.8334 23.9707-11.3723 35.9877-14.6945z" fill="#fff"/><path d="m378.242 26h12.658c.5 1.5513.987 4.4-2.789 6.7692-4.72 2.9616-9.869 4.2308-10.298 4.2308-.343 0 6.15-3.9487 9.44-5.9231h-12.015z" fill="#fff"/><path d="m297.242 30h12.658c.5 1.5513.987 4.4-2.789 6.7692-4.72 2.9616-9.869 4.2308-10.298 4.2308-.343 0 6.15-3.9487 9.44-5.9231h-12.015z" fill="#fff"/><path d="m135.242 5h12.658c.5 1.55128.987 4.4-2.789 6.7692-4.72 2.9616-9.869 4.2308-10.298 4.2308-.343 0 6.15-3.9487 9.44-5.9231h-12.015z" fill="#fff"/><path d="m82.242 7h12.6578c.5006 1.55128.9869 4.4-2.789 6.7692-4.7199 2.9616-9.8688 4.2308-10.2979 4.2308-.3432 0 6.1501-3.9487 9.4397-5.9231h-12.0141z" fill="#fff"/><path d="m260.867 77h11.075c.438 1.4103.864 4-2.44 6.1538-4.13 2.6924-8.635 3.8462-9.011 3.8462-.3 0 5.381-3.5897 8.26-5.3846h-10.513z" fill="#fff"/><path d="m335.242 57h12.658c.5 1.5513.987 4.4-2.789 6.7692-4.72 2.9616-9.869 4.2308-10.298 4.2308-.343 0 6.15-3.9487 9.44-5.9231h-12.015z" fill="#fff"/><path d="m353.097 116.459 4.206.913-2.19 6.033 5.746 1.345 2.454-6.259-4.356-1.523 2.115-5.692-5.559-1.229-1.208 3.206z" fill="url(#i)"/><path d="m36.5809 54.7351 4.2067.9126-2.1906 6.0337 5.7465 1.3449 2.4541-6.2597-4.3559-1.523 2.1148-5.6917-5.5588-1.2291-1.2084 3.2062z" fill="url(#j)"/><path d="m11.5809 54.7351 4.2067.9126-2.1906 6.0337 5.7465 1.3449 2.4541-6.2597-4.3559-1.523 2.1148-5.6917-5.5588-1.2291-1.2084 3.2062z" fill="url(#k)"/><path d="m302.894 60.4424 1.885-3.8698 5.341 3.5602 2.671-5.263-5.499-3.8698-2.513 3.8698-5.027-3.4054-2.514 5.1082 2.828 1.9349z" fill="url(#l)"/><path d="m234.894 112.442 1.885-3.869 5.341 3.56 2.671-5.263-5.499-3.87-2.513 3.87-5.027-3.406-2.514 5.109 2.828 1.934z" fill="url(#m)"/><path d="m173.894 79.4424 1.885-3.8698 5.341 3.5602 2.671-5.263-5.499-3.8698-2.513 3.8698-5.027-3.4054-2.514 5.1082 2.828 1.9349z" fill="url(#n)"/><path d="m132.693 130 1.818-3.689 5.152 3.394 2.575-5.016-5.303-3.689-2.424 3.689-4.848-3.246-2.425 4.868 2.728 1.845z" fill="url(#o)"/><path d="m76.693 121 1.8182-3.689 5.1515 3.394 2.5758-5.016-5.3031-3.689-2.4242 3.689-4.8485-3.246-2.4242 4.868 2.7272 1.845z" fill="url(#p)"/><path d="m385.738 83.2576v2.5522c0 .8878-.072 1.8125.072 2.7002.181 1.1097 1.193 1.4795 2.133.9247 1.192-.7028 1.518-1.6275 1.229-3.4769-.109-.6658-.326-1.3316-.362-1.9974-.036-.5548.109-1.1466.181-1.7385.144 0 .289 0 .434-.037.216 1.1467.506 2.2564.686 3.403.109.5918.109 1.1836.217 1.7755.181 1.1096.831 1.6644 1.807 1.7014 1.048 0 1.446-.5548 1.085-1.5165-.29-.7398-.651-1.4426-.94-2.1823-.362-.9247-.651-1.8495-.217-2.8482.072-.2219.289-.3698.398-.5178.578 1.6645 1.156 3.181 1.626 4.7345.47 1.5906-.217 2.9591-1.193 4.1798-.578.7027-1.518.5918-2.132-.148-.072-.111-.145-.2589-.253-.3699-.759-1.1096-.868-1.1096-1.554.037-.759 1.2206-1.627 1.7385-2.53 1.5165-.759-.1849-1.518-1.4795-1.554-2.7001-.037-.7028.036-1.4426-.037-2.1454-.036-.4808-.289-.9247-.397-1.4055-.109-.4069-.289-.9248-.145-1.2576.253-.6289.542-1.2577 1.446-1.1837z" fill="#fff"/><path d="m93.738 103.258v2.552c0 .888-.0723 1.812.0723 2.7.1807 1.11 1.1927 1.48 2.1324.925 1.1927-.703 1.518-1.628 1.2289-3.477-.1084-.666-.3253-1.332-.3614-1.998-.0362-.554.1084-1.146.1807-1.738.1445 0 .2891 0 .4337-.037.2169 1.147.506 2.256.6867 3.403.1084.592.1084 1.184.2169 1.775.1807 1.11.8313 1.665 1.8068 1.702 1.048 0 1.446-.555 1.085-1.517-.29-.739-.651-1.442-.94-2.182-.3615-.925-.6507-1.849-.217-2.848.072-.222.289-.37.398-.518.578 1.664 1.156 3.181 1.626 4.735.47 1.59-.217 2.959-1.193 4.179-.578.703-1.5177.592-2.1321-.148-.0723-.111-.1446-.259-.253-.37-.759-1.109-.8675-1.109-1.5542.037-.759 1.221-1.6264 1.739-2.53 1.517-.759-.185-1.518-1.48-1.5541-2.7-.0362-.703.0361-1.443-.0362-2.146-.0361-.48-.2891-.924-.3976-1.405-.1084-.407-.2891-.925-.1445-1.258.253-.629.5421-1.257 1.4457-1.183z" fill="#fff"/><path d="m26.738 26.2576v2.5522c0 .8878-.0723 1.8125.0723 2.7002.1807 1.1097 1.1927 1.4795 2.1324.9247 1.1927-.7028 1.518-1.6275 1.2289-3.4769-.1084-.6658-.3253-1.3316-.3614-1.9974-.0362-.5548.1084-1.1466.1807-1.7385.1445 0 .2891 0 .4337-.037.2169 1.1467.506 2.2564.6867 3.403.1084.5918.1084 1.1836.2169 1.7755.1807 1.1096.8313 1.6644 1.8071 1.7014 1.0482 0 1.4457-.5548 1.0843-1.5165-.2891-.7398-.6506-1.4426-.9397-2.1823-.3614-.9247-.6506-1.8495-.2169-2.8482.0723-.2219.2892-.3698.3976-.5178.5783 1.6645 1.1566 3.181 1.6264 4.7345.4699 1.5906-.2168 2.9591-1.1927 4.1798-.5783.7027-1.518.5918-2.1324-.148-.0723-.111-.1446-.2589-.253-.3699-.759-1.1096-.8675-1.1096-1.5542.037-.759 1.2206-1.6264 1.7385-2.53 1.5165-.759-.1849-1.518-1.4795-1.5541-2.7001-.0362-.7028.0361-1.4426-.0362-2.1454-.0361-.4808-.2891-.9247-.3976-1.4055-.1084-.4069-.2891-.9248-.1445-1.2576.253-.6289.5421-1.2577 1.4457-1.1837z" fill="#fff"/><path d="m282.801 40.1999c.922.2225 2.695.7272 2.414.9655-.352.2978-3.859.5606-4.568 3.8718-.709 3.3111 2.926 15.2864 1.594 18.5236-.328.7975-.548 1.3073-.691 1.6151 1.326.0328 3.037-3.5162.145-18.3167-.283-1.1654.873-3.6312 6.358-2.9803.261-.4218.741-1.4338.358-3.0134-.425-1.748-1.944-2.2677-3.383-3.457-.702.5956-2.88 1.8991-2.227 2.7914z" fill="#fff"/><path clip-rule="evenodd" d="m253.989 13.7559-2.141-1.3696c.584-1.4227.872-2.91985.777-4.48416-.195-3.25208-2.027-7.609868-7.795 1.75612-.599.97194.388 2.56824 3.985 4.81184-.521.7302-1.188 1.479-2.037 2.2127-3.43 2.9659-13.122 8.7806-17.54 11.3172 5.968-1.7828 16.271-6.3 20.957-12.7105.78.4422 1.653.9066 2.625 1.3933.715-.9106 1.949-2.7708 1.169-2.9269zm-3.694-2.3631-3.322-2.12479c.325-.71546 1.248-2.06833 2.339-1.75613s1.234 1.30084 1.169 1.75613c.074.46645.053 1.21459-.186 2.12479z" fill="#fff" fill-rule="evenodd"/><path d="m301.239 3.49999c3.272-.99999 9.3.8 4.5 6-6 6.50001-8.44 14.87811-9 16.00001-.8 1.6-1 .6666-1 0 1.6-6.4 4.666-11.3333 6-13 3.2-3.60001-.834-3.16668-3-2.50001-26.5 6.50001-60.001 26.00001-62.001 28.00001s13 13.5 31 28c13.5 12.5 24.5 5.3333 29-1-1.6 16.4 11.5 6.5 18-1-4 10.5 4.5 8 6 7 1.053-.7016.167-2.5-.5-3.5l1.5-5.5c1.2 1.2 1.5 4.5 1.5 6 0 13.5-10.333 9.5-13 5.5-9.6 11.6-15.166 3.8333-16.5-1.5-4.4 5.6-9.666 7.5-11.5 7.5-7.2-.4-21.166-13.1667-28-19.5 8.4 11.6 3.5 18.8333 0 21-12 2.4-20 7-22.5 9-13.5 16-18.5 16.333-21.5 16-10.8-2.4-3.833-17.6667 1-25-11.5 24-.5 22 2.5 20.5 2.4-1.2 12.334-10.5 17-15 8.5-7.5 24-7 26-13 1.6-4.8-14.666-21-22.999-28.5-.4-2-.001-6 1-8 9-14 48.5-28.00001 66.5-33.50001z" fill="#fff" stroke="#fff"/><path clip-rule="evenodd" d="m106.466 92.7526c2.768-.3546 4.927 2.0193 5.661 3.2505-2.254.2955-6.887.4728-7.39-1.182-.504-1.6548.943-2.0685 1.729-2.0685z" fill="#fff" fill-rule="evenodd"/><path d="m106.466 92.7526c2.768-.3546 4.927 2.0193 5.661 3.2505-2.254.2955-6.887.4728-7.39-1.182-.504-1.6548.943-2.0685 1.729-2.0685z" fill="#000"/><path clip-rule="evenodd" d="m107.41 87.1379c2.358-.591 7.61.3842 10.378 9.604.681 3.0043 1.1 10.0181-2.673 14.0361-2.792 3.241-12.577 11.122-29.3765 16.722-6.6667.667-20.1 2-20.5 2 7.6-.8 23.5-7.333 30.5-10.5 10.6925-4.58 24.5655-14.87 18.5895-16.496-2.201-.443-4.245-.738-7.39-.886-3.143-.148-5.165-1.622-5.346-2.3643-1.7299-7.0921 3.616-11.6725 5.818-12.1158zm-.944 5.6147c2.768-.3546 4.927 2.0193 5.661 3.2505-2.254.2955-6.887.4728-7.39-1.182-.504-1.6548.943-2.0685 1.729-2.0685z" fill="#fff" fill-rule="evenodd"/><path clip-rule="evenodd" d="m67.1349 21.203c-.6306-.6067-2.3781-.208-4.3239 6.2411-1.9457 6.4491 1.5314 5.981 3.5132 4.9408.7206-.26 2.1078-1.4562 1.8917-4.1607-.2162-2.7044-2.2521-4.074-3.2429-4.4207.2702-1.0402 1.0809-3.0165 2.1619-2.6005zm-3.5131 9.1016c-.6486-.8322.2702-3.1205.8107-4.1607 3.6753 2.2884 2.7925 3.7273 1.8917 4.1607-.6306.3467-2.0539.8321-2.7024 0z" fill="#fff" fill-rule="evenodd"/><path d="m153.588 57.3433c-3.961 1.4139-9.664 2.9894-17.85 4.6567-27 5.5-47.9995 0-50.9995-5.5-6.6667 7.3333-20 18-20 2-5.6667 3.1667-19.9 9.7-31.5 10.5-14.5 1-33.500033 3-28.50003-19-4.8333334 9.5-7.39999 27.9 21.00003 25.5 8-.6761 26.4-5.9 36-11.5 1 6.6667 6.6 16 21 0 4.1666 5.6667 11.9 14.5 11.5 4.5 13.3395 1.9057 41.2435 2.166 63.0085-8.2625-1.319-.9763-2.549-1.9682-3.659-2.8942z" fill="#fff"/><path d="m157.884 55.5682c1.039.7591 2.234 1.581 3.6 2.4546 3.3-1.8799 6.412-4.0422 9.254-6.5228l.5-3.5c-5.166-2.8333-18.3-6.3-29.5 2.5l-.5 4c1.334-1 4.6-2.7 7-1.5.906.4526 2.813 2.2255 5.35 4.3433 1.752-.6253 3.163-1.219 4.296-1.7751-3.432-2.5086-5.154-4.3313-5.646-5.0682 3.167-.1667 9.6-.3 10 .5.282.5628.405 2.234-4.354 4.5682z" fill="#fff"/><path d="m153.588 57.3433c1.11.926 2.34 1.9179 3.659 2.8942 1.441-.6905 2.856-1.4279 4.237-2.2147-1.366-.8736-2.561-1.6955-3.6-2.4546-1.133.5561-2.544 1.1498-4.296 1.7751z" fill="#fff"/><path d="m175.486 44.9913c.154.8695.392 1.6485.752 2.0087 1 1 5.5 9 4 10.5s-10 6-18 1c-.257-.1607-.508-.3198-.754-.4772-1.381.7868-2.796 1.5242-4.237 2.2147 5.664 4.1907 12.979 8.0941 19.491 5.2625 7.404-3.2191 6.933-10.3761 4.99-16l-5.99-3.5z" fill="#fff"/><path d="m178.238 42.5-2.999-.4285c.003.7377.066 1.8919.247 2.9198l.252 1.0087 5.99 3.5c-1.074-3.1113-2.599-5.7534-3.49-7z" fill="#fff"/><path d="m175.238 42c0 .0234.001.0472.001.0715m-17.355 13.4967c-3.432-2.5086-5.154-4.3313-5.646-5.0682 3.167-.1667 9.6-.3 10 .5.282.5628.405 2.234-4.354 4.5682zm0 0c-1.133.5561-2.544 1.1498-4.296 1.7751m4.296-1.7751c1.039.7591 2.234 1.581 3.6 2.4546m-4.237 2.2147c-21.765 10.4285-49.669 10.1682-63.0085 8.2625.4 10-7.3334 1.1667-11.5-4.5-14.4 16-20 6.6667-21 0-9.6 5.6-28 10.8239-36 11.5-28.40002 2.4-25.8333634-16-21.00003-25.5-5.000003 22 14.00003 20 28.50003 19 11.6-.8 25.8333-7.3333 31.5-10.5 0 16 13.3333 5.3333 20-2 3 5.5 23.9995 11 50.9995 5.5 8.186-1.6673 13.889-3.2428 17.85-4.6567m3.659 2.8942c5.664 4.1907 12.979 8.0941 19.491 5.2625 7.404-3.2191 6.933-10.3761 4.99-16m-24.481 10.7375c-1.319-.9763-2.549-1.9682-3.659-2.8942m3.659 2.8942c1.441-.6905 2.856-1.4279 4.237-2.2147m20.244-8.5228c-1.074-3.1113-2.599-5.7534-3.49-7l-2.999-.4285m6.489 7.4285-5.99-3.5-.252-1.0087m-21.898 12.352c-2.537-2.1178-4.444-3.8907-5.35-4.3433-2.4-1.2-5.666.5-7 1.5l.5-4c11.2-8.8 24.334-5.3333 29.5-2.5l-.5 3.5c-2.842 2.4806-5.954 4.6429-9.254 6.5228m0 0c.246.1574.497.3165.754.4772 8 5 16.5.5 18-1s-3-9.5-4-10.5c-.36-.3602-.598-1.1392-.752-2.0087m0 0-.748-2.9913.501.0715m.247 2.9198c-.181-1.0279-.244-2.1821-.247-2.9198" stroke="#fff"/><path d="m142.238 82.5c1.334-1.8333 7.5-5 21.5-3-4.333-3.5-15.1-8.3-23.5.5-1.833 1.8333-4.5 7.6-.5 16-1.666-.6667-5.3-3.8-6.5-11-2.166-25.8333-7.5-79.2-9.5-82l-1 10c2.834 19.3333 8.2 62.5 7 80.5 0 1-2 3.6-10 6v5.5c5.167.667 15.5 2.5 15.5 4.5 0 2.5-52.9996 40-44.9996-8-3.1666 9.333-5.0999 28.3 12.4996 29.5 7.5-.167 24.9-4.2 34.5-19 1.167-3.167.7-9.9-8.5-11.5 1-.5 3-2.9 3-8.5 2.167 9.333 12.8 22.7 38 1.5.334-1.6667.9-5 .5-5-.5 0-11 10-18 9s-12-14.5-10-15z" fill="#fff" stroke="#fff"/><path d="m74.326 82.5c1.3333-1.8333 7.5-5 21.5-3-4.3334-3.5-15.1-8.3-23.5.5-1.8334 1.8333-4.5 7.6-.5 16-1.6667-.6667-5.3-3.8-6.5-11-2.1667-25.8333-7.5-79.2-9.5-82l-1 10c2.8333 19.3333 8.2 62.5 7 80.5 0 1-2 3.6-10 6v5.5c5.1666.667 15.5 2.5 15.5 4.5 0 2.5-53 40-45-8-3.1667 9.333-5.1 28.3 12.5 29.5 7.5-.167 24.9-4.2 34.5-19 1.1667-3.167.7-9.9-8.5-11.5 1-.5 3-2.9 3-8.5 2.1667 9.333 12.8 22.7 38 1.5.333-1.6667.9-5 .5-5-.5 0-11 10-18 9s-12-14.5-10-15z" fill="#fff" stroke="#fff"/><path d="m41.7385 3c2.3333 4.5 6.8 13.5 6 13.5s-5.6667-5-8-7.5c.5-2.32327 1.6-6.77585 2-6z" fill="#fff" stroke="#fff"/><path d="m40.7384 9.00001c1.1516 7.58989 2.6254 17.75099 4.0558 28.35499.2748 2.037.548 4.0904.817 6.145 2.7894 21.3051 5.1282 42.7454 4.1272 47.5-1.1667 1.3333-4.6 3.2-9 0-5.5-4-4.5-24.5-11.5-39l-2 7.5c1.5 2.5 4.8 10.7 6 23.5-1.5 4.1667-13 17-24.99998 18-3.16667.667-8.400004-1.8-4-17-3.16668 7.1667-6.80002 21.7 4 22.5 12.66358.938 26.44198-16.6021 26.64228-21.6683-.0518-.2839-.0993-.5615-.1422-.8317.1095.2169.1555.4971.1422.8317 1.3565 7.4224 5.7672 19.1033 13.8578 12.1683 5.4795-4.6967 3.8811-29.5065.6731-53.5-.2757-2.0626-.5634-4.1191-.8595-6.1564-1.5397-10.5937-3.307-20.6647-4.8136-28.34359z" fill="#fff"/><path d="m45.6112 43.5c-.269-2.0546-.5422-4.108-.817-6.145-13.6305.0425-26.8397.0966-37.05574.145-2.16666.1667-5.4-.3-1-3.5 5.50004-4 8.00004-4 8.50004-4s6.5-4 12.5-13.5c1-1.6667 3.2-3.4 4 3 .2535 1.5.8085 4.3 1 3.5.8333-3.1667 1.9-10.4-.5-13.99999-.8334-1-3.7-.9-8.5 7.49999-.8334 1.8333-4.4 6-12 8-3.00004.8333-9.30004 5.1-10.50004 15.5 0 1.1667 1.9 3.5 9.50004 3.5z" fill="#fff"/><path d="m48.5521 37.3436c.2961 2.0373.5838 4.0938.8595 6.1564h41.3269c8.5-1.8333 25.1995-5.6 23.9995-6-.819-.2731-34.0151-.251-66.1859-.1564z" fill="#fff"/><path d="m34.8807 84.8317c-.2003 5.0662-13.9787 22.6063-26.64228 21.6683-10.80002-.8-7.16668-15.3333-4-22.5-4.400004 15.2.83333 17.667 4 17 11.99998-1 23.49998-13.8333 24.99998-18-1.2-12.8-4.5-21-6-23.5l2-7.5c7 14.5 6 35 11.5 39 4.4 3.2 7.8333 1.3333 9 0 1.001-4.7546-1.3378-26.1949-4.1272-47.5m-10.7305 41.3317c-.0518-.2839-.0993-.5615-.1422-.8317.1095.2169.1555.4971.1422.8317zm0 0c1.3565 7.4224 5.7672 19.1033 13.8578 12.1683 5.4795-4.6967 3.8811-29.5065.6731-53.5m-38.6731 0c-7.60004 0-9.50004-2.3333-9.50004-3.5 1.2-10.4 7.5-14.6667 10.50004-15.5 7.6-2 11.1666-6.1667 12-8 4.8-8.39999 7.6666-8.49999 8.5-7.49999 2.4 3.59999 1.3333 10.83329.5 13.99999-.1915.8-.7465-2-1-3.5-.8-6.4-3-4.6667-4-3-6 9.5-12 13.5-12.5 13.5s-3 0-8.50004 4c-4.4 3.2-1.16666 3.6667 1 3.5 10.21604-.0484 23.42524-.1025 37.05574-.145m-34.0557 6.145h34.8727m-34.8727 0h34.8727m45.1273 0c8.5-1.8333 25.1995-5.6 23.9995-6-.819-.2731-34.0151-.251-66.1859-.1564m42.1864 6.1564h-41.3269m41.3269 0c-10.6345 0-26.4705 0-41.3269 0m-3.8004 0c-.269-2.0546-.5422-4.108-.817-6.145m.817 6.145h3.8004m-4.6174-6.145c-1.4304-10.604-2.9042-20.7651-4.0558-28.35499h3.0001c1.5066 7.67889 3.2739 17.74989 4.8136 28.34359m-3.7579.0114c1.2498-.0039 2.5031-.0077 3.7579-.0114m0 0c.2961 2.0373.5838 4.0938.8595 6.1564" stroke="#fff"/></svg>