<svg fill="none" height="2400" viewBox="0 0 1080 2400" width="1080" xmlns="http://www.w3.org/2000/svg" xmlns:xlink="http://www.w3.org/1999/xlink"><linearGradient id="a"><stop offset="0" stop-color="#f3e07b"/><stop offset="1" stop-color="#bc6317"/></linearGradient><linearGradient id="b" gradientUnits="userSpaceOnUse" x1="508.582" x2="508.582" xlink:href="#a" y1="1216.09" y2="1195.2"/><linearGradient id="c" gradientUnits="userSpaceOnUse" x1="348.881" x2="348.881" xlink:href="#a" y1="1248.7" y2="1227.81"/><linearGradient id="d" gradientUnits="userSpaceOnUse" x1="448.381" x2="448.381" xlink:href="#a" y1="1300.54" y2="1279.65"/><linearGradient id="e" gradientUnits="userSpaceOnUse" x1="456.742" x2="456.742" xlink:href="#a" y1="1119.94" y2="1099.05"/><linearGradient id="f" gradientUnits="userSpaceOnUse" x1="971.495" x2="969.353" xlink:href="#a" y1="1201.26" y2="1219.55"/><linearGradient id="g" gradientUnits="userSpaceOnUse" x1="776.676" x2="774.535" xlink:href="#a" y1="1276.51" y2="1294.8"/><linearGradient id="h" gradientUnits="userSpaceOnUse" x1="317.639" x2="315.498" xlink:href="#a" y1="1145.24" y2="1163.53"/><linearGradient id="i" gradientUnits="userSpaceOnUse" x1="183.022" x2="180.88" xlink:href="#a" y1="1250.59" y2="1268.88"/><linearGradient id="j" gradientUnits="userSpaceOnUse" x1="855.272" x2="853.131" xlink:href="#a" y1="1193.74" y2="1212.02"/><linearGradient id="k" gradientUnits="userSpaceOnUse" x1="747.412" x2="745.27" xlink:href="#a" y1="1189.56" y2="1207.84"/><path d="m0 0h1080v2400h-1080z" fill="#000"/><g fill="#fff"><path d="m964.23 1277.14c-1.975 4.3-5.552 13.96-1.56 15.43.832.23 3.057 0 5.303-2.76-.208 2.22-1.735 7.87-6.238 7.37-6.238-.69-1.248-17.04 2.495-20.04z"/><path d="m581.932 1270.45c-2.514 5.56-7.066 18.03-1.984 19.93 1.058.3 3.89 0 6.748-3.57-.265 2.88-2.208 10.17-7.939 9.52-7.94-.89-1.588-22.01 3.175-25.88z"/><path d="m530.929 1271.29c-2.515 5.55-7.067 18.03-1.985 19.93 1.058.3 3.89 0 6.748-3.57-.264 2.88-2.208 10.16-7.939 9.52-7.94-.89-1.588-22.01 3.176-25.88z"/><path d="m746.311 1097.37c-2.694 8.6-7.571 27.92-2.127 30.86 1.134.46 4.168 0 7.231-5.52-.284 4.45-2.366 15.73-8.507 14.74-8.506-1.39-1.701-34.09 3.403-40.08z"/><path d="m543.13 1099.05c-2.693 8.59-7.57 27.91-2.126 30.86 1.134.46 4.168 0 7.23-5.53-.283 4.45-2.366 15.74-8.506 14.74-8.507-1.38-1.701-34.09 3.402-40.07z"/><path d="m167.707 1258.75c-2.694 8.59-7.571 27.91-2.127 30.86 1.134.46 4.168 0 7.231-5.53-.284 4.45-2.366 15.74-8.507 14.74-8.506-1.38-1.701-34.09 3.403-40.07z"/><path d="m287.274 1260.42c-2.694 8.6-7.571 27.91-2.127 30.86 1.134.46 4.168 0 7.23-5.53-.283 4.45-2.366 15.74-8.506 14.74-8.507-1.38-1.701-34.08 3.403-40.07z"/><path d="m231.253 1109.08c-2.694 8.6-7.571 27.91-2.127 30.86 1.135.46 4.169 0 7.231-5.53-.284 4.45-2.366 15.74-8.507 14.74-8.506-1.38-1.701-34.08 3.403-40.07z"/><path d="m87.4381 1141.69c-2.6937 8.6-7.5708 27.91-2.1266 30.86 1.1342.46 4.1681 0 7.2305-5.53-.2836 4.45-2.366 15.74-8.5065 14.74-8.5065-1.38-1.7013-34.08 3.4026-40.07z"/><path d="m176.904 1104.06c-2.693 8.6-7.57 27.91-2.126 30.86 1.134.46 4.168 0 7.23-5.52-.283 4.45-2.366 15.73-8.506 14.73-8.507-1.38-1.702-34.08 3.402-40.07z"/><path d="m255.501 1154.23c-2.694 8.6-7.571 27.91-2.127 30.86 1.134.46 4.168 0 7.23-5.53-.283 4.46-2.366 15.74-8.506 14.74-8.506-1.38-1.701-34.08 3.403-40.07z"/><path d="m803.978 1106.04c-1.896-2.45-6.498-6.15-9.734-1.43-.407 1.49-1.137 4.66-.798 5.45.424.99 8.684 2.2 10.12 5.19 2.355 3.13 8.106 12.51 9.139 20.82 1.374-9.38 4.882-28.23 7.926-28.52 3.043-.3 6.074 1.2 7.209 1.98l2.247-8.95c-3.099-2.31-9.957-4.98-12.596 2.8-2.638 7.77-4.716 19.41-5.425 24.25z" stroke="#fff" stroke-width=".657143"/><path d="m453.639 1206.4c-1.897-2.44-6.498-6.15-9.734-1.42-.407 1.48-1.137 4.65-.798 5.45.423.99 8.683 2.19 10.12 5.19 2.354 3.13 8.106 12.5 9.138 20.82 1.374-9.39 4.883-28.23 7.926-28.53s6.074 1.2 7.209 1.98l2.248-8.94c-3.1-2.31-9.957-4.99-12.596 2.79-2.638 7.78-4.716 19.41-5.426 24.25z" stroke="#fff" stroke-width=".657143"/><path d="m261.328 1124.46c-1.896-2.44-6.498-6.15-9.734-1.43-.407 1.49-1.137 4.66-.798 5.45.424.99 8.684 2.2 10.12 5.2 2.355 3.12 8.106 12.5 9.139 20.82 1.374-9.39 4.882-28.23 7.926-28.53 3.043-.3 6.074 1.2 7.209 1.98l2.247-8.95c-3.099-2.3-9.957-4.98-12.596 2.8-2.638 7.78-4.716 19.41-5.425 24.25z" stroke="#fff" stroke-width=".657143"/><path d="m631.847 1139.18-2.466 7.74-71.113 32.39 2.055-8.7z"/><path d="m957.103 1156.74-2.466 7.74-71.114 32.39 2.056-8.7z"/><path d="m390.205 1095.7-3.335 9.99-96.164 41.85 2.779-11.24z"/><path d="m568.613 1127.38c-2.261-2.73-4.678-5.89-6.376-8.31 4.699 44.07 12.385 124.62 9.827 135.5-.418 1.95-3.93 6.02-14.632 6.69-7.788.48-12.884-3.99-16.525-9.13-1.779 1.91-3.738 3.76-5.805 5.54 4.621 11.45 11.781 20.46 22.33 19.05 20.067-2.67 22.296-32.05 20.903-46.4-2.836-29.13-7.842-81.21-9.722-102.94z"/><path d="m535.847 1243.44c-1.32 1.11-2.745 2.27-4.254 3.44.955 3.67 2.116 7.34 3.509 10.79 2.067-1.78 4.026-3.63 5.805-5.54-2.087-2.95-3.696-6.11-5.06-8.69z"/><path d="m534.856 1241.61c-3.763-6.69-2.508-23.83 1.254-22.58 3.763 1.25 13.378 10.87 7.943 16.72-1.607 1.73-4.494 4.55-8.206 7.69 1.364 2.58 2.973 5.74 5.06 8.69 2.413-2.59 4.496-5.28 6.073-8.02 3.623-5.99 2.926-40.92-9.198-39.71-4.367.43-8.946 3.39-9.615 22.16.44 5.63 1.521 12.98 3.426 20.32 1.509-1.17 2.934-2.33 4.254-3.44-.345-.66-.674-1.27-.991-1.83z"/><path d="m501.411 1261.26c-5.017.41-13.211-5.44-12.542-17.15 0-1.39-1.087-2-5.435 6.69-5.435 10.87-6.632 9.99-7.943 10.04-3.763.14-11.539.25-12.542-.42-1.812-.98-6.271-3.68-9.616-6.69-4.181-3.76-15.05-15.89-17.559-17.14-2.365-1.18-4.18-2.93-11.288 4.6-1.159 1.64-2.744 3.75-4.566 5.97 1.426 1.68 2.805 3.19 4.123 4.53 3.926-2.7 6.737-2.03 7.969-.89 2.09 1.82 6.02 6.44 5.016 10.46-1.919-.57-6.767-3.24-12.985-9.57-2.211 1.52-4.774 4.1-7.609 8.27 3.867 6.65 12.772 18.53 21.431 18.85 2.628-.65 7.581-9.68 7.145-16.27-1.081-1.4-1.936-2.7-2.547-3.79l.836-.84c1.074 1.22 1.593 2.83 1.711 4.63 4.591 5.94 13.258 13.64 24.628 14.18 4.799-.27 14.401-4.94 15.027-21.34-.003-.29.005-.56.023-.81-.005.27-.013.54-.023.81.049 6.46 5.178 20.58 15.91 21.34 4.255.31 21.547-7.87 34.527-19.05-1.393-3.45-2.554-7.12-3.509-10.79-8.594 6.64-19.913 13.52-30.182 14.38z"/><path d="m415.847 1251.83c-.909 1.58-1.545 3.09-1.394 3.99.097.58.807 2.12 1.981 4.14 2.835-4.17 5.398-6.75 7.609-8.27-1.318-1.34-2.697-2.85-4.123-4.53-1.265 1.54-2.644 3.14-4.073 4.67z"/><path d="m403.583 1260.84c-7.943 1.25-12.96-1.26-15.886-6.69-2.927-5.44-8.78-10.45-8.78-35.12s-8.779-109.95-17.14-119.57l-2.927 16.73c2.787 10.73 8.696 38.79 10.034 65.21 1.672 33.03 6.689 70.66 8.779 75.26s7.107 20.06 20.485 20.06c2.648-.41 9.95-4.26 17.977-16.3.103-.16.206-.31.309-.46-1.174-2.02-1.884-3.56-1.981-4.14-.151-.9.485-2.41 1.394-3.99-4.183 4.49-8.799 8.46-12.264 9.01z"/><path d="m567.883 1117.44c.335-1-4.041-3.2-6.271-4.18.201 1.85.41 3.8.625 5.81 1.698 2.42 4.115 5.58 6.376 8.31-.521-6.03-.802-9.72-.73-9.94z"/><path d="m564.121 1099.46c-1.951 4.32-5.435 13.72-3.763 16.73.382.68 1.043 1.69 1.879 2.88-.215-2.01-.424-3.96-.625-5.81 2.23.98 6.606 3.18 6.271 4.18-.072.22.209 3.91.73 9.94 2.719 3.28 5.213 5.95 5.959 5.95 1.672 0-7.525-30.94-10.451-33.87z"/><path d="m443.299 1257.91-.836.84c.611 1.09 1.466 2.39 2.547 3.79-.118-1.8-.637-3.41-1.711-4.63z"/></g><path d="m568.613 1127.38c-2.261-2.73-4.678-5.89-6.376-8.31m6.376 8.31c1.88 21.73 6.886 73.81 9.722 102.94 1.393 14.35-.836 43.73-20.903 46.4-10.549 1.41-17.709-7.6-22.33-19.05m33.511-130.29c-.521-6.03-.802-9.72-.73-9.94.335-1-4.041-3.2-6.271-4.18.201 1.85.41 3.8.625 5.81m6.376 8.31c2.719 3.28 5.213 5.95 5.959 5.95 1.672 0-7.525-30.94-10.451-33.87-1.951 4.32-5.435 13.72-3.763 16.73.382.68 1.043 1.69 1.879 2.88m0 0c4.699 44.07 12.385 124.62 9.827 135.5-.418 1.95-3.93 6.02-14.632 6.69-7.788.48-12.884-3.99-16.525-9.13m0 0c-1.779 1.91-3.738 3.76-5.805 5.54m5.805-5.54c2.413-2.59 4.496-5.28 6.073-8.02 3.623-5.99 2.926-40.92-9.198-39.71-4.367.43-8.946 3.39-9.615 22.16.44 5.63 1.521 12.98 3.426 20.32m9.314 5.25c-2.087-2.95-3.696-6.11-5.06-8.69m-.745 14.23c-12.98 11.18-30.272 19.36-34.527 19.05-10.732-.76-15.861-14.88-15.91-21.34m50.437 2.29c-1.393-3.45-2.554-7.12-3.509-10.79m4.254-3.44c-1.32 1.11-2.745 2.27-4.254 3.44m4.254-3.44c-.345-.66-.674-1.27-.991-1.83-3.763-6.69-2.508-23.83 1.254-22.58 3.763 1.25 13.378 10.87 7.943 16.72-1.607 1.73-4.494 4.55-8.206 7.69zm-4.254 3.44c-8.594 6.64-19.913 13.52-30.182 14.38-5.017.41-13.211-5.44-12.542-17.15 0-1.39-1.087-2-5.435 6.69-5.435 10.87-6.632 9.99-7.943 10.04-3.763.14-11.539.25-12.542-.42-1.812-.98-6.271-3.68-9.616-6.69-4.181-3.76-15.05-15.89-17.559-17.14-2.365-1.18-4.18-2.93-11.288 4.6-1.159 1.64-2.744 3.75-4.566 5.97m0 0c1.426 1.68 2.805 3.19 4.123 4.53m-4.123-4.53c-.15-.18-.3-.36-.45-.54-.996 1.23-2.514 3.28-3.623 5.21m4.073-4.67c-1.265 1.54-2.644 3.14-4.073 4.67m8.196-.14c3.926-2.7 6.737-2.03 7.969-.89 2.09 1.82 6.02 6.44 5.016 10.46-1.919-.57-6.767-3.24-12.985-9.57zm0 0c-2.211 1.52-4.774 4.1-7.609 8.27m0 0c3.867 6.65 12.772 18.53 21.431 18.85 2.628-.65 7.581-9.68 7.145-16.27m-28.576-2.58c-1.174-2.02-1.884-3.56-1.981-4.14-.151-.9.485-2.41 1.394-3.99m.587 8.13c-.103.15-.206.3-.309.46-8.027 12.04-15.329 15.89-17.977 16.3-13.378 0-18.395-15.46-20.485-20.06s-7.107-42.23-8.779-75.26c-1.338-26.42-7.247-54.48-10.034-65.21l2.927-16.73c8.361 9.62 17.14 94.9 17.14 119.57s5.853 29.68 8.78 35.12c2.926 5.43 7.943 7.94 15.886 6.69 3.465-.55 8.081-4.52 12.264-9.01m29.163 10.71c-1.081-1.4-1.936-2.7-2.547-3.79l.836-.84c1.074 1.22 1.593 2.83 1.711 4.63zm0 0c4.591 5.94 13.258 13.64 24.628 14.18 4.799-.27 14.401-4.94 15.027-21.34m0 0c-.003-.29.005-.56.023-.81-.005.27-.013.54-.023.81z" stroke="#fff"/><path d="m909.35 1123.29h38.365c1.518 4.72 2.991 13.38-8.453 20.58-14.306 9.01-29.912 12.87-31.213 12.87-1.04 0 18.641-12.01 28.612-18.01h-36.415z" fill="#fff"/><path d="m161.011 1165.94h38.365c1.518 4.71 2.992 13.37-8.453 20.58-14.306 9-29.912 12.86-31.213 12.86-1.04 0 18.641-12 28.612-18.01h-36.415z" fill="#fff"/><path d="m503.889 1216.09 4.171-8.56 11.818 7.88 5.909-11.65-12.165-8.56-5.562 8.56-11.122-7.53-5.561 11.3 6.256 4.28z" fill="url(#b)"/><path d="m344.188 1248.7 4.171-8.56 11.818 7.88 5.908-11.65-12.165-8.56-5.561 8.56-11.122-7.53-5.561 11.3 6.256 4.28z" fill="url(#c)"/><path d="m443.688 1300.54 4.171-8.56 11.818 7.88 5.908-11.65-12.165-8.56-5.561 8.56-11.122-7.53-5.561 11.3 6.256 4.28z" fill="url(#d)"/><path d="m452.05 1119.94 4.171-8.57 11.817 7.88 5.909-11.64-12.165-8.56-5.561 8.56-11.123-7.54-5.561 11.3 6.256 4.29z" fill="url(#e)"/><path clip-rule="evenodd" d="m894.357 1207.36c-1.395-1.35-5.262-.46-9.567 13.8-4.305 14.27 3.388 13.24 7.773 10.94 1.595-.58 4.664-3.23 4.186-9.21-.479-5.98-4.983-9.01-7.175-9.78.598-2.3 2.391-6.67 4.783-5.75zm-7.773 20.13c-1.435-1.84.598-6.9 1.794-9.2 8.131 5.06 6.178 8.24 4.185 9.2-1.395.77-4.544 1.84-5.979 0z" fill="#fff" fill-rule="evenodd"/><path clip-rule="evenodd" d="m838.336 1213.21c-1.395-1.34-5.262-.46-9.567 13.81s3.388 13.23 7.773 10.93c1.595-.58 4.664-3.22 4.186-9.21-.479-5.98-4.983-9.01-7.175-9.78.598-2.3 2.391-6.67 4.783-5.75zm-7.773 20.14c-1.435-1.85.598-6.91 1.794-9.21 8.131 5.06 6.178 8.25 4.185 9.21-1.395.76-4.544 1.84-5.979 0z" fill="#fff" fill-rule="evenodd"/><path clip-rule="evenodd" d="m671.946 1269.23c-1.395-1.34-5.262-.46-9.567 13.81s3.388 13.23 7.773 10.93c1.595-.58 4.664-3.22 4.185-9.21-.478-5.98-4.982-9.01-7.175-9.78.598-2.3 2.392-6.67 4.784-5.75zm-7.773 20.14c-1.435-1.84.598-6.91 1.794-9.21 8.131 5.06 6.178 8.25 4.185 9.21-1.395.76-4.544 1.84-5.979 0z" fill="#fff" fill-rule="evenodd"/><path clip-rule="evenodd" d="m607.647 1182.32c-1.405-1.48-5.302-.51-9.64 15.22-4.339 15.73 3.414 14.58 7.833 12.05 1.607-.64 4.7-3.55 4.218-10.15s-5.022-9.94-7.231-10.78c.603-2.54 2.41-7.36 4.82-6.34zm-7.833 22.19c-1.446-2.03.603-7.61 1.808-10.14 8.195 5.58 6.226 9.09 4.218 10.14-1.406.85-4.58 2.03-6.026 0z" fill="#fff" fill-rule="evenodd"/><path clip-rule="evenodd" d="m603.467 1104.56c-1.406-1.48-5.303-.51-9.641 15.22s3.414 14.58 7.833 12.05c1.607-.64 4.7-3.55 4.218-10.15s-5.021-9.94-7.231-10.78c.603-2.54 2.411-7.36 4.821-6.34zm-7.833 22.19c-1.446-2.03.602-7.61 1.807-10.14 8.195 5.58 6.227 9.09 4.218 10.14-1.406.85-4.579 2.03-6.025 0z" fill="#fff" fill-rule="evenodd"/><path clip-rule="evenodd" d="m414.5 1102.05c-1.405-1.48-5.302-.51-9.64 15.22-4.339 15.73 3.414 14.59 7.833 12.05 1.607-.64 4.7-3.55 4.218-10.15-.482-6.59-5.022-9.93-7.231-10.78.603-2.54 2.41-7.36 4.82-6.34zm-7.833 22.2c-1.446-2.03.603-7.62 1.808-10.15 8.195 5.58 6.226 9.09 4.218 10.15-1.406.84-4.58 2.02-6.026 0z" fill="#fff" fill-rule="evenodd"/><path clip-rule="evenodd" d="m215.501 1245.86c-1.406-1.48-5.302-.5-9.641 15.22-4.338 15.73 3.415 14.59 7.833 12.05 1.607-.63 4.7-3.55 4.218-10.14-.482-6.6-5.021-9.94-7.23-10.78.602-2.54 2.41-7.36 4.82-6.35zm-7.833 22.2c-1.446-2.03.602-7.61 1.807-10.15 8.195 5.58 6.227 9.09 4.218 10.15-1.406.85-4.579 2.03-6.025 0z" fill="#fff" fill-rule="evenodd"/><path clip-rule="evenodd" d="m131.888 1222.45c-1.406-1.48-5.302-.51-9.641 15.22-4.338 15.73 3.415 14.59 7.834 12.05 1.606-.63 4.699-3.55 4.217-10.15-.482-6.59-5.021-9.93-7.23-10.78.602-2.53 2.41-7.35 4.82-6.34zm-7.833 22.2c-1.446-2.03.603-7.61 1.808-10.15 8.194 5.58 6.226 9.09 4.218 10.15-1.406.84-4.58 2.03-6.026 0z" fill="#fff" fill-rule="evenodd"/><path d="m771.364 1114.42c-2.646-2.01-5.368-4.17-7.612-6 15.959 58.34 21.915 123.03 21.118 140.29 12.798-9.72-1.598-84.77-13.506-134.29z" fill="#fff"/><path d="m766.676 1095.7-3.638 10.14c.24.86.478 1.72.714 2.58 2.244 1.83 4.966 3.99 7.612 6-1.635-6.8-3.223-13.12-4.688-18.72z" fill="#fff"/><path d="m778.806 1119.67c4.851 2.95-6.065-14.75-12.13-23.97 1.465 5.6 3.053 11.92 4.688 18.72 2.78 2.11 5.476 4.05 7.442 5.25z" fill="#fff"/><path d="m720.36 1114.42c-2.646-2.01-5.368-4.17-7.612-6 15.959 58.34 21.915 123.03 21.118 140.29 12.798-9.72-1.598-84.77-13.506-134.29z" fill="#fff"/><path d="m715.673 1095.7-3.639 10.14c.24.86.478 1.72.714 2.58 2.244 1.83 4.966 3.99 7.612 6-1.635-6.8-3.223-13.12-4.687-18.72z" fill="#fff"/><path d="m727.802 1119.67c4.851 2.95-6.065-14.75-12.129-23.97 1.464 5.6 3.052 11.92 4.687 18.72 2.78 2.11 5.476 4.05 7.442 5.25z" fill="#fff"/><path d="m979.683 1210.4-12.048-7.8-7.298 9.61 12.061 7.69z" fill="url(#f)"/><path d="m784.864 1285.65-12.048-7.8-7.298 9.61 12.061 7.69z" fill="url(#g)"/><path d="m325.827 1154.38-12.048-7.8-7.298 9.61 12.061 7.69z" fill="url(#h)"/><path d="m191.21 1259.73-12.049-7.8-7.297 9.61 12.061 7.69z" fill="url(#i)"/><path d="m863.461 1202.87-12.049-7.79-7.298 9.61 12.061 7.69z" fill="url(#j)"/><path d="m755.6 1198.69-12.049-7.79-7.298 9.61 12.061 7.69z" fill="url(#k)"/><path d="m973.408 1192.27c5.852-.83 6.689-34.7-4.599-35.53-4.599 0-8.024 6.27-11.288 18.39-2.926 10.87-17.977 40.81-39.716 51.84l-11.706 16.73 13.378.83c2.926-3.2 12.626-6.69 28.01 5.02.976 1.67-4.849 6.27-35.953 11.29-7.386 1.11-20.067 2.51-19.231-3.77 0-2.78.334-8.94 1.672-11.28.836-1.54-.836-3.79-5.853 3.34-7.943 11.29-23.412 27.43-16.723-1.67.279-1.95-.418-4.1-5.434 2.93-2.23 3.48-7.526 13.37-17.977 14.21-3.763 0-9.114-3.34-2.091-16.72.976-1.81 1.589-4.35-3.762 0-6.689 5.43-10.87 11.28-35.118 13.38-7.107.83-19.983-2.43-12.96-20.49-12.96 8.5-44.064 25.33-64.8 24.67-25.92-.84-41.389-10.46-36.79-42.65-8.919 17.56-15.218 53.52 30.937 56.86 11.427.42 39.549-2.68 60.619-18.39.976 6.68 6.271 19.73 19.65 18.39 16.722-1.67 22.575-4.6 31.355-12.96 2.508 7.53 11.204 18.56 25.92 2.51 2.09 6.41 9.281 15.8 21.321 2.09 9.058 5.71 39.298 10.87 87.794-14.22 3.763-1.25 12.96-3.01 19.649 0l11.288-16.3-26.338-.42c-12.403-4.04-37.125-12.87-36.79-15.88.418-3.77 11.288-9.2 19.231-33.45s15.05-16.72 16.305 1.25z" fill="#fff"/><path d="m954.176 1101.97 3.763-6.27c7.246 4.88 19.565 19.4 10.87 38.46.975-6.69-.586-22.49-14.633-32.19z" fill="#fff" stroke="#fff"/><path d="m867.637 1105.32 3.762-6.27c7.247 4.87 19.566 19.39 10.87 38.46.976-6.69-.585-22.49-14.632-32.19z" fill="#fff" stroke="#fff"/><path d="m835.864 1120.78-.418 12.55c5.156.41 16.054.92 18.395-.42 2.926-1.67-17.838-16.31-17.977-12.13z" fill="#fff" stroke="#fff"/><path d="m837.954 1125.8c-.697 2.93-1.254 9.95 2.091 14.63 3.344 4.69 14.493 18.96 19.649 25.51-2.787 4.04-12.877 11.79-30.937 10.45-11.706-.87-15.051-10.04-20.067-15.89-.976.14-3.01 3.68-3.345 16.72 5.714 8.78 14.632 24.45 6.271 30.94-14.354 11.15-50.252 32.86-77.342 30.52-33.864-2.93-32.191-28.01-31.355-52.26-7.665 21.6-11.873 65.47 32.609 68.15 9.058.41 33.613-3.18 59.365-20.91 32.191-22.15 26.339-30.94 25.502-46.4 7.526 4.87 26.589 9.03 42.643-13.38 2.091-4.32 5.017-14.72 0-21.74-6.271-8.78-17.559-17.56-16.304-23.41 1.003-4.68-5.435-3.9-8.78-2.93z" fill="#fff" stroke="#fff"/><path clip-rule="evenodd" d="m811.316 1154.08-2.578-1.62c.703-1.69 1.049-3.46.935-5.31-.234-3.86-2.44-9.02-9.386 2.08-.72 1.15.468 3.04 4.799 5.7-.627.86-1.431 1.75-2.452 2.62-4.13 3.51-15.8 10.4-21.119 13.4 7.185-2.11 19.591-7.46 25.233-15.05.939.52 1.989 1.07 3.16 1.65.86-1.08 2.346-3.28 1.408-3.47zm-4.448-2.8-4-2.52c.391-.84 1.502-2.45 2.816-2.08s1.486 1.55 1.408 2.08c.089.56.064 1.44-.224 2.52z" fill="#fff" fill-rule="evenodd"/><path d="m808.738 1152.46 2.578 1.62c.938.19-.548 2.39-1.408 3.47-1.171-.58-2.221-1.13-3.16-1.65m1.99-3.44c.703-1.69 1.049-3.46.935-5.31-.234-3.86-2.44-9.02-9.386 2.08-.72 1.15.468 3.04 4.799 5.7m3.652-2.47c-.497 1.19-1.173 2.34-1.99 3.44m1.99-3.44-1.87-1.18m-.12 4.62c-5.642 7.59-18.048 12.94-25.233 15.05 5.319-3 16.989-9.89 21.119-13.4 1.021-.87 1.825-1.76 2.452-2.62m1.662.97c-.599-.34-1.153-.66-1.662-.97m0 0c.951-1.32 1.496-2.58 1.782-3.65m0 0-4-2.52c.391-.84 1.502-2.45 2.816-2.08s1.486 1.55 1.408 2.08c.089.56.064 1.44-.224 2.52z" stroke="#fff"/><path d="m94.6323 1302.03c2.6756-2.35 25.1677-15.39 27.9267-17.56 2.676-2.09 5.101-4.44 8.111-7.11-2.007-.92-3.094-1.51-4.265-2.01-3.762-1.67-4.682-3.68-3.679-7.52.669-2.68 1.255-5.35 1.589-8.03.502-3.93 2.174-5.27 5.769-3.85 5.77 2.26 10.703 5.69 13.629 11.29 1.756 3.35 1.254 7.44-1.421 9.95-.753.75-2.174.92-3.345 1.01-1.505 0-3.01-.34-4.598-.51-1.923-.25-3.178.42-4.181 2.18-3.345 5.52-8.445 9.03-14.047 12.04-1.171.67-21.7395 12.71-23.579 13.88m39.884-36.04c-.084-4.1-1.924-6.94-3.261-6.02-1.924 1.17-3.429 3.18-4.516 5.18-.585 1.09 3.261 3.68 5.435 3.18 1.087-.33 1.923-1.92 2.342-2.34zm9.699 4.01c0-4.43-2.927-7.69-6.857-7.94-.334 1.67-.836 3.35-.919 5.02 0 .75.669 2 1.254 2.17 2.09.42 4.264.5 6.522.75z" fill="#fff"/><path clip-rule="evenodd" d="m688.439 1187.49c1.686-.78 3.501-1.44 5.317-1.89 1.426-.4 2.853-.92 4.279-1.38 1.362-.52 2.853-.85 3.696-2.16.648-1.04.843-2.42 1.167-3.6.389-1.57.778-3.07.843-4.71.129-2.29-.649-4.38-2.14-6.08-1.945-2.29-4.15-4.51-6.484-6.35-4.214-3.4-10.374-7.52-16.015-5.88-2.204.65-4.344 3.07-5.187 5.16-.518 1.31-.778 2.88-1.102 4.26-.389 1.5-.519 3.07-.259 4.58.194 1.24.583 2.42 1.102 3.59.519 1.12 2.464 3.54 1.621 4.58-.843 1.05-2.983 1.77-4.085 2.36l-4.668 2.55c-6.03 3.34-11.606 7.52-17.312 11.45-11.606 7.98-22.045 17.73-33.003 26.5-2.788 2.22-5.511 4.25-8.558 6.08-2.853 1.7-5.447 3.73-8.04 5.69-2.594 1.96-5.836 3.34-8.753 4.65-3.113 1.37-5.901 2.35-9.337 2.61-3.501.26-7.651.46-10.634-1.63-2.723-1.97-4.279-4.12-5.122-7.4-1.037-3.92-1.232-7.58-.519-11.64.649-3.4 1.427-6.67 2.27-10.01.389-1.57 1.102-3.07 1.75-4.51.584-1.25 1.621-2.49 1.297-3.93-.194-.85-.713-1.77-1.297-2.35-.907-.86-1.167-.27-1.685.58-.778 1.31-1.103 2.62-1.556 4.06-.519 1.57-1.492 2.88-2.14 4.32-1.362 3.14-2.075 6.61-2.788 9.94-.649 3.21-1.362 6.41-1.102 9.68 0 2.95-.195 5.76.453 8.64.649 2.81 1.686 5.89 3.113 8.51 2.658 4.84 7.197 9.02 12.578 10.33 2.723.66 5.576.59 8.3.07 3.436-.66 6.678-1.18 9.855-2.69 6.484-3.07 12.254-7.71 17.83-12.1 5.836-4.58 11.542-9.42 17.118-14.33 2.788-2.42 5.705-4.77 8.623-7.06 2.853-2.29 5.511-4.78 8.429-7 2.983-2.29 6.16-4.32 9.207-6.48 2.723-1.9 5.252-3.92 8.105-5.56 2.982-1.77 6.03-3.4 9.207-4.97 1.297-.65 2.529-1.31 3.89-1.77 1.621-.59 3.048-1.76 4.669-2.29.453-.13 6.872-3.01 7.067-2.42zm-6.225-12.95c.195.06.39.13.519.2.584-.07 1.167-.14 1.686-.33.584-.13 1.167-.39 1.751-.59 1.167-.39 2.463-.65 3.501-1.31.324-.2.519-.39.648-.78-.129-.07-.259-.2-.389-.27-.454-.26-.908-.52-1.361-.72-.973-.45-2.01-.91-2.983-1.24-.972-.33-2.01-.78-3.047-.85-.843 0-1.686.2-2.27.79-.194.26-.389.58-.518.91-.065.2-.13.33-.13.53v.13l.065.06c.129.2.324.46.454.66l.778 1.17.972 1.38c.195.26.065.13.324.26z" fill="#fff" fill-rule="evenodd"/><path d="m615.961 1163.43c-.279 5.29-.502 15.8.836 15.47 1.672-.42 21.74-1.68 19.649-2.93-1.672-1-14.353-8.78-20.485-12.54z" fill="#fff" stroke="#fff"/><path d="m626.412 1175.13c15.747 10.46 47.743 32.86 49.75 38.88 2.508 7.53-.565 19.8-3.763 23-2.09 2.09-44.315 37.62-69.399 40.97-3.901 1.11-11.371-2.26-10.033-24.67 1.254 5.85 5.686 16.72 13.378 13.38 9.616-4.18 35.118-13.38 65.636-43.48.558-1.39-.585-5.6-9.615-11.29-11.288-7.1-44.733-31.77-44.315-35.11.334-2.68 5.713-2.23 8.361-1.68z" fill="#fff" stroke="#fff"/><path clip-rule="evenodd" d="m642.299 1147.12c1.338 3.35 5.853 3.07 7.944 2.51 2.787-1.39 7.525-7.94 2.926-15.89-.726-1.25-1.755-2.42-3.761-3.76h-.002l-2.983-1.25c-2.402 7.45-5.18 15.75-4.124 18.39zm2.927-3.76c-1.338-1.67.278-5.43 1.254-7.11.418-.77 2.926 1.26 5.017 3.35 2.09 2.09-4.599 5.85-6.271 3.76z" fill="#fff" fill-rule="evenodd"/><path d="m643.972 1098.21-3.763 3.34c3.345 3.21 9.866 10.96 9.197 16.31-.308 2.46-1.582 6.52-2.983 10.87l2.983 1.25h.002c-.096-2 .555-4.92 1.671-9.2 2.508-9.61-3.763-19.5-7.107-22.57z" fill="#fff"/><path d="m646.423 1128.73c1.401-4.35 2.675-8.41 2.983-10.87.669-5.35-5.852-13.1-9.197-16.31l3.763-3.34c3.344 3.07 9.615 12.96 7.107 22.57-1.116 4.28-1.767 7.2-1.671 9.2m-2.985-1.25c-2.402 7.45-5.18 15.75-4.124 18.39 1.338 3.35 5.853 3.07 7.944 2.51 2.787-1.39 7.525-7.94 2.926-15.89-.726-1.25-1.755-2.42-3.761-3.76m-2.985-1.25 2.983 1.25h.002m1.253 2.93c-.8-.67-1.19-1.6-1.253-2.93m-2.928 6.27c-.976 1.68-2.592 5.44-1.254 7.11 1.672 2.09 8.361-1.67 6.271-3.76-2.091-2.09-4.599-4.12-5.017-3.35z" stroke="#fff"/><path clip-rule="evenodd" d="m134.767 1173.04c1.337 3.35 5.853 3.07 7.943 2.51 2.787-1.39 7.525-7.94 2.926-15.88-.726-1.26-1.755-2.43-3.761-3.77h-.001l-2.984-1.25c-2.402 7.45-5.179 15.75-4.123 18.39zm2.926-3.76c-1.338-1.67.279-5.43 1.254-7.11.418-.77 2.927 1.26 5.017 3.35s-4.599 5.85-6.271 3.76z" fill="#fff" fill-rule="evenodd"/><path d="m136.439 1124.13-3.763 3.34c3.345 3.21 9.867 10.96 9.198 16.31-.308 2.46-1.582 6.52-2.984 10.87l2.984 1.25h.001c-.096-2 .555-4.92 1.671-9.2 2.508-9.61-3.763-19.5-7.107-22.57z" fill="#fff"/><path d="m138.89 1154.65c1.402-4.35 2.676-8.41 2.984-10.87.669-5.35-5.853-13.1-9.198-16.31l3.763-3.34c3.344 3.07 9.615 12.96 7.107 22.57-1.116 4.28-1.767 7.2-1.671 9.2m-2.985-1.25c-2.402 7.45-5.179 15.75-4.123 18.39 1.337 3.35 5.853 3.07 7.943 2.51 2.787-1.39 7.525-7.94 2.926-15.88-.726-1.26-1.755-2.43-3.761-3.77m-2.985-1.25 2.984 1.25h.001m1.253 2.93c-.799-.67-1.19-1.6-1.253-2.93m-2.928 6.27c-.975 1.68-2.592 5.44-1.254 7.11 1.672 2.09 8.361-1.67 6.271-3.76s-4.599-4.12-5.017-3.35z" stroke="#fff"/><path d="m516.301 1121.54c-3.107-.08-6.563-.26-8.524-.32.269 2.42 1.085 5.25 2.831 8.34 5.435 9.62 21.74 30.1 18.813 32.61-2.926 2.51-10.869 12.55-25.92 12.13-7.267-.2-13.56-3.23-18.266-8.76-1.951 1.64-4.145 3.36-6.496 5.09 5.976 11.79 14.931 20.43 24.344 19.55 17.977-1.67 28.847-17.55 30.519-25.92 1.672-8.36 2.09-15.05-5.853-25.5-5.417-7.13-9.552-13.09-11.448-17.22z" fill="#fff"/><path d="m515.207 1117.02c.471-2.67-3.984-3.34-6.271-3.34-.75 1.25-1.56 3.94-1.159 7.54 1.961.06 5.417.24 8.524.32-.884-1.93-1.281-3.45-1.094-4.52z" fill="#fff"/><path d="m507.682 1106.57c-1.254 4.88-3.177 14.63-.836 14.63.25 0 .564.01.931.02-.401-3.6.409-6.29 1.159-7.54 2.287 0 6.742.67 6.271 3.34-.187 1.07.21 2.59 1.094 4.52 3.103.08 5.858.04 6.431-.34 1.004-.67-9.615-10.03-15.05-14.63z" fill="#fff"/><path d="m476.327 1139.6c.279-6.41 3.595-14.38 14.632 5.01 1.091.99-.192 4.68-10.909 12.34 1.396 3.32 3.14 6.19 5.185 8.59 4.681-3.94 7.961-7.45 8.651-9.64 2.508-7.94 2.926-31.35-9.616-38.88-3.205-1.67-10.201-.33-12.542 18.4-.984 7.87.208 16.84 2.908 25.2 2.028-1.31 3.825-2.53 5.414-3.67-2.044-4.86-3.338-10.67-3.723-17.35z" fill="#fff"/><path d="m478.739 1170.63c2.351-1.73 4.545-3.45 6.496-5.09-2.045-2.4-3.789-5.27-5.185-8.59-1.589 1.14-3.386 2.36-5.414 3.67 1.123 3.48 2.507 6.86 4.103 10.01z" fill="#fff"/><path d="m468.802 1164.26c-21.071 12.71-33.306 10.59-36.79 7.95-6.132-4.18-19.649-14.3-24.666-21.32-2.369-1.68-8.779-3.35-15.468 3.34-8.362 8.36-14.215 22.16-34.282 20.07-3.762-.56-12.207-3.35-15.886-10.04-4.599-8.36-5.853-8.36-6.271-8.36-.335 0-1.255 11.71-1.673 17.56 3.484 6.27 10.201 21.66 9.198 33.03-1.254 4.04-13.127 17.22-50.586 37.62-9.476 4.05-31.69 9.7-44.733 0-16.305-12.12-20.485-26.33-14.633-61.45.837-5.85 1.506-14.3-2.508-1.26-5.017 16.31-12.124 89.05 39.298 83.62 9.755.14 38.044-8.61 73.162-44.74 1.951-1.39 5.602-10.28 4.599-34.69 5.853 5.15 20.987 10.11 34.699-11.29.26-.38.539-.77.836-1.17 2.218-2.99 5.415-6.45 8.78-8.48 4.155-2.52 8.7-2.94 11.705 2.54 7.108 12.96 0 7.87-11.705-2.54-3.365 2.03-6.562 5.49-8.78 8.48 6.271 8.19 20.235 23.16 25.92 17.47 4.24-4.24 5.179-10.29 5.035-14.66-.634-.58-1.2-1.14-1.69-1.64l1.254-2.09c.213.95.388 2.25.436 3.73 5.685 5.29 16.809 13.41 26.738 13.41 8.424 0 25.418-9.51 37.948-18.72-1.596-3.15-2.98-6.53-4.103-10.01-1.765 1.15-3.705 2.36-5.834 3.64z" fill="#fff"/><path d="m413.617 1172.21-1.254 2.09c.49.5 1.056 1.06 1.69 1.64-.048-1.48-.223-2.78-.436-3.73z" fill="#fff"/><path d="m391.878 1164.65c4.155-2.52 8.7-2.94 11.705 2.54 7.108 12.96 0 7.87-11.705-2.54zm0 0c-3.365 2.03-6.562 5.49-8.78 8.48m0 0c-.297.4-.576.79-.836 1.17-13.712 21.4-28.846 16.44-34.699 11.29 1.003 24.41-2.648 33.3-4.599 34.69-35.118 36.13-63.407 44.88-73.162 44.74-51.422 5.43-44.315-67.31-39.298-83.62 4.014-13.04 3.345-4.59 2.508 1.26-5.852 35.12-1.672 49.33 14.633 61.45 13.043 9.7 35.257 4.05 44.733 0 37.459-20.4 49.332-33.58 50.586-37.62 1.003-11.37-5.714-26.76-9.198-33.03.418-5.85 1.338-17.56 1.673-17.56.418 0 1.672 0 6.271 8.36 3.679 6.69 12.124 9.48 15.886 10.04 20.067 2.09 25.92-11.71 34.282-20.07 6.689-6.69 13.099-5.02 15.468-3.34 5.017 7.02 18.534 17.14 24.666 21.32 3.484 2.64 15.719 4.76 36.79-7.95 2.129-1.28 4.069-2.49 5.834-3.64m-91.538 12.51c6.271 8.19 20.235 23.16 25.92 17.47 4.24-4.24 5.179-10.29 5.035-14.66m102.248-54.4c-3.107-.08-6.563-.26-8.524-.32m8.524.32c1.896 4.13 6.031 10.09 11.448 17.22 7.943 10.45 7.525 17.14 5.853 25.5-1.672 8.37-12.542 24.25-30.519 25.92-9.413.88-18.368-7.76-24.344-19.55m37.562-49.09c-.884-1.93-1.281-3.45-1.094-4.52.471-2.67-3.984-3.34-6.271-3.34-.75 1.25-1.56 3.94-1.159 7.54m8.524.32c3.103.08 5.858.04 6.431-.34 1.004-.67-9.615-10.03-15.05-14.63-1.254 4.88-3.177 14.63-.836 14.63.25 0 .564.01.931.02m0 0c.269 2.42 1.085 5.25 2.831 8.34 5.435 9.62 21.74 30.1 18.813 32.61-2.926 2.51-10.869 12.55-25.92 12.13-7.267-.2-13.56-3.23-18.266-8.76m0 0c-1.951 1.64-4.145 3.36-6.496 5.09m6.496-5.09c4.681-3.94 7.961-7.45 8.651-9.64 2.508-7.94 2.926-31.35-9.616-38.88-3.205-1.67-10.201-.33-12.542 18.4-.984 7.87.208 16.84 2.908 25.2m10.599 4.92c-2.045-2.4-3.789-5.27-5.185-8.59m-1.311 13.68c-12.53 9.21-29.524 18.72-37.948 18.72-9.929 0-21.053-8.12-26.738-13.41m64.686-5.31c-1.596-3.15-2.98-6.53-4.103-10.01m5.414-3.67c10.717-7.66 12-11.35 10.909-12.34-11.037-19.39-14.353-11.42-14.632-5.01.385 6.68 1.679 12.49 3.723 17.35zm0 0c-1.589 1.14-3.386 2.36-5.414 3.67m-60.583 15.32c-.634-.58-1.2-1.14-1.69-1.64l1.254-2.09c.213.95.388 2.25.436 3.73z" stroke="#fff"/><path d="m393.968 1198.13-2.509 12.12c3.484 6.13 9.839 18.64 8.362 20.49-3.345 4.18-49.332 32.61-85.286 28.01-11.706-1.68-32.191-13.97-20.485-49.75-8.919 19.37-16.472 59.7 24.666 66.05 6.968.7 27.843-1.25 55.603-14.63 9.336-3.9 28.177-15.47 28.846-30.52.836-18.81-4.599-27.59-9.197-31.77z" fill="#fff" stroke="#fff"/><path d="m241.678 1275.66c2.947 1.13 5.44 3.72-8.159 5.08-2.456.24-4.457.39-6.12.48-9.844.56-7.789-.78-17.678 5.01-8.464 4.96-11.46 7.64-14.326 8.73 3.378-.86 8.619-2.79 15.006-6.61 11.559-6.93 8.839-5.5 19.038-5.5s24.478-5.07 14.279-8.88c-2.04-.76-9.247.87-16.319 7.25 8.16-5.7 12.919-6.08 14.279-5.56z" fill="#fff"/><path d="m227.399 1281.22c1.663-.09 3.664-.24 6.12-.48 13.599-1.36 11.106-3.95 8.159-5.08-1.36-.52-6.119-.14-14.279 5.56zm0 0c-9.844.56-7.789-.78-17.678 5.01-8.464 4.96-11.46 7.64-14.326 8.73m32.004-13.74c7.072-6.38 14.279-8.01 16.319-7.25 10.199 3.81-4.08 8.88-14.279 8.88s-7.479-1.43-19.038 5.5c-6.387 3.82-11.628 5.75-15.006 6.61m0 0c-1.513.38-2.652.55-3.353.58 1.274 0 2.305-.19 3.353-.58z" stroke="#fff"/><path clip-rule="evenodd" d="m369.037 1274.12c2.352-2.81 7.202-5.99 7.786 3.78.081 1.77-.973 4.79-5.839 2.66l-3.406-2.22c-.325-.44-1.022-.62-1.217 2.22-.243 3.55-13.624 11.76-16.057 12.43s-5.84 1.55-19.464 4.22c11.435-4 34.548-13.72 35.521-20.65.389 0 1.947-1.62 2.676-2.44zm.73 1.78c1.541-1.11 4.818-2.27 5.596 2-.73.14-2.871-.05-5.596-2z" fill="#fff" fill-rule="evenodd" stroke="#fff"/><path clip-rule="evenodd" d="m649.142 1221.45c2.352-2.82 7.201-6 7.785 3.77.081 1.78-.973 4.79-5.839 2.66l-3.406-2.22c-.324-.44-1.022-.62-1.216 2.22-.244 3.55-13.625 11.77-16.058 12.43-2.433.67-5.839 1.56-19.464 4.22 11.435-3.99 34.548-13.72 35.522-20.64.389 0 1.946-1.63 2.676-2.44zm.73 1.77c1.541-1.11 4.817-2.26 5.596 2-.73.15-2.871-.05-5.596-2z" fill="#fff" fill-rule="evenodd" stroke="#fff"/><path d="m294.886 1172.21c-15.3 6.21-25.075 28.68-30.616 49.55.739.58 1.554 1.14 2.45 1.65 7.286-18.32 16.349-29.94 21.059-34.06 10.452-9.62 20.903 1.25 28.01 9.2 2.619 2.92 4.934 8.27-18.813 21.32-14.711 8.08-24.287 6.92-30.256 3.54-1.516 3.8-2.954 7.9-4.261 12.28 5.175 4.02 11.548 5.46 14.868 4.66 38.044-9.2 48.914-32.61 43.897-52.26-4.013-15.72-19.231-17.14-26.338-15.88z" fill="#fff"/><path d="m266.72 1223.41c-.896-.51-1.711-1.07-2.45-1.65-1.183 4.45-2.173 8.83-2.982 12.96.382.34.773.66 1.171.97 1.307-4.38 2.745-8.48 4.261-12.28z" fill="#fff"/><path d="m253.916 1220.7c-.335 2.01 2.09 6.97 3.344 9.2 1.115 1.86 2.499 3.46 4.028 4.82.809-4.13 1.799-8.51 2.982-12.96-4.268-3.38-5.994-7.63-6.174-8.16-.334-1.01.14-6 .418-8.37-.418-.97-2.257-.08-6.271 11.29-5.016 14.22-21.321 16.31-26.756 7.53s-7.943-7.11-9.197-47.24c-1.004-32.11-7.665-62.16-10.87-73.17l-2.09 16.31c4.041 29.96 10.702 92.06 5.016 100.75-5.685 8.7-14.632 8.64-18.394 7.53-2.788-1.4-8.445-5.35-8.78-10.04.418-2.09 1.003-6.27 0-6.27s-2.09 2.23-2.508 3.35c-1.394 4.04-5.352 12.46-10.034 13.79-5.853 1.68-18.395 1.68-26.338-15.46-7.943-17.15-7.107-18.4-18.395-10.46-3.205 3.07-10.535 13.3-14.214 29.69-4.599 20.48-9.198 23.83-12.5422 23.41-3.3445-.42-13.7962-3.35-11.7059-53.1-3.4838 18.82-6.0201 58.12 11.7059 64.8 2.6477.56 8.6122-1.42 11.2882-13.79 3.344-15.47 15.468-44.32 23.829-38.46 1.115.69 2.509 5.43 7.944 17.14 2.926 5.01 11.371 13.79 23.411 12.12 3.902-.56 12.291-5.1 14.633-18.81 0 6.41 3.344 19.14 16.722 18.81s17.838-22.16 18.395-33.03c1.812 16.59 10.619 45.24 31.355 27.18 2.2-1.97 6.631-8.52 9.41-20.46-.056.82-.126 1.54-.212 2.06z" fill="#fff"/><path d="m254.334 1211.51c0 1.65-.046 4.79-.206 7.13m1.46-7.97c-.396 2.89-.894 5.54-1.46 7.97m10.142 3.12c5.541-20.87 15.316-43.34 30.616-49.55 7.107-1.26 22.325.16 26.338 15.88 5.017 19.65-5.853 43.06-43.897 52.26-3.32.8-9.693-.64-14.868-4.66m1.811-13.93c.739.58 1.554 1.14 2.45 1.65m-2.45-1.65c-4.268-3.38-5.994-7.63-6.174-8.16-.334-1.01.14-6 .418-8.37-.418-.97-2.257-.08-6.271 11.29-5.016 14.22-21.321 16.31-26.756 7.53s-7.943-7.11-9.197-47.24c-1.004-32.11-7.665-62.16-10.87-73.17l-2.09 16.31c4.041 29.96 10.702 92.06 5.016 100.75-5.685 8.7-14.632 8.64-18.394 7.53-2.788-1.4-8.445-5.35-8.78-10.04.418-2.09 1.003-6.27 0-6.27s-2.09 2.23-2.508 3.35c-1.394 4.04-5.352 12.46-10.034 13.79-5.853 1.68-18.395 1.68-26.338-15.46-7.943-17.15-7.107-18.4-18.395-10.46-3.205 3.07-10.535 13.3-14.214 29.69-4.599 20.48-9.198 23.83-12.5422 23.41-3.3445-.42-13.7962-3.35-11.7059-53.1-3.4838 18.82-6.0201 58.12 11.7059 64.8 2.6477.56 8.6122-1.42 11.2882-13.79 3.344-15.47 15.468-44.32 23.829-38.46 1.115.69 2.509 5.43 7.944 17.14 2.926 5.01 11.371 13.79 23.411 12.12 3.902-.56 12.291-5.1 14.633-18.81 0 6.41 3.344 19.14 16.722 18.81s17.838-22.16 18.395-33.03c1.812 16.59 10.619 45.24 31.355 27.18 2.2-1.97 6.631-8.52 9.41-20.46m10.142 3.12c-1.183 4.45-2.173 8.83-2.982 12.96m5.432-11.31c7.286-18.32 16.349-29.94 21.059-34.06 10.452-9.62 20.903 1.25 28.01 9.2 2.619 2.92 4.934 8.27-18.813 21.32-14.711 8.08-24.287 6.92-30.256 3.54zm0 0c-1.516 3.8-2.954 7.9-4.261 12.28m0 0c-1.332 4.47-2.527 9.23-3.527 14.28.464-4.31 1.238-9.54 2.356-15.25m1.171.97c-.398-.31-.789-.63-1.171-.97m0 0c-1.529-1.36-2.913-2.96-4.028-4.82-1.254-2.23-3.679-7.19-3.344-9.2.086-.52.156-1.24.212-2.06" stroke="#fff"/><path d="m674.491 1111.17c3.344 0 10.117 1.17 15.468-.84 5.351-2 11.985-9.47 14.632-12.96-.278 5.16-4.515 17.56-19.231 25.92-3.484.28-11.371.67-15.05 0-.976.28-3.428 1.42-5.435 3.77-2.508 2.92 1.672-10.87 9.616-15.89z" fill="#fff" stroke="#fff"/></svg>