<svg fill="none" height="451" viewBox="0 0 451 451" width="451" xmlns="http://www.w3.org/2000/svg"><circle cx="225.5" cy="225.5" fill="#000" r="225.5"/><g fill="#fff"><path d="m271.537 206.555c-14.004 3.067-31.393.261-45.022-20.053-2.833-3.667-9-6.8-11 10s2.834 25.667 5.5 28c2.857 4.042 7.61 8.754 13.993 12.455-3.873-4.541-7.753-8.282-10.993-10.955l30 7c2.238.979 5.133 4.094 7.267 10.274 4.84-.247 10.02-1.215 15.505-3.118-2.281-11.411-4.042-23.569-5.25-33.603z"/><path d="m254.015 233.002-30-7c3.24 2.673 7.12 6.414 10.993 10.955 6.944 4.025 15.817 6.853 26.274 6.319-2.134-6.18-5.029-9.295-7.267-10.274z"/><path d="m251.515 294.502c-10 28.4-43.166 44.5-58.5 49-28.333 6.167-82.2-.5-71-76.5 1.334-8.667 10.9-34.3 38.5-67.5 10.5-15.5 33.2-60.5 40-116.5-9.166 29.667-34.2 95.3-61 120.5s-36.833 57.5-38.5 70.5c-3.4996 28.167.1 88.1 42.5 102.5s72-5 80.5-13.5c10-10 31.6-34.8 38-74 3.715-22.754 2.219-37.174-.733-45.726-10.457.534-19.33-2.294-26.274-6.319 12.068 14.145 24.078 36.046 16.507 57.545z"/><path d="m281.5 203.243c.367 11.577 1.482 23.106 2.96 33.718 3.103-1.509 6.29-3.317 9.555-5.459 37.2-24.4 50.5-57.833 52.5-71.5 5.667-30.5 10.9-91.4-13.5-91s-46.166 27.1666-54 40.5c-3.333 4.667-9.8 27.7-9 82.5.324 3.807.834 8.835 1.522 14.553 3.583-.784 6.944-1.953 9.963-3.312-.898-28.406 2.711-57.101 16.515-73.241 26-30.4 39.167-23 42.5-15.5 3 15.167-2.8 53.1-50 83.5-2.408 1.798-5.477 3.65-9.015 5.241z"/><path d="m271.537 206.555c1.208 10.034 2.969 22.192 5.25 33.603 2.496-.865 5.055-1.924 7.673-3.197-1.478-10.612-2.593-22.141-2.96-33.718-3.019 1.359-6.38 2.528-9.963 3.312z"/><path d="m283.015 264.002c.667 1.333 3.1 4.2 7.5 5-2.105-8.507-4.328-19.649-6.055-32.041-2.618 1.273-5.177 2.332-7.673 3.197 1.768 8.842 3.849 17.235 6.228 23.844z"/></g><path d="m271.537 206.555c-14.004 3.067-31.393.261-45.022-20.053-2.833-3.667-9-6.8-11 10s2.834 25.667 5.5 28c2.857 4.042 7.61 8.754 13.993 12.455m36.529-30.402c1.208 10.034 2.969 22.192 5.25 33.603m-5.25-33.603c-.688-5.718-1.198-10.746-1.522-14.553-.8-54.8 5.667-77.833 9-82.5 7.834-13.3334 29.6-40.1 54-40.5s19.167 60.5 13.5 91c-2 13.667-15.3 47.1-52.5 71.5-3.265 2.142-6.452 3.95-9.555 5.459m-12.923-30.406c3.583-.784 6.944-1.953 9.963-3.312m-46.492 33.714c-3.873-4.541-7.753-8.282-10.993-10.955l30 7c2.238.979 5.133 4.094 7.267 10.274m-26.274-6.319c6.944 4.025 15.817 6.853 26.274 6.319m-26.274-6.319c12.068 14.145 24.078 36.046 16.507 57.545-10 28.4-43.166 44.5-58.5 49-28.333 6.167-82.2-.5-71-76.5 1.334-8.667 10.9-34.3 38.5-67.5 10.5-15.5 33.2-60.5 40-116.5-9.166 29.667-34.2 95.3-61 120.5s-36.833 57.5-38.5 70.5c-3.4996 28.167.1 88.1 42.5 102.5s72-5 80.5-13.5c10-10 31.6-34.8 38-74 3.715-22.754 2.219-37.174-.733-45.726m0 0c4.84-.247 10.02-1.215 15.505-3.118m0 0c1.768 8.842 3.849 17.235 6.228 23.844.667 1.333 3.1 4.2 7.5 5-2.105-8.507-4.328-19.649-6.055-32.041m-7.673 3.197c2.496-.865 5.055-1.924 7.673-3.197m-2.96-33.718c.367 11.577 1.482 23.106 2.96 33.718m-2.96-33.718c-.898-28.406 2.711-57.101 16.515-73.241 26-30.4 39.167-23 42.5-15.5 3 15.167-2.8 53.1-50 83.5-2.408 1.798-5.477 3.65-9.015 5.241z" stroke="#fff"/></svg>